<svg width="160" height="39" fill="none" xmlns="http://www.w3.org/2000/svg"><path d="M44.266 9.371h3.123v15.62h-3.123V9.37zm-3.351 12.496c-.686-.458-.686-1.372-.686-1.372v-3.657h2.21V13.79h-2.134V9.448h-3.047V20.57c.076 2.515 2.133 4.572 4.647 4.572h.61v-3.2s-.914.304-1.6-.076zM29.79 13.486c-3.2 0-5.79 2.59-5.79 5.79s2.59 5.715 5.714 5.715c.99 0 1.905-.229 2.743-.915v.915h3.048V19.2c0-3.125-2.59-5.715-5.715-5.715zm0 8.61c-1.523 0-2.819-1.296-2.819-2.82 0-1.523 1.296-2.819 2.82-2.819 1.523 0 2.818 1.296 2.818 2.82 0 1.523-1.295 2.818-2.819 2.818zm59.125-8.686c-3.2 0-5.79 2.59-5.79 5.79s2.59 5.79 5.79 5.79 5.79-2.59 5.79-5.79-2.59-5.79-5.79-5.79zm0 8.533a2.731 2.731 0 01-2.742-2.743 2.731 2.731 0 012.742-2.743 2.731 2.731 0 012.743 2.743 2.731 2.731 0 01-2.743 2.743zm54.55-7.772c-.838-.685-1.676-.761-2.743-.761-3.2 0-5.714 2.59-5.714 5.714 0 3.2 2.59 5.79 5.79 5.79s5.791-2.59 5.791-5.79V9.219h-3.048v4.952h-.076zm-2.743 7.848c-1.524 0-2.819-1.295-2.819-2.82 0-1.523 1.295-2.818 2.819-2.818 1.6 0 2.819 1.295 2.819 2.819 0 1.6-1.219 2.819-2.819 2.819zm-11.808-4.038v6.933h3.048v-6.933c.152-.914.914-1.6 1.828-1.6.153 0 .381-.076.457 0V13.41h-.457c-2.59 0-4.647 2.057-4.876 4.571zm30.401 1.219a5.82 5.82 0 00-5.866-5.867 5.821 5.821 0 00-5.867 5.867 5.821 5.821 0 005.867 5.867c2.514 0 4.647-1.6 5.485-3.734h-3.2c-.533.61-1.447.99-2.285.99-1.296 0-2.362-.761-2.896-1.904h8.61v.076c.076-.457.152-.838.152-1.295zm-8.685-1.295c.457-1.067 1.6-1.829 2.819-1.829 1.295 0 2.362.762 2.819 1.829h-5.638zm-28.8-4.495c-3.2 0-5.791 2.59-5.791 5.79s2.591 5.79 5.791 5.79 5.79-2.59 5.79-5.79-2.59-5.79-5.79-5.79zm0 8.533a2.731 2.731 0 01-2.743-2.743 2.731 2.731 0 012.743-2.743 2.731 2.731 0 012.742 2.743c0 1.524-1.295 2.743-2.742 2.743zm-20.801-8.533c-2.59 0-4.724 2.057-4.877 4.571v6.933H99.2v-6.933c.152-.914.914-1.6 1.829-1.6a1.88 1.88 0 011.828 1.524v6.933h3.048v-6.933c-.153-2.438-2.286-4.495-4.876-4.495zm-34.286 4.342c-2.21-.762-1.447-2.21-.228-2.057.762.076 1.067.99 1.067.99l2.514-.99c-.534-1.447-2.057-2.362-3.886-2.362-2.286 0-4.114 1.6-4.114 3.581 0 .99.228 2.057 1.828 2.82 1.6.761 3.505.837 3.353 2.133-.153 1.142-1.6.838-1.905.761-.99-.38-1.143-1.295-1.143-1.295l-2.362.915c.61 2.133 2.59 2.895 4.42 2.895 2.285 0 4.19-1.6 4.19-3.581 0-.99-.457-1.981-1.143-2.59-.076 0-.381-.534-2.59-1.22zm46.172-1.295c.458 0 .915.152 1.296.305l1.524-2.667c-.839-.457-1.829-.762-2.82-.762-3.2 0-5.79 2.59-5.79 5.79s2.59 5.791 5.79 5.791c.991 0 1.905-.228 2.667-.686l-1.447-2.742c-.381.228-.839.304-1.296.304a2.731 2.731 0 01-2.743-2.742c.077-1.372 1.296-2.59 2.819-2.59zm-32.992 0c.457 0 .915.152 1.296.305l1.523-2.667c-.838-.457-1.828-.762-2.819-.762-3.2 0-5.79 2.59-5.79 5.79s2.59 5.791 5.79 5.791c.99 0 1.905-.228 2.667-.686l-1.448-2.742c-.38.228-.838.304-1.295.304a2.732 2.732 0 01-2.743-2.742c.153-1.372 1.372-2.59 2.82-2.59zm-25.14-2.971c-3.2 0-5.79 2.59-5.79 5.79s2.59 5.715 5.713 5.715c.99 0 1.905-.229 2.743-.915v.915h3.048V19.2c.076-3.125-2.514-5.715-5.714-5.715zm0 8.61c-1.524 0-2.82-1.296-2.82-2.82 0-1.523 1.296-2.819 2.82-2.819 1.6 0 2.819 1.296 2.819 2.82.076 1.523-1.22 2.818-2.82 2.818zM10.364 9.524l-9.677 9.6 9.6 9.676 9.753-9.752-9.676-9.524z" fill="#181818"/><path d="M15.086 17.143c.229.61.381 1.295.381 1.98 0 2.82-2.285 5.182-5.18 5.182a5.138 5.138 0 01-5.182-5.181c0-.686.153-1.372.381-1.981-.076.38-.152.762-.152 1.142 0 .915.229 1.753.686 2.515-.457-1.524-.686-3.276.914-4.876.762-.686 1.22-1.524 1.22-1.524s-.077.762-.763 1.676c-.686.914-1.524 2.514-.152 5.029 0 0-.914-2.439.38-4.267 1.22-1.753 1.067-2.59 1.067-2.59s.61 1.066-.228 2.514c-.838 1.447-1.067 3.352.076 5.104 0 0-.99-2.21 0-3.961 1.22-2.362.686-3.81.686-3.81s1.219 1.22.152 3.81c-.99 2.514.457 4.342.457 4.342s-.914-2.133-.076-4.19c1.067-2.514.152-4.19.152-4.19s1.524 1.523.838 3.733c-.609 2.057-.533 2.895-.228 3.962 0 0-.229-1.296.686-3.81.838-2.21-.686-3.885-.686-3.885s1.829.99 1.6 3.352c-.076.838-.686 1.98-.533 3.2.304-1.753.838-2.057 1.066-3.276.229-1.6-1.066-3.124-1.066-3.124 1.295.686 2.361 2.667 1.676 4.495-.686 1.905-.686 3.048-.686 3.048.533-1.981.914-2.057 1.143-3.277.457-1.98-.762-3.657-.762-3.657 2.743 2.59 1.143 6.02 1.143 6.02.762-.839.99-1.982.838-3.124.229-.077.229-.229.152-.381z" fill="#fff"/></svg>