<svg width="242" height="181" viewBox="0 0 242 181" fill="none" xmlns="http://www.w3.org/2000/svg">
<g clip-path="url(#clip0_139_455)">
<path d="M170.009 112.551C170.009 112.551 170.009 112.511 170.009 112.444C170.009 112.376 170.009 112.264 170.009 112.141C170.009 111.866 170.009 111.479 170.009 110.989C170.009 109.977 169.986 108.518 169.969 106.686L170.037 106.753L147.854 106.797L147.965 106.686V109.662C147.965 110.638 147.965 111.603 147.965 112.547L147.858 112.436L163.667 112.484L168.333 112.516H169.594H169.925C169.944 112.513 169.963 112.512 169.983 112.512C170.002 112.512 170.021 112.513 170.04 112.516H169.941H169.622H168.386L163.744 112.548L147.858 112.596H147.746V112.488C147.746 111.544 147.746 110.58 147.746 109.603V106.626C147.974 106.399 147.81 106.562 147.862 106.515L170.045 106.559H170.117V106.626C170.117 108.479 170.085 109.946 170.077 110.969C170.077 111.456 170.077 111.834 170.077 112.11C170.077 112.225 170.077 112.32 170.077 112.396C170.064 112.452 170.041 112.504 170.009 112.551H170.009Z" fill="#E0E0E0"/>
<path d="M173.012 106.685C173.012 106.685 173.012 106.645 173.012 106.573C173.012 106.501 173.012 106.386 173.012 106.262C173.012 105.975 173.012 105.581 172.992 105.086C172.992 104.058 172.968 102.604 172.948 100.818L173.028 100.902L159.699 100.934L159.815 100.818V101.575C159.815 101.831 159.815 102.085 159.815 102.336V103.827C159.815 104.81 159.815 105.758 159.815 106.672L159.707 106.564L169.243 106.616L172.035 106.645H172.781H173.049C173.009 106.647 172.968 106.649 172.929 106.649C172.889 106.649 172.85 106.648 172.809 106.645H172.084L169.327 106.673L159.72 106.725H159.612V106.617C159.612 105.706 159.612 104.758 159.612 103.772V100.827C159.588 100.851 159.828 100.616 159.724 100.716L173.052 100.748H173.136V100.827C173.116 102.636 173.104 104.103 173.092 105.143C173.092 105.633 173.092 106.016 173.072 106.302C173.061 106.431 173.041 106.559 173.012 106.685V106.685V106.685Z" fill="#E0E0E0"/>
<path d="M115.218 30.8438H94.5544V36.307H115.218V30.8438Z" fill="#EBEBEB"/>
<path d="M106.48 42.0611C106.48 42.0611 106.48 42.0254 106.48 41.9616C106.48 41.8978 106.48 41.7938 106.48 41.6825C106.48 41.4234 106.48 41.0649 106.48 40.6062C106.48 39.662 106.46 38.3066 106.444 36.5971L106.508 36.6609L85.8445 36.701C85.892 36.6572 85.7405 36.8086 85.9485 36.5971V42.0522L85.8445 41.9482L100.569 41.9965L104.917 42.0247H106.093H106.4H106.508H106.412H106.117H104.965L100.642 42.0566L85.8452 42.1041H85.7412V36.6052C85.9485 36.3937 85.7969 36.5451 85.8452 36.5013L106.509 36.5414H106.576V36.6052C106.576 38.3311 106.552 39.6976 106.544 40.65C106.544 41.1043 106.544 41.4472 106.544 41.71C106.544 41.8213 106.544 41.9096 106.544 41.9809C106.527 42.0106 106.506 42.0373 106.48 42.0603L106.48 42.0611Z" fill="#E0E0E0"/>
<path d="M86.1832 151.671H65.5198V157.135H86.1832V151.671Z" fill="#EBEBEB"/>
<path d="M77.4488 162.889C77.4481 162.871 77.4473 162.855 77.4473 162.839C77.4473 162.822 77.4481 162.805 77.4495 162.789C77.4495 162.713 77.4495 162.621 77.4495 162.506C77.4495 162.252 77.4495 161.892 77.4495 161.434C77.4495 160.49 77.4295 159.135 77.4176 157.425L77.4815 157.489L56.8143 157.529C56.8626 157.481 56.7103 157.637 56.9221 157.425V158.812C56.9221 159.278 56.9221 159.737 56.9221 160.191V162.881L56.8181 162.777L71.5471 162.821L75.8902 162.853H77.087H77.3938C77.4124 162.85 77.4317 162.848 77.4503 162.848C77.4689 162.848 77.4874 162.85 77.506 162.852H77.4102H77.1152H75.963L71.64 162.884L56.8396 162.928H56.7356V157.433C56.9466 157.221 56.7958 157.373 56.8396 157.325L77.5068 157.369H77.5706V157.413C77.5706 159.138 77.5424 160.505 77.535 161.457C77.535 161.912 77.535 162.255 77.535 162.517C77.535 162.629 77.535 162.717 77.535 162.788C77.5105 162.823 77.4822 162.857 77.4518 162.888L77.4488 162.889Z" fill="#E0E0E0"/>
<path d="M165.957 14.9035C165.957 14.9035 165.957 14.8679 165.957 14.7996C165.957 14.7313 165.957 14.62 165.957 14.4968C165.957 14.2221 165.957 13.8354 165.957 13.341C165.957 12.3285 165.937 10.8744 165.922 9.04169L165.989 9.10924L143.775 9.17308C143.822 9.12112 143.659 9.28442 143.886 9.06174V12.0309C143.886 13.0115 143.886 13.9757 143.886 14.9162L143.775 14.8085L159.588 14.8568L164.255 14.8887H165.515H165.846H165.962C165.962 14.8887 165.93 14.8887 165.858 14.8887H165.543H164.307L159.664 14.9169L143.775 14.9689H143.667V14.8575C143.667 13.917 143.667 12.9528 143.667 11.9722V9.05134L143.783 8.93555L165.966 8.97934H166.034V9.05134C166.034 10.9041 166.006 12.3709 165.998 13.3952C165.998 13.8814 165.998 14.26 165.998 14.5309C165.998 14.6504 165.998 14.7462 165.998 14.8219C165.998 14.8976 165.963 14.9095 165.958 14.9058L165.957 14.9035Z" fill="#E0E0E0"/>
<path d="M168.964 9.04178C168.964 9.04178 168.964 9.00169 168.964 8.93043C168.964 8.85843 168.964 8.74338 168.964 8.61941C168.964 8.32844 168.964 7.93799 168.944 7.42359C168.944 6.39552 168.92 4.94063 168.9 3.15543L168.98 3.23485L155.651 3.26677L155.762 3.15543V6.17209C155.762 7.15265 155.762 8.10501 155.762 9.01728L155.655 8.90965L165.191 8.96161L167.983 8.98982H168.732H169C168.96 8.99279 168.919 8.99427 168.88 8.99427C168.84 8.99427 168.8 8.99279 168.761 8.98982H168.031L165.279 9.02174L155.672 9.0737H155.564V8.96606C155.564 8.05379 155.564 7.10069 155.564 6.12087V3.19625C155.536 3.22001 155.775 2.98099 155.676 3.08491L169.004 3.11683H169.088V3.19625C169.068 5.0015 169.052 6.47197 169.044 7.51192C169.044 7.99812 169.044 8.38485 169.024 8.67137C169.012 8.79608 168.992 8.92078 168.964 9.04252V9.04178Z" fill="#E0E0E0"/>
<path d="M133.433 141.745C131.351 140.673 128.902 140.549 126.589 140.912C125.348 141.119 124.053 141.49 123.211 142.422C122.369 143.355 122.206 144.993 123.175 145.794C123.754 146.268 124.559 146.344 125.305 146.332C127.116 146.312 129.122 145.994 130.566 147.081C131.391 147.703 131.942 148.735 132.927 149.038C133.912 149.341 134.981 148.767 135.491 147.898C135.785 147.331 135.939 146.702 135.939 146.065C135.939 145.691 135.886 145.32 135.783 144.961C135.546 143.582 134.676 142.391 133.434 141.745L133.433 141.745Z" fill="#6B8D72"/>
<path d="M138.202 132.548C136.926 134.365 134.453 133.743 133.308 132.652C132.164 131.56 131.677 129.938 131.234 128.407C130.225 124.904 129.208 121.234 129.958 117.668C130.138 116.588 130.614 115.575 131.329 114.746C131.921 114.082 132.771 113.702 133.661 113.702C133.872 113.702 134.083 113.722 134.289 113.765C135.534 114.092 136.311 115.312 136.869 116.476C138.518 119.9 139.386 123.656 139.402 127.458C139.402 129.227 139.198 131.084 138.205 132.546L138.201 132.547L138.202 132.548Z" fill="#6B8D72"/>
<path d="M141.696 135.153C140.308 133.504 140.053 131.113 140.667 129.072C141.282 127.032 142.661 125.271 144.257 123.844C146.139 122.173 148.335 120.874 150.71 120.038C151.522 119.714 152.39 119.546 153.264 119.546C153.386 119.546 153.509 119.551 153.629 119.556C154.635 119.612 155.547 120.165 156.066 121.027C156.744 122.322 156.094 123.892 155.387 125.175C154.147 127.432 152.726 129.593 151.148 131.627C149.879 133.261 148.423 134.879 146.485 135.612C144.547 136.346 142.536 136.266 141.512 134.923L141.696 135.153Z" fill="#6B8D72"/>
<path d="M138.286 159.944C138.219 159.674 138.178 159.397 138.17 159.119C138.115 158.517 138.039 157.764 137.951 156.867C137.841 155.763 137.668 154.653 137.444 153.565C137.152 152.238 136.747 150.927 136.248 149.663C135.758 148.401 135.081 147.209 134.254 146.136C133.582 145.259 132.719 144.543 131.734 144.043C131.068 143.712 130.352 143.487 129.616 143.382C129.338 143.372 129.06 143.331 128.79 143.263C128.929 143.247 129.07 143.239 129.209 143.239C129.349 143.239 129.489 143.247 129.628 143.263C130.393 143.32 131.145 143.516 131.841 143.836C132.876 144.325 133.787 145.05 134.497 145.949C135.359 147.033 136.06 148.246 136.564 149.534C137.076 150.819 137.477 152.149 137.759 153.499C137.974 154.601 138.122 155.724 138.198 156.843C138.27 157.8 138.297 158.573 138.309 159.111C138.317 159.212 138.322 159.315 138.322 159.417C138.322 159.593 138.31 159.77 138.286 159.944Z" fill="#49614E"/>
<path d="M138.131 158.21C138.115 158.12 138.106 158.028 138.106 157.937C138.106 157.895 138.108 157.853 138.111 157.812V156.716C138.111 155.767 138.111 154.389 138.063 152.691C137.979 149.296 137.688 145.642 137.122 140.485C136.588 135.639 135.866 130.001 135.108 126.334C134.948 125.501 134.785 124.74 134.63 124.095C134.474 123.449 134.358 122.868 134.231 122.409L133.976 121.341C133.938 121.219 133.915 121.093 133.907 120.966C133.966 121.079 134.012 121.2 134.043 121.324C134.123 121.599 134.231 121.946 134.358 122.372C134.486 122.799 134.646 123.392 134.809 124.046C134.973 124.7 135.164 125.453 135.34 126.282C136.276 130.607 136.999 135.028 137.465 139.434C138.031 144.614 138.287 149.3 138.311 152.704C138.311 154.405 138.311 155.784 138.251 156.737C138.222 157.183 138.199 157.534 138.183 157.832C138.176 157.832 138.176 157.834 138.176 157.835C138.176 157.961 138.161 158.087 138.132 158.209L138.131 158.21Z" fill="#49614E"/>
<path d="M138.107 149.141C138.094 148.952 138.087 148.759 138.087 148.569C138.087 148.379 138.094 148.186 138.106 147.996C138.166 146.964 138.287 145.919 138.453 144.897C138.704 143.381 139.045 141.865 139.461 140.383C139.957 138.562 140.592 136.766 141.352 135.04C142.662 131.852 144.551 128.917 146.905 126.405C147.312 125.977 147.751 125.567 148.208 125.192C148.408 125.025 148.607 124.857 148.767 124.722L149.274 124.375C149.578 124.143 149.902 123.935 150.24 123.757C150.292 123.829 148.873 124.665 147.078 126.57C144.805 129.106 142.969 132.023 141.669 135.172C140.921 136.887 140.276 138.667 139.764 140.468C139.342 141.94 138.985 143.438 138.712 144.942C138.476 146.229 138.337 147.281 138.257 148.01C138.24 148.389 138.188 148.769 138.108 149.141H138.107Z" fill="#49614E"/>
<path d="M146.881 165.14L145.972 177.589H129.963L129.053 165.14H146.881Z" fill="#404A4F"/>
<path d="M148.429 160.23H127.147V165.136H148.429V160.23Z" fill="#404A4F"/>
<path d="M148.428 177.115V178.474H147.428H127.498V177.115H148.428Z" fill="#404A4F"/>
<path d="M146.446 180.868L147.428 178.474H128.26L129.405 180.868H146.446Z" fill="#404A4F"/>
<path d="M129.353 169.209C129.353 169.209 129.373 169.249 129.428 169.324L129.668 169.639L130.597 170.835L130.641 170.891L130.681 170.835L132.97 167.667H132.838L135.095 170.855L135.167 170.955L135.243 170.863L137.919 167.675H137.763L137.911 167.858L140.304 170.855L140.383 170.955L140.459 170.851L142.712 167.662H142.581L145.373 170.826L145.425 170.882L145.46 170.818L146.33 169.359C146.421 169.2 146.498 169.072 146.553 168.961C146.609 168.849 146.629 168.825 146.621 168.821C146.586 168.859 146.555 168.901 146.529 168.945L146.281 169.319L145.368 170.754H145.456L142.72 167.566L142.652 167.482L142.588 167.57C141.898 168.538 141.132 169.606 140.311 170.758H140.467L138.074 167.757L137.931 167.573L137.851 167.478L137.776 167.569L135.108 170.757H135.259C134.434 169.613 133.664 168.541 132.978 167.569L132.914 167.473L132.846 167.569L130.605 170.757H130.685L129.716 169.598L129.457 169.295C129.393 169.234 129.358 169.205 129.353 169.207L129.353 169.209Z" fill="#F5F5F5"/>
<path d="M128.834 165.056C128.834 165.112 132.822 165.155 137.792 165.155C142.761 165.155 146.75 165.112 146.75 165.056C146.75 165 142.738 164.957 137.792 164.957C132.846 164.957 128.834 164.985 128.834 165.056Z" fill="#F5F5F5"/>
<path d="M128.024 178.605C128.024 178.661 132.384 178.704 137.759 178.704C143.136 178.704 147.494 178.661 147.494 178.605C147.494 178.549 143.135 178.509 137.759 178.509C132.383 178.509 128.024 178.553 128.024 178.605Z" fill="#F5F5F5"/>
<path d="M236.259 3.25195H169.878V122.402H236.259V3.25195Z" fill="#EBEBEB"/>
<path d="M232.925 6.70654H172.53V118.854H232.925V6.70654Z" fill="#FAFAFA"/>
<path d="M239.066 123.477L236.259 122.406V1.23145H239.066V123.477Z" fill="#E0E0E0"/>
<path d="M187.339 79.1488C192.564 74.292 197.791 69.4374 203.021 64.5836C205.015 62.7346 207.608 60.746 210.164 61.659C211.392 62.0977 212.318 63.1451 213.522 63.6513C215.915 64.6512 218.678 63.2052 220.534 61.368C222.389 59.5309 223.844 57.2357 226.089 55.9048C228.335 54.5739 231.816 54.7453 232.925 57.1006V72.9529L210.132 82.7044L187.339 79.1496V79.1488Z" fill="#F5F5F5"/>
<path d="M172.546 70.0359C178.325 67.6843 184.111 69.6855 188.232 74.3516C189.101 75.3358 189.895 76.4715 191.091 77.0134C192.711 77.7468 194.581 77.1968 196.352 77.0134C196.783 76.9726 197.219 76.9496 197.651 76.9496C202.16 76.9496 206.361 79.244 208.792 83.0378L189.497 92.522L172.546 92.3825V70.0351V70.0359Z" fill="#E0E0E0"/>
<path d="M232.925 70.1153C229.116 68.2781 225.766 70.5139 222.256 72.8528C218.746 75.1918 215.476 78.2203 211.359 79.1653C208.607 79.7992 205.656 79.4481 202.984 80.3923C197.563 82.3252 194.429 89.2032 188.682 89.5298C185.563 89.7095 182.767 87.8159 179.979 86.4018C177.192 84.987 175.014 83.6361 172.545 85.5334V118.855H232.924V70.116L232.925 70.1153Z" fill="#EBEBEB"/>
<path d="M234.233 38.9688H172.53V40.1646H234.233V38.9688Z" fill="#E0E0E0"/>
<path d="M234.233 65.6758H172.53V66.8716H234.233V65.6758Z" fill="#E0E0E0"/>
<path d="M234.233 92.3833H172.53V93.5791H234.233V92.3833Z" fill="#E0E0E0"/>
<path d="M201.201 39.5662L201.201 122.035L204.253 122.035L204.253 39.5662L201.201 39.5662Z" fill="#E0E0E0"/>
<path d="M185.544 6.70654H184.16V39.5662H185.544V6.70654Z" fill="#E0E0E0"/>
<path d="M197.465 6.70654H196.081V39.5662H197.465V6.70654Z" fill="#E0E0E0"/>
<path d="M209.39 6.70654H208.006V39.5662H209.39V6.70654Z" fill="#E0E0E0"/>
<path d="M221.311 6.70654H219.927V39.5662H221.311V6.70654Z" fill="#E0E0E0"/>
<path d="M169.877 1.23145H167.07V123.139H169.877V1.23145Z" fill="#E0E0E0"/>
<path d="M239.066 0H167.07V3.25197H239.066V0Z" fill="#E0E0E0"/>
<path d="M240.969 123.88H165.079V126.908H240.969V123.88Z" fill="#E0E0E0"/>
<path d="M236.259 122.406L240.969 123.88H165.08L169.878 122.406H236.259Z" fill="#EBEBEB"/>
<path d="M80.4432 65.0576H119.517C120.159 65.0576 120.681 65.5787 120.681 66.2215V105.261C120.681 105.904 120.159 106.425 119.516 106.425H80.4432C79.8006 106.425 79.2791 105.904 79.2791 105.261V66.2208C79.2791 65.5787 79.8006 65.0576 80.4439 65.0576H80.4432Z" fill="#F5F5F5"/>
<path d="M119.516 106.426C119.652 106.415 119.787 106.386 119.915 106.337C120.303 106.185 120.578 105.833 120.633 105.421C120.653 104.341 120.633 102.731 120.633 100.663C120.633 96.5222 120.613 90.5408 120.601 83.1491C120.601 79.451 120.601 75.3981 120.601 71.0506V67.7511C120.601 67.1973 120.601 66.6072 120.601 66.0698C120.516 65.5472 120.064 65.1627 119.534 65.1627C119.51 65.1627 119.485 65.1635 119.461 65.165H112.286H80.4473C80.4466 65.165 80.4458 65.165 80.4451 65.165C80.1212 65.165 79.8144 65.3119 79.6101 65.5636C79.512 65.6905 79.4422 65.8375 79.4065 65.9941C79.3887 66.1166 79.379 66.2413 79.379 66.3652C79.379 66.409 79.3805 66.4528 79.382 66.4959V80.8413C79.382 86.1613 79.382 91.2935 79.382 96.183C79.382 98.6295 79.382 101.011 79.382 103.327V105.053C79.3775 105.096 79.3753 105.141 79.3753 105.185C79.3753 105.41 79.437 105.63 79.5544 105.822C79.6985 106.042 79.9184 106.202 80.1725 106.273C80.3678 106.303 80.5655 106.318 80.7631 106.318C80.8322 106.318 80.9013 106.316 80.9696 106.312H83.4502H95.5545L113.083 106.348H117.849H119.089H119.512H119.089H117.849H113.083L95.5545 106.38H83.4502H80.5506C80.5276 106.381 80.5038 106.381 80.4808 106.381C80.3552 106.381 80.2304 106.366 80.1086 106.336C79.8144 106.253 79.5588 106.066 79.3909 105.81C79.2535 105.591 79.1807 105.339 79.1807 105.081C79.1807 105.035 79.1829 104.99 79.1874 104.945C79.1874 104.375 79.1874 103.801 79.1874 103.22C79.1874 100.906 79.1874 98.5249 79.1874 96.0753C79.1874 91.1859 79.1874 86.0529 79.1874 80.7337C79.1874 78.0771 79.1874 75.3714 79.1874 72.616V66.4988C79.1859 66.4573 79.1851 66.415 79.1851 66.3719C79.1851 66.2324 79.1955 66.0913 79.2156 65.9525C79.2594 65.7662 79.3426 65.591 79.4593 65.4389C79.7022 65.1338 80.0699 64.9549 80.46 64.9527H112.298H119.449C119.47 64.9519 119.493 64.9512 119.516 64.9512C119.805 64.9512 120.085 65.0492 120.311 65.228C120.559 65.4262 120.721 65.7113 120.765 66.0245C120.801 66.6183 120.765 67.1684 120.765 67.734V71.0491C120.765 75.3967 120.765 79.4496 120.765 83.1476C120.765 90.5393 120.742 96.5214 120.733 100.661C120.733 102.729 120.733 104.336 120.701 105.443C120.635 105.865 120.347 106.219 119.947 106.371C119.847 106.406 119.742 106.429 119.636 106.439L119.516 106.424V106.426Z" fill="#263238"/>
<path d="M97.7288 71.7931C97.728 71.7746 97.7273 71.756 97.7273 71.7374C97.7273 71.0924 98.2503 70.5698 98.8959 70.5698C99.5415 70.5698 100.065 71.0924 100.065 71.7374C100.065 72.3818 99.5422 72.9043 98.8974 72.9051C98.8773 72.9058 98.8573 72.9066 98.8372 72.9066C98.2251 72.9066 97.7288 72.4107 97.7288 71.7991C97.7288 71.7976 97.7288 71.7953 97.7288 71.7939V71.7931ZM100.824 72.9051C100.824 72.9043 100.824 72.9028 100.824 72.9014C100.824 72.4812 100.483 72.1405 100.062 72.1405C99.641 72.1405 99.3 72.4812 99.3 72.9014C99.3 73.3215 99.641 73.6622 100.062 73.6622C100.063 73.6622 100.064 73.6622 100.066 73.6622C100.505 73.5657 100.818 73.1767 100.818 72.7277C100.818 72.1992 100.389 71.7708 99.8602 71.7708C99.7911 71.7708 99.722 71.7783 99.6552 71.7931L100.824 72.9043V72.9051Z" fill="#263238"/>
<path d="M102.42 70.709V72.8728H102.088L100.892 71.406V72.8728H100.493V70.709H100.824L102.021 72.175V70.709H102.42Z" fill="#263238"/>
<path d="M97.4539 98.7074C97.4531 98.6889 97.4524 98.6696 97.4524 98.651C97.4524 98.006 97.9754 97.4834 98.621 97.4834C99.2666 97.4834 99.7896 98.006 99.7896 98.651C99.7896 99.2953 99.2673 99.8179 98.6225 99.8186C98.6024 99.8194 98.5824 99.8201 98.5623 99.8201C97.9501 99.8201 97.4539 99.3243 97.4539 98.7126C97.4539 98.7111 97.4539 98.7089 97.4539 98.7074ZM100.549 99.8194C100.549 99.3985 100.208 99.0578 99.7874 99.0578C99.3669 99.0578 99.0251 99.3985 99.0251 99.8186C99.0251 100.239 99.3661 100.579 99.7874 100.579C99.7889 100.579 99.7896 100.579 99.7911 100.579C100.231 100.483 100.545 100.093 100.545 99.6427C100.545 99.1135 100.116 98.6844 99.586 98.6844C99.517 98.6844 99.4479 98.6918 99.381 98.7067L100.55 99.8186L100.549 99.8194Z" fill="#263238"/>
<path d="M100.616 97.9621V98.6234H101.662V98.9619H100.616V99.7911H100.218V97.6392H101.813V97.9739L100.616 97.9621Z" fill="#263238"/>
<path d="M102.583 97.9621V98.6234H103.616V98.9619H102.571V99.7911H102.172V97.6392H103.767V97.9739L102.583 97.9621Z" fill="#263238"/>
<path d="M95.9228 76.0764H105.008C105.492 76.0764 105.885 76.4691 105.885 76.9531V94.2476C105.885 94.7316 105.492 95.1243 105.008 95.1243H95.9228C95.4384 95.1243 95.0454 94.7316 95.0454 94.2469V76.9523C95.0454 76.4683 95.4384 76.0757 95.9228 76.0757V76.0764Z" fill="#E0E0E0"/>
<path d="M105.004 95.1245C105.199 95.1104 105.385 95.0377 105.538 94.9174C105.722 94.7675 105.835 94.5478 105.849 94.3117C105.849 94.0289 105.849 93.7023 105.849 93.3356C105.849 91.8496 105.849 89.7214 105.814 87.0952C105.778 84.469 105.814 81.3209 105.794 77.8381V77.1805C105.798 77.1389 105.801 77.0966 105.801 77.0543C105.801 76.8902 105.765 76.7277 105.694 76.5792C105.596 76.4033 105.435 76.2712 105.243 76.2088C105.095 76.1828 104.945 76.1695 104.794 76.1695C104.728 76.1695 104.663 76.1724 104.598 76.1769H95.9271C95.9256 76.1769 95.9234 76.1769 95.9219 76.1769C95.6983 76.1769 95.4858 76.2741 95.3409 76.4441C95.2132 76.5896 95.1433 76.7767 95.1433 76.9697C95.1433 77.0031 95.1456 77.0372 95.15 77.0699V81.4531C95.15 83.3496 95.15 85.1719 95.15 86.92C95.15 88.6614 95.15 90.3153 95.15 91.8652C95.15 92.6423 95.15 93.3876 95.15 94.1091C95.1404 94.1588 95.1352 94.2108 95.1352 94.262C95.1352 94.7022 95.4925 95.0592 95.9331 95.0592C95.9524 95.0592 95.9724 95.0585 95.9917 95.057H96.4947L102.74 95.0889L104.439 95.109H104.882C104.907 95.106 104.931 95.1045 104.956 95.1045C104.98 95.1045 105.005 95.106 105.029 95.1082C105.005 95.1112 104.98 95.1119 104.956 95.1119C104.931 95.1119 104.906 95.1104 104.882 95.1082H104.439L102.74 95.1283L96.4947 95.1602H95.9925C95.9821 95.1602 95.9709 95.1602 95.9605 95.1602C95.7874 95.1602 95.6166 95.1141 95.4658 95.028C95.3023 94.9367 95.1701 94.7972 95.0869 94.6294C95.0215 94.4839 94.9873 94.3258 94.9873 94.167C94.9873 94.1366 94.9888 94.1061 94.991 94.0757C94.991 93.3542 94.991 92.6097 94.991 91.8318C94.991 90.2819 94.991 88.6436 94.991 86.8866C94.991 85.1296 94.991 83.2999 94.991 81.4197C94.991 80.4718 94.991 79.5068 94.991 78.527V77.0483C94.9881 77.0179 94.9866 76.9875 94.9866 76.9563C94.9866 76.7098 95.0742 76.4708 95.234 76.283C95.419 76.0707 95.6871 75.9483 95.9687 75.9483C95.9709 75.9483 95.9732 75.9483 95.9761 75.9483H104.985C105.004 75.9475 105.023 75.9468 105.043 75.9468C105.146 75.9468 105.25 75.9624 105.349 75.9921C105.589 76.0685 105.792 76.2355 105.911 76.4582C105.994 76.6312 106.038 76.8204 106.038 77.012C106.038 77.0587 106.035 77.1055 106.031 77.1515V77.8092C106.031 81.292 106.031 84.4282 106.007 87.0663C105.983 89.7043 105.983 91.8206 105.975 93.3067C105.975 93.6771 105.975 94 105.975 94.291C105.951 94.5389 105.825 94.7668 105.628 94.9204C105.481 95.054 105.289 95.1283 105.091 95.1283C105.063 95.1283 105.034 95.1268 105.006 95.1238L105.004 95.1245Z" fill="#263238"/>
<path d="M104.72 94.0125H96.2093C95.566 94.0125 95.0444 93.4914 95.0444 92.8486V85.6001H105.884V92.8567C105.88 93.4958 105.36 94.0125 104.719 94.0125H104.72Z" fill="#F5F5F5"/>
<path d="M104.72 94.0128C104.934 93.9897 105.139 93.92 105.323 93.8094C105.535 93.6683 105.697 93.4612 105.781 93.22C105.824 92.9869 105.847 92.7494 105.847 92.5119C105.847 92.4027 105.842 92.2921 105.833 92.1838C105.833 90.5901 105.809 88.3142 105.793 85.6004L105.885 85.688H96.2088H95.0446L95.1487 85.5841C95.1487 88.0388 95.1487 90.3659 95.1487 92.474C95.142 92.5386 95.1383 92.6046 95.1383 92.67C95.1383 92.8533 95.165 93.0352 95.2163 93.2111C95.2965 93.4315 95.4503 93.6186 95.6509 93.7411C95.8277 93.8517 96.0327 93.9103 96.2415 93.9103C96.2638 93.9103 96.2868 93.9096 96.3091 93.9081H97.023H99.6195L103.361 93.94H104.374H104.637H104.729H104.637H104.374H103.361L99.6195 93.9719H97.023H96.3091C96.2816 93.9734 96.2541 93.9742 96.2274 93.9742C95.9911 93.9742 95.7601 93.9081 95.5595 93.7841C95.3247 93.6409 95.1435 93.4234 95.0446 93.1665C94.9941 93.0396 94.9659 92.9045 94.9607 92.7679V92.3693C94.9607 90.2575 94.9607 87.9342 94.9607 85.4794V85.3755H96.2289H105.905H105.992V85.4631C105.992 88.1769 105.965 90.4401 105.957 92.0464C105.957 92.2417 105.957 92.445 105.957 92.6083C105.957 92.6284 105.958 92.6499 105.958 92.6707C105.958 92.8206 105.931 92.9698 105.881 93.1101C105.788 93.364 105.61 93.5793 105.379 93.7195C105.237 93.8042 105.079 93.8576 104.916 93.8747C104.857 93.9281 104.792 93.9742 104.72 94.0105V94.0128Z" fill="#263238"/>
<path d="M100.465 79.6669C100.828 79.6669 101.123 79.3724 101.123 79.0092C101.123 78.646 100.828 78.3516 100.465 78.3516C100.101 78.3516 99.8066 78.646 99.8066 79.0092C99.8066 79.3724 100.101 79.6669 100.465 79.6669Z" fill="#6B8D72"/>
<path d="M114.476 85.6008C114.476 86.3312 113.884 86.9243 113.152 86.9243C112.421 86.9243 111.828 86.332 111.828 85.6016C111.828 84.8712 112.421 84.2788 113.152 84.2788C113.153 84.2788 113.155 84.2788 113.156 84.2788C113.885 84.2788 114.476 84.8697 114.476 85.5979C114.476 85.5993 114.476 85.6008 114.476 85.6016V85.6008Z" fill="#E0E0E0"/>
<path d="M114.476 85.6009C114.476 85.6009 114.456 85.4814 114.397 85.2862C114.312 85.0145 114.141 84.7762 113.91 84.6085C113.7 84.4556 113.446 84.3732 113.186 84.3732C112.505 84.3732 111.953 84.9247 111.953 85.6046C111.953 86.2846 112.505 86.8361 113.186 86.8361C113.446 86.8361 113.7 86.7537 113.91 86.6008C114.141 86.4315 114.312 86.1925 114.397 85.9194C114.457 85.7241 114.461 85.6083 114.476 85.6083C114.492 85.6618 114.5 85.7182 114.5 85.7739C114.5 85.8295 114.492 85.8852 114.476 85.9394C114.415 86.246 114.247 86.5213 114.002 86.7166C113.754 86.9118 113.449 87.0179 113.134 87.0179C112.977 87.0179 112.821 86.9912 112.673 86.94C112.108 86.7411 111.73 86.2074 111.73 85.6091C111.73 85.0101 112.109 84.4763 112.674 84.2782C112.823 84.2262 112.979 84.1987 113.136 84.1987C113.444 84.1987 113.743 84.3012 113.986 84.489C114.23 84.6849 114.398 84.9596 114.461 85.2661C114.481 85.3292 114.493 85.3953 114.493 85.4614C114.493 85.5081 114.487 85.5549 114.476 85.6009Z" fill="#263238"/>
<path d="M114.125 84.752C113.612 85.4497 112.99 86.0614 112.282 86.5609C112.511 86.1913 112.798 85.8595 113.131 85.5804C113.417 85.2552 113.752 84.9746 114.124 84.752H114.125Z" fill="#263238"/>
<path d="M114.029 86.533C113.676 86.2814 113.353 85.9874 113.068 85.6601C112.733 85.3832 112.433 85.0633 112.178 84.7114C112.571 84.9074 112.923 85.1783 113.211 85.5086C113.549 85.7915 113.828 86.1403 114.029 86.5323V86.533Z" fill="#263238"/>
<path d="M89.4935 85.6008C89.4935 86.3312 88.9006 86.9243 88.1689 86.9243C87.4386 86.9243 86.845 86.332 86.845 85.6016C86.845 84.8712 87.4378 84.2788 88.1689 84.2788C88.8999 84.2788 89.4927 84.8712 89.4927 85.6016L89.4935 85.6008Z" fill="#E0E0E0"/>
<path d="M89.4936 85.6009C89.4617 85.4977 89.4342 85.3923 89.4141 85.2862C89.3272 85.0153 89.1571 84.7777 88.9275 84.6092C88.7158 84.4541 88.4595 84.3702 88.1965 84.3702C87.5145 84.3702 86.9603 84.9232 86.9603 85.6054C86.9603 86.2875 87.5138 86.8406 88.1965 86.8406C88.4595 86.8406 88.7158 86.7567 88.9275 86.6015C89.1578 86.4316 89.328 86.1925 89.4141 85.9201C89.4342 85.8155 89.4609 85.7108 89.4936 85.6091C89.5085 85.6633 89.5159 85.719 89.5159 85.7746C89.5159 85.8303 89.5085 85.886 89.4936 85.9402C89.4335 86.2475 89.2656 86.5236 89.0189 86.7173C88.7723 86.9126 88.4669 87.0187 88.1519 87.0187C87.9952 87.0187 87.8392 86.992 87.6913 86.94C87.126 86.7418 86.7471 86.2081 86.7471 85.6091C86.7471 85.0101 87.126 84.4764 87.6913 84.2782C87.8414 84.2247 87.9989 84.1973 88.1579 84.1973C88.4706 84.1973 88.7745 84.3034 89.0189 84.4971C89.2633 84.6916 89.432 84.967 89.4936 85.2743C89.5077 85.3278 89.5144 85.3827 89.5144 85.4376C89.5144 85.4926 89.507 85.5475 89.4936 85.6009Z" fill="#263238"/>
<path d="M89.142 84.752C88.6264 85.4475 88.0038 86.0584 87.2996 86.5609C87.5269 86.1905 87.8144 85.8587 88.1487 85.5811C88.4333 85.2545 88.7691 84.9739 89.1413 84.7527H89.142V84.752Z" fill="#263238"/>
<path d="M89.0465 86.5332C88.3815 85.981 87.7568 85.3678 87.1914 84.7124C87.5859 84.9061 87.9395 85.1786 88.2285 85.5089C88.5636 85.7947 88.8414 86.1428 89.0465 86.5325V86.5332Z" fill="#263238"/>
<path d="M79.8653 110.714H97.8327C98.2643 110.714 98.6142 111.063 98.6142 111.495V129.447C98.6142 129.879 98.2643 130.228 97.8327 130.228H79.8653C79.4337 130.228 79.0837 129.879 79.0837 129.447V111.495C79.0837 111.063 79.4344 110.713 79.866 110.713L79.8653 110.714Z" fill="#F5F5F5"/>
<path d="M97.8291 130.228C97.8291 130.228 97.9011 130.228 98.0245 130.192C98.2087 130.138 98.3677 130.019 98.471 129.858C98.5594 129.656 98.6054 129.438 98.6054 129.217C98.6054 129.127 98.5972 129.037 98.5824 128.949C98.5824 128.575 98.5824 128.152 98.5824 127.658C98.5824 125.71 98.5623 122.904 98.5467 119.441C98.5467 117.703 98.5467 115.802 98.5467 113.766V112.208C98.5467 111.949 98.5467 111.67 98.5467 111.411C98.5207 111.169 98.3692 110.958 98.1478 110.857C98.0482 110.814 97.9405 110.793 97.8328 110.793C97.8179 110.793 97.8038 110.793 97.789 110.794H94.8418H79.9018C79.6061 110.796 79.3446 110.987 79.2525 111.268C79.2339 111.337 79.2228 111.407 79.2205 111.479V117.974C79.2205 120.469 79.2205 122.88 79.2205 125.175C79.2205 126.319 79.2205 127.439 79.2205 128.527V129.324C79.2176 129.349 79.2161 129.374 79.2161 129.4C79.2161 129.617 79.3164 129.823 79.4873 129.957C79.5786 130.029 79.6871 130.077 79.8023 130.093C79.91 130.093 80.0534 130.093 80.1811 130.093H80.9508H86.6341L94.8582 130.129L97.0958 130.149H97.6783C97.8098 130.149 97.8737 130.149 97.8737 130.149C97.8417 130.15 97.8083 130.151 97.7756 130.151C97.7429 130.151 97.7102 130.15 97.6775 130.149H97.0951L94.8574 130.169L86.6334 130.201H80.9501H80.1804C80.115 130.204 80.0474 130.206 79.9813 130.206C79.9152 130.206 79.8476 130.204 79.7822 130.2C79.6366 130.178 79.4991 130.119 79.3833 130.028C79.1678 129.859 79.0415 129.6 79.0415 129.326C79.0415 129.302 79.0422 129.279 79.0445 129.256C79.0445 128.988 79.0445 128.718 79.0445 128.458C79.0445 127.37 79.0445 126.251 79.0445 125.107C79.0445 122.812 79.0445 120.401 79.0445 117.906C79.0445 116.655 79.0445 115.387 79.0445 114.097V111.411C79.0475 111.318 79.0623 111.225 79.0883 111.136C79.2072 110.769 79.5482 110.52 79.9337 110.518H94.8738H97.8209C97.8387 110.517 97.8566 110.517 97.8744 110.517C98.0051 110.517 98.1359 110.544 98.2555 110.598C98.5356 110.727 98.728 110.992 98.7622 111.299C98.7622 111.585 98.7622 111.837 98.7622 112.096C98.7622 112.622 98.7622 113.144 98.7622 113.654C98.7622 115.69 98.7622 117.591 98.7622 119.329C98.7622 122.792 98.7384 125.598 98.7302 127.546C98.7302 128.032 98.7302 128.463 98.7302 128.837C98.7302 129.024 98.7302 129.196 98.7302 129.355C98.7169 129.712 98.4672 130.017 98.1203 130.1C98.0371 130.169 97.9361 130.213 97.8291 130.228Z" fill="#263238"/>
<path d="M94.9772 120.473C94.9378 120.008 94.865 119.544 94.7617 119.09C94.4348 117.859 93.7031 116.771 92.6838 116.005C91.7083 115.268 90.5189 114.868 89.2961 114.868C88.6401 114.868 87.9878 114.984 87.3719 115.208C86.3333 115.585 85.4277 116.265 84.7755 117.156C84.0704 118.114 83.6893 119.273 83.6893 120.462C83.6893 121.651 84.0704 122.81 84.7755 123.767C85.1075 124.227 85.5117 124.631 85.9715 124.963C86.4024 125.287 86.8801 125.546 87.3875 125.728C88.0049 125.952 88.6579 126.067 89.3162 126.067C89.6557 126.067 89.9959 126.036 90.3302 125.975C91.1898 125.819 92.0025 125.461 92.6994 124.935C93.7187 124.169 94.4512 123.081 94.7766 121.85C94.8791 121.398 94.9526 120.934 94.992 120.471C95.0314 120.009 94.992 120.5 94.992 120.563V120.834C94.9928 120.981 94.9801 121.127 94.9564 121.272C94.9363 121.473 94.8999 121.675 94.8486 121.87C94.7261 122.409 94.518 122.928 94.235 123.404C93.4 124.834 91.9847 125.834 90.3585 126.145C90.0034 126.212 89.6401 126.246 89.279 126.246C88.6111 126.246 87.9484 126.131 87.3199 125.906C86.2427 125.517 85.3037 124.815 84.6239 123.894C83.8892 122.903 83.4917 121.702 83.4917 120.469C83.4917 119.235 83.8892 118.034 84.6246 117.044C84.9664 116.574 85.3824 116.159 85.8527 115.817C86.2969 115.477 86.7932 115.207 87.3199 115.02C87.9492 114.793 88.6141 114.676 89.2835 114.676C89.6438 114.676 90.0041 114.71 90.3585 114.777C91.9832 115.093 93.397 116.093 94.2357 117.518C94.5188 117.994 94.7268 118.514 94.8501 119.054C94.9006 119.25 94.9378 119.45 94.9579 119.651C94.9816 119.796 94.9935 119.943 94.9935 120.09V120.361C94.9943 120.367 94.9943 120.374 94.9943 120.381C94.9943 120.412 94.9883 120.442 94.9772 120.472V120.473Z" fill="#263238"/>
<path d="M102.128 110.714H120.096C120.527 110.714 120.877 111.063 120.877 111.495V129.447C120.877 129.879 120.527 130.228 120.095 130.228H102.127C101.696 130.228 101.346 129.879 101.346 129.447V111.495C101.346 111.063 101.696 110.713 102.127 110.713L102.128 110.714Z" fill="#F5F5F5"/>
<path d="M120.096 130.228C120.096 130.228 120.163 130.228 120.287 130.192C120.471 130.138 120.63 130.019 120.734 129.858C120.822 129.656 120.868 129.438 120.868 129.217C120.868 129.127 120.86 129.037 120.845 128.949C120.845 128.575 120.845 128.152 120.845 127.658C120.845 125.71 120.825 122.904 120.813 119.441C120.813 117.703 120.813 115.802 120.813 113.766V112.208C120.813 111.949 120.813 111.67 120.813 111.411C120.787 111.169 120.636 110.958 120.414 110.857C120.315 110.814 120.207 110.793 120.099 110.793C120.084 110.793 120.07 110.793 120.055 110.794H117.108H102.168C101.872 110.796 101.61 110.987 101.518 111.268C101.5 111.337 101.489 111.407 101.486 111.479V117.974C101.486 120.469 101.486 122.88 101.486 125.175C101.486 126.319 101.486 127.439 101.486 128.527V129.324C101.484 129.348 101.483 129.371 101.483 129.394C101.483 129.613 101.582 129.821 101.753 129.958C101.844 130.029 101.954 130.076 102.068 130.093C102.179 130.093 102.319 130.093 102.447 130.093H103.217H108.9L117.124 130.129L119.362 130.149H119.944H120.143C120.11 130.15 120.076 130.151 120.044 130.151C120.01 130.151 119.977 130.15 119.944 130.149H119.362L117.124 130.169L108.9 130.201H103.217H102.419C102.353 130.204 102.286 130.206 102.22 130.206C102.153 130.206 102.086 130.204 102.02 130.2C101.875 130.178 101.737 130.119 101.622 130.028C101.406 129.859 101.28 129.6 101.28 129.326C101.28 129.302 101.281 129.279 101.283 129.256V128.458C101.283 127.37 101.283 126.251 101.283 125.107C101.283 122.812 101.283 120.401 101.283 117.906C101.283 116.655 101.283 115.387 101.283 114.097V111.411C101.286 111.318 101.301 111.225 101.327 111.136C101.445 110.769 101.786 110.52 102.172 110.518H117.112H120.059C120.077 110.517 120.095 110.517 120.113 110.517C120.243 110.517 120.374 110.544 120.494 110.598C120.774 110.727 120.966 110.992 121 111.299C121 111.585 121 111.837 121 112.096V113.654C121 115.69 121 117.591 121 119.329C121 122.792 120.977 125.598 120.969 127.546C120.969 128.032 120.969 128.463 120.969 128.837V129.355C120.955 129.712 120.706 130.017 120.359 130.1C120.284 130.166 120.193 130.21 120.096 130.228Z" fill="#263238"/>
<path d="M104.545 113.256H117.563C118.045 113.256 118.436 113.647 118.436 114.129V127.136C118.436 127.618 118.045 128.009 117.562 128.009H104.545C104.063 128.009 103.671 127.617 103.671 127.136V114.129C103.671 113.648 104.062 113.256 104.545 113.256Z" fill="#F5F5F5"/>
<path d="M117.575 128.009C117.767 127.994 117.95 127.923 118.102 127.805C118.282 127.658 118.395 127.444 118.413 127.212C118.413 126.937 118.413 126.61 118.413 126.247C118.413 124.781 118.393 122.661 118.381 120.086C118.381 118.783 118.381 117.361 118.381 115.83V114.662C118.381 114.467 118.381 114.264 118.381 114.072C118.348 113.695 118.052 113.393 117.675 113.352H115.785H104.586C104.154 113.362 103.808 113.715 103.808 114.148C103.808 114.175 103.81 114.201 103.812 114.228V118.544C103.812 120.417 103.812 122.222 103.812 123.943C103.812 124.804 103.812 125.641 103.812 126.457V127.063C103.811 127.081 103.81 127.099 103.81 127.117C103.81 127.281 103.859 127.441 103.952 127.577C104.055 127.722 104.203 127.829 104.374 127.88C104.512 127.906 104.651 127.92 104.792 127.92C104.836 127.92 104.881 127.918 104.925 127.916H109.185L115.351 127.948L117.026 127.968H117.465C117.49 127.965 117.514 127.963 117.539 127.963C117.563 127.963 117.588 127.965 117.612 127.968C117.588 127.97 117.563 127.972 117.539 127.972C117.514 127.972 117.49 127.97 117.465 127.968H117.026L115.351 127.988L109.185 128.024H104.925C104.874 128.027 104.823 128.029 104.772 128.029C104.621 128.029 104.47 128.013 104.322 127.983C104.114 127.922 103.932 127.791 103.807 127.613C103.692 127.449 103.631 127.253 103.631 127.053C103.631 127.035 103.631 127.017 103.632 126.999C103.632 126.8 103.632 126.601 103.632 126.394C103.632 125.578 103.632 124.74 103.632 123.879C103.632 122.158 103.632 120.353 103.632 118.48C103.632 117.542 103.632 116.591 103.632 115.627V114.164C103.63 114.136 103.628 114.107 103.628 114.079C103.628 113.833 103.718 113.596 103.879 113.411C104.065 113.201 104.332 113.081 104.613 113.081H115.812H117.089C117.3 113.081 117.487 113.081 117.719 113.081C117.947 113.104 118.16 113.208 118.321 113.371C118.478 113.533 118.573 113.747 118.588 113.973C118.588 114.184 118.588 114.371 118.588 114.575V115.742C118.588 117.272 118.588 118.695 118.588 119.999C118.588 122.589 118.56 124.693 118.552 126.16C118.552 126.526 118.552 126.846 118.552 127.128C118.528 127.374 118.402 127.6 118.205 127.75C118.058 127.915 117.847 128.01 117.626 128.01C117.609 128.01 117.592 128.009 117.575 128.009Z" fill="#263238"/>
<path d="M110.942 127.897C110.882 127.897 110.838 124.618 110.838 120.577C110.838 116.537 110.882 113.256 110.942 113.256C111.002 113.256 111.046 116.536 111.046 120.577C111.046 124.618 110.999 127.897 110.942 127.897Z" fill="#263238"/>
<path d="M179.76 180.868V48.3369H177.256V180.896L179.76 180.868Z" fill="#263238"/>
<path d="M177.256 180.897C177.256 180.897 177.256 180.666 177.256 180.215C177.256 179.765 177.256 179.091 177.256 178.223C177.256 176.458 177.256 173.859 177.236 170.512C177.236 163.809 177.236 154.114 177.204 142.131C177.204 118.154 177.184 85.0151 177.172 48.3461V48.2266H179.884V48.3305C179.884 84.9921 179.86 118.135 179.852 142.104C179.852 154.083 179.828 163.774 179.82 170.473C179.82 173.816 179.82 176.415 179.8 178.18C179.8 179.06 179.8 179.73 179.8 180.172C179.8 180.614 179.8 180.854 179.8 180.854C179.8 180.854 179.8 180.623 179.8 180.172C179.8 179.722 179.8 179.048 179.8 178.18C179.8 176.415 179.8 173.817 179.78 170.473C179.78 163.774 179.76 154.083 179.748 142.104C179.748 118.135 179.728 85.004 179.716 48.3305L179.82 48.4344H177.315L177.419 48.3305C177.419 84.9921 177.395 118.138 177.387 142.116C177.387 154.098 177.363 163.793 177.355 170.496C177.355 173.843 177.355 176.442 177.335 178.207C177.335 179.088 177.335 179.757 177.335 180.2C177.335 180.642 177.256 180.897 177.256 180.897V180.897Z" fill="#263238"/>
<path d="M164.198 30.7075L154.889 72.2705H202.127L191.502 30.8352L164.198 30.7075Z" fill="#EB8B55"/>
<path d="M154.562 84.5764C154.562 84.6558 155.028 84.1577 155.727 83.3806L158.451 80.3364L161.179 77.2923L162.017 76.38C162.221 76.1685 162.337 76.0534 162.348 76.0653C162.274 76.1989 162.183 76.3236 162.08 76.4357C161.897 76.6628 161.626 76.9894 161.282 77.3881C160.604 78.1853 159.659 79.2809 158.598 80.4767C157.537 81.6725 156.556 82.7318 155.806 83.4815C155.444 83.8564 155.136 84.1548 154.917 84.3463C154.832 84.422 154.74 84.4932 154.646 84.5571C154.62 84.5749 154.589 84.586 154.558 84.589C154.546 84.6009 154.562 84.569 154.562 84.5771V84.5764Z" fill="#263238"/>
<path d="M160.142 94.7536C160.095 94.7254 162.304 90.769 165.08 85.9108C167.856 81.0532 170.145 77.1443 170.197 77.1681C170.249 77.1918 168.035 81.1527 165.259 86.0147C162.484 90.8767 160.194 94.7811 160.142 94.7536Z" fill="#263238"/>
<path d="M201.56 81.7513C200.459 80.9905 199.386 80.1636 198.372 79.2936C197.313 78.4815 196.291 77.6004 195.329 76.6748C196.427 77.4357 197.5 78.2626 198.516 79.1333C199.574 79.9453 200.596 80.8264 201.559 81.7521H201.561L201.56 81.7513Z" fill="#263238"/>
<path d="M201.56 92.8849C201.501 92.8404 201.448 92.7892 201.4 92.7335L200.969 92.2674C200.599 91.8687 200.06 91.2712 199.374 90.5542C198.033 89.1119 196.143 87.1552 194.049 84.9989C191.956 82.8433 190.061 80.8703 188.76 79.3998C188.098 78.6664 187.563 78.0652 187.225 77.6383L186.826 77.1484C186.776 77.0935 186.734 77.0311 186.698 76.9658C186.757 77.0111 186.811 77.0638 186.858 77.121L187.289 77.5871C187.659 77.9857 188.198 78.5833 188.884 79.3011C190.224 80.7433 192.118 82.7 194.212 84.8564C196.306 87.012 198.2 88.985 199.501 90.4554C200.159 91.1888 200.697 91.7908 201.033 92.2169L201.431 92.7068C201.481 92.7602 201.524 92.8211 201.559 92.8857L201.56 92.8849Z" fill="#263238"/>
<path d="M163.991 72.2825C163.931 72.2825 165.267 62.966 166.975 51.4932C168.682 40.0204 170.11 30.7277 170.165 30.7358C170.221 30.744 168.885 40.0486 167.182 51.5251C165.479 63.0017 164.047 72.2907 163.991 72.2825Z" fill="#263238"/>
<path d="M170.276 26.7909C170.224 26.8191 169.251 24.9099 168.102 22.5309C166.954 20.1519 166.064 18.2071 166.108 18.1833C166.152 18.1596 167.133 20.0643 168.282 22.4433C169.431 24.8224 170.328 26.7671 170.276 26.7909Z" fill="#263238"/>
<path d="M177.02 12.3613C177.076 12.3613 177.124 15.669 177.124 19.7456C177.124 23.8223 177.076 27.1061 177.02 27.1061C176.965 27.1061 176.916 23.803 176.916 19.7263C176.916 15.6497 176.98 12.3621 177.02 12.3621V12.3613Z" fill="#263238"/>
<path d="M186.708 16.653C186.763 16.653 186.049 18.6891 185.113 21.152C184.175 23.6149 183.378 25.5953 183.326 25.5753C183.274 25.5552 183.988 23.5429 184.922 21.0763C185.855 18.6097 186.656 16.6329 186.708 16.653H186.708Z" fill="#263238"/>
<path d="M15.726 134.249C15.726 134.249 9.26863 146.985 9.0933 151.436C8.91798 155.887 9.0933 164.837 9.0933 164.837L11.1393 180.881H45.1833L44.0266 150.596C44.0266 150.596 46.771 143.248 45.3386 136.345L15.7253 134.249H15.726Z" fill="#263238"/>
<path d="M37.171 140.772C37.171 140.772 37.1472 140.84 37.0796 140.952L36.7802 141.45C36.6487 141.665 36.4852 141.924 36.2735 142.211C36.0625 142.498 35.8389 142.845 35.5477 143.187C35.2565 143.53 34.9615 143.924 34.5982 144.314C34.2357 144.705 33.8449 145.112 33.4259 145.53C32.4921 146.416 31.4795 147.241 30.4201 147.976C29.3436 148.696 28.2092 149.344 27.0398 149.896C26.493 150.135 25.9789 150.374 25.4805 150.55C24.982 150.725 24.5154 150.896 24.0845 151.028C23.6536 151.159 23.2591 151.259 22.9159 151.351C22.6225 151.431 22.3223 151.498 22.0207 151.546L21.4501 151.65C21.416 151.654 21.3818 151.657 21.3484 151.657C21.3142 151.657 21.28 151.655 21.2466 151.65C21.309 151.621 21.3744 151.599 21.442 151.586L22.0044 151.451C22.2473 151.395 22.5467 151.323 22.8855 151.22C23.2242 151.116 23.6232 151.02 24.0422 150.87C24.4612 150.718 24.9314 150.575 25.418 150.372C25.9047 150.168 26.4188 149.945 26.9574 149.702C28.1081 149.147 29.2322 148.5 30.2931 147.787C31.3398 147.057 32.3442 146.245 33.2811 145.376C33.68 144.977 34.1109 144.579 34.4578 144.18C34.8048 143.781 35.1361 143.423 35.4229 143.076C35.7104 142.73 35.9496 142.407 36.165 142.124C36.3805 141.841 36.564 141.594 36.6992 141.387L37.0305 140.913C37.0736 140.861 37.1204 140.813 37.171 140.771V140.772Z" fill="#455A64"/>
<path d="M26.2427 180.897C26.1825 180.897 25.8118 174.206 25.4129 165.946C25.0139 157.685 24.7346 150.982 24.7948 150.978C24.855 150.974 25.2212 157.673 25.6202 165.934C26.0191 174.195 26.3103 180.897 26.2427 180.897Z" fill="#455A64"/>
<path d="M25.7688 141.809C25.6611 142.214 25.5266 142.615 25.3699 143.004C25.0616 143.958 24.8194 144.934 24.6493 145.921C24.4791 146.907 24.3811 147.914 24.361 148.913C24.364 149.016 24.3655 149.125 24.3655 149.229C24.3655 149.543 24.3521 149.858 24.3253 150.17C24.2919 150.061 24.2726 149.949 24.2696 149.835C24.2369 149.529 24.2154 149.221 24.2132 148.914C24.2124 148.811 24.2109 148.704 24.2109 148.601C24.2109 147.691 24.2904 146.782 24.445 145.886C24.6158 144.888 24.887 143.901 25.2436 142.954C25.3833 142.591 25.5066 142.301 25.6069 142.106C25.6455 141.999 25.7005 141.899 25.7696 141.81L25.7688 141.809Z" fill="#455A64"/>
<path d="M48.7649 82.154C47.4128 80.1617 45.8333 77.9779 46.1728 75.587C46.3801 74.1566 47.2738 72.8569 47.2813 71.4072C47.2813 68.801 44.5251 66.9601 44.0466 64.3978C43.5563 61.7715 45.5778 59.345 45.8935 56.6906C46.1409 54.6344 45.3467 52.6184 44.9002 50.5979C43.9627 46.3178 45.8579 39.5675 40.2295 33.1519L39.867 37.898C37.2549 40.8026 36.353 44.8162 35.5477 48.6575C33.5054 58.3407 31.4594 68.1515 31.9579 78.0388C32.1251 81.5298 32.6956 85.2115 34.9415 87.8934C37.2668 90.6829 41.0757 91.878 44.693 91.7466C46.8905 91.6628 49.3755 90.8655 50.3124 88.8732C51.345 86.6976 50.1133 84.1508 48.7649 82.1548V82.154Z" fill="#263238"/>
<path d="M6.92397 57.0408C5.67513 58.2938 4.97307 59.9914 4.97307 61.7595C4.97307 62.8329 5.23235 63.8921 5.72713 64.8437C6.39353 66.0395 7.44624 67.0595 7.88456 68.3703C8.39494 69.9002 7.9685 71.6178 7.16244 73.0171C6.35638 74.4155 5.20412 75.5794 4.13952 76.7946C1.57498 79.7073 -0.646334 83.5887 0.45838 87.3032C0.901157 88.7736 1.83872 90.0927 2.13737 91.5787C2.53631 93.4834 1.82609 95.4639 2.13737 97.3767C2.48431 99.4314 3.93894 101.129 5.91806 101.787C6.41581 101.936 6.93362 102.012 7.45367 102.012C8.9915 102.012 10.4565 101.349 11.4699 100.193C13.209 98.1324 13.0456 95.1439 13.105 92.4465C13.2142 87.554 14.3821 82.7225 16.5083 78.3103C17.1301 77.0314 17.8322 75.7761 18.1992 74.4007C18.5662 73.026 18.558 71.4798 17.8002 70.2721L6.92322 57.04L6.92397 57.0408Z" fill="#263238"/>
<path d="M38.168 43.4722C38.2504 43.8455 38.4406 44.1862 38.7148 44.4527C38.9347 44.7623 39.24 45.0035 39.5921 45.146C39.6278 45.0985 39.2571 44.7756 38.87 44.3169C38.6576 44.0185 38.4235 43.7349 38.168 43.4722H38.1672H38.168Z" fill="#455A64"/>
<path d="M15.682 54.0914C14.6331 51.1623 13.5959 48.2258 13.0818 45.1453C12.567 42.0648 12.5514 38.8693 13.5484 35.9246C13.6999 35.4785 15.0157 32.4737 15.4867 32.5056C15.8217 32.5294 15.0402 35.3189 15.2192 35.6062C16.9183 38.3356 17.4569 41.6632 17.2934 44.8751C17.107 47.9898 16.5713 51.094 15.7006 54.0906L15.682 54.0921V54.0914Z" fill="#263238"/>
<path d="M23.9976 79.6314C19.1828 79.5178 15.3352 75.5815 15.3352 70.7677C15.3352 70.7611 15.3352 70.7514 15.3352 70.7447L15.3991 41.7264C15.168 33.928 19.5148 27.2971 27.3199 27.2808L28.042 27.3208C35.2988 27.7328 41.0267 33.6466 41.2042 40.9055C41.3677 47.6796 40.9412 53.5852 40.6939 57.192C40.2028 64.6602 33.2305 65.7603 33.2305 65.7603C33.2305 65.7603 33.1109 68.6849 33.0827 70.8813C33.0247 75.7396 29.065 79.6507 24.2011 79.6507C24.1335 79.6507 24.0637 79.65 23.9976 79.6485V79.6322V79.6314Z" fill="#FFBE9D"/>
<path d="M33.2305 65.7597C32.4126 65.9208 31.579 66.0024 30.7447 66.0024C28.1594 66.0024 25.6305 65.2223 23.4954 63.7674C21.3603 62.3125 25.6573 68.2181 33.1473 67.7245L33.2305 65.7597Z" fill="#EB996E"/>
<path d="M38.6466 46.9827C38.6384 47.5617 38.1689 48.0286 37.5902 48.0345C37.5716 48.0353 37.553 48.036 37.5337 48.036C36.9802 48.036 36.5271 47.5951 36.5129 47.0421C36.5219 46.4646 36.9884 45.9984 37.5656 45.9903C37.5842 45.9895 37.6035 45.9888 37.6221 45.9888C38.1763 45.9888 38.6302 46.4289 38.6466 46.9827Z" fill="#263238"/>
<path d="M39.1331 44.5799C38.9934 44.715 38.2 44.0975 37.047 44.0737C35.8947 44.0499 35.053 44.6037 34.917 44.4723C34.8568 44.4085 35.001 44.1576 35.3761 43.8985C35.8561 43.5831 36.4192 43.4146 36.9935 43.4146C37.0232 43.4146 37.0536 43.4153 37.0834 43.416C37.6814 43.4316 38.2609 43.6335 38.7386 43.9935C39.0855 44.2645 39.1969 44.5198 39.1331 44.5792V44.5799Z" fill="#263238"/>
<path d="M28.2887 46.9827C28.2805 47.5617 27.811 48.0286 27.2322 48.0345C27.2152 48.0353 27.1973 48.036 27.1802 48.036C26.626 48.036 26.1721 47.5958 26.1558 47.0421C26.1639 46.4646 26.6305 45.9984 27.2085 45.9903C27.227 45.9895 27.2464 45.9888 27.2649 45.9888C27.8191 45.9888 28.2731 46.4289 28.2894 46.9827H28.2887Z" fill="#263238"/>
<path d="M31.7552 52.7809C31.7552 52.7133 32.4691 52.6094 33.6333 52.4899C33.9245 52.4661 34.2075 52.4142 34.2596 52.2153C34.2655 52.1618 34.2692 52.1076 34.2692 52.0534C34.2692 51.8033 34.2053 51.5576 34.085 51.3386C33.8257 50.6216 33.5545 49.8718 33.2871 49.0828C32.1586 45.8709 31.3451 43.2328 31.4766 43.189C31.6081 43.1452 32.6289 45.7113 33.7581 48.9232L34.556 51.1909C34.6704 51.424 34.7306 51.6793 34.7306 51.9391C34.7306 52.0779 34.7127 52.216 34.6793 52.3511C34.5849 52.5515 34.4044 52.6985 34.189 52.7497C34.0292 52.789 33.8636 52.8098 33.6994 52.8098C33.6949 52.8098 33.6905 52.8098 33.6868 52.8098C32.4818 52.8573 31.7604 52.8455 31.7559 52.7816L31.7552 52.7809Z" fill="#263238"/>
<path d="M28.1773 40.1648C28.0295 40.4639 26.8973 40.193 25.5333 40.2167C24.1693 40.2405 23.0408 40.4877 22.893 40.1885C22.8254 40.0453 23.0482 39.7899 23.5192 39.519C24.1507 39.208 24.8476 39.0454 25.5519 39.0454C26.2413 39.0454 26.9225 39.2013 27.5436 39.4997C28.0176 39.7506 28.2368 40.0215 28.1773 40.1655V40.1648Z" fill="#263238"/>
<path d="M39.5758 41.1447C39.3485 41.4075 38.4429 41.1447 37.3582 41.1447C36.2736 41.1447 35.3643 41.328 35.1444 41.0534C35.0485 40.922 35.1919 40.6548 35.5953 40.4121C36.1027 40.1263 36.677 39.9756 37.2602 39.9756C37.3047 39.9756 37.3501 39.9763 37.3946 39.9778C38.0217 39.9793 38.6361 40.1597 39.165 40.4959C39.5521 40.7505 39.6791 41.0178 39.5758 41.1454V41.1447Z" fill="#263238"/>
<path d="M28.0539 44.5159C27.9187 44.6518 27.1208 44.0334 25.9723 44.0097C24.8237 43.9859 23.9783 44.5397 23.8423 44.4083C23.7822 44.3444 23.9218 44.0973 24.297 43.8382C24.7769 43.5235 25.3393 43.355 25.9136 43.355C25.9448 43.355 25.9775 43.3557 26.0087 43.3565C26.6067 43.3669 27.1854 43.5702 27.6594 43.934C28.0064 44.2012 28.1215 44.4558 28.0539 44.5159Z" fill="#263238"/>
<path d="M31.348 57.0643C30.9543 57.4392 30.4595 57.6923 29.9246 57.7933C29.8176 57.8103 29.7099 57.8185 29.6014 57.8185C28.9848 57.8185 28.3986 57.5483 27.9975 57.0807C27.8771 56.875 27.8132 56.6405 27.8132 56.4015C27.8132 56.0912 27.921 55.7906 28.1178 55.5508C28.4833 55.1091 29.0138 54.8338 29.5851 54.79C29.6646 54.7818 29.7448 54.7773 29.8243 54.7773C30.5382 54.7773 31.2128 55.1069 31.6511 55.6703C32.0895 56.2337 32.2009 56.3198 31.348 57.0651V57.0643Z" fill="#EB996E"/>
<path d="M28.4483 54.0083C28.6318 54.0083 28.6199 55.2041 29.6451 56.1008C30.6703 56.9975 31.9823 56.8617 31.9905 57.0331C31.9905 57.1088 31.6993 57.2684 31.1488 57.2758C31.1465 57.2758 31.1443 57.2758 31.1421 57.2758C30.4274 57.2758 29.735 57.025 29.1867 56.567C28.6607 56.1238 28.3264 55.4936 28.2536 54.81C28.2373 54.3 28.3651 54.0009 28.449 54.009L28.4483 54.0083Z" fill="#263238"/>
<path d="M36.5173 32.2625C37.0678 34.0834 38.6747 35.3467 39.7319 36.9293C41.2192 39.1569 41.5624 41.9464 41.5943 44.6238C41.5186 43.3649 42.0208 42.1491 42.2682 40.9102C42.3848 40.3215 42.4457 39.7196 42.4457 39.119C42.4457 35.1493 39.8856 31.6286 36.1072 30.4023L36.5173 32.2633V32.2625Z" fill="#263238"/>
<path d="M36.8004 32.203C37.7736 30.3101 36.9638 27.8591 35.3643 26.4569C33.7648 25.054 31.5673 24.5285 29.4418 24.4164C29.109 24.4008 28.7695 24.3896 28.4337 24.3896C20.3017 24.3896 13.0888 29.6154 10.5606 37.3359C8.67809 43.0864 9.62754 49.5376 7.36982 55.1486C6.76732 56.631 5.95011 58.022 5.41967 59.5318C4.88923 61.0424 4.65744 62.7199 5.25623 64.2261C5.89068 65.796 7.36982 66.9361 7.88095 68.5499C8.79399 71.427 6.43301 75.0019 8.27989 77.3727C9.62011 79.0703 12.3555 78.8432 14.1987 77.7112C16.0411 76.58 17.3895 74.7866 19.1398 73.5195C20.9704 72.2398 23.1523 71.5524 25.387 71.5524C27.3721 71.5524 29.3215 72.0958 31.0205 73.1209C32.3124 73.9181 33.9 74.8942 34.9015 76.05C36.0738 77.4046 38.3791 82.2503 38.6428 80.7479C38.8345 79.6723 36.8561 74.2046 36.102 73.4156C32.1735 69.2951 30.6661 68.4823 24.7355 67.3348C23.6827 67.19 22.636 66.9695 21.61 66.689C17.5099 65.338 18.3516 61.3014 19.2691 60.1858C20.1866 59.0701 21.4265 58.1178 21.7898 56.7185C22.5349 53.8771 19.2126 51.0163 20.2616 48.2587C20.8359 46.7207 22.6545 45.7401 22.7779 44.1026C22.8737 42.7078 21.6568 41.3406 22.1479 40.0341C22.6382 38.727 24.4093 38.5236 25.3625 37.5155C26.4315 36.3717 26.2636 34.4269 27.3765 33.3275C28.4894 32.2275 30.3199 32.4865 31.8674 32.7538C33.4149 33.021 35.325 33.0603 36.2068 31.7613L36.8011 32.2037L36.8004 32.203Z" fill="#263238"/>
<path d="M5.37209 99.9827C5.37209 99.9827 5.2926 99.9827 5.13658 99.9545C5.03703 99.9456 4.93897 99.9226 4.8461 99.8862L4.6626 99.8261L4.46722 99.7266C3.6775 99.2449 3.13146 98.4484 2.96727 97.5391C2.87664 97.1435 2.82983 96.7397 2.82983 96.3336C2.82983 96.0813 2.84766 95.8281 2.88258 95.5787C3.03859 94.8134 3.2845 94.0645 3.60841 93.3548C3.93975 92.5858 4.33052 91.7849 4.63363 90.8919C4.79336 90.4369 4.90628 89.9648 4.96943 89.486C4.99394 89.2344 5.00732 88.9798 5.00732 88.7267C5.00732 88.4735 4.99394 88.2189 4.96943 87.9673C4.86988 86.9274 4.57048 85.8592 4.3595 84.7317C4.14851 83.6041 3.96055 82.3808 4.27183 81.1449C4.42264 80.5273 4.65963 79.9335 4.97389 79.3805C5.14104 79.1059 5.31711 78.8268 5.50433 78.5595C5.69154 78.2923 5.90327 78.0258 6.10683 77.7623C6.94855 76.738 7.92549 75.7938 8.83927 74.7494C9.05843 74.4866 9.29393 74.2275 9.50121 73.9521C9.60522 73.8126 9.71665 73.6775 9.8162 73.5535L10.1074 73.1148C10.207 72.9701 10.2991 72.8172 10.3786 72.6606C10.4581 72.501 10.5502 72.3495 10.626 72.1907C10.7708 71.8648 10.8919 71.5271 10.9848 71.1827C11.1289 70.6727 11.2017 70.1442 11.2017 69.615C11.2017 69.4212 11.1921 69.2267 11.1728 69.0352C11.1141 68.2959 10.9789 67.5588 10.7738 66.847C10.3749 65.3965 9.8162 63.9498 9.54133 62.3962C9.46406 61.9664 9.42469 61.5292 9.42469 61.092C9.42469 60.7283 9.45292 60.3638 9.50567 60.0053C9.63865 59.2103 9.91055 58.442 10.3036 57.7383C10.6787 57.025 11.1014 56.3436 11.4365 55.6339C11.7775 54.9303 12.016 54.1776 12.1423 53.4063C12.3934 51.8765 12.2901 50.3303 12.2537 48.8197C12.2366 48.5028 12.2247 48.1784 12.2247 47.86C12.2247 46.6864 12.357 45.5136 12.6133 44.369C12.9639 42.9883 13.4803 41.6463 14.1392 40.3836C14.7655 39.1366 15.4594 37.969 16.1332 36.8333C16.807 35.6976 17.4697 34.6056 18.1755 33.5857C19.5751 31.5452 21.2029 29.8157 23.0609 28.7757C23.9398 28.2799 24.8959 27.9265 25.8854 27.7321C26.5199 27.6163 27.1662 27.5576 27.8118 27.5576C28.0644 27.5576 28.3185 27.5673 28.5703 27.5836C30.0071 27.6935 31.4075 28.1017 32.6779 28.7802C33.478 29.2048 34.2187 29.7429 34.868 30.3739C35.3026 30.82 35.5025 31.0753 35.5025 31.0753L35.3309 30.9076C35.2194 30.7962 35.0679 30.6129 34.8405 30.4058C34.1823 29.7926 33.4424 29.2686 32.643 28.8559C31.3763 28.2004 29.9856 27.8107 28.5622 27.7157C28.3371 27.7024 28.1053 27.6935 27.8779 27.6935C27.2205 27.6935 26.56 27.7573 25.9152 27.8798C24.9353 28.0735 23.9895 28.4261 23.1218 28.9197C21.2913 29.9515 19.6881 31.6692 18.304 33.7015C17.6019 34.7133 16.9437 35.8096 16.2744 36.9453C15.6043 38.081 14.9185 39.245 14.2804 40.4883C13.6311 41.7435 13.1222 43.0789 12.7737 44.4484C12.5241 45.5715 12.3971 46.7205 12.3971 47.8718C12.3971 48.1918 12.4067 48.5147 12.4261 48.8324C12.4617 50.3385 12.5694 51.8928 12.3146 53.4546C12.1891 54.2429 11.9491 55.0104 11.6051 55.7304C11.2619 56.4519 10.8392 57.1334 10.4685 57.8385C10.0785 58.5215 9.80803 59.2712 9.67133 60.0461C9.62082 60.3905 9.59556 60.7416 9.59556 61.0905C9.59556 61.5144 9.63345 61.9404 9.707 62.3576C9.97444 63.8875 10.5368 65.3268 10.9313 66.7928C11.1416 67.5173 11.2849 68.2662 11.3496 69.0167C11.3682 69.2052 11.3771 69.3982 11.3771 69.589C11.3771 70.145 11.3005 70.7002 11.1505 71.2354C11.0554 71.5894 10.9283 71.9346 10.7761 72.2672C10.7003 72.4342 10.6089 72.59 10.5249 72.7496C10.4432 72.91 10.3504 73.0673 10.2501 73.2165L9.95067 73.6627C9.84666 73.8104 9.73523 73.9455 9.6275 74.0887C9.41577 74.376 9.18101 74.6351 8.95739 74.8859C8.03618 75.9341 7.05925 76.8783 6.22124 77.887C5.36986 78.826 4.74953 79.9558 4.41447 81.1783C4.09502 82.3742 4.27926 83.5692 4.49025 84.6894C4.70124 85.8095 4.9932 86.8813 5.09275 87.9369C5.11875 88.1937 5.13213 88.4557 5.13213 88.714C5.13213 88.9731 5.11875 89.2344 5.09275 89.4912C5.02812 89.9782 4.91222 90.4584 4.75027 90.9216C4.43899 91.822 4.03633 92.6229 3.70499 93.3882C3.3781 94.0852 3.12997 94.8216 2.97099 95.575C2.93087 95.8385 2.91007 96.105 2.91007 96.3708C2.91007 96.7515 2.95241 97.1331 3.03488 97.5042C3.18643 98.3987 3.70945 99.1877 4.4739 99.6762C4.75473 99.8268 5.06006 99.9315 5.37506 99.9827H5.37209Z" fill="white"/>
<path d="M90.1558 89.219L93.8206 84.6042L101.797 79.9775C101.797 79.9775 102.635 80.5194 101.59 81.8904C100.545 83.2614 96.9713 86.1979 96.9713 86.1979C97.5686 86.3323 98.1399 86.5728 98.6547 86.9038C99.0603 87.3321 99.3605 87.851 99.5276 88.4174C99.9875 88.914 100.244 89.5679 100.244 90.2456C100.244 90.4787 100.213 90.7103 100.154 90.9352C100.094 91.1601 100.644 91.9358 100.11 93.6728C99.9786 94.1033 99.8471 94.47 99.7111 94.7729C99.388 95.5575 98.6644 96.1053 97.8212 96.204L90.1558 89.2183V89.219Z" fill="#FFBE9D"/>
<path d="M30.6897 70.49C30.6897 70.5301 30.0277 70.303 28.9349 70.1233C28.2982 70.0224 27.6489 69.9645 27.0048 69.9563C26.9862 69.9563 26.964 69.9563 26.9446 69.9563C26.1757 69.9563 25.4061 70.0202 24.6475 70.1449C23.8697 70.2755 23.0956 70.4737 22.3497 70.7298C21.742 70.9428 21.1454 71.2049 20.5749 71.507C19.598 72.0214 19.0475 72.4437 19.0237 72.4118C19.1344 72.2931 19.2599 72.1877 19.3944 72.0971C19.543 71.9694 19.699 71.8484 19.8609 71.7378C20.0482 71.6183 20.2599 71.4751 20.5028 71.3392C21.0726 71.0289 21.6699 70.761 22.2821 70.5427C23.0354 70.2711 23.8162 70.064 24.6067 69.9296C25.2969 69.8257 25.9959 69.77 26.6928 69.77C26.7938 69.77 26.9015 69.7715 27.0004 69.7737C27.6549 69.7938 28.3109 69.8658 28.955 69.989C29.2298 70.0328 29.4735 70.1048 29.689 70.156C29.8717 70.2005 30.0537 70.2555 30.2313 70.3193C30.3903 70.3594 30.5441 70.4166 30.6904 70.4908L30.6897 70.49Z" fill="#263238"/>
<path d="M25.6969 70.9403C25.6969 70.9403 33.4262 70.1832 37.2633 75.2241C40.5812 79.6073 45.5587 88.773 48.2793 90.8529C50.9991 92.9328 62.8604 99.7589 62.8604 99.7589C62.8604 99.7589 82.4036 95.1879 84.2698 94.0329C86.136 92.8772 90.0407 89.1553 90.0407 89.1553L97.8577 96.2523C97.8577 96.2523 68.4479 115.38 62.6413 114.695C59.2989 114.296 48.3231 109.566 39.5968 105.617C30.3282 101.417 23.6836 92.8653 22.2639 82.7835C21.5737 77.9059 22.2557 72.6142 25.6976 70.9403H25.6969Z" fill="#6B8D72"/>
<path d="M63.5815 105.908C63.4374 105.638 63.3267 105.352 63.2546 105.055C62.8549 103.714 62.6514 102.32 62.6514 100.921C62.6514 100.852 62.6529 100.78 62.6529 100.713C62.6514 100.666 62.6499 100.619 62.6499 100.573C62.6499 100.314 62.6796 100.055 62.7368 99.8032C62.8007 99.8032 62.7368 101.194 62.9916 102.879C63.2472 104.565 63.6454 105.889 63.5815 105.909V105.908Z" fill="#263238"/>
<path d="M91.5116 90.3987C91.0844 90.8797 90.6052 91.3162 90.0874 91.6977C89.6134 92.1319 89.0897 92.5172 88.5325 92.8408C88.9589 92.3598 89.4381 91.9211 89.9559 91.5381C90.4306 91.1039 90.9544 90.7194 91.5123 90.3979V90.3987H91.5116Z" fill="#263238"/>
<path d="M94.2239 92.9651C93.8747 93.3823 93.4713 93.7571 93.0278 94.0726C92.6296 94.4445 92.1809 94.7651 91.6995 95.0205C92.0516 94.6048 92.455 94.2314 92.8963 93.913C93.2975 93.5441 93.7447 93.2242 94.2239 92.9644V92.9651Z" fill="#263238"/>
<path d="M96.3255 94.9658C95.9132 95.4542 95.4303 95.8803 94.8939 96.2285C94.3992 96.6323 93.8464 96.9626 93.2581 97.209C93.732 96.7896 94.238 96.4073 94.7691 96.0622C95.2587 95.6599 95.7802 95.2924 96.3241 94.9658H96.3248H96.3255Z" fill="#263238"/>
<path d="M26.3668 70.3071C25.6789 70.1512 24.9724 70.0718 24.2659 70.0718C21.2511 70.0718 18.4154 71.5059 16.6309 73.9332C13.4668 78.1716 11.7463 83.3179 11.7255 88.6045C11.6333 101.336 12.8138 127.445 14.816 130.777L11.7173 140.931L48.1781 137.78C48.1781 137.78 46.9574 103.577 45.8728 94.9333C45.1269 88.9556 39.4919 80.2166 36.0893 75.4073C34.5114 73.1864 32.1638 71.6239 29.5049 71.0241L26.3661 70.3063L26.3668 70.3071Z" fill="#6B8D72"/>
<path d="M17.6724 140.417C17.6709 140.348 17.6694 140.274 17.6694 140.204C17.6694 139.844 17.6977 139.485 17.7519 139.13C17.873 138.102 18.0535 137.074 18.2905 136.066C18.5305 135.065 18.8366 134.071 19.1909 133.106C19.3217 132.692 19.4925 132.288 19.7028 131.909C19.6084 132.328 19.4821 132.743 19.3313 133.145C19.0921 133.899 18.7727 134.947 18.4933 136.126C18.214 137.306 18.0231 138.377 17.899 139.163C17.8514 139.583 17.7734 140.005 17.6717 140.417V140.418L17.6724 140.417Z" fill="#263238"/>
<path d="M25.8683 139.709C25.8282 139.418 25.8066 139.122 25.8066 138.829C25.8066 138.711 25.8104 138.591 25.8163 138.473C25.843 136.481 26.1811 134.5 26.8088 132.609C26.921 132.21 27.0763 131.823 27.268 131.456C27.1885 131.86 27.0807 132.263 26.9492 132.652C26.6833 133.599 26.4634 134.57 26.2955 135.54C26.1372 136.515 26.0206 137.5 25.9641 138.485C25.9597 138.893 25.9263 139.304 25.8683 139.709Z" fill="#263238"/>
<path d="M35.0848 138.912C34.9756 137.768 34.9184 136.605 34.9184 135.452C34.9184 135.302 34.9228 135.135 34.9228 134.989C34.9028 134.489 34.8894 133.974 34.8894 133.468C34.8894 132.672 34.9161 131.863 34.9689 131.071C35.0759 132.227 35.1316 133.407 35.1316 134.572C35.1316 134.707 35.1316 134.856 35.1316 134.99C35.1465 135.496 35.1606 136.015 35.1606 136.526C35.1606 137.319 35.1323 138.123 35.0863 138.912H35.0855H35.0848Z" fill="#263238"/>
<path d="M42.7146 138.25C42.6582 137.856 42.627 137.453 42.627 137.053C42.5868 136.305 42.5192 135.276 42.3721 134.144C42.2243 133.012 42.0326 132.001 41.8818 131.267C41.7778 130.875 41.7028 130.475 41.6589 130.072C41.8172 130.446 41.9412 130.836 42.0252 131.232C42.2681 132.178 42.4531 133.145 42.5787 134.116C42.6998 135.086 42.7696 136.067 42.7763 137.045C42.7792 137.14 42.7822 137.238 42.7822 137.333C42.7822 137.64 42.7599 137.947 42.7161 138.25H42.7146Z" fill="#263238"/>
<path d="M44.5535 107.832C44.4777 107.815 44.4041 107.79 44.3343 107.757L43.7244 107.498C43.1939 107.274 42.4325 106.932 41.4986 106.501C39.6242 105.64 37.0634 104.393 34.2916 102.915C31.5198 101.436 29.0511 100.002 27.2918 98.9301C26.4145 98.392 25.6968 97.9496 25.2221 97.6348L24.6679 97.2719C24.6025 97.231 24.5408 97.1843 24.4844 97.1323C24.5579 97.1561 24.6285 97.191 24.6916 97.2355L25.2659 97.5666L27.3676 98.8017C29.1462 99.8417 31.6156 101.248 34.3874 102.731C37.1592 104.213 39.7074 105.473 41.5662 106.369L43.7638 107.425L44.3618 107.716C44.4301 107.746 44.494 107.785 44.5527 107.832L44.5535 107.832Z" fill="#263238"/>
<path d="M28.915 99.6318C28.5197 99.6934 28.1186 99.7306 27.7189 99.7387C26.7687 99.8122 25.8111 99.9414 24.875 100.109C23.9389 100.281 22.9947 100.511 22.0816 100.778C21.7094 100.909 21.3224 101.018 20.9338 101.101C21.283 100.907 21.6545 100.75 22.0386 100.638C23.8594 100.006 25.7747 99.6526 27.701 99.5947C27.8474 99.5836 27.9945 99.5776 28.1416 99.5776C28.3994 99.5776 28.6594 99.5962 28.9142 99.6311L28.915 99.6318Z" fill="#263238"/>
<path d="M25.1699 97.5474C28.7277 102.792 34.9415 106.366 41.2823 106.426C35.8426 103.382 30.6095 100.592 25.1699 97.5474Z" fill="black" fill-opacity="0.301961"/>
<path d="M242 180.896C242 180.957 187.822 181 121.005 181C54.1889 181 0 180.957 0 180.896C0 180.836 54.1674 180.792 121.005 180.792C187.844 180.792 242 180.84 242 180.896Z" fill="#263238"/>
</g>
<defs>
<clipPath id="clip0_139_455">
<rect width="242" height="181" fill="white"/>
</clipPath>
</defs>
</svg>
