<svg width="26" height="26" fill="none" xmlns="http://www.w3.org/2000/svg"><g clip-path="url(#clip0_321_1482)"><path d="M25.862 18.98a1.781 1.781 0 00-.088-.17c-.451-.812-1.313-1.81-2.585-2.991l-.027-.028-.014-.013-.014-.013h-.013c-.578-.55-.943-.921-1.096-1.11-.28-.362-.343-.727-.19-1.097.108-.28.514-.87 1.218-1.773.37-.479.663-.862.88-1.151 1.561-2.076 2.238-3.402 2.03-3.98l-.08-.135c-.054-.081-.194-.155-.42-.223-.226-.068-.514-.08-.866-.034l-3.899.027a.506.506 0 00-.27.007l-.177.04-.068.034-.053.041a.602.602 0 00-.15.142.928.928 0 00-.134.237 22.112 22.112 0 01-1.45 3.046c-.333.56-.64 1.044-.92 1.455-.28.41-.514.713-.703.907-.19.194-.361.35-.515.467-.153.117-.27.167-.352.149a9.26 9.26 0 01-.23-.054.9.9 0 01-.305-.332 1.484 1.484 0 01-.155-.528 5.782 5.782 0 01-.048-.548 11.41 11.41 0 01.007-.65c.01-.28.014-.47.014-.569 0-.343.006-.715.02-1.117.014-.401.024-.72.034-.954.009-.234.013-.483.013-.744a3.17 3.17 0 00-.047-.616 2.108 2.108 0 00-.142-.434.73.73 0 00-.277-.324 1.564 1.564 0 00-.454-.183c-.478-.109-1.087-.167-1.828-.176-1.678-.018-2.757.09-3.235.325-.19.099-.361.234-.514.406-.163.198-.185.307-.068.325.541.08.925.275 1.15.582l.082.162c.063.118.126.325.19.623.063.298.103.627.121.988.045.659.045 1.223 0 1.692-.045.47-.088.835-.129 1.097a2.19 2.19 0 01-.182.636 2.682 2.682 0 01-.163.298.232.232 0 01-.067.067c-.118.045-.24.068-.366.068s-.28-.063-.46-.19a3.25 3.25 0 01-.562-.52 6.97 6.97 0 01-.657-.928 16.184 16.184 0 01-.758-1.408l-.216-.392c-.135-.253-.32-.621-.555-1.104a21.27 21.27 0 01-.623-1.401.892.892 0 00-.325-.433l-.067-.04a.926.926 0 00-.217-.116c-.1-.04-.203-.07-.311-.088l-3.71.027c-.378 0-.636.086-.771.258l-.054.08A.438.438 0 000 6.817c0 .1.027.221.081.366.542 1.272 1.13 2.5 1.767 3.682.636 1.182 1.189 2.134 1.658 2.856.47.722.948 1.404 1.435 2.044.487.64.81 1.052.968 1.232.158.18.282.316.372.406l.339.325c.216.217.534.476.954.778.42.303.884.6 1.394.894.51.293 1.104.532 1.78.717a6.16 6.16 0 001.977.224h1.557c.316-.027.555-.127.717-.298l.054-.068a.895.895 0 00.102-.25c.031-.113.047-.237.047-.372-.01-.388.02-.738.088-1.05.067-.31.144-.545.23-.703a1.727 1.727 0 01.522-.596.888.888 0 01.107-.047c.217-.072.472-.002.766.21.293.212.568.474.826.785.257.312.566.661.927 1.05.36.387.677.676.947.865l.27.163c.182.108.416.208.705.298.288.09.541.113.758.067l3.465-.053c.343 0 .61-.057.799-.17.19-.113.302-.237.339-.372a1.04 1.04 0 00.006-.46 1.697 1.697 0 00-.095-.36z" fill="#181818"/></g><defs><clipPath id="clip0_321_1482"><path fill="#fff" d="M0 0h26v26H0z"/></clipPath></defs></svg>