<svg width="26" height="26" fill="none" xmlns="http://www.w3.org/2000/svg"><path fill-rule="evenodd" clip-rule="evenodd" d="M21.622 4.342A12 12 0 0013.078.8C6.421.8 1.002 6.218 1 12.877a12.055 12.055 0 001.612 6.039L.898 25.175l6.403-1.68a12.055 12.055 0 005.772 1.47h.005c6.657 0 12.076-5.418 12.079-12.078a12.005 12.005 0 00-3.535-8.545zm-8.544 18.584h-.004a10.028 10.028 0 01-5.11-1.4l-.366-.218-3.8.997 1.015-3.704-.24-.38a10.014 10.014 0 01-1.534-5.343C3.041 7.343 7.545 2.84 13.082 2.84a9.97 9.97 0 017.098 2.944 9.98 9.98 0 012.938 7.102c-.003 5.536-4.506 10.04-10.04 10.04zm5.507-7.52c-.302-.15-1.786-.88-2.062-.981-.277-.101-.478-.151-.68.15-.2.303-.779.983-.955 1.184-.176.201-.352.227-.654.076-.302-.151-1.274-.47-2.427-1.498-.897-.8-1.502-1.789-1.679-2.09-.176-.303-.001-.45.133-.617.326-.405.654-.83.754-1.032.1-.202.05-.378-.025-.529-.075-.15-.679-1.636-.93-2.24-.246-.59-.494-.51-.68-.519-.175-.009-.377-.01-.578-.01a1.11 1.11 0 00-.805.377c-.276.302-1.056 1.032-1.056 2.518 0 1.486 1.081 2.92 1.232 3.122.151.201 2.129 3.25 5.156 4.557.72.311 1.282.497 1.72.636.724.23 1.381.197 1.901.12.58-.087 1.786-.73 2.038-1.436.25-.705.25-1.309.175-1.435-.075-.126-.276-.201-.578-.352z" fill="#000"/></svg>