<svg width="34" height="34" fill="none" xmlns="http://www.w3.org/2000/svg"><path d="M30.853 17.213c-.352-1.526-1.6-2.652-3.103-2.82-3.558-.397-7.161-.4-10.746-.397-3.587-.002-7.19 0-10.748.397-1.503.168-2.75 1.294-3.101 2.82-.5 2.174-.507 4.546-.507 6.785 0 2.238 0 4.61.5 6.784.352 1.526 1.6 2.652 3.102 2.82 3.559.398 7.16.4 10.747.398 3.587.002 7.189 0 10.748-.398 1.502-.168 2.75-1.294 3.102-2.82.5-2.174.502-4.546.502-6.784 0-2.239.003-4.611-.496-6.785zm-20.018 1.685H8.758v11.038h-1.93V18.898h-2.04V17.09h6.047v1.808zm5.24 11.038H14.34v-1.044c-.69.79-1.344 1.176-1.982 1.176-.56 0-.944-.227-1.117-.712-.095-.289-.153-.747-.153-1.423v-7.569h1.734v7.048c0 .406 0 .617.016.674.041.27.173.406.405.406.348 0 .712-.268 1.097-.812v-7.316h1.735v9.572zm6.59-2.873c0 .886-.06 1.523-.176 1.929-.231.712-.695 1.076-1.385 1.076-.617 0-1.213-.343-1.793-1.06v.929h-1.734V17.09h1.734v4.195c.56-.69 1.155-1.038 1.793-1.038.69 0 1.154.363 1.385 1.08.117.385.176 1.018.176 1.924v3.812zm6.545-1.597h-3.468v1.697c0 .886.29 1.328.886 1.328.427 0 .675-.232.774-.695.017-.094.04-.48.04-1.175h1.769v.253c0 .559-.022.944-.037 1.117a2.472 2.472 0 01-.405 1.04c-.48.695-1.192 1.037-2.098 1.037-.908 0-1.598-.326-2.1-.98-.367-.48-.556-1.234-.556-2.25v-3.353c0-1.024.167-1.772.536-2.256.5-.655 1.191-.981 2.077-.981.87 0 1.56.326 2.046.981.364.484.537 1.232.537 2.256v1.981z" fill="red"/><path d="M26.613 21.809c-.58 0-.87.442-.87 1.327v.886h1.733v-.886c0-.885-.29-1.327-.863-1.327zm-6.436 0c-.285 0-.575.134-.864.421v5.834c.289.29.579.428.864.428.5 0 .755-.428.755-1.292v-4.085c0-.864-.254-1.306-.755-1.306z" fill="red"/><path d="M21.144 13.113c.64 0 1.305-.388 2.002-1.188v1.056H24.9V3.307h-1.753V10.7c-.388.55-.756.82-1.107.82-.235 0-.373-.138-.411-.41-.021-.057-.021-.27-.021-.681V3.307H19.86v7.65c0 .682.059 1.145.156 1.438.176.49.565.718 1.129.718zM8.943 7.723v5.258h1.944V7.723L13.225 0h-1.966L9.933 5.098 8.553 0H6.508c.41 1.203.836 2.412 1.246 3.617.623 1.81 1.013 3.175 1.189 4.106zm6.885 5.39c.878 0 1.56-.33 2.044-.99.368-.484.544-1.247.544-2.275V6.461c0-1.034-.175-1.79-.544-2.279-.484-.661-1.166-.992-2.044-.992-.874 0-1.556.33-2.041.992-.373.489-.549 1.245-.549 2.279v3.387c0 1.028.177 1.791.549 2.275.485.66 1.167.99 2.04.99zM14.99 6.11c0-.895.272-1.342.837-1.342s.835.446.835 1.342v4.069c0 .895-.27 1.342-.835 1.342s-.837-.447-.837-1.342v-4.07z" fill="#181818"/></svg>