<svg width="30" height="30" fill="none" xmlns="http://www.w3.org/2000/svg"><path d="M25.76 7.707a.623.623 0 00-.627-.57h-4.766V5.33a5.33 5.33 0 00-10.66 0v1.806H4.94a.632.632 0 00-.627.57L2.67 26.596A3.138 3.138 0 005.8 30h18.48a3.138 3.138 0 003.129-3.405l-1.65-18.888zM10.96 5.33a4.076 4.076 0 118.153 0v1.806H10.96V5.33zm14.706 22.808a1.86 1.86 0 01-1.386.608H5.793a1.882 1.882 0 01-1.875-2.044L5.511 8.39h4.195v3.912a2.132 2.132 0 101.254 0V8.384h8.153v3.92a2.132 2.132 0 101.254 0v-3.92h4.189l1.592 18.311a1.864 1.864 0 01-.482 1.442zM10.239 13.47a.706.706 0 00.188 0 .878.878 0 11-.188 0zm9.407 0a.705.705 0 00.188 0 .878.878 0 11-.188 0z" fill="#181818"/></svg>