<svg width="24" height="24" fill="none" xmlns="http://www.w3.org/2000/svg"><path d="M20.608 6.165a.499.499 0 00-.502-.456h-3.813V4.264a4.264 4.264 0 00-8.528 0V5.71H3.952a.506.506 0 00-.502.456l-1.314 15.11A2.51 2.51 0 004.64 24h14.785a2.51 2.51 0 002.503-2.724l-1.32-15.11zm-11.84-1.9a3.26 3.26 0 016.522 0v1.444H8.768V4.264zM20.532 22.51c-.283.312-.686.49-1.108.487H4.634a1.506 1.506 0 01-1.5-1.636L4.408 6.712h3.357v3.13a1.706 1.706 0 101.003 0V6.708h6.522v3.136a1.706 1.706 0 101.003 0V6.707h3.351l1.275 14.65c.04.421-.1.84-.387 1.153zM8.192 10.776c.05.007.1.007.15 0a.702.702 0 11-.15 0zm7.524 0c.05.007.1.007.15 0a.702.702 0 11-.15 0z" fill="#181818"/></svg>