<svg width="30" height="30" fill="none" xmlns="http://www.w3.org/2000/svg"><path d="M22.188 1.25C18.86 1.25 16.111 4.34 15 5.8c-1.111-1.46-3.86-4.55-7.188-4.55C3.505 1.25 0 5.21 0 10.078c0 2.656 1.054 5.13 2.9 6.825a.62.62 0 00.097.127L14.56 28.567a.623.623 0 00.883 0l11.946-11.942.123-.12c.098-.091.194-.185.302-.304a.606.606 0 00.111-.15c1.34-1.64 2.076-3.756 2.076-5.973 0-4.867-3.505-8.828-7.813-8.828zm4.696 14.098a.585.585 0 00-.047.064c-.058.067-.122.126-.186.187L14.999 27.242 4.023 16.288a.627.627 0 00-.145-.186c-1.67-1.46-2.628-3.655-2.628-6.024C1.25 5.9 4.194 2.5 7.812 2.5c3.578 0 6.632 4.667 6.663 4.714.23.356.82.356 1.05 0 .031-.047 3.085-4.714 6.662-4.714 3.62 0 6.563 3.4 6.563 7.578 0 1.97-.663 3.841-1.866 5.27z" fill="#181818"/></svg>