<svg width="24" height="24" fill="none" xmlns="http://www.w3.org/2000/svg"><path d="M17.75 1C15.088 1 12.89 3.473 12 4.64 11.11 3.473 8.912 1 6.25 1 2.804 1 0 4.168 0 8.063c0 2.124.843 4.104 2.32 5.459a.493.493 0 00.078.102l9.249 9.23a.499.499 0 00.707 0L21.91 13.3l.099-.095c.078-.074.155-.149.241-.245a.487.487 0 00.09-.119C23.41 11.53 24 9.836 24 8.063 24 4.168 21.196 1 17.75 1zm3.757 11.279a.469.469 0 00-.037.05 1.93 1.93 0 01-.15.15L12 21.794 3.218 13.03a.5.5 0 00-.116-.149C1.766 11.714 1 9.958 1 8.063 1 4.72 3.355 2 6.25 2c2.862 0 5.305 3.733 5.33 3.771.184.285.656.285.84 0C12.445 5.733 14.888 2 17.75 2 20.645 2 23 4.72 23 8.063c0 1.575-.53 3.072-1.493 4.216z" fill="#181818"/></svg>