<svg width="170" height="27" fill="none" xmlns="http://www.w3.org/2000/svg"><path d="M5.456 11.664c1.077 0 2.01.256 2.8.768L8 13.6l-.144.032a3.732 3.732 0 00-2.464-.896c-1.013 0-1.792.352-2.336 1.056-.544.693-.816 1.712-.816 3.056 0 1.355.272 2.39.816 3.104.544.715 1.312 1.072 2.304 1.072.981 0 1.872-.325 2.672-.976l.16.08-.112 1.216c-.928.512-1.872.768-2.832.768-1.376 0-2.443-.443-3.2-1.328-.757-.896-1.136-2.17-1.136-3.824 0-1.696.395-3.003 1.184-3.92.79-.917 1.91-1.376 3.36-1.376zm9.944 9.408h1.056v2.624l-.848.096L15.464 22h-5.312l-.144 1.696-.864.096v-2.72h.592c.47-.288.806-.784 1.008-1.488.214-.704.4-1.925.56-3.664l.112-1.248h4l-.032 4.112.016 2.288zm-1.184 0l.032-2.176-.032-3.376h-1.872l-.064.592c-.138 1.483-.314 2.597-.528 3.344-.202.736-.496 1.275-.88 1.616h3.344zm9.199-2.8l-4.592.016v.032c0 .896.203 1.584.608 2.064.405.48.981.72 1.728.72.779 0 1.493-.235 2.144-.704l.128.096-.192 1.088c-.747.363-1.494.544-2.24.544-1.046 0-1.867-.33-2.464-.992-.598-.672-.896-1.59-.896-2.752 0-1.173.299-2.107.896-2.8.597-.693 1.402-1.04 2.416-1.04.853 0 1.514.245 1.984.736.47.48.704 1.152.704 2.016 0 .288-.021.56-.064.816l-.16.16zM20.95 15.44c-.534 0-.982.176-1.344.528-.352.341-.587.827-.704 1.456l3.536-.064.032-.224c0-.544-.134-.96-.4-1.248-.256-.299-.63-.448-1.12-.448zm9.616-.768l-.064 4.112L30.55 22h-1.248l.048-3.104-.032-3.36h-1.904l-.064.592c-.139 1.483-.304 2.64-.496 3.472-.192.821-.432 1.424-.72 1.808a1.857 1.857 0 01-1.104.72l-.32.032-.208-.976c.586-.203 1.002-.656 1.248-1.36.256-.704.469-2.005.64-3.904l.128-1.216-.016-.032h4.064zm4.956-.128c.694 0 1.238.17 1.632.512.406.341.608.81.608 1.408 0 .192-.032.853-.096 1.984a63.647 63.647 0 00-.096 1.968c0 .235.038.4.112.496.075.085.203.128.384.128.16 0 .342-.032.544-.096l.128.112-.128.72a2.29 2.29 0 01-.912.32c-.33-.032-.597-.15-.8-.352-.192-.203-.293-.48-.304-.832h-.112c-.576.587-1.146.987-1.712 1.2-.714 0-1.274-.176-1.68-.528-.394-.363-.592-.853-.592-1.472 0-.907.496-1.477 1.488-1.712l2.592-.608.016-1.04c0-.416-.112-.736-.336-.96-.213-.224-.522-.336-.928-.336-.693 0-1.445.352-2.256 1.056l-.128-.064-.16-.912c.886-.661 1.798-.992 2.736-.992zm1.04 4.064l-2.32.56c-.405.117-.608.373-.608.768 0 .352.096.63.288.832.203.192.47.288.8.288.587 0 1.184-.379 1.792-1.136l.048-1.312zm9.7-3.936l-.047 4.112.048 3.216h-1.248l.048-3.104v-.112l-3.536.016.048 3.2h-1.248l.064-3.104-.048-4.224h1.232l-.032 3.152 3.52.016-.032-3.168h1.232zm5.268-.128c.992 0 1.76.325 2.303.976.555.64.832 1.547.832 2.72 0 1.237-.287 2.197-.863 2.88-.576.672-1.398 1.008-2.464 1.008-1.003 0-1.782-.32-2.337-.96-.544-.65-.816-1.563-.816-2.736 0-1.237.288-2.192.864-2.864.587-.683 1.414-1.024 2.48-1.024zm-.08.896c-.672 0-1.184.23-1.537.688-.352.459-.528 1.13-.528 2.016 0 2.048.678 3.072 2.032 3.072 1.377 0 2.065-.896 2.065-2.688 0-1.013-.176-1.781-.528-2.304-.342-.523-.843-.784-1.505-.784zm11.622 2.736c1.088.235 1.632.816 1.632 1.744 0 1.419-1.11 2.128-3.328 2.128-.64 0-1.344-.016-2.112-.048l.064-3.104-.048-4.224 2.544-.016c.81 0 1.435.155 1.872.464.438.299.656.736.656 1.312 0 .821-.426 1.403-1.28 1.744zm.112-1.6c0-.747-.576-1.12-1.728-1.12-.426 0-.763.005-1.008.016l-.016 2.384 1.472.048c.853-.16 1.28-.603 1.28-1.328zm-1.696 4.688c1.366 0 2.048-.459 2.048-1.376 0-.715-.485-1.125-1.456-1.232l-1.664.016v.112l.032 2.432c.33.032.678.048 1.04.048z" fill="#181818"/><g opacity=".95"><path d="M85.594 22.274c-.39 0-.8-.086-1.081-.302a1.224 1.224 0 01-.411-.949V10.738h2.184v9.186c0 .13-.021.345.152.496.065.043.194.129.54.129h6.36v1.725h-7.744z" fill="#181818"/><path d="M96.887 11.9c.41-.971.865-1.295 1.903-1.295.995 0 1.493.324 1.904 1.294l4.369 10.371h-2.292l-1.19-2.91H96l-1.168 2.91h-2.293l4.348-10.37zm-.325 5.907h4.456l-1.882-4.7c-.064-.173-.172-.475-.324-.475-.151 0-.26.324-.324.475l-1.926 4.7zm16.288-7.069c.627 0 1.493.065 2.098.69.649.669.736 1.725.736 2.48 0 .625-.044 1.272-.541 1.876-.325.388-.671.56-1.082.603v.065c.541.043.995.302 1.277.604.54.604.54 1.423.54 2.07 0 .755 0 1.682-.67 2.415-.671.733-1.406.733-2.12.733h-5.538c-.584 0-1.103.065-1.579-.453-.108-.13-.389-.517-.389-1.164v-8.258c0-.432.108-.884.368-1.186.346-.41.865-.475 1.233-.475h5.667zm-5.105 4.83h4.24c.432 0 .887 0 1.19-.41.086-.107.237-.388.237-1.164 0-.323-.021-.884-.389-1.229-.324-.302-.714-.302-1.081-.302h-3.57c-.173 0-.367-.021-.497.13-.13.15-.152.388-.152.517l.022 2.458zm0 4.118c0 .389.043.583.13.669.173.194.541.172.714.172h3.439c.346 0 .952-.021 1.276-.41.238-.301.303-.797.303-1.164 0-.323-.043-.862-.238-1.164-.13-.172-.454-.474-1.168-.474h-4.434l-.022 2.371zm9.41.863h6.425c1.038 0 1.081-.863 1.081-1.25 0-.453-.108-.992-1.125-1.294l-4.564-1.445c-.173-.043-.908-.302-1.362-.862-.52-.626-.606-1.531-.606-2.178 0-.69.086-1.531.735-2.135.606-.56 1.341-.647 1.904-.647h6.662v1.725H120.4c-.303 0-.649.022-.909.259-.281.259-.302.668-.302.884 0 .518.151 1.014 1.081 1.294l4.24 1.337c.779.237 1.298.496 1.644.819.692.668.757 1.682.757 2.22 0 .734-.108 1.532-.584 2.136-.584.733-1.298.819-2.077.819h-7.095v-1.682zm14.123-8.649c.41-.971.865-1.295 1.903-1.295.995 0 1.493.324 1.904 1.294l4.369 10.371h-2.293l-1.19-2.91h-5.58l-1.168 2.91h-2.293l4.348-10.37zm-.325 5.907h4.456l-1.882-4.7c-.065-.173-.173-.475-.324-.475-.152 0-.26.324-.325.475l-1.925 4.7zm10.493 4.467c-.39 0-.801-.086-1.082-.302a1.224 1.224 0 01-.411-.949V10.738h2.185v9.186c0 .13-.022.345.151.496.065.043.195.129.541.129h6.36v1.725h-7.744zm10.165 0c-.497 0-.951 0-1.319-.367-.389-.388-.433-.905-.433-1.358v-8.172c0-.453.152-.927.39-1.207.389-.41.951-.453 1.384-.453h7.42v1.725h-6.252c-.194 0-.432.021-.605.172-.174.173-.174.388-.174.56v2.33h6.879v1.725h-6.857v2.695c0 .172.065.366.173.453.13.129.39.15.736.15h6.186v1.726h-7.528v.021zm8.675-1.725h6.403c1.038 0 1.082-.863 1.082-1.25 0-.453-.109-.992-1.125-1.294l-4.564-1.445c-.173-.043-.909-.302-1.363-.862-.519-.626-.606-1.531-.606-2.178 0-.69.087-1.531.736-2.135.605-.56 1.341-.647 1.903-.647h6.663v1.725h-5.927c-.303 0-.649.022-.909.259-.281.259-.303.668-.303.884 0 .518.152 1.014 1.082 1.294l4.24 1.337c.778.237 1.297.496 1.644.819.692.668.757 1.682.757 2.22 0 .734-.109 1.532-.584 2.136-.584.733-1.298.819-2.077.819h-7.117v-1.682h.065zM79.604 10.005L75.797.862c-.13-.301-.238-.517-.368-.625A.867.867 0 0074.802 0a.867.867 0 00-.627.237c-.13.108-.238.324-.368.625L70 10.026v10.566c0 .56.108.949.346 1.207.238.259.584.367 1.038.367h6.857c.455 0 .8-.13 1.039-.367.238-.258.346-.647.346-1.207l-.022-10.587zm-.93 0v1.638a1.344 1.344 0 00-.52-.172 1.194 1.194 0 00-.864.216l-1.774-1.855c.065-.13.108-.258.13-.388a1.245 1.245 0 00-1.082-1.401 1.247 1.247 0 00-1.406 1.078c-.043.41.108.798.39 1.078l-.8 1.66c-.044 0-.087-.021-.13-.021a1.33 1.33 0 00-.585.064l-1.016-2.091 3.482-8.776c.087-.216.195-.323.303-.323.108 0 .195.107.303.323l3.569 8.97z" fill="#181818"/><path d="M78.674 13.758v6.9c0 .258-.044.43-.13.517-.087.086-.26.13-.498.13h-6.489c-.238 0-.411-.044-.498-.13-.086-.086-.13-.259-.13-.518v-9.573l.563 1.164a1.267 1.267 0 00-.281.647c-.087.69.39 1.315 1.081 1.402a1.247 1.247 0 001.406-1.079 1.305 1.305 0 00-.367-1.056l.8-1.66c.043 0 .087.021.13.021.303.043.606-.043.844-.194l1.795 1.854a1.03 1.03 0 00-.108.367 1.244 1.244 0 001.081 1.401c.281.022.563-.043.8-.194z" fill="#EA524E"/></g></svg>