<svg width="70" height="70" fill="none" xmlns="http://www.w3.org/2000/svg"><path d="M35 0C20.3 0 8.34 11.96 8.34 26.66c0 5.817 1.837 11.345 5.318 15.983l19.699 26.53c.049.064.124.089.179.146.984 1.054 2.405.79 3.106-.146 5.672-7.569 16.07-21.704 20.068-27.036 0 0 0-.004.002-.007l.025-.033A26.47 26.47 0 0061.66 26.66C61.66 11.96 49.7 0 35 0zm0 41.043c-7.915 0-14.383-6.468-14.383-14.383 0-7.915 6.468-14.383 14.383-14.383 7.915 0 14.383 6.469 14.383 14.383 0 7.915-6.468 14.383-14.383 14.383z" fill="#EB8B55"/></svg>