<svg width="26" height="26" fill="none" xmlns="http://www.w3.org/2000/svg"><path d="M7.11 3.528h16.782a.553.553 0 100-1.107H7.112A2.977 2.977 0 004.191 0a2.978 2.978 0 00-2.974 2.975A2.978 2.978 0 004.192 5.95a2.976 2.976 0 002.919-2.422zm-4.786-.553a1.87 1.87 0 011.868-1.868A1.87 1.87 0 016.06 2.975a1.87 1.87 0 01-1.868 1.868 1.87 1.87 0 01-1.868-1.868zm22.458 20.05a2.978 2.978 0 00-2.975-2.975 2.976 2.976 0 00-2.918 2.422H2.109a.554.554 0 00-.001 1.107h16.781A2.976 2.976 0 0021.807 26a2.978 2.978 0 002.975-2.975zm-4.843 0a1.87 1.87 0 011.868-1.868 1.87 1.87 0 011.868 1.868 1.87 1.87 0 01-1.868 1.868 1.87 1.87 0 01-1.868-1.868zm-3.852-9.581h7.805a.553.553 0 100-1.107h-7.805a2.976 2.976 0 00-2.918-2.421 2.976 2.976 0 00-2.919 2.421H2.445a.553.553 0 100 1.107h7.804a2.977 2.977 0 002.919 2.421 2.977 2.977 0 002.919-2.42zm-4.693 0a1.826 1.826 0 01-.093-.553c0-.194.037-.378.093-.554a1.866 1.866 0 011.774-1.314c.836 0 1.538.556 1.776 1.314.055.176.092.36.092.554 0 .194-.037.378-.092.553a1.865 1.865 0 01-1.776 1.315 1.864 1.864 0 01-1.774-1.315z" fill="#181818"/></svg>