<svg width="14" height="14" fill="none" xmlns="http://www.w3.org/2000/svg"><g clip-path="url(#clip0_7_15144)"><path d="M3.557 13.776l-.462-.458a.76.76 0 01-.224-.542.76.76 0 01.224-.542l5.231-5.23L3.09 1.765a.76.76 0 01-.224-.542.76.76 0 01.224-.541l.459-.459a.767.767 0 011.083 0l6.258 6.236a.783.783 0 01.246.543v.002a.783.783 0 01-.246.541l-6.241 6.23a.773.773 0 01-1.091 0z" fill="#181818"/></g><defs><clipPath id="clip0_7_15144"><path fill="#fff" transform="matrix(0 1 1 0 0 0)" d="M0 0h14v14H0z"/></clipPath></defs></svg>