<svg width="24" height="24" viewBox="0 0 24 24" fill="none" xmlns="http://www.w3.org/2000/svg">

<path d="M20.6076 6.16547C20.5856 5.90562 20.3667 5.70652 20.1059 5.70907H16.2932V4.26421C16.2932 1.9091 14.3839 0 12.029 0C9.67387 0 7.76477 1.9091 7.76477 4.26421V5.70907H3.95206C3.69241 5.71005 3.47567 5.90719 3.45039 6.16547L2.13605 21.276C2.07628 21.9766 2.31301 22.6703 2.78901 23.1882C3.26481 23.706 3.93599 24.0005 4.63932 23.9999H19.4236C20.1269 24.0005 20.7981 23.706 21.2739 23.1882C21.7499 22.6703 21.9868 21.9766 21.927 21.276L20.6076 6.16547ZM8.76812 4.26421C8.76812 2.46329 10.2281 1.00334 12.029 1.00334C13.8299 1.00334 15.2899 2.46329 15.2899 4.26421V5.70907H8.76812V4.26421ZM20.5323 22.51C20.2486 22.8224 19.8455 22.9993 19.4236 22.9966H4.63422C4.21231 22.9968 3.80979 22.8198 3.52447 22.509C3.23934 22.198 3.09765 21.7816 3.1343 21.3612L4.40847 6.71241H7.76477V9.84277C6.95798 10.0911 6.45415 10.892 6.57977 11.7268C6.70519 12.5614 7.42242 13.1787 8.26644 13.1787C9.11047 13.1787 9.82751 12.5614 9.95312 11.7268C10.0785 10.892 9.57471 10.0911 8.76812 9.84277V6.70732H15.2899V9.84277C14.4831 10.0911 13.9792 10.892 14.1049 11.7268C14.2303 12.5614 14.9475 13.1787 15.7915 13.1787C16.6356 13.1787 17.3526 12.5614 17.4782 11.7268C17.6036 10.892 17.0998 10.0911 16.2932 9.84277V6.70732H19.6444L20.9186 21.3561C20.9597 21.7783 20.8192 22.1978 20.5323 22.51ZM8.19119 10.776C8.24117 10.7826 8.29172 10.7826 8.3417 10.776C8.71266 10.8159 8.98779 11.1393 8.96781 11.5118C8.94762 11.8845 8.63956 12.1765 8.26644 12.1765C7.89313 12.1765 7.58507 11.8845 7.56508 11.5118C7.54509 11.1393 7.82003 10.8159 8.19119 10.776ZM15.7163 10.776C15.7662 10.7826 15.8168 10.7826 15.8668 10.776C16.2377 10.8159 16.5129 11.1393 16.4929 11.5118C16.4727 11.8845 16.1646 12.1765 15.7915 12.1765C15.4182 12.1765 15.1102 11.8845 15.0902 11.5118C15.0702 11.1393 15.3451 10.8159 15.7163 10.776Z" fill="#181818"/>

<clipPath id="clip0_7_16086">
<rect width="24" height="24" fill="white"/>
</clipPath>

</svg>
