<svg width="30" height="30" viewBox="0 0 30 30" fill="none" xmlns="http://www.w3.org/2000/svg">
<path d="M25.7597 7.70684C25.7323 7.38203 25.4587 7.13315 25.1326 7.13634H20.3667V5.33027C20.3667 2.38637 17.9801 0 15.0365 0C12.0926 0 9.70621 2.38637 9.70621 5.33027V7.13634H4.94032C4.61576 7.13756 4.34483 7.38399 4.31323 7.70684L2.67031 26.595C2.59559 27.4707 2.8915 28.3379 3.4865 28.9853C4.08126 29.6325 4.92024 30.0006 5.79939 29.9999H24.2797C25.1588 30.0006 25.9978 29.6325 26.5926 28.9853C27.1876 28.3379 27.4837 27.4707 27.409 26.595L25.7597 7.70684ZM10.9604 5.33027C10.9604 3.07911 12.7853 1.25418 15.0365 1.25418C17.2876 1.25418 19.1126 3.07911 19.1126 5.33027V7.13634H10.9604V5.33027ZM25.6657 28.1375C25.311 28.528 24.8071 28.7492 24.2797 28.7457H5.79302C5.26563 28.746 4.76248 28.5248 4.40583 28.1363C4.04941 27.7475 3.87231 27.227 3.91812 26.7016L5.51083 8.39052H9.70621V12.3035C8.69772 12.6138 8.06794 13.615 8.22495 14.6585C8.38173 15.7018 9.27827 16.4734 10.3333 16.4734C11.3883 16.4734 12.2846 15.7018 12.4416 14.6585C12.5984 13.615 11.9686 12.6138 10.9604 12.3035V8.38415H19.1126V12.3035C18.1041 12.6138 17.4743 13.615 17.6313 14.6585C17.7881 15.7018 18.6846 16.4734 19.7397 16.4734C20.7947 16.4734 21.691 15.7018 21.848 14.6585C22.0048 13.615 21.375 12.6138 20.3667 12.3035V8.38415H24.5558L26.1485 26.6952C26.1999 27.2228 26.0243 27.7473 25.6657 28.1375ZM10.2392 13.4699C10.3017 13.4783 10.3649 13.4783 10.4274 13.4699C10.8911 13.5199 11.235 13.9241 11.21 14.3898C11.1848 14.8557 10.7997 15.2207 10.3333 15.2207C9.86666 15.2207 9.48158 14.8557 9.4566 14.3898C9.43161 13.9241 9.77529 13.5199 10.2392 13.4699ZM19.6456 13.4699C19.7081 13.4783 19.7713 13.4783 19.8337 13.4699C20.2974 13.5199 20.6413 13.9241 20.6164 14.3898C20.5911 14.8557 20.2061 15.2207 19.7397 15.2207C19.273 15.2207 18.8879 14.8557 18.863 14.3898C18.838 13.9241 19.1816 13.5199 19.6456 13.4699Z" fill="#181818"/>
<clipPath id="clip0_103_180">
<rect width="30" height="30" fill="white"/>
</clipPath>
</svg>
