<svg width="30" height="30" viewBox="0 0 30 30" fill="none" xmlns="http://www.w3.org/2000/svg">

<path d="M29.8172 28.9332L20.6898 19.8058C22.5847 17.7009 23.7498 14.9259 23.7498 11.8759C23.7498 5.32844 18.4223 0.000976562 11.8748 0.000976562C5.32741 0.000976562 0 5.32844 0 11.8759C0 18.4233 5.32747 23.7508 11.8749 23.7508C14.9249 23.7508 17.6998 22.5858 19.8048 20.6896L28.9323 29.817C29.0548 29.9395 29.2147 30.0007 29.3748 30.0007C29.5348 30.0007 29.6947 29.9395 29.8172 29.8182C30.0609 29.5732 30.0609 29.1782 29.8172 28.9332ZM11.8749 22.5008C6.01623 22.5008 1.25003 17.7346 1.25003 11.8759C1.25003 6.01727 6.01617 1.251 11.8749 1.251C17.7336 1.251 22.4998 6.01721 22.4998 11.8759C22.4998 17.7346 17.7336 22.5008 11.8749 22.5008Z" fill="black"/>

<clipPath id="clip0_170_80">
<rect width="30" height="30" fill="white"/>
</clipPath>

</svg>
