<svg width="24" height="24" viewBox="0 0 24 24" fill="none" xmlns="http://www.w3.org/2000/svg">

<path d="M23.8538 23.1468L16.5518 15.8449C18.0678 14.1609 18.9998 11.9409 18.9998 9.5009C18.9998 4.26295 14.7378 0.000976562 9.49988 0.000976562C4.26193 0.000976562 0 4.26295 0 9.5009C0 14.7388 4.26197 19.0008 9.49992 19.0008C11.9399 19.0008 14.1599 18.0688 15.8439 16.5519L23.1458 23.8538C23.2438 23.9518 23.3718 24.0008 23.4998 24.0008C23.6278 24.0008 23.7558 23.9518 23.8538 23.8548C24.0487 23.6588 24.0487 23.3428 23.8538 23.1468ZM9.49992 18.0008C4.81298 18.0008 1.00002 14.1879 1.00002 9.50095C1.00002 4.81401 4.81294 1.001 9.49992 1.001C14.1869 1.001 17.9998 4.81396 17.9998 9.5009C17.9998 14.1878 14.1869 18.0008 9.49992 18.0008Z" fill="black"/>

<clipPath id="clip0_7_16094">
<rect width="24" height="24" fill="white"/>
</clipPath>

</svg>
