<svg width="160" height="39" viewBox="0 0 160 39" fill="none" xmlns="http://www.w3.org/2000/svg">
<path d="M44.2656 9.37134H47.3894V24.9904H44.2656V9.37134Z" fill="#181818"/>
<path d="M40.915 21.8666C40.2292 21.4094 40.2292 20.4951 40.2292 20.4951V16.838H42.4388V13.7904H40.3054V9.44751H37.2578V20.5713C37.334 23.0856 39.3911 25.1427 41.9054 25.1427C42.134 25.1427 42.2864 25.1427 42.515 25.1427V21.9427C42.515 21.9427 41.6007 22.2475 40.915 21.8666Z" fill="#181818"/>
<path d="M29.7905 13.4858C26.5905 13.4858 24 16.0763 24 19.2763C24 22.4763 26.5905 24.9906 29.7143 24.9906C30.7048 24.9906 31.619 24.762 32.4571 24.0763V24.9906H35.5048V19.2001C35.5048 16.0763 32.9143 13.4858 29.7905 13.4858ZM29.7905 22.0954C28.2667 22.0954 26.9714 20.8001 26.9714 19.2763C26.9714 17.7525 28.2667 16.4573 29.7905 16.4573C31.3143 16.4573 32.6095 17.7525 32.6095 19.2763C32.6095 20.8001 31.3143 22.0954 29.7905 22.0954Z" fill="#181818"/>
<path d="M88.9155 13.4097C85.7155 13.4097 83.125 16.0001 83.125 19.2001C83.125 22.4001 85.7155 24.9906 88.9155 24.9906C92.1155 24.9906 94.7059 22.4001 94.7059 19.2001C94.7059 16.0001 92.1155 13.4097 88.9155 13.4097ZM88.9155 21.943C87.3917 21.943 86.1726 20.724 86.1726 19.2001C86.1726 17.6763 87.3917 16.4573 88.9155 16.4573C90.4393 16.4573 91.6583 17.6763 91.6583 19.2001C91.6583 20.724 90.4393 21.943 88.9155 21.943Z" fill="#181818"/>
<path d="M143.465 14.1714C142.627 13.4857 141.789 13.4095 140.722 13.4095C137.522 13.4095 135.008 15.9999 135.008 19.1238C135.008 22.3238 137.598 24.9142 140.798 24.9142C143.998 24.9142 146.589 22.3238 146.589 19.1238V9.21899H143.541V14.1714H143.465ZM140.722 22.019C139.198 22.019 137.903 20.7238 137.903 19.1999C137.903 17.6761 139.198 16.3809 140.722 16.3809C142.322 16.3809 143.541 17.6761 143.541 19.1999C143.541 20.7999 142.322 22.019 140.722 22.019Z" fill="#181818"/>
<path d="M128.914 17.9811V24.9144H131.962V17.9811C132.114 17.0668 132.876 16.3811 133.79 16.3811C133.943 16.3811 134.171 16.3049 134.247 16.3811V13.4097C134.095 13.4097 133.943 13.4097 133.79 13.4097C131.2 13.4097 129.143 15.4668 128.914 17.9811Z" fill="#181818"/>
<path d="M159.315 19.1999C159.315 15.9237 156.725 13.3333 153.449 13.3333C150.173 13.3333 147.582 15.9237 147.582 19.1999C147.582 22.4761 150.173 25.0666 153.449 25.0666C155.963 25.0666 158.096 23.4666 158.934 21.3333H155.734C155.201 21.9428 154.287 22.3237 153.449 22.3237C152.153 22.3237 151.087 21.5618 150.553 20.419H159.163V20.4952C159.239 20.038 159.315 19.6571 159.315 19.1999ZM150.63 17.9047C151.087 16.838 152.23 16.0761 153.449 16.0761C154.744 16.0761 155.811 16.838 156.268 17.9047H150.63Z" fill="#181818"/>
<path d="M121.83 13.4097C118.63 13.4097 116.039 16.0001 116.039 19.2001C116.039 22.4001 118.63 24.9906 121.83 24.9906C125.03 24.9906 127.62 22.4001 127.62 19.2001C127.62 16.0001 125.03 13.4097 121.83 13.4097ZM121.83 21.943C120.306 21.943 119.087 20.724 119.087 19.2001C119.087 17.6763 120.306 16.4573 121.83 16.4573C123.353 16.4573 124.572 17.6763 124.572 19.2001C124.572 20.724 123.277 21.943 121.83 21.943Z" fill="#181818"/>
<path d="M101.029 13.4097C98.4381 13.4097 96.3047 15.4668 96.1523 17.9811V24.9144H99.2V17.9811C99.3523 17.0668 100.114 16.3811 101.029 16.3811C101.943 16.3811 102.705 17.0668 102.857 17.9049V24.8382H105.905V17.9049C105.752 15.4668 103.619 13.4097 101.029 13.4097Z" fill="#181818"/>
<path d="M66.7434 17.7523C64.5339 16.9904 65.2958 15.5428 66.5149 15.6952C67.2768 15.7713 67.5815 16.6856 67.5815 16.6856L70.0958 15.6952C69.5625 14.2475 68.0387 13.3333 66.2101 13.3333C63.9244 13.3333 62.0958 14.9333 62.0958 16.9142C62.0958 17.9047 62.3243 18.9713 63.9244 19.7333C65.5244 20.4952 67.4292 20.5713 67.2768 21.8666C67.1244 23.0094 65.6768 22.7047 65.372 22.6285C64.3815 22.2475 64.2292 21.3333 64.2292 21.3333L61.8672 22.2475C62.4767 24.3809 64.4577 25.1428 66.2863 25.1428C68.572 25.1428 70.4768 23.5428 70.4768 21.5618C70.4768 20.5713 70.0196 19.5809 69.3339 18.9713C69.2577 18.9713 68.953 18.438 66.7434 17.7523Z" fill="#181818"/>
<path d="M112.915 16.4571C113.373 16.4571 113.83 16.6094 114.211 16.7618L115.735 14.0952C114.896 13.638 113.906 13.3333 112.915 13.3333C109.715 13.3333 107.125 15.9237 107.125 19.1237C107.125 22.3237 109.715 24.9142 112.915 24.9142C113.906 24.9142 114.82 24.6856 115.582 24.2285L114.135 21.4856C113.754 21.7142 113.296 21.7904 112.839 21.7904C111.315 21.7904 110.096 20.5713 110.096 19.0475C110.173 17.6761 111.392 16.4571 112.915 16.4571Z" fill="#181818"/>
<path d="M79.9233 16.4571C80.3804 16.4571 80.8376 16.6094 81.2185 16.7618L82.7423 14.0952C81.9042 13.638 80.9138 13.3333 79.9233 13.3333C76.7233 13.3333 74.1328 15.9237 74.1328 19.1237C74.1328 22.3237 76.7233 24.9142 79.9233 24.9142C80.9138 24.9142 81.8281 24.6856 82.59 24.2285L81.1423 21.4856C80.7614 21.7142 80.3042 21.7904 79.8471 21.7904C78.3233 21.7904 77.1042 20.5713 77.1042 19.0475C77.2566 17.6761 78.4757 16.4571 79.9233 16.4571Z" fill="#181818"/>
<path d="M54.7827 13.4858C51.5827 13.4858 48.9922 16.0763 48.9922 19.2763C48.9922 22.4763 51.5827 24.9906 54.7065 24.9906C55.6969 24.9906 56.6112 24.762 57.4493 24.0763V24.9906H60.4969V19.2001C60.5731 16.0763 57.9827 13.4858 54.7827 13.4858ZM54.7827 22.0954C53.2589 22.0954 51.9636 20.8001 51.9636 19.2763C51.9636 17.7525 53.2589 16.4573 54.7827 16.4573C56.3827 16.4573 57.6016 17.7525 57.6016 19.2763C57.6778 20.8001 56.3827 22.0954 54.7827 22.0954Z" fill="#181818"/>
<path d="M10.3637 9.52393L0.6875 19.1239L10.2875 28.8001L20.0399 19.0477L10.3637 9.52393Z" fill="#181818"/>
<path d="M15.0864 17.1426C15.315 17.7522 15.4673 18.4379 15.4673 19.1236C15.4673 21.9426 13.1816 24.3046 10.2864 24.3046C7.39116 24.3046 5.10547 22.0188 5.10547 19.1236C5.10547 18.4379 5.25785 17.7522 5.48642 17.1426C5.41023 17.5236 5.33404 17.9046 5.33404 18.2855C5.33404 19.1998 5.56261 20.0379 6.01975 20.7998C5.56261 19.276 5.33404 17.5236 6.93401 15.9236C7.69592 15.2379 8.15306 14.3998 8.15306 14.3998C8.15306 14.3998 8.07687 15.1617 7.39116 16.076C6.70544 16.9903 5.86737 18.5903 7.23878 21.1046C7.23878 21.1046 6.32452 18.6665 7.61973 16.8379C8.83878 15.0855 8.6864 14.2474 8.6864 14.2474C8.6864 14.2474 9.29592 15.3141 8.45782 16.7617C7.61973 18.2093 7.39116 20.1141 8.53401 21.8665C8.53401 21.8665 7.54354 19.6569 8.53401 17.9046C9.75306 15.5426 9.21973 14.095 9.21973 14.095C9.21973 14.095 10.4388 15.3141 9.37211 17.9046C8.38163 20.4188 9.82925 22.2474 9.82925 22.2474C9.82925 22.2474 8.91497 20.1141 9.75306 18.0569C10.8197 15.5426 9.90544 13.8665 9.90544 13.8665C9.90544 13.8665 11.4293 15.3903 10.7435 17.5998C10.134 19.6569 10.2102 20.495 10.515 21.5617C10.515 21.5617 10.2864 20.2665 11.2007 17.7522C12.0388 15.5426 10.515 13.8665 10.515 13.8665C10.515 13.8665 12.3435 14.8569 12.115 17.2188C12.0388 18.0569 11.4293 19.1998 11.5816 20.4188C11.8864 18.6665 12.4197 18.3617 12.6483 17.1426C12.8769 15.5426 11.5816 14.0188 11.5816 14.0188C12.8769 14.7046 13.9435 16.6855 13.2578 18.5141C12.5721 20.4188 12.5721 21.5617 12.5721 21.5617C13.1054 19.5807 13.4864 19.5046 13.715 18.2855C14.1721 16.3046 12.9531 14.6284 12.9531 14.6284C15.6959 17.2188 14.0959 20.6474 14.0959 20.6474C14.8578 19.8093 15.0864 18.6665 14.934 17.5236C15.1626 17.4474 15.1626 17.295 15.0864 17.1426Z" fill="white"/>
</svg>
