<svg width="470" height="368" fill="none" xmlns="http://www.w3.org/2000/svg"><path d="M108.362 278.739l-1.221 68.173-106.986.255L0 278.074l108.362.665z" fill="#EBEBEB"/><path d="M45.337 346.975c-.146 0 0-15.221.355-33.995.356-18.774.72-33.986.857-33.977.136.009 0 15.212-.355 33.986-.356 18.774-.72 33.986-.857 33.986zm-45.181.192c.13-.25.276-.49.437-.72l1.321-1.995 4.965-7.287 16.515-24.003c6.449-9.355 12.251-17.844 16.396-24.039 2.077-3.088 3.717-5.62 4.846-7.36.537-.847.966-1.53 1.284-2.022a4.61 4.61 0 01.483-.692 7.634 7.634 0 01-.391.738l-1.212 2.076c-1.075 1.822-2.678 4.336-4.71 7.461-4.062 6.24-9.819 14.766-16.277 24.13A2898.854 2898.854 0 017.179 337.32l-5.092 7.205-1.402 1.94a5.005 5.005 0 01-.529.702z" fill="#E0E0E0"/><path d="M45.336 346.976a4.437 4.437 0 01-.492-.675l-1.33-1.976-4.837-7.288-16.05-23.975c-6.294-9.355-11.942-17.854-15.95-24.057-1.995-3.106-3.643-5.629-4.691-7.378l-1.248-2.032a4.81 4.81 0 01-.41-.719c.183.207.348.429.492.665l1.33 1.976c1.166 1.758 2.806 4.245 4.828 7.288l16.06 23.975c6.294 9.355 11.932 17.854 15.94 24.066 2.004 3.097 3.644 5.621 4.7 7.379l1.248 2.022c.154.233.291.476.41.729zm11.046-7.738l17.177.309.063-3.516-17.177-.309-.063 3.516zm.868-6.354a68.658 68.658 0 018.399-.301 71.056 71.056 0 018.407.201 71.14 71.14 0 01-8.398.3 71.27 71.27 0 01-8.408-.2zm22.838-54.537l-.473 26.317-3.708-2.943-4.81 2.788.474-26.316 8.517.154z" fill="#E0E0E0"/><path d="M95.53 227.099l-.93 52.032-81.644.191-.128-52.733 82.702.51z" fill="#F5F5F5"/><path d="M47.429 279.176c-.11 0 0-11.614.273-25.942.273-14.329.546-25.934.656-25.934.109 0 0 11.614-.273 25.943-.274 14.328-.556 25.933-.656 25.933zm-34.476.146c.095-.19.205-.373.328-.547.255-.376.592-.886 1.011-1.53.911-1.339 2.205-3.234 3.79-5.556 3.242-4.71 7.688-11.159 12.607-18.283a2097.533 2097.533 0 0012.506-18.345 658.41 658.41 0 003.699-5.621l.974-1.548a6.19 6.19 0 01.365-.528c-.086.198-.186.39-.3.573l-.912 1.576c-.82 1.358-2.04 3.316-3.589 5.693-3.106 4.765-7.497 11.278-12.425 18.419a2597.371 2597.371 0 01-12.698 18.218l-3.88 5.466c-.456.619-.81 1.12-1.075 1.485a3.842 3.842 0 01-.4.528z" fill="#E0E0E0"/><path d="M47.43 279.176a3.119 3.119 0 01-.382-.51l-1.011-1.512c-.911-1.339-2.14-3.234-3.69-5.556l-12.279-18.301c-4.8-7.132-9.109-13.663-12.17-18.364-1.52-2.368-2.732-4.29-3.58-5.629l-.91-1.549c-.21-.355-.319-.546-.31-.546.142.156.267.327.374.51l1.02 1.503c.91 1.348 2.14 3.234 3.643 5.566l12.261 18.3c4.8 7.132 9.11 13.618 12.161 18.355 1.53 2.368 2.733 4.299 3.59 5.638l.956 1.54c.122.177.231.363.328.555zm9.036-6.28l13.108.262.054-2.687-13.108-.262-.054 2.687z" fill="#E0E0E0"/><path d="M56.484 268.418a54.95 54.95 0 016.377-.227 55.833 55.833 0 016.376.154 52.408 52.408 0 01-6.376.228 51.207 51.207 0 01-6.377-.155z" fill="#EBEBEB"/><path d="M79.023 226.808l-.364 20.085-2.824-2.249-3.67 2.131.354-20.086 6.504.119z" fill="#E0E0E0"/><path d="M104.383 342.248a14.856 14.856 0 00-13.4-10.093l-2.505-137.867h12.061v2.059h2.268v-4.937H84.069s2.232 101.712 3.854 140.882c-.806.13-1.601.322-2.378.573a14.868 14.868 0 00-10.12 14.375l-42.722-.565 1.22 5.611 42.112-1.157c.055.192.1.383.164.583a14.874 14.874 0 0027.61 2.034 14.863 14.863 0 00.574-11.535v.037z" fill="#E0E0E0"/><path d="M40.89 360.493h2.26l4.354-8.544-3.598.1-3.015 8.444z" fill="#E0E0E0"/><path d="M417.636 0h-42.777v11.824h42.777V0zm9.324 250.282h-42.776v11.824h42.776v-11.824z" fill="#EBEBEB"/><path d="M406.776 11.815H364v11.823h42.776V11.814zm-7.042 250.664H369v11.824h30.734v-11.824z" fill="#F5F5F5"/><path d="M467.507 39.342h-92.148v188.441h92.148V39.343z" fill="#EBEBEB"/><path d="M421.433 39.342s-18.892 85.48-46.074 91.319c0 0 10.931 59.966 11.97 97.122h-11.97V39.343h46.074zm.309 0s18.893 85.48 46.083 91.319c0 0-10.931 59.966-11.978 97.122h11.978V39.343h-46.083z" fill="#E0E0E0"/><path d="M423.107 38.978h-3.361v188.805h3.361V38.978zm-25.614 0h-.829v188.805h.829V38.978zm49.742 0h-.829v188.805h.829V38.978z" fill="#FAFAFA"/><path d="M467.507 85.799v.756l-92.148.373v-.756l92.148-.373zm0 93.751v.738l-92.148.373v-.738l92.148-.373zm0-47.878h-92.148v3.143h92.148v-3.143z" fill="#FAFAFA"/><path d="M468.872 229.149H374V37.976h94.872v191.173zm-92.148-2.733h89.415V40.709h-89.406l-.009 185.707z" fill="#F5F5F5"/><path d="M203.223 333.494a17.046 17.046 0 00-10.576-1.284c-1.922.318-3.926.91-5.228 2.332-1.303 1.421-1.558 3.98-.055 5.219a4.974 4.974 0 003.297.838c2.797 0 5.894-.528 8.135 1.157 1.275.966 2.122 2.56 3.644 3.033a3.64 3.64 0 003.971-1.767 6.217 6.217 0 00.446-4.554 6.939 6.939 0 00-1.237-2.911 6.944 6.944 0 00-2.397-2.063zm7.382-14.238c-1.968 2.815-5.794 1.886-7.57.164-1.776-1.721-2.523-4.199-3.207-6.567-1.557-5.466-3.133-11.104-1.967-16.624a9.16 9.16 0 012.122-4.555 4.842 4.842 0 014.555-1.521c1.922.51 3.124 2.396 3.99 4.199a39.505 39.505 0 013.917 16.998c0 2.732-.31 5.611-1.822 7.87m5.383 4.072a10.226 10.226 0 01-1.585-9.41 18.082 18.082 0 015.575-8.089 29.997 29.997 0 0110.02-5.893 10.71 10.71 0 014.491-.756 4.7 4.7 0 013.762 2.277c1.057 2.004.046 4.436-1.048 6.376a74.633 74.633 0 01-6.558 10.02c-1.959 2.533-4.209 5.028-7.205 6.176-2.997 1.148-6.113 1.011-7.698-1.066" fill="#EBEBEB"/><path d="M210.739 361.668a5.384 5.384 0 01-.183-1.275c-.091-.911-.2-2.104-.337-3.489a48.48 48.48 0 00-.783-5.119 40.534 40.534 0 00-1.822-6.03 22.155 22.155 0 00-3.088-5.466 11.467 11.467 0 00-3.889-3.233 10.707 10.707 0 00-3.289-1.021 5.585 5.585 0 01-1.266-.191c.43-.043.863-.043 1.294 0a9.795 9.795 0 013.415.911 11.425 11.425 0 014.118 3.27 21.652 21.652 0 013.188 5.566 37.534 37.534 0 011.822 6.139c.328 1.71.556 3.438.683 5.174.109 1.485.146 2.678.164 3.507a6.6 6.6 0 01-.027 1.257z" fill="#E0E0E0"/><path d="M210.491 358.981a2.663 2.663 0 010-.592v-1.694c0-1.467 0-3.644-.073-6.231-.137-5.256-.583-12.507-1.457-20.486-.875-7.98-2.05-15.158-3.116-20.304a82.531 82.531 0 00-.747-3.471c-.246-1.011-.419-1.904-.601-2.614-.182-.711-.291-1.212-.401-1.649a2.455 2.455 0 01-.1-.583c.085.178.152.364.2.556.137.428.292.965.492 1.63.201.665.447 1.576.702 2.587.255 1.011.546 2.177.82 3.462a194.048 194.048 0 013.27 20.322c.911 7.998 1.275 15.276 1.311 20.55 0 2.633.001 4.764-.1 6.24 0 .683-.073 1.248-.1 1.694a2.305 2.305 0 01-.1.583z" fill="#E0E0E0"/><path d="M210.429 344.944a11.33 11.33 0 010-1.767c.064-1.139.219-2.787.537-4.801.39-2.355.911-4.688 1.558-6.986a62.037 62.037 0 012.924-8.271 44.012 44.012 0 018.645-13.363 21.396 21.396 0 012.013-1.877c.309-.264.583-.528.865-.729l.783-.546c.471-.347.97-.652 1.494-.911a50.883 50.883 0 00-4.891 4.354 46.48 46.48 0 00-8.372 13.318 67.034 67.034 0 00-2.933 8.198 71.23 71.23 0 00-1.658 6.914 66.89 66.89 0 00-.71 4.755 10.418 10.418 0 01-.255 1.712z" fill="#E0E0E0"/><path d="M470 362.5c0 .269-105.22.5-234.991.5C105.239 363 0 362.769 0 362.5s105.164-.5 235.009-.5c129.845 0 234.991.231 234.991.5z" fill="#263238"/><path d="M416.498 332.61c-13.244-8.672-16.606-25.268-16.46-40.262 0-2.505-.31-5.128.838-7.351s3.926-3.789 6.222-2.796c1.903.828 2.732 2.969 3.871 4.736a14.73 14.73 0 006.085 5.466c1.63.792 3.644 1.248 5.21.346 2.159-1.248 2.341-4.236 2.268-6.723-.145-4.633-.288-9.267-.428-13.9a22.68 22.68 0 01.574-7.406c.729-2.377 2.405-4.618 4.792-5.338 2.386-.719 5.374.574 5.939 2.997a23.39 23.39 0 01.155 3.097 2.613 2.613 0 001.603 2.423c1.02.273 2.004-.455 2.733-1.202 2.541-2.578 4.226-5.857 5.802-9.109 1.576-3.252 3.088-6.595 5.384-9.383 2.295-2.787 5.465-5.046 9.109-5.338 3.643-.291 7.506 1.822 8.498 5.293.993 3.47-.983 7.096-3.169 10.02a56.036 56.036 0 01-11.432 11.259 4.552 4.552 0 00-1.913 2.122c-.501 1.676 1.129 3.288 2.796 3.789 1.895.574 3.926.328 5.903.511 1.977.182 4.117.983 4.91 2.805 1.093 2.514-.993 5.229-3.07 7.032a48.652 48.652 0 01-14.065 8.463c-1.821.71-3.78 1.348-5.237 2.669-1.458 1.321-2.314 3.58-1.367 5.31.948 1.731 3.28 2.232 5.211 1.822 1.931-.41 3.643-1.485 5.465-2.213 3.425-1.376 7.907-1.248 10.193 1.658a7.753 7.753 0 011.021 6.941 18.051 18.051 0 01-3.644 6.239 48.53 48.53 0 01-20.341 14.839c-7.97 2.942-15.394 3.872-23.456 1.175" fill="#6B8D72"/><path d="M464.957 244.844s-.073.091-.237.246l-.729.674c-.646.592-1.603 1.467-2.796 2.624a92.566 92.566 0 00-9.373 10.484c-1.822 2.35-3.708 5.01-5.676 7.898-1.967 2.887-4.053 5.994-6.112 9.337a110.273 110.273 0 00-5.957 10.785c-.911 1.922-1.74 3.935-2.578 5.985-.838 2.049-1.676 4.126-2.523 6.23a226.15 226.15 0 00-8.399 24.148 110.155 110.155 0 00-3.698 20.514 80.47 80.47 0 00.109 14.056c.173 1.648.337 2.933.474 3.798.055.413.1.741.137.984.014.112.014.225 0 .337a1.545 1.545 0 01-.082-.328c-.046-.246-.11-.565-.183-.984-.173-.856-.364-2.141-.564-3.789a76.623 76.623 0 01-.255-14.101 108.695 108.695 0 013.643-20.596 221.318 221.318 0 018.381-24.212c.847-2.104 1.694-4.181 2.523-6.24.829-2.058 1.658-4.071 2.596-6.003 1.8-3.712 3.804-7.321 6.003-10.812 2.077-3.343 4.172-6.44 6.158-9.328 1.985-2.887 3.889-5.538 5.729-7.879a88.992 88.992 0 019.51-10.412 84.276 84.276 0 012.86-2.56l.766-.646.273-.21z" fill="#263238"/><path d="M433.815 286.655a5.419 5.419 0 01-.273-1.057 79.042 79.042 0 01-.538-2.915c-.419-2.468-.911-5.893-1.366-9.673a160.493 160.493 0 00-1.448-9.656c-.228-1.23-.419-2.214-.556-2.906a4.35 4.35 0 01-.2-1.029c.146.334.259.682.337 1.038.2.674.437 1.658.701 2.879.537 2.45 1.102 5.866 1.594 9.655l1.23 9.692c.155 1.157.282 2.141.392 2.934.083.339.126.688.127 1.038zm32.257-6.75a7.844 7.844 0 01-1.285.182c-.829.091-2.031.219-3.507.428-2.96.383-7.032 1.057-11.486 2.004-4.455.948-8.453 1.968-11.323 2.797-1.439.401-2.596.756-3.398 1.002-.407.15-.828.263-1.257.337.383-.209.786-.38 1.203-.51a64.173 64.173 0 013.352-1.148c2.851-.911 6.85-1.986 11.323-2.933a113.36 113.36 0 0111.541-1.877 58.153 58.153 0 013.534-.282c.433-.047.87-.047 1.303 0zm-45.5 42.622a1.976 1.976 0 01-.228-.383l-.583-1.148a117.79 117.79 0 01-2.013-4.263c-1.658-3.643-3.78-8.708-6.049-14.347-2.268-5.638-4.336-10.73-5.911-14.383l-1.859-4.327-.501-1.175a1.857 1.857 0 01-.155-.428s.101.128.237.383c.137.255.346.692.583 1.147.501.993 1.184 2.451 2.013 4.263 1.649 3.644 3.781 8.709 6.049 14.347 2.268 5.639 4.336 10.731 5.912 14.384l1.876 4.326c.201.474.364.911.501 1.175.064.136.107.28.128.429zm42.731-14.721a2.891 2.891 0 01-.429.182l-1.238.447-4.555 1.576c-3.862 1.339-9.182 3.252-15.048 5.374-5.867 2.122-11.204 3.981-15.094 5.238a151.085 151.085 0 01-4.628 1.448l-1.266.365a1.68 1.68 0 01-.455.091c.133-.081.277-.143.428-.183l1.239-.446 4.554-1.585c3.863-1.339 9.182-3.243 15.049-5.365 5.866-2.123 11.204-3.981 15.093-5.247 1.95-.629 3.526-1.12 4.628-1.439l1.266-.365c.147-.051.3-.082.456-.091z" fill="#263238"/><path d="M102.694 359.2l1.485-9.273-16.606-2.733-2.35 13.846 1.01.237c4.555 1.029 23.193 4.609 26.417 4.144 3.598-.546-9.956-6.221-9.956-6.221z" fill="#EB8B55"/><path d="M113.183 364.602c0 .154-6.258-.711-13.928-1.941-7.67-1.229-13.864-2.35-13.837-2.505.027-.155 6.258.711 13.928 1.941 7.67 1.229 13.864 2.35 13.837 2.505zm-10.496-3.462c-.127-.091.064-.565.501-.993.438-.428.911-.61 1.002-.483.091.128-.2.501-.601.911-.401.41-.774.665-.902.565zm.957.784c-.136-.082 0-.62.447-1.139.446-.519.911-.811 1.011-.692.1.118-.173.555-.565 1.047-.392.492-.747.866-.893.784z" fill="#263238"/><path d="M90.433 360.894c-.073 0-.283-.246-.584-.71a10.505 10.505 0 00-1.22-1.695 3.832 3.832 0 00-1.676-1.074c-.492-.146-.838-.119-.847-.21-.01-.091.328-.246.91-.182a3.366 3.366 0 012.014 1.075 6.121 6.121 0 011.166 1.904c.227.528.3.865.237.892zm12.582-1.485c.054.137-.274.419-.784.511-.51.091-.911 0-.911-.183 0-.182.365-.282.802-.373.437-.091.829-.109.893.045zm-.12-.947c0 .164-.474.228-1.038.146-.565-.082-.984-.274-.911-.428.073-.155.492-.219 1.029-.137.538.082.929.264.92.419z" fill="#263238"/><path d="M161.44 357.196l-.346-9.382-16.824.51.373 14.037h1.048c4.654.127 23.683 0 26.717-1.066 3.425-1.166-10.968-4.099-10.968-4.099z" fill="#EB8B55"/><path d="M172.774 360.457c0 .164-6.277.519-14.038.811-7.761.291-14.055.382-14.064.227-.009-.154 6.285-.519 14.046-.801 7.761-.283 14.046-.392 14.056-.237zm-10.971-1.357c-.146-.064-.045-.565.301-1.066.346-.501.774-.783.911-.674.136.109-.092.528-.41.993-.319.464-.656.82-.802.747zm1.094.583c-.145-.046-.091-.61.219-1.203.31-.592.729-.965.856-.911.128.055-.064.574-.346 1.13-.282.556-.574 1.038-.729.984z" fill="#263238"/><path d="M149.734 361.249c-.064 0-.319-.191-.702-.592a11.436 11.436 0 00-1.53-1.421 3.878 3.878 0 00-1.822-.729c-.51 0-.847.046-.911 0-.063-.045.274-.309.911-.364a3.332 3.332 0 012.186.665 6.095 6.095 0 011.513 1.64c.273.428.419.756.355.801zm12.052-3.907c.091.127-.183.464-.656.655-.474.192-.911.146-.911 0 0-.145.3-.355.719-.528.419-.173.756-.264.848-.127zm-.289-.902c0 .155-.428.31-.992.337-.565.027-1.021-.073-1.021-.237 0-.164.447-.31.993-.337.547-.027.993.082 1.02.237z" fill="#263238"/><path d="M184.249 123.629l-.91-3.061a27.444 27.444 0 00-1.485-5.165 8.002 8.002 0 00-1.348-2.313 12.4 12.4 0 00-2.36-2.341c-.911-.538-.683-1.822.228-1.922.911-.101 3.361 1.33 5.238 4.053 1.876 2.724 2.222-2.405 2.386-4.272.164-1.867.911-7.615 1.54-7.998.911-.574 1.694.301 1.494 2.159-.201 1.858-.428 7.488.555 7.552.984.063 1.667-9.456 1.667-9.456s-.182-2.067.966-2.031c2.059.064.574 10.111.41 11.058-.11.665.956.766 1.047.055.091-.71.465-9.519 2.56-9.473 1.612 0-1.139 8.271-.21 10.165.93 1.895 1.449-6.485 2.988-6.376.565 0 .993.137 0 4.882-.993 4.746-5.893 17.526-5.893 17.526l-8.945-3.197m-61.468-2.359l15.14 1.12c.2-1.749.501-8.553.501-8.553s6.322-.592 6.777-6.85c.455-6.258.273-20.696.273-20.696a21.796 21.796 0 00-22.035 1.403l-.974.655.318 32.921z" fill="#FFBE9D"/><path d="M143.286 96.812a.917.917 0 01.018-1.294.915.915 0 11-.018 1.294z" fill="#263238"/><path d="M144.901 95.454c-.109.1-.692-.41-1.558-.464-.865-.055-1.512.346-1.603.228-.091-.119.073-.237.355-.429a2.07 2.07 0 011.294-.318c.453.03.884.205 1.23.5.246.256.327.483.282.483zm-9.985.156a.914.914 0 01-.366 1.645.91.91 0 11-.312-1.798.91.91 0 01.678.152z" fill="#263238"/><path d="M135.479 95.655c-.101.1-.684-.41-1.549-.465-.865-.054-1.512.346-1.603.228-.091-.118.064-.237.355-.428.38-.247.833-.36 1.284-.319.454.028.886.204 1.23.501.255.282.337.437.283.483zm3.027 7.324a4.42 4.42 0 011.412-.201c.228 0 .41-.054.438-.173a1.252 1.252 0 00-.119-.665c-.191-.583-.373-1.175-.574-1.822a24.397 24.397 0 01-1.202-4.69c.7 1.46 1.255 2.985 1.658 4.554.182.619.355 1.22.537 1.822.118.289.14.608.064.91a.609.609 0 01-.41.337 1.437 1.437 0 01-.382 0 4.557 4.557 0 01-1.422-.072z" fill="#263238"/><path d="M135.643 103.762c-.865-.592 2.396 1.467 4.154 1.485a2.39 2.39 0 01-2.869.774c-1.831-.802-1.285-2.259-1.285-2.259z" fill="#fff"/><path d="M138.356 113.591a14.633 14.633 0 01-8.016-2.824s1.649 4.627 7.934 4.445l.082-1.621z" fill="#EB996E"/><path d="M122.526 94.543l.756 4.491 2.787-.054-.182-9.355s11.058.856 12.325-3.571c0 0 3.252 4.891 7.287 4.873 0 0 3.534-.364.173-5.292-5.192-7.579-23.684-1.485-23.684-1.485a12.766 12.766 0 00-.665 4.3c-.073 4.846 1.203 6.093 1.203 6.093z" fill="#263238"/><path d="M121.007 89.989l24.594-4.883s-1.749-9.856-15.039-6.986c-12.898 2.814-9.555 11.869-9.555 11.869z" fill="#EB8B55"/><path d="M121.004 89.989c.346-.064 30.115.637 32.237-3.48 1.011-1.967-7.797-2.022-7.797-2.022l.2.62-24.64 4.882z" fill="#EB8B55"/><path opacity=".2" d="M121.004 89.989c.346-.064 30.115.637 32.237-3.48 1.011-1.967-7.797-2.022-7.797-2.022l.2.62-24.64 4.882z" fill="#000"/><path d="M123.59 93.751c-.137-.055-4.646-.638-4.218 4.682.429 5.32 5.657 3.134 5.657 2.979 0-.155-1.439-7.66-1.439-7.66z" fill="#FFBE9D"/><path d="M123.256 99.672s-.092.073-.246.164a.913.913 0 01-.693.064 2.281 2.281 0 01-1.22-1.968 2.97 2.97 0 01.155-1.348 1.054 1.054 0 01.637-.774.474.474 0 01.565.21c.082.145.064.254.091.263.027.01.109-.1 0-.319a.606.606 0 00-.237-.318.71.71 0 00-.519-.091 1.326 1.326 0 00-.911.91c-.185.482-.254 1-.2 1.513a2.42 2.42 0 001.539 2.195 1.03 1.03 0 00.838-.21c.201-.154.219-.282.201-.291z" fill="#EB996E"/><path d="M138.1 82.433l-3.014.058.058 3.014 3.014-.058-.058-3.014zm-.026-1.636l-1.512.03.03 1.511 1.512-.029-.03-1.512z" fill="#263238"/><path d="M183.139 119.712s-4.655 29.623-7.935 29.778c-3.743.182-15.257-16.151-15.257-16.151-7.37-11.368-17.089-13.208-20.632-13.49v-1.403l-17.417-1.43v2.814h-7.715s-13.81-.637-15.887 17.918l9.938 7.852 4.072 15.149c1.239 4.627-.656 10.53-2.733 20.896l-1.248-.292-.528 10.449c-.073.491-.146.992-.209 1.493h.136l-4.208 83.431L82 357.533l24.221.911 22.336-78.84s1.94-63.035 3.908-63.071c3.306-.064 5.419 140.226 6.686 139.907 1.266-.319 26.143-.064 26.143-.064s-8.235-163.454-8.153-163.454l-2.131-30.971-.811-8.945c4.728 6.649 13.664 17.034 23.21 16.852 15.549-.301 17.735-48.506 17.735-48.506l-12.005-1.64z" fill="#455A64"/><path d="M131.57 215.904a21.5 21.5 0 001.44-2.732 20.354 20.354 0 001.175-7.224v-7.442a18.206 18.206 0 01.118-3.079c.147 1.02.22 2.049.219 3.079.054 1.904.173 4.554.145 7.451a26.057 26.057 0 01-.364 4.108 13.909 13.909 0 01-.975 3.243 10.308 10.308 0 01-1.166 1.959c-.364.428-.528.665-.592.637zm-14.291-13.235c.089.276.132.566.127.856.046.556.101 1.348.128 2.35a15.631 15.631 0 01-1.521 7.606 8.55 8.55 0 01-2.897 3.225 6.899 6.899 0 01-3.37 1.057 5.468 5.468 0 01-2.351-.401 2.071 2.071 0 01-.747-.456 7.058 7.058 0 003.079.529 6.926 6.926 0 003.152-1.102 8.41 8.41 0 002.733-3.079 16.57 16.57 0 001.603-7.379 30.894 30.894 0 01.064-3.206zm41.587 14.511s-.146.264-.593.564a3.844 3.844 0 01-2.177.565 5.4 5.4 0 01-3.133-1.166 11.97 11.97 0 01-2.733-3.006 15.49 15.49 0 01-2.523-6.859 14.099 14.099 0 01-.064-2.232 2.299 2.299 0 01.128-.801c.082 0 0 1.156.273 2.987a16.505 16.505 0 002.578 6.641 12.208 12.208 0 002.605 2.924 5.184 5.184 0 002.878 1.175 4.015 4.015 0 002.077-.392c.447-.227.656-.437.684-.4zm-51.535 135.899c0 .136-5.375.045-11.988-.192-6.613-.237-11.987-.555-11.987-.674 0-.118 5.374-.045 11.996.201 6.623.246 11.988.537 11.979.665zm57.095-3.644a3.88 3.88 0 01-1.011.137l-2.733.209c-2.332.146-5.547.319-9.109.483a642.24 642.24 0 01-9.109.355l-2.733.046c-.34.027-.683.012-1.02-.046.331-.084.67-.13 1.011-.136l2.733-.201c2.332-.155 5.547-.328 9.109-.492a518.14 518.14 0 019.109-.346l2.733-.055a4.836 4.836 0 011.02.046z" fill="#263238"/><path d="M119.74 217.835c.014.118.014.238 0 .356v1.047c0 .911-.046 2.296-.073 4.026a882.179 882.179 0 01-.492 14.794 1171.39 1171.39 0 01-1.093 21.925c-.246 4.127-.519 8.454-.911 12.935-.191 2.241-.364 4.555-.756 6.832s-.911 4.6-1.385 6.941c-4.153 18.628-8.817 35.262-12.461 47.222a372.097 372.097 0 01-4.61 14.074l-1.393 3.771c-.164.41-.282.738-.383.974-.03.115-.076.226-.136.328a1.39 1.39 0 01.091-.337c.082-.246.191-.574.337-.993l1.312-3.807c1.093-3.316 2.732-8.116 4.463-14.101 3.553-11.979 8.198-28.63 12.316-47.24.501-2.323 1.002-4.627 1.384-6.905.383-2.277.565-4.554.756-6.795.374-4.482.656-8.809.911-12.926.51-8.198.911-15.677 1.194-21.917.282-6.239.491-11.268.646-14.784.064-1.73.119-3.079.155-4.026 0-.437.018-.783.055-1.038.018-.12.042-.238.073-.356zm33.428 132.21a1.297 1.297 0 01-.045-.328c0-.237 0-.555-.073-.965-.064-.911-.146-2.123-.255-3.717-.192-3.252-.465-7.916-.811-13.663a3425.764 3425.764 0 01-2.204-45.118 3954.096 3954.096 0 01-1.649-45.154c-.155-5.757-.292-10.43-.374-13.664 0-1.594-.063-2.842-.082-3.716v-.975a1.996 1.996 0 010-.328c.01.109.01.219 0 .328 0 .246 0 .565.055.966 0 .911.091 2.131.164 3.725.128 3.252.301 7.925.528 13.664a23348.74 23348.74 0 001.822 45.136c.729 17.617 1.503 33.576 2.068 45.126.282 5.757.501 10.421.665 13.664.064 1.594.118 2.842.155 3.726v.965c.022.108.034.218.036.328zm-20.004-232.109c.069.815.069 1.635 0 2.45a35.501 35.501 0 01-.601 6.094l-.055.301-.273-.146a31.82 31.82 0 01-1.776-.975c-2.533-1.475-4.682-3.015-6.276-4.072-1.594-1.056-2.569-1.703-2.542-1.758.96.396 1.876.89 2.733 1.476 1.64.993 3.826 2.487 6.331 3.944.592.346 1.184.674 1.749.975l-.337.155c.383-1.985.633-3.994.747-6.012.034-.818.135-1.631.3-2.432zm6.196 2.031a17.225 17.225 0 01-.492 2.268c-.173.693-.355 1.531-.656 2.451-.154.482-.34.954-.556 1.412a.898.898 0 01-.328.391.494.494 0 01-.336.083.493.493 0 01-.31-.156 2.878 2.878 0 01-.41-.801 185.505 185.505 0 01-2.104-5.192 11.064 11.064 0 01-.711-2.196c.421.655.775 1.351 1.057 2.077a214.53 214.53 0 012.231 5.147c.082.227.182.446.301.656h.073a.555.555 0 00.155-.201c.213-.441.402-.894.565-1.357.309-.911.528-1.703.737-2.396a8.81 8.81 0 01.784-2.186zm-3.271 62.243a2.892 2.892 0 01-.072-.656c0-.474-.073-1.093-.128-1.867-.082-1.677-.209-4.018-.355-6.887-.264-5.857-.62-13.864-1.02-22.709-.401-8.845-.647-16.852-.911-22.718-.091-2.87-.155-5.201-.21-6.887v-1.821a5.128 5.128 0 010-.656 3 3 0 01.082.646c0 .474.073 1.094.119 1.868.091 1.685.209 4.017.364 6.886.264 5.857.619 13.864 1.011 22.709.392 8.845.656 16.861.911 22.718.091 2.87.164 5.211.219 6.887v1.876c.019.204.016.408-.01.611z" fill="#263238"/><path d="M147.19 136.805l-8.37.162.034 1.73 8.37-.162-.034-1.73z" fill="#fff"/><path d="M155.145 165.085c-.136 0-.665-6.322-1.184-14.147-.519-7.825-.838-14.155-.71-14.165.127-.009.656 6.322 1.184 14.138.528 7.815.884 14.164.71 14.174zm39.726-37.667a43.584 43.584 0 01-6.285-1.193 44.373 44.373 0 01-6.176-1.658c2.122.244 4.222.643 6.285 1.193a43.05 43.05 0 016.176 1.658zm-9.919-5.602a.865.865 0 01.803.514.866.866 0 01-.17.938.86.86 0 01-.932.2.855.855 0 01-.54-.786.855.855 0 01.513-.797.847.847 0 01.326-.069z" fill="#263238"/><path d="M147.104 132.943l-3.014.058.058 3.014 3.014-.058-.058-3.014zm-.041-1.646l-1.512.029.029 1.512 1.512-.03-.029-1.511zm45.177 17.1l-1.239 48.642-76.325-.391.246-49.29 77.318 1.039z" fill="#EB8B55"/><path d="M146.903 196.757c-.127 0 0-10.867.383-24.258.382-13.39.747-24.212.847-24.212.1 0 0 10.858-.373 24.258-.374 13.399-.729 24.212-.857 24.212zm-32.227-.109c.08-.181.181-.353.3-.51l.911-1.431 3.562-5.183 11.896-17.016c4.655-6.64 8.845-12.661 11.842-17.052 1.503-2.195 2.733-3.98 3.516-5.219l.911-1.43c.12-.189.26-.363.419-.52a2.058 2.058 0 01-.273.529l-.856 1.484a195.25 195.25 0 01-3.389 5.302c-2.924 4.445-7.078 10.503-11.723 17.143a1757.983 1757.983 0 01-12.015 16.934l-3.644 5.101c-.419.565-.765 1.021-1.02 1.376-.123.183-.27.348-.437.492z" fill="#263238"/><path d="M146.147 197.14c-.109.073-7.142-10.886-15.695-24.477-8.553-13.59-15.413-24.667-15.294-24.731.118-.064 7.132 10.886 15.695 24.476 8.562 13.591 15.403 24.668 15.294 24.732zm9.644-7.176l12.252.367.075-2.514-12.251-.368-.076 2.515zm-.307-3.2a36.713 36.713 0 015.994-.227c2.001-.083 4.006 0 5.994.246a39.349 39.349 0 01-5.994.227 39.23 39.23 0 01-5.994-.246zm21.315-38.759l-.473 18.783-2.624-2.122-3.452 1.967.483-18.774 6.066.146z" fill="#263238"/><path d="M113.418 143.05s-3.698 25.815-1.949 27.327c9.692 8.153 23.164 12.425 27.983 13.773.702-.173 1.53-.392 2.469-.692a7.413 7.413 0 002.268-1.184 11.638 11.638 0 002.341-2.168.997.997 0 011.026-.457.993.993 0 01.796.794c.045.91-1.385 3.188-4.072 4.855 0 0 6.176 9.938 8.144 10.83 1.967.893 7.606 3.435 6.649 3.927-.956.491-7.806-1.513-7.806-1.513l-13.901-3.716s-45.992-7.205-42.922-28.302c1.876-12.926 3.926-24.595 4.664-27.528l14.31 4.054z" fill="#FFBE9D"/><path d="M98.315 137.757l-4.126 28.165c-.911 8.681 4.855 15.559 12.67 19.439 11.897 5.894 29.559 10.093 29.414 10.066-.146-.027 1.193-12.525 1.193-12.525s-24.759-10.722-25.506-15.331c-.747-4.609 3.143-23.875 3.143-23.875l-16.788-5.939z" fill="#455A64"/><path d="M136.273 195.427a.67.67 0 010-.219v-.655c.045-.611.109-1.449.191-2.505.191-2.214.464-5.347.802-9.201l.1.164-12.462-6.03-3.643-1.758a56.343 56.343 0 01-3.644-2.122 34.77 34.77 0 01-3.516-2.578 28.543 28.543 0 01-1.658-1.494 3.162 3.162 0 01-.719-.911 2.321 2.321 0 01-.201-.565 4.15 4.15 0 01-.127-.583c-.401-3.07.428-5.985.847-8.754.419-2.769.911-5.465 1.393-8.034.911-5.11 1.695-9.71 2.378-13.591.367-1.72.577-3.47.628-5.228a9.183 9.183 0 00-.801-3.844 6.412 6.412 0 00-1.458-2.014c-.428-.391-.692-.537-.683-.564.27.129.522.295.747.492a6.082 6.082 0 011.558 2.004 9.114 9.114 0 01.911 3.917 28.27 28.27 0 01-.565 5.292c-.647 3.889-1.421 8.499-2.277 13.618l-1.367 8.043c-.118.693-.236 1.403-.364 2.114-.128.71-.255 1.402-.355 2.122a15.84 15.84 0 00-.11 4.354c.023.179.059.356.11.529.038.17.096.335.173.492.15.311.365.587.628.81.52.519 1.066 1.002 1.622 1.476a36.136 36.136 0 003.461 2.541 47.035 47.035 0 003.58 2.114l3.589 1.767 12.398 6.121.109.055v.1c-.401 3.853-.729 6.987-.911 9.191-.118 1.057-.21 1.886-.273 2.496 0 .264-.064.474-.091.647-.028.173.009.2 0 .191z" fill="#263238"/><path d="M133.978 181.135a7.608 7.608 0 01-.146 1.922 86.204 86.204 0 01-.729 4.554 66.181 66.181 0 01-1.011 4.555 7.766 7.766 0 01-.61 1.822c-.128 0 .492-2.897 1.157-6.45a53.764 53.764 0 011.339-6.403z" fill="#263238"/><path d="M136.272 195.427a1.514 1.514 0 01-.428-.064l-1.23-.3-4.481-1.166c-3.762-1.021-9.009-2.351-14.575-4.418a61.574 61.574 0 01-7.706-3.425 44.41 44.41 0 01-5.794-3.726 32.867 32.867 0 01-3.47-3.088c-.374-.392-.665-.71-.847-.911a1.513 1.513 0 01-.264-.355s.446.41 1.248 1.157a37.564 37.564 0 003.543 2.942 44.376 44.376 0 005.793 3.644 63.665 63.665 0 007.661 3.37c5.575 2.05 10.804 3.434 14.575 4.555l4.436 1.32 1.202.374c.115.022.227.052.337.091zm.311-11.277a.81.81 0 01-.222.572.82.82 0 01-.256.18.83.83 0 01-.306.068.815.815 0 01-.811-.784.81.81 0 01.222-.572.8.8 0 01.562-.247.81.81 0 01.811.783z" fill="#263238"/><path d="M350.329 51.83H249.801v310.522h100.528V51.831z" fill="#E0E0E0"/><path d="M315.762 54.209V348.47l48.096 13.891.155-308.152h-48.251z" fill="#455A64"/><path d="M321.691 196.866c.091 2.305-.792 4.209-1.976 4.264-1.184.054-2.223-1.822-2.314-4.09-.091-2.269.792-4.209 1.977-4.254 1.184-.046 2.222 1.776 2.313 4.08z" fill="#fff"/><path d="M319.469 195.154l9.473 1.266a1.046 1.046 0 01.911 1.002 1.038 1.038 0 01-.357.832 1.052 1.052 0 01-.873.243l-9.109-1.54-.045-1.803z" fill="#fff"/><path d="M238.062 40.855V362.36h15.787V54.209h92.639V362.36h17.371V40.854H238.062z" fill="#263238"/><path d="M253.846 54.209h-7.889v308.143h7.889V54.209z" fill="#263238"/><path opacity=".5" d="M253.846 54.209h-7.889v308.143h7.889V54.209z" fill="#000"/><path d="M364.013 40.855h-7.888V362.36h7.888V40.855z" fill="#263238"/><path opacity=".5" d="M364.013 40.855h-7.888V362.36h7.888V40.855z" fill="#000"/><path d="M311.78 22.09h-25.925v5.784h25.925V22.09z" fill="#455A64"/><path d="M301.809 102.56a13.104 13.104 0 009.929 12.024c2.814.683 6.057.364 8.289 2.25 3.826 3.252 1.585 10.02 4.172 14.328 1.585 2.678 4.737 3.99 6.522 6.532 2.969 4.217.975 10.603-3.07 13.745-4.044 3.143-9.446 3.744-14.511 3.644-11.158-.292-22.59-3.835-30.652-11.742-3.789-3.716-16.077-17.845-10.494-38.203" fill="#263238"/><path d="M261.507 132.51s-19.521 16.971-20.04 14.903c-2.733-11.232-1.968-25.578-1.521-31.071.3-.465.655-.984 1.074-1.558a7.038 7.038 0 011.74-1.703 11.374 11.374 0 012.66-1.494.907.907 0 00.793-.773.911.911 0 00-.538-.967c-.783-.291-3.279.355-5.593 2.286-2.314 1.932-1.366-2.659-1.056-4.336.309-1.676 1.038-6.922.592-7.414-.647-.73-1.558-.146-1.822 1.539-.264 1.685-1.458 6.686-2.341 6.504-.884-.182.847-8.727.847-8.727s.656-1.776-.355-2.022c-1.822-.446-2.97 8.754-3.061 9.629-.064.61-1.029.446-.911-.21.118-.656 1.904-8.48.055-8.954-1.421-.365-1.021 7.551-2.296 8.99-1.275 1.44.31-6.048-1.066-6.376-.51-.109-.91-.118-1.193 4.3-.068 3.556.06 7.114.383 10.657-1.212 12.115-3.589 49.235 13.181 47.96 19.785-1.512 24.339-17.107 24.339-17.107l-3.871-14.056zm15.595-5.52c.283-1.566-.218-8.143-.218-8.143s-5.839-.738-6.085-6.686c-.246-5.949.337-19.667.337-19.667l10.74-5.156 11.55 9.31-2.004 30.242-14.32.1z" fill="#E5BAAB"/><path d="M272.129 102.514a.746.746 0 001.478.151.748.748 0 00-.722-.898.753.753 0 00-.756.747zm-.702-.847c.091.1.647-.364 1.448-.392.802-.027 1.394.374 1.476.265.082-.11-.055-.237-.319-.419a1.89 1.89 0 00-1.184-.347 1.959 1.959 0 00-1.148.447c-.246.209-.319.401-.273.446zm9.292.993a.746.746 0 001.478.151.746.746 0 00-.722-.898.757.757 0 00-.756.747zm-.449-.829c.1.1.656-.364 1.457-.401.802-.036 1.385.383 1.476.273.091-.109-.055-.236-.319-.428a1.926 1.926 0 00-1.184-.337 1.924 1.924 0 00-1.148.447c-.246.2-.328.391-.282.446zm-2.995 6.868a4.396 4.396 0 00-1.303-.2c-.2 0-.4-.055-.437-.201a1.298 1.298 0 01.128-.655l.574-1.686c.54-1.435.972-2.909 1.293-4.408a31.067 31.067 0 00-1.612 4.29c-.192.601-.383 1.157-.556 1.703a1.338 1.338 0 00-.091.857.5.5 0 00.337.309c.115.017.231.017.346 0 .439.055.883.052 1.321-.009z" fill="#263238"/><path d="M279.9 109.519c.82-.537-2.259 1.321-3.88 1.293a2.171 2.171 0 002.632.82 1.717 1.717 0 001.063-.797 1.735 1.735 0 00.185-1.316z" fill="#fff"/><path d="M276.883 118.847a14.221 14.221 0 007.724-2.533s-1.821 4.346-7.624 3.99l-.1-1.457z" fill="#A36957"/><path d="M301.805 102.651a57.978 57.978 0 01-.183-1.722c-.091-.911-.191-1.895-.309-2.423-2.952-12.452-13.536-14.948-15.632-14.984-2.259-.046-6.176-1.385-12.033 4.645a11.713 11.713 0 00-2.814 12.67l.983-.91 8.517-2.095c-.637-2.36.401-5.256.984-6.604l.055-.055c1.539 8.936 11.077 10.02 11.077 10.02l-.911 23.684c9.391-1.895 10.138-17.125 10.12-22.281l.146.055z" fill="#263238"/><path d="M305.496 208.954v-.309c0-.073.018.145 0 .309z" fill="#B78876"/><path d="M316.553 353.361s-21.989-74.121-22.408-76.516c-.383-2.141 9.801-54.145 11.277-67.636l-30.917.292v.228l-14.939.409 7.479 148.115 16.396.428-.246-48.688c8.108 23.774 18.364 50.637 18.364 50.637l14.994-7.269z" fill="#E5BAAB"/><path d="M273.367 273.529c.046 0 0 .583-.1 1.621a32.501 32.501 0 00.082 4.391c.19 2.167.555 4.314 1.093 6.422a62.505 62.505 0 002.624 7.56c2.031 5.32 3.853 10.139 5.146 13.664l1.549 4.154c.203.503.367 1.02.492 1.548a11.73 11.73 0 01-.665-1.484l-1.649-4.1c-1.376-3.47-3.243-8.28-5.283-13.599-.501-1.33-.993-2.633-1.476-3.89a34.103 34.103 0 01-1.12-3.726 37.421 37.421 0 01-1.012-6.504 27.727 27.727 0 01.073-4.436c.055-.519.119-.911.173-1.193.001-.146.025-.29.073-.428z" fill="#A36957"/><path d="M283.275 327.683c0-.447.292-16.506.292-16.506s-5.393-14.885-5.529-14.438c-.137.446 5.237 30.944 5.237 30.944z" fill="#A36957"/><path d="M302.127 360.375l14.465-7.014 1.667 3.106-5.11 2.888c-3.489 1.904-15.349 8.116-18.154 8.617-3.125.565 7.132-7.597 7.132-7.597z" fill="#6B8D72"/><path d="M294.348 367.553c-.072-.109 5.211-2.733 11.797-5.839 6.586-3.106 11.969-5.538 12.033-5.465.064.073-5.211 2.732-11.796 5.83-6.586 3.097-11.97 5.583-12.034 5.474z" fill="#263238"/><path d="M314.493 358.134c-.072 0-.1-.273-.072-.71.036-.582.195-1.15.464-1.667a2.824 2.824 0 011.376-1.266c.482-.192.819-.146.819-.101 0 .046-.273.146-.637.374a3.328 3.328 0 00-1.102 1.184 8.513 8.513 0 00-.565 1.53c-.119.41-.219.665-.283.656zm-13.153 2.906c0 .128.446.301 1.02.492.574.191 1.057.319 1.139.209.082-.109-.328-.455-.957-.665-.628-.209-1.184-.173-1.202-.036zm-.992.774c0 .137.382.383.911.556.528.173 1.056.228 1.12.1.064-.127-.364-.364-.911-.546-.546-.182-1.084-.237-1.12-.11zm-.818.72c-.055.118.255.346.656.556.4.209.792.327.91.227.119-.1-.173-.41-.61-.637-.437-.228-.893-.274-.956-.146z" fill="#263238"/><path d="M301.403 361.159a3.035 3.035 0 00-.155-1.522 4.35 4.35 0 00-.746-1.548 3.9 3.9 0 00-.784-.756 2.43 2.43 0 00-.556-.301c-.254-.1-.537-.1-.792 0a.826.826 0 00-.425.551.822.822 0 00.152.679c.199.293.424.568.674.82a10.1 10.1 0 001.348 1.147c.426.359.913.637 1.439.82.055-.054-.446-.428-1.184-1.065-.43-.371-.837-.766-1.221-1.185a5.488 5.488 0 01-.583-.747c-.164-.236-.118-.528.046-.592.164-.063.501 0 .774.228.263.179.499.393.702.638.34.416.608.887.792 1.393.128.495.302.977.519 1.44z" fill="#263238"/><path d="M301.403 360.876a4.007 4.007 0 00-1.43-.911 8.009 8.009 0 00-1.822-.555 6.492 6.492 0 00-1.139-.101c-.218.002-.435.03-.647.082a.915.915 0 00-.364.173.497.497 0 00-.191.429 1.485 1.485 0 00.911.965c.351.172.725.291 1.111.355a8.6 8.6 0 001.904.055c1.102-.064 1.703-.446 1.648-.492-.552.081-1.108.133-1.666.155a10.022 10.022 0 01-1.822-.155 3.499 3.499 0 01-.911-.319c-.274-.145-.583-.419-.601-.592-.019-.173.337-.2.683-.182.347-.014.695.004 1.038.055a9.93 9.93 0 011.731.437c.506.24 1.03.441 1.567.601zm1.005-.656c.082.137 3.443-1.147 7.351-3.069 3.908-1.923 6.923-3.644 6.823-3.79-.1-.146-3.288 1.394-7.187 3.307-3.899 1.913-7.078 3.416-6.987 3.552z" fill="#263238"/><path d="M268.92 358.089l14.511.109-.246 4.199h-.911c-4.208 0-21.415-.309-24.175-1.193-3.116-.966 10.821-3.115 10.821-3.115z" fill="#6B8D72"/><path d="M257.746 360.53c0-.118 5.712.1 12.753.492s12.707.82 12.698.911c-.009.091-5.702-.091-12.753-.483-7.05-.392-12.707-.774-12.698-.92z" fill="#263238"/><path d="M278.586 361.678c-.055-.046.082-.283.374-.638a5.05 5.05 0 011.421-1.202 3.498 3.498 0 011.976-.428c.529.063.802.255.774.3-.027.046-.327 0-.792 0a3.954 3.954 0 00-1.676.492c-.507.295-.983.64-1.421 1.029-.355.31-.601.483-.656.447zm-10.758-3.389c-.101.1.209.474.601.911.392.437.729.774.865.711.137-.064 0-.538-.437-1.002-.437-.465-.929-.72-1.029-.62zm-1.374.2c-.109.092.109.501.492.911.382.41.792.684.911.611.118-.073-.091-.483-.492-.911-.401-.428-.765-.702-.911-.611zm-1.111.219c-.127.073 0 .41.237.774.237.365.483.647.629.602.145-.046.1-.428-.146-.82-.246-.392-.601-.629-.72-.556z" fill="#263238"/><path d="M267.817 358.426c.363-.386.631-.85.783-1.358a4.007 4.007 0 00.283-1.667 2.962 2.962 0 00-.228-1.011 2.004 2.004 0 00-.301-.51 1.073 1.073 0 00-.701-.364.913.913 0 00-.917.542.934.934 0 00-.076.369c-.001.336.032.672.1 1.002a8.22 8.22 0 00.474 1.603c.154.507.419.974.774 1.366a6.198 6.198 0 00-.4-1.457 11.161 11.161 0 01-.347-1.576 5.045 5.045 0 01-.054-.911c0-.273.209-.492.401-.474.191.019.419.256.537.556.128.288.205.597.228.911a4.425 4.425 0 01-.146 1.549c-.186.461-.324.94-.41 1.43z" fill="#263238"/><path d="M267.992 358.189a3.372 3.372 0 00-.72-1.421 6.73 6.73 0 00-1.239-1.312 5.686 5.686 0 00-.911-.619 2.679 2.679 0 00-.61-.237 1.1 1.1 0 00-.428 0 .595.595 0 00-.428.273 1.24 1.24 0 00.182 1.221c.198.318.454.597.756.82.51.365 1.06.671 1.64.911a2.736 2.736 0 001.748.346 12.37 12.37 0 01-1.557-.647 9.306 9.306 0 01-1.485-.965 3.112 3.112 0 01-.629-.711.995.995 0 01-.163-.783c0-.082.409 0 .701.164.323.143.629.323.911.537.46.345.881.739 1.257 1.175.565.765.893 1.275.975 1.248zm1.266-.1c2.303.37 4.636.525 6.968.464 2.329.105 4.662.023 6.978-.246a60.71 60.71 0 00-6.969-.236c-3.844-.037-6.968-.11-6.977.018z" fill="#263238"/><path d="M313.302 158.08s.592-2.223-1.093-15.841c-.729-5.93-4.764-9.61-9.109-11.842v-.073l-.374-.109a35.515 35.515 0 00-11.322-3.297l-15.295-.246s-11.195-1.394-18.327 6.376c-7.133 7.77-11.997 12.334-11.997 12.334l11.396 13.663 3.051-3.015s-.319 6.295 1.758 9.966l4.928 8.672-3.197 15.276c-2.022 5.82-8.69 27.108-6.076 48.196 3.234 26.116 3.753 33.749 3.753 33.749l36.929 5.047s14.756-55.293 9.701-77.255c-3.471-15.094-6.122-14.392-6.978-17.662l.929-23.493 11.323-.446z" fill="#6B8D72"/><path d="M263.156 150.947a9.637 9.637 0 01-1.33 2.733 9.269 9.269 0 01-1.74 2.459c.3-.973.749-1.895 1.33-2.732a9.537 9.537 0 011.74-2.46zm33.102 28.558a6.61 6.61 0 01-1.175.227 51.83 51.83 0 01-3.243.41c-3.58.363-7.178.512-10.776.447a93.09 93.09 0 01-10.758-.829 67.478 67.478 0 01-3.225-.52 5.866 5.866 0 01-1.175-.282 6.83 6.83 0 011.203.1l3.233.374c2.733.291 6.532.601 10.731.683 4.199.082 7.989-.109 10.73-.31l3.252-.255a5.21 5.21 0 011.203-.045zm12.443 41.382a3.534 3.534 0 01-.137.72c-.127.519-.291 1.211-.501 2.077-.118.446-.237.91-.373 1.484-.137.574-.365 1.121-.565 1.749-.419 1.239-.829 2.687-1.494 4.2l-.984 2.404c-.346.829-.792 1.658-1.211 2.542-.811 1.767-1.886 3.552-2.97 5.465a71.61 71.61 0 01-19.129 20.824c-1.822 1.239-3.489 2.459-5.192 3.407-.838.491-1.631 1.002-2.432 1.421l-2.314 1.175c-1.448.792-2.86 1.311-4.063 1.822-.601.255-1.166.501-1.685.701l-1.457.492-2.023.674c-.23.087-.468.154-.71.2.217-.121.446-.218.683-.291l1.986-.756 1.439-.529c.519-.209 1.066-.473 1.667-.737 1.184-.547 2.578-1.084 4.017-1.895l2.287-1.203c.792-.419 1.576-.91 2.404-1.43 1.686-.956 3.353-2.186 5.138-3.425a72.869 72.869 0 0019.047-20.696c1.093-1.876 2.177-3.643 2.988-5.401.428-.911.911-1.686 1.23-2.514.319-.829.692-1.622 1.011-2.378.683-1.503 1.111-2.924 1.557-4.154.21-.619.429-1.193.593-1.73.164-.538.291-1.03.409-1.476l.593-2.041c.048-.237.112-.472.191-.701z" fill="#263238"/><path d="M312.717 150.109a2.73 2.73 0 01-.583.337c-.382.201-.911.501-1.703.857a23.254 23.254 0 01-6.677 2.204 12.474 12.474 0 01-4.874-.264 9.095 9.095 0 01-2.523-1.102 9.721 9.721 0 01-2.159-1.959 42.485 42.485 0 01-3.27-5.229c-1.066-1.821-2.45-3.643-4.554-4.335-2.105-.693-4.318-.174-6.331.4a24.894 24.894 0 01-6.049 1.303 8.804 8.804 0 01-6.632-2.661 8.807 8.807 0 01-2.477-6.703 9.205 9.205 0 01.683-2.961 6.47 6.47 0 011.376-2.177 12.47 12.47 0 00-1.203 2.25 9.154 9.154 0 00-.592 2.906 8.647 8.647 0 005.424 8.294 8.649 8.649 0 003.439.615 24.441 24.441 0 005.93-1.321 20.095 20.095 0 013.207-.702 7.775 7.775 0 013.407.31 7.206 7.206 0 012.86 1.886 15.023 15.023 0 011.94 2.66 44.733 44.733 0 003.207 5.192 8.51 8.51 0 004.454 2.951c1.539.417 3.146.525 4.728.319a24.244 24.244 0 006.64-2.05l1.74-.774c.191-.096.389-.178.592-.246zm-21.671 32.274a4.39 4.39 0 00.647-1.54 5.048 5.048 0 00-1.422-4.144 6.593 6.593 0 00-2.632-1.649 16.489 16.489 0 00-3.553-.774c-1.284-.173-2.659-.274-4.062-.574a9.9 9.9 0 01-4.09-1.758 6.308 6.308 0 01-1.503-1.731 11.607 11.607 0 01-.911-2.013 21.257 21.257 0 00-1.485-3.744 6.715 6.715 0 00-5.538-3.279 6.895 6.895 0 00-4.272 1.384c-.44.354-.856.734-1.248 1.139 0 0 .063-.137.236-.373.272-.334.577-.64.911-.911a6.866 6.866 0 014.391-1.576 7.048 7.048 0 015.903 3.388 21.451 21.451 0 011.548 3.817 7.287 7.287 0 002.268 3.525 9.597 9.597 0 003.881 1.676c1.366.301 2.733.41 4.017.602 2.569.318 5.01 1.056 6.376 2.623a5.134 5.134 0 011.358 4.409 3.164 3.164 0 01-.529 1.175 1.93 1.93 0 01-.291.328zm14.292 64.693a12.906 12.906 0 00-3.644.155 41.518 41.518 0 00-4.163 1.084c-1.821.607-3.72.951-5.638 1.02a16.397 16.397 0 01-6.814-1.339 14.123 14.123 0 01-6.176-5.01 12.81 12.81 0 01-1.977-8.535 12.362 12.362 0 011.412-4.491 10.886 10.886 0 013.216-3.644c1.293-.965 2.733-1.822 3.379-3.161a3.448 3.448 0 00.31-2.131 8.16 8.16 0 00-.729-2.114 12.352 12.352 0 01-1.53-4.263 9.104 9.104 0 01.638-4.317 10.512 10.512 0 015.602-5.566 15.589 15.589 0 016.832-1.23c1.893.099 3.79.044 5.675-.164a9.207 9.207 0 003.935-1.53 5.878 5.878 0 001.822-1.977c.291-.546.355-.865.391-.856a3.185 3.185 0 01-.309.911 5.747 5.747 0 01-1.768 2.077 9.364 9.364 0 01-3.999 1.649c-1.896.238-3.81.317-5.72.236a15.37 15.37 0 00-6.677 1.248 10.139 10.139 0 00-5.338 5.393 8.572 8.572 0 00-.592 4.108 11.981 11.981 0 001.494 4.118c.361.703.619 1.454.765 2.231.15.821.028 1.668-.346 2.414-.774 1.512-2.25 2.378-3.516 3.325a10.933 10.933 0 00-4.446 7.779 12.418 12.418 0 001.877 8.198 13.877 13.877 0 005.966 4.901 16.33 16.33 0 006.659 1.357 19.833 19.833 0 005.575-.911 37.566 37.566 0 014.199-1.011c.902-.16 1.82-.203 2.733-.127.305.029.607.087.902.173zm-12.886 29.049c-.046 0 0-.638.063-1.776a10.335 10.335 0 00-.828-4.664 4.554 4.554 0 00-2.214-2.241 8.515 8.515 0 00-3.644-.556 10.68 10.68 0 01-4.272-.528 5.078 5.078 0 01-1.822-1.43 11.71 11.71 0 01-1.257-1.995 16.467 16.467 0 00-2.332-3.835 11.557 11.557 0 00-3.242-2.587 11.111 11.111 0 00-6.841-1.221 12.136 12.136 0 00-4.491 1.585c-.966.592-1.439 1.02-1.467.993-.027-.027.1-.127.319-.337a10.782 10.782 0 015.593-2.569 11.213 11.213 0 017.087 1.166 11.71 11.71 0 013.389 2.66c.503.564.951 1.174 1.339 1.822.382.674.71 1.375 1.065 2.068a6.378 6.378 0 002.87 3.215c1.315.443 2.705.619 4.09.519a8.997 8.997 0 013.853.629 4.948 4.948 0 012.35 2.46c.62 1.526.863 3.178.711 4.818-.046.574-.101 1.02-.155 1.312a2.759 2.759 0 01-.164.492zM270.6 200.792c-.217.537-.467 1.06-.747 1.567a12.06 12.06 0 00-1.357 4.427 5.832 5.832 0 00.665 3.052 24.94 24.94 0 002.077 3.07 10.996 10.996 0 012.049 8.252 9.278 9.278 0 01-5.01 6.823 8.32 8.32 0 01-3.689.911 8.015 8.015 0 01-6.768-3.862 6.766 6.766 0 01-.528-1.175 1.527 1.527 0 01-.101-.447c.238.524.503 1.035.793 1.531a7.812 7.812 0 003.507 2.924 7.42 7.42 0 003.088.628 7.936 7.936 0 003.507-.911 8.921 8.921 0 004.737-6.504 10.713 10.713 0 00-1.95-7.943 24.496 24.496 0 01-2.067-3.142 6.157 6.157 0 01-.647-3.252 11.463 11.463 0 011.53-4.482c.273-.492.492-.865.656-1.111a2.24 2.24 0 01.255-.356z" fill="#fff"/><path d="M298.044 170.231a5.054 5.054 0 01-.109-1.084c0-.801-.091-1.821-.146-2.969-.128-2.605-.292-6.003-.474-9.765-.182-3.762-.309-7.287-.337-9.783v-2.97a4.822 4.822 0 01.073-1.093c.081.359.118.726.109 1.093.046.793.091 1.822.155 2.961.119 2.605.283 6.002.474 9.765.191 3.762.301 7.287.328 9.783v2.969c.018.366-.007.733-.073 1.093z" fill="#263238"/><path d="M297.724 158.69s1.522 18.382-.227 19.658c-9.738 6.804-22.682 9.537-27.328 10.348a32.268 32.268 0 01-2.259-.911 7.219 7.219 0 01-2.031-1.358 11.508 11.508 0 01-2.004-2.295.91.91 0 00-1.458-.374.912.912 0 00-.291.501c-.119.848 1.029 3.18 3.407 5.038 2.377 1.858-2.296 1.967-3.999 2.031-1.704.064-6.95.528-7.333 1.084-.565.802.182 1.585 1.886 1.476 1.703-.11 6.804-.064 6.813.856.009.92-8.663 1.13-8.663 1.13s-1.821-.255-1.885.801c-.055 1.913 9.109.984 10.02.911.61-.073.647.911 0 .975-.647.064-8.645 0-8.718 1.958-.054 1.494 7.561-.692 9.228.255 1.667.948-5.948 1.057-5.939 2.487 0 .538.073.911 4.427.228a86.507 86.507 0 009.218-2.46v.046s45.282-3.881 44.143-24.294c-.765-13.819-.51-11.268-1.357-18.528" fill="#E5BAAB"/></svg>