<svg width="471" height="368" fill="none" xmlns="http://www.w3.org/2000/svg"><path d="M312.411 101.485a39.701 39.701 0 01-61.353 2.885 39.776 39.776 0 01-6.366-43.715 39.736 39.736 0 0115.539-17.06 39.698 39.698 0 0144.086 2.305 39.769 39.769 0 018.094 55.585z" fill="#F0F0F0"/><path d="M304.827 95.823a30.286 30.286 0 01-14.147 10.451 30.275 30.275 0 01-32.625-8.258 30.319 30.319 0 016.985-46.333 30.267 30.267 0 0133.608 1.742 30.264 30.264 0 0111.875 19.917 30.297 30.297 0 01-5.696 22.48z" fill="#F5F5F5"/><path d="M305.394 95.046c-.15-.098.538-1.246 1.536-3.392a32.354 32.354 0 002.762-9.53c.276-2.264.303-4.55.08-6.82a30.137 30.137 0 00-1.766-7.578 28.935 28.935 0 00-4.139-7.5 28.63 28.63 0 00-3.01-3.4 32.988 32.988 0 00-3.601-2.977 33.467 33.467 0 00-4.034-2.367 28.915 28.915 0 00-4.219-1.67 27.847 27.847 0 00-4.272-.98 27.337 27.337 0 00-4.193-.335 29.988 29.988 0 00-7.723.883 31.292 31.292 0 00-6.373 2.411 32.221 32.221 0 00-7.997 5.865c-1.677 1.678-2.507 2.72-2.648 2.65-.141-.07.468-1.298 1.986-3.215a28.093 28.093 0 017.882-6.704 30.307 30.307 0 0114.873-4.028 30.77 30.77 0 019.127 1.28 30.48 30.48 0 014.572 1.767 33.817 33.817 0 014.351 2.544 34.352 34.352 0 013.884 3.224 30.803 30.803 0 013.222 3.683 28.717 28.717 0 012.515 4.002A29.918 29.918 0 01310.028 67a30.837 30.837 0 011.686 8.153 31.2 31.2 0 01-.371 7.216 28.346 28.346 0 01-3.584 9.716c-1.306 2.076-2.259 3.048-2.365 2.96z" fill="#E0E0E0"/><path d="M272.506 94.215l-3.098 4.266-3.778-2.764 3.01-4.16c-3.601-2.968-6.373-6.775-7.273-9.938l5.464-3.135a18.98 18.98 0 005.437 8.073l4.616-6.368c-3.486-4.099-7.193-8.948-3.239-14.398 2.93-4.045 8.385-5.388 14.908-1.705l3.072-4.23 3.813 2.764-3.054 4.16a21.37 21.37 0 016.055 7.95l-5.296 3.312a19.434 19.434 0 00-4.413-6.183l-4.696 6.404c3.53 4.063 7.141 8.833 3.239 14.23-2.868 4.01-8.261 5.335-14.767 1.722zm8.403-19.635l3.928-5.415c-2.348-1.016-3.954-.486-4.863.777-.91 1.264-.353 2.889.935 4.638zm-.106 13.956c.971-1.334.389-2.862-.829-4.629l-3.822 5.3c2.215.936 3.769.539 4.651-.671z" fill="#E0E0E0"/><path d="M126.179 142.206a45.909 45.909 0 01-3.941 26.352 45.866 45.866 0 01-17.912 19.716 45.822 45.822 0 01-50.892-2.598 45.877 45.877 0 01-15.814-21.438 45.906 45.906 0 0112.51-49.434 45.835 45.835 0 0124.104-11.321 45.764 45.764 0 0133.989 8.593 45.842 45.842 0 0117.956 30.13z" fill="#F0F0F0"/><path d="M115.386 143.77a34.989 34.989 0 01-2.99 20.085 34.958 34.958 0 01-13.642 15.033 34.917 34.917 0 01-38.786-1.961 34.956 34.956 0 01-12.058-16.332 34.986 34.986 0 01-.953-20.285 34.97 34.97 0 0110.474-17.392 34.919 34.919 0 0118.368-8.632 34.88 34.88 0 0125.894 6.539 34.927 34.927 0 0113.693 22.945z" fill="#F5F5F5"/><path d="M115.214 142.692c-.212 0-.574-1.457-1.518-4.028a37.146 37.146 0 00-5.526-10.025 36.334 36.334 0 00-5.49-5.626 35.293 35.293 0 00-7.635-4.717 32.833 32.833 0 00-4.554-1.687 32.076 32.076 0 00-4.943-1.051 32.964 32.964 0 00-5.226-.301 37.142 37.142 0 00-5.366.513 38.625 38.625 0 00-5.217 1.36 34.653 34.653 0 00-4.81 2.093 32.724 32.724 0 00-4.281 2.65 32.223 32.223 0 00-3.69 3.153 35.05 35.05 0 00-5.543 7.067 35.416 35.416 0 00-3.221 7.163 37.427 37.427 0 00-1.766 11.315c0 2.738.177 4.266 0 4.302-.176.035-.68-1.44-1.006-4.249a32.475 32.475 0 01.962-11.898 35.031 35.031 0 018.827-15.44 33.717 33.717 0 013.91-3.453 34.95 34.95 0 014.572-2.959 35.69 35.69 0 015.164-2.288 38.26 38.26 0 015.631-1.475 39.037 39.037 0 015.79-.556c1.887-.02 3.772.104 5.64.371 1.794.264 3.564.666 5.296 1.201a34.064 34.064 0 014.855 1.899 35.94 35.94 0 018.023 5.3 35.076 35.076 0 015.579 6.182 32.438 32.438 0 015.004 10.838c.671 2.756.689 4.32.539 4.346z" fill="#E0E0E0"/><path d="M87.714 168.846l.962 6.015-5.357.883-.936-5.847c-5.367.53-10.733-.318-14.052-2.155l1.907-7.022a22.048 22.048 0 0011.006 2.137l-1.438-8.974c-6.179-.486-13.152-1.413-14.379-9.089-.882-5.688 2.436-11.235 10.76-13.558l-.953-5.962 5.366-.884.936 5.848a24.637 24.637 0 0111.412 1.528l-1.624 7.066a22.212 22.212 0 00-8.659-1.484l1.466 9.133c6.178.442 13.037 1.378 14.246 8.948.909 5.582-2.401 11.067-10.663 13.417zm-9.117-22.851l-1.227-7.622c-2.737 1.095-3.62 2.835-3.337 4.61.283 1.776 2.04 2.641 4.564 3.012zm11.297 11.483c-.308-1.881-2.02-2.65-4.413-3.091l1.183 7.41c2.524-1.042 3.469-2.623 3.195-4.337l.035.018z" fill="#E0E0E0"/><path d="M115.879 26.756a22.674 22.674 0 01-6.03 11.7 22.634 22.634 0 01-24.62 5.268 22.652 22.652 0 01-10.284-8.21 22.676 22.676 0 019.72-33.675A22.634 22.634 0 0197.74.382a22.621 22.621 0 0118.02 17.541c.62 2.908.66 5.91.119 8.833z" fill="#F0F0F0"/><path d="M110.58 25.767a17.275 17.275 0 01-4.592 8.914 17.252 17.252 0 01-18.755 4.018 17.258 17.258 0 01-7.837-6.252A17.277 17.277 0 0186.79 6.79a17.245 17.245 0 019.96-1.117 17.249 17.249 0 0111.072 7.183 17.272 17.272 0 012.758 12.912z" fill="#F5F5F5"/><path d="M110.67 25.237a10.82 10.82 0 01-.062-2.129 18.543 18.543 0 00-.962-5.573 17.95 17.95 0 00-1.668-3.533 17.353 17.353 0 00-2.825-3.419 15.098 15.098 0 00-1.862-1.519 15.586 15.586 0 00-2.18-1.245c-.771-.39-1.57-.718-2.392-.98a17.9 17.9 0 00-2.595-.61 18.098 18.098 0 00-2.648-.195c-.864.004-1.725.075-2.578.212a15.43 15.43 0 00-2.427.575c-.765.238-1.512.533-2.233.883a16.976 16.976 0 00-6.355 5.3 18.192 18.192 0 00-2.648 5.017c-.167.69-.404 1.362-.706 2.005a4.94 4.94 0 01.212-2.147 15.773 15.773 0 012.339-5.414 17.126 17.126 0 012.648-3.118 17.518 17.518 0 013.9-2.694 16.762 16.762 0 012.375-.998 17.87 17.87 0 012.648-.654 16.953 16.953 0 012.78-.247c1.925-.02 3.84.279 5.667.883.895.272 1.766.618 2.604 1.033a17.84 17.84 0 014.263 3.065 17.654 17.654 0 012.913 3.745 17.25 17.25 0 011.651 3.781c.567 1.9.777 3.889.618 5.865a5.1 5.1 0 01-.477 2.111z" fill="#E0E0E0"/><path d="M93.651 33.098l-.512 2.986-2.648-.45.495-2.889a12.76 12.76 0 01-6.232-3.242l2.004-2.985a10.81 10.81 0 004.819 2.756l.75-4.417c-2.816-1.219-5.931-2.756-5.296-6.545.477-2.809 2.922-4.867 7.185-4.628l.503-2.942 2.648.45-.494 2.89a12.09 12.09 0 015.093 2.534l-1.88 3.03a10.884 10.884 0 00-3.787-2.111l-.777 4.522c2.825 1.193 5.879 2.72 5.243 6.457-.459 2.756-2.877 4.796-7.114 4.584zm-.653-12.154l.644-3.762c-1.456.079-2.145.75-2.295 1.625-.15.874.556 1.572 1.65 2.137zm3.469 7.19c.15-.883-.53-1.563-1.598-2.155l-.626 3.648c1.376-.088 2.074-.671 2.224-1.493z" fill="#E0E0E0"/><path d="M469.668 367.5c0 .288-148.956.5-248.148.5C122.327 368 0 367.788 0 367.5c0-.288 122.246-.5 221.52-.5 99.273 0 248.148.231 248.148.5z" fill="#263238"/><path d="M33.281 312.333c-11.982-6.491-25.466-18.29-30.707-31.696 12.965 6.723 23.925 17.994 30.707 31.696zm-.785-20.081c-11.982-6.483-25.467-18.29-30.707-31.696 12.965 6.691 23.909 17.962 30.707 31.696zm-1.789-19.657C18.725 266.112 5.24 254.305 0 240.899c12.957 6.691 23.885 17.962 30.707 31.696zm-2.611-20.649C16.968 243.832 5 230.243 1.39 216.213c12.062 8.45 21.568 21.16 26.705 35.733zM24.7 236.015C17.177 223.96 10.754 206.485 12.224 192A79.303 79.303 0 0124.7 236.015zm1.71 7.57c3.195-15.029 10.88-33.575 21.984-44.023a93.251 93.251 0 01-21.984 44.023zm2.485 17.011c4.537-15.373 14.09-34.022 26.513-43.967a96.74 96.74 0 01-26.514 43.967zm2.707 20.712c4.537-15.38 14.09-34.022 26.513-43.966a96.839 96.839 0 01-26.513 43.966zm1.375 25.237c4.537-15.38 14.09-34.022 26.513-43.967a96.842 96.842 0 01-26.513 43.967z" fill="#657C90"/><path d="M24.406 232.977c.033.08.057.163.072.248.048.191.104.431.168.719.152.68.351 1.599.615 2.798.527 2.398 1.222 5.947 2.005 10.32.783 4.373 1.598 9.593 2.453 15.396.854 5.804 1.597 12.223 2.188 18.97a485.003 485.003 0 011.302 19.05c.28 5.859.384 11.151.392 15.596.008 4.444 0 7.994-.088 10.512 0 1.207-.064 2.158-.088 2.854v.743c.01.082.01.166 0 .248a.962.962 0 010-.248v-3.605c0-2.478 0-6.068-.064-10.504a474.692 474.692 0 00-.503-15.572c-.28-5.86-.727-12.287-1.334-19.034-.607-6.747-1.382-13.134-2.149-18.946a400.947 400.947 0 00-2.349-15.404c-.75-4.373-1.382-7.906-1.853-10.344a407.318 407.318 0 00-.52-2.806l-.119-.735a1.019 1.019 0 01-.128-.256z" fill="#263238"/><path opacity=".5" d="M33.281 312.333c-11.982-6.491-25.466-18.29-30.707-31.696 12.965 6.723 23.925 17.994 30.707 31.696zm-.785-20.081c-11.982-6.483-25.467-18.29-30.707-31.696 12.965 6.691 23.909 17.962 30.707 31.696zm-1.789-19.657C18.725 266.112 5.24 254.305 0 240.899c12.957 6.691 23.885 17.962 30.707 31.696zm-2.611-20.649C16.968 243.832 5 230.243 1.39 216.213c12.062 8.45 21.568 21.16 26.705 35.733zM24.7 236.015C17.177 223.96 10.754 206.485 12.224 192A79.303 79.303 0 0124.7 236.015zm1.71 7.57c3.195-15.029 10.88-33.575 21.984-44.023a93.251 93.251 0 01-21.984 44.023zm2.485 17.011c4.537-15.373 14.09-34.022 26.513-43.967a96.74 96.74 0 01-26.514 43.967zm2.707 20.712c4.537-15.38 14.09-34.022 26.513-43.966a96.839 96.839 0 01-26.513 43.966zm1.375 25.237c4.537-15.38 14.09-34.022 26.513-43.967a96.842 96.842 0 01-26.513 43.967z" fill="#000"/><path d="M38.542 317.553c-5.592-11.695-9.642-28.139-6.902-40.969a72.678 72.678 0 016.902 40.969zm9.285-15.141c-5.592-11.695-9.642-28.139-6.902-40.977a72.719 72.719 0 016.902 40.977zm8.32-15.396c-5.591-11.695-9.641-28.139-6.901-40.977a72.694 72.694 0 016.901 40.977zm8.207-16.612c-4.154-12.374-6.231-29.249-1.997-41.568a73.105 73.105 0 011.997 41.568zm5.337-13.597c.408-13.166 4.282-29.666 12.454-39.386a71.43 71.43 0 01-12.454 39.386zm-2.453 6.531c9.682-9.137 24.397-18.219 37.625-19.402a72.857 72.857 0 01-37.625 19.402zm-6.543 13.821c10.848-8.601 26.96-16.675 40.892-16.707a75.854 75.854 0 01-40.892 16.707zm-8.155 16.74c10.847-8.602 26.96-16.676 40.891-16.708a75.857 75.857 0 01-40.892 16.708zm-11.368 19.233c10.848-8.602 26.968-16.675 40.9-16.707a75.926 75.926 0 01-40.9 16.707z" fill="#657C90"/><path d="M70.962 254.417a.848.848 0 01-.064.223c-.064.16-.136.368-.224.616l-.91 2.398a288.702 288.702 0 01-3.547 8.626c-3.1 7.242-7.685 17.115-13.38 27.699a373.448 373.448 0 01-8.405 14.716 277.934 277.934 0 01-7.389 11.632c-2.18 3.253-3.994 5.907-5.272 7.698l-1.478 2.054-.4.528c-.041.06-.09.117-.143.168 0 0 0-.072.104-.2l.36-.552c.343-.519.798-1.223 1.405-2.11a394.238 394.238 0 005.129-7.77 432.946 432.946 0 007.301-11.735c2.676-4.453 5.496-9.433 8.356-14.717a399.894 399.894 0 0013.492-27.603 391.688 391.688 0 003.69-8.562l.991-2.326.272-.608a.786.786 0 01.112-.175z" fill="#263238"/><path d="M54.45 366.819H20.172l-6.383-47.268h47.227l-6.566 47.268z" fill="#263238"/><path d="M59.338 326.474c0 .12-9.913.208-22.144.208-12.23 0-22.151-.088-22.151-.208s9.921-.208 22.151-.208 22.144.096 22.144.208z" fill="#455A64"/><path d="M234.087 323.44l-97.975-.45a21.336 21.336 0 01-19.65-13.269 21.365 21.365 0 01-1.587-8.177l1.077-245.782a21.375 21.375 0 016.322-15.071 21.346 21.346 0 0115.118-6.19l97.975.45a21.335 21.335 0 0115.06 6.322 21.363 21.363 0 016.185 15.125l-1.041 245.782a21.363 21.363 0 01-6.333 15.092 21.326 21.326 0 01-15.151 6.168z" fill="#263238"/><path d="M235.182 43.44l-18.986-.088a4.712 4.712 0 00-4.634 4.796V51.6a4.728 4.728 0 01-4.634 4.806l-37.019-.177a4.72 4.72 0 01-4.598-4.84v-3.454a4.725 4.725 0 00-4.59-4.84h-6.682l-16.62-.133a14.94 14.94 0 00-13.844 9.174 14.951 14.951 0 00-1.161 5.718l-1.015 239.899a14.966 14.966 0 004.332 10.587 14.948 14.948 0 0010.54 4.429l97.772.451a14.947 14.947 0 0010.582-4.339 14.963 14.963 0 004.423-10.554l1.016-239.899a14.962 14.962 0 00-4.343-10.575 14.937 14.937 0 00-10.539-4.414z" fill="#fff"/><path d="M212.973 162.082h-62.969v60.7h62.969v-60.7zm-45.606-16.915l-17.371 16.915h62.969l12.039-16.915h-57.637z" fill="#657C90"/><path opacity=".1" d="M167.367 145.167l-17.371 16.915h62.969l12.039-16.915h-57.637z" fill="#000"/><path d="M212.965 222.773l12.039-17.136v-60.47l-12.039 16.915v60.691z" fill="#657C90"/><path opacity=".3" d="M212.965 222.773l12.039-17.136v-60.47l-12.039 16.915v60.691z" fill="#000"/><path d="M196.495 187.282h-32.87v3.728h32.87v-3.728z" fill="#657C90"/><path opacity=".2" d="M196.495 187.282h-32.87v3.728h32.87v-3.728z" fill="#000"/><path d="M190.555 193.801h-20.981v3.515h20.981v-3.515z" fill="#657C90"/><path opacity=".2" d="M190.555 193.801h-20.981v3.515h20.981v-3.515z" fill="#000"/><path d="M162.839 142.774a20.672 20.672 0 00-.38-2.279 9.408 9.408 0 00-3.451-5.097 9.152 9.152 0 00-3.901-1.713 9.298 9.298 0 00-4.846.424 8.41 8.41 0 00-2.33 1.263 8.505 8.505 0 00-1.942 1.961 9.17 9.17 0 000 10.891 8.728 8.728 0 001.942 1.961c.709.534 1.495.96 2.33 1.263a9.254 9.254 0 008.756-1.299 9.438 9.438 0 003.442-5.087 20.14 20.14 0 00.38-2.288 7.212 7.212 0 01-.203 2.332 9.387 9.387 0 01-3.416 5.299 9.538 9.538 0 01-9.109 1.44 9.625 9.625 0 01-4.502-3.356 9.616 9.616 0 010-11.483 9.707 9.707 0 014.502-3.356 9.692 9.692 0 015.066-.389 9.527 9.527 0 017.459 7.146c.199.772.268 1.572.203 2.367z" fill="#263238"/><path d="M149.172 141.467c0-1.325.741-2.209 1.836-2.209 1.094 0 1.836.884 1.836 2.209 0 1.325-.759 2.208-1.836 2.208s-1.836-.901-1.836-2.208zm3.089 0c0-1.06-.503-1.687-1.253-1.687-.75 0-1.254.636-1.254 1.687 0 1.051.486 1.678 1.254 1.678s1.253-.627 1.253-1.678zm3.663-2.156h.689l-5.552 8.135h-.689l5.552-8.135zm-1.765 5.989c0-1.325.759-2.208 1.836-2.208s1.836.883 1.836 2.208c0 1.325-.742 2.208-1.836 2.208-1.095 0-1.845-.883-1.845-2.208h.009zm3.089 0c0-1.051-.485-1.687-1.253-1.687-.768 0-1.254.627-1.254 1.687s.504 1.678 1.254 1.678 1.244-.671 1.244-1.678h.009zm45.831 98.009c0 1.767-1.28 3.268-4.104 3.268a6.778 6.778 0 01-3.76-1.06l.883-1.766a4.749 4.749 0 002.806.883c1.139 0 1.845-.477 1.845-1.281 0-.804-.503-1.289-2.295-1.289h-2.524l.512-5.547h6.011v1.828h-4.114l-.15 1.873h.804c2.93.026 4.086 1.342 4.086 3.091zm.929-1.837c0-3.26 1.809-5.106 4.228-5.106 2.418 0 4.228 1.846 4.228 5.106 0 3.259-1.766 5.105-4.228 5.105-2.463 0-4.228-1.846-4.228-5.105zm6.178 0c0-2.244-.785-3.171-1.933-3.171-1.147 0-1.915.927-1.915 3.171 0 2.243.794 3.171 1.915 3.171s1.916-.928 1.916-3.171h.017zm8.155-2.774a1.957 1.957 0 01-.522 1.557 1.959 1.959 0 01-1.526.607 2.154 2.154 0 01-1.112-.274l.345-.68c.227.141.492.209.759.195.154.009.308-.015.452-.07a1.075 1.075 0 00.677-1.096 1.374 1.374 0 01-1.006.362 1.277 1.277 0 01-1.377-1.254 1.39 1.39 0 01.468-.999c.143-.125.31-.22.49-.277.181-.058.372-.078.56-.058 1.139 0 1.792.689 1.792 1.987zm-1.033-.698a.61.61 0 00-.44-.579.62.62 0 00-.257-.021.615.615 0 00-.496.134.625.625 0 00-.216.466.606.606 0 00.712.601.624.624 0 00.664-.342.626.626 0 00.06-.259h-.027zm4.712.698a1.948 1.948 0 01-.522 1.558 1.947 1.947 0 01-1.526.606 2.152 2.152 0 01-1.112-.274l.362-.653c.224.14.486.208.75.194a1.051 1.051 0 00.837-.319 1.075 1.075 0 00.293-.847 1.342 1.342 0 01-.997.362 1.277 1.277 0 01-1.386-1.254 1.378 1.378 0 011.527-1.334c1.094-.026 1.774.663 1.774 1.961zm-1.042-.698a.632.632 0 00-.214-.456.63.63 0 00-.483-.144.597.597 0 00-.6.6.598.598 0 00.6.601.61.61 0 00.647-.347.618.618 0 00.059-.254h-.009zm1.007 4.24h-7.044v.892h7.044v-.892zm-40.053-2.809h-36.366v1.131h36.366v-1.131zm-14.29 3.604h-22.076v1.131h22.076v-1.131z" fill="#263238"/><path d="M223.793 290.027l-72.704-.335c-.75 0-1.359-.831-1.351-1.838l.08-19.034c0-1.007.618-1.82 1.368-1.82l72.704.344c.751 0 1.36.822 1.36 1.829l-.08 19.035c-.009 1.007-.618 1.819-1.377 1.819z" fill="#EB8B55"/><path d="M174.227 274.872l-.032 3.528.024 1.6h-.632l.024-1.544-.024-3.584h.64zm2.84 0l-2.08 2.408c.709.917 1.45 1.779 2.224 2.584l-.008.08c-.16.048-.36.091-.6.128l-.08-.04a38.668 38.668 0 01-2.208-2.72v-.048l1.712-1.944.32-.448h.72zm4.032.008h.648l-1.528 3.568c-.288.635-.552 1.051-.792 1.248-.235.192-.621.315-1.16.368l-.064-.008a2.475 2.475 0 01-.112-.504l.032-.056c.427-.059.731-.133.912-.224.187-.096.349-.269.488-.52l-1.96-3.872.696-.008.176.464 1.328 2.704h.08l1.112-2.736.144-.424zm5.236-.008l-.032 3.528.024 1.6h-.632l.024-1.544-.024-3.072h-2.312l-.024 3.016.024 1.6h-.632l.024-1.544-.024-3.584h3.584zm1.697 5.128l.032-1.544-.032-3.56.648-.04-.04 4.128h.064l2.632-4.112h.672l-.032 3.528.024 1.6h-.648l.032-1.544v-2.568h-.056l-2.64 4.112h-.656zm8.338-5.128l.048.064-.048.496-.896-.048h-.52l-.024 3.016.024 1.6h-.648l.048-1.544-.04-3.072h-.52l-.912.048-.04-.064.048-.496h3.48zm2.71 2.128c.49 0 .864.117 1.12.352.256.235.384.573.384 1.016 0 .523-.176.925-.528 1.208-.347.283-.84.424-1.48.424h-1.208l.032-1.544-.032-3.584h.64l-.016 2.128h1.088zm-.24 2.536c.352-.037.618-.149.8-.336.186-.187.28-.437.28-.752s-.088-.555-.264-.72c-.176-.171-.435-.256-.776-.256l-.888.008-.008.92.016 1.112.84.024z" fill="#fff"/><path d="M163.666 96.71H136.18v14.045h27.486V96.711z" fill="#657C90"/><path d="M142.111 91.79l-5.931 4.92h27.486l4.051-4.92h-25.606z" fill="#657C90"/><path opacity=".2" d="M142.111 91.79l-5.931 4.92h27.486l4.051-4.92h-25.606z" fill="#000"/><path d="M163.668 110.755l4.051-5.353V91.791l-4.051 4.92v14.044z" fill="#657C90"/><path opacity=".1" d="M163.668 110.755l4.051-5.353V91.791l-4.051 4.92v14.044z" fill="#000"/><path d="M158.993 101.277h-18.739v1.449h18.739v-1.449z" fill="#657C90"/><path opacity=".1" d="M158.993 101.277h-18.739v1.449h18.739v-1.449z" fill="#000"/><path d="M155.59 103.892h-11.633v1.448h11.633v-1.448z" fill="#657C90"/><path opacity=".1" d="M155.59 103.892h-11.633v1.448h11.633v-1.448z" fill="#000"/><path d="M156.482 118.325h-12.525v1.916h12.525v-1.916z" fill="#263238"/><path d="M136.18 96.71a8.106 8.106 0 011.332-.088l3.628-.08c3.063 0 7.3-.06 11.969-.06l10.592.052-.141.062 3.018-3.533a10.64 10.64 0 011.174-1.263c-.3.492-.639.959-1.015 1.395l-2.93 3.648-.053.062h-.088l-10.592.053c-4.669 0-8.906 0-11.969-.07l-3.628-.071a6.462 6.462 0 01-1.297-.106z" fill="#657C90"/><path opacity=".2" d="M136.18 96.71a8.106 8.106 0 011.332-.088l3.628-.08c3.063 0 7.3-.06 11.969-.06l10.592.052-.141.062 3.018-3.533a10.64 10.64 0 011.174-1.263c-.3.492-.639.959-1.015 1.395l-2.93 3.648-.053.062h-.088l-10.592.053c-4.669 0-8.906 0-11.969-.07l-3.628-.071a6.462 6.462 0 01-1.297-.106z" fill="#000"/><path d="M163.667 110.755a52.768 52.768 0 01-.229-7.022 52.76 52.76 0 01.229-7.067c.241 2.348.321 4.709.239 7.067.08 2.343 0 4.689-.239 7.022z" fill="#657C90"/><path opacity=".2" d="M163.667 110.755a52.768 52.768 0 01-.229-7.022 52.76 52.76 0 01.229-7.067c.241 2.348.321 4.709.239 7.067.08 2.343 0 4.689-.239 7.022z" fill="#000"/><path d="M195.689 118.325h-12.525v1.916h12.525v-1.916z" fill="#263238"/><path d="M179.19 88.922l-.182 21.746 19.709.165.182-21.745-19.709-.166z" fill="#657C90"/><path d="M184.93 84.54l-5.817 4.468h19.71l4.051-4.469H184.93zm13.894 26.215l4.052-5.353V84.539l-4.052 4.47v21.746zm-5.472-12.958h-9.965v1.449h9.965v-1.449z" fill="#657C90"/><path opacity=".2" d="M193.352 97.797h-9.965v1.449h9.965v-1.449z" fill="#000"/><path d="M191.551 100.421h-6.188v1.448h6.188v-1.448z" fill="#657C90"/><path opacity=".2" d="M191.551 100.421h-6.188v1.448h6.188v-1.448z" fill="#000"/><path d="M179.113 89.008a4.731 4.731 0 011.015-.088l2.754-.08c2.33-.044 5.543-.07 9.1-.07h6.841l-.15.062a231.25 231.25 0 013.001-3.189 8.348 8.348 0 011.2-1.148 9.3 9.3 0 01-1.023 1.307c-.689.804-1.677 1.934-2.878 3.295l-.062.07h-6.929c-3.53 0-6.77 0-9.1-.07l-2.754-.07a4.309 4.309 0 01-1.015-.019z" fill="#657C90"/><path opacity=".3" d="M179.113 89.008a4.731 4.731 0 011.015-.088l2.754-.08c2.33-.044 5.543-.07 9.1-.07h6.841l-.15.062a231.25 231.25 0 013.001-3.189 8.348 8.348 0 011.2-1.148 9.3 9.3 0 01-1.023 1.307c-.689.804-1.677 1.934-2.878 3.295l-.062.07h-6.929c-3.53 0-6.77 0-9.1-.07l-2.754-.07a4.309 4.309 0 01-1.015-.019z" fill="#000"/><path d="M198.824 110.755c-.132 0-.238-4.867-.238-10.873 0-6.007.106-10.874.238-10.874.133 0 .239 4.867.239 10.874 0 6.006-.141 10.873-.239 10.873z" fill="#657C90"/><path opacity=".3" d="M198.824 110.755c-.132 0-.238-4.867-.238-10.873 0-6.007.106-10.874.238-10.874.133 0 .239 4.867.239 10.874 0 6.006-.141 10.873-.239 10.873z" fill="#000"/><path d="M230.591 118.325h-12.525v1.916h12.525v-1.916z" fill="#263238"/><path d="M215.387 97.073a18.15 18.15 0 013.089-.168c1.915 0 4.555-.07 7.476-.07 2.586 0 4.961 0 6.761.052l-.132.062a55.198 55.198 0 011.924-2.005c.222-.262.477-.494.759-.689-.166.3-.37.576-.609.822-.415.512-1.033 1.236-1.765 2.11l-.053.063h-.088c-1.766 0-4.175.053-6.762.053-2.921 0-5.56 0-7.476-.071a20.201 20.201 0 01-3.124-.16z" fill="#657C90"/><path d="M232.722 97.073h-17.335v13.691h17.335V97.073z" fill="#657C90"/><path opacity=".2" d="M232.722 97.073h-17.335v13.691h17.335V97.073z" fill="#000"/><path d="M219.05 94.255l-3.663 2.81h17.335l2.542-2.81H219.05z" fill="#657C90"/><path d="M232.719 110.755l2.542-3.365V94.255l-2.542 2.81v13.69z" fill="#657C90"/><path opacity=".1" d="M232.719 110.755l2.542-3.365V94.255l-2.542 2.81v13.69z" fill="#000"/><path d="M228.228 102.293h-7.935v1.06h7.935v-1.06zm-1.443 1.926h-4.926v1.06h4.926v-1.06zm5.931 6.536a49.067 49.067 0 01-.256-6.846 48.925 48.925 0 01.238-6.836 51.67 51.67 0 01.23 6.836c.08 2.284.009 4.571-.212 6.846zm24.743-79.645l-1.801 3.285-3.283 1.793 3.283 1.802 1.801 3.277 1.792-3.277 3.283-1.802-3.283-1.793-1.792-3.286zm-153.555 84.521l-1.8 3.285-3.284 1.793 3.284 1.794 1.8 3.285 1.792-3.285 3.284-1.794-3.284-1.793-1.792-3.285zm166.638-70.583l-1.104 2.014-2.012 1.104 2.012 1.104 1.104 2.022 1.112-2.022 2.012-1.104-2.012-1.104-1.112-2.014zM94.053 96.746L92.95 98.76l-2.013 1.104 2.013 1.104 1.103 2.023 1.104-2.023 2.012-1.104-2.012-1.104-1.104-2.014z" fill="#657C90"/><path d="M425.352 314.772l-8.34-6.566 12.181-15.705 12.295 9.468-.692 1.021c-3.116 4.536-16.181 22.769-19.263 24.947-3.535 2.551 3.819-13.165 3.819-13.165z" fill="#EB8B55"/><path d="M420.437 327.789c-.147-.113 4.329-6.055 9.994-13.267 5.666-7.212 10.38-12.961 10.527-12.847.148.113-4.328 6.055-9.994 13.267-5.666 7.212-10.38 12.961-10.527 12.847zm6.403-11.362c0 .182-.578.25-1.213.25-.634 0-1.19-.091-1.212-.273-.023-.181.51-.419 1.212-.408.703.012 1.213.25 1.213.431zm-.239 1.429c-.057.181-.657.17-1.36.068-.703-.102-1.292-.238-1.292-.42 0-.181.623-.351 1.383-.249.759.102 1.325.419 1.269.601z" fill="#263238"/><path d="M437.195 306.335c-.091 0-.283-.329-.51-.941a7.05 7.05 0 01-.442-2.563 3.98 3.98 0 01.929-2.495c.465-.521.895-.646.941-.567.045.08-.25.341-.556.851-.4.69-.618 1.47-.634 2.268-.001.81.074 1.619.226 2.415.102.601.136 1.009.046 1.032zm-11.964 8.901c-.068-.17.272-.476.714-.759.442-.284.873-.465.997-.329.125.136-.124.578-.623.907-.498.329-1.02.363-1.088.181zm-.659-.873c-.136-.136.079-.646.476-1.133.397-.488.861-.828 1.02-.715.158.114-.068.613-.487 1.134-.42.522-.828.839-1.009.714zm-54.466-134.53s-24.929 66.154-21.53 78.514c3.4 12.36 70.459 61.437 70.459 61.437l18.209-26.24s-52.328-41.445-52.498-43.724c-.17-2.28 20.782-57.253 20.782-57.253l-35.422-12.734z" fill="#263238"/><path d="M417.878 299.611l-.238-.125c-.17-.125-.385-.261-.657-.431l-2.493-1.712a632.147 632.147 0 01-9.065-6.497 522.377 522.377 0 01-28.68-22.861c-2.719-2.335-5.36-4.637-7.932-6.871l-3.705-3.323a14.17 14.17 0 01-3.196-3.628 6.638 6.638 0 01-.464-4.593c.283-1.463.657-2.835 1.008-4.184.714-2.665 1.428-5.137 2.074-7.393l3.105-10.671c.34-1.224.612-2.199.816-2.914l.204-.76a.134.134 0 01-.101-.148.132.132 0 01.045-.085.134.134 0 01.179 0 .132.132 0 01.045.085.129.129 0 01-.022.093.133.133 0 01-.078.055c0 .205-.091.465-.159.772a80.022 80.022 0 01-.703 2.936c-.645 2.552-1.654 6.214-2.912 10.739-.623 2.268-1.314 4.728-2.005 7.404-.34 1.327-.703 2.722-.975 4.139a6.164 6.164 0 00.442 4.241 13.605 13.605 0 003.082 3.459l3.717 3.3a327.786 327.786 0 007.932 6.86 615.336 615.336 0 0028.544 22.973l8.906 6.657 2.425 1.803.623.476c.136.136.249.204.238.204z" fill="#455A64"/><path d="M411.801 307.605c-.136-.102 3.32-4.876 7.716-10.659 4.397-5.783 8.08-10.398 8.216-10.296.136.102-3.332 4.876-7.728 10.67-4.397 5.795-8.068 10.387-8.204 10.285z" fill="#455A64"/><path d="M414.046 54.034c2.266 4.445 3.4 8.3 7.796 10.59 1.983 1.044 4.408 1.634 5.666 3.516 1.303 2.064.691 5.046 2.334 6.804 2.402 2.62 7.297.499 9.983 2.8 2.402 2.064 1.632 6.487 4.227 8.301 1.45 1.032 3.399.805 5.099 1.44 2.719 1.055 4.011 4.196 4.362 7.087a12.41 12.41 0 01-.85 6.861 6.983 6.983 0 01-5.325 4.07c-3.094.329-6.584-1.803-9.065 0a12.289 12.289 0 00-2.085 2.54 7.787 7.787 0 01-10.165 1.841 7.79 7.79 0 01-2.628-2.646c-1.723-2.88-1.61-6.803-4.136-9.071a14.573 14.573 0 00-4.737-2.177c-1.643-.613-3.343-1.633-3.83-3.311a14.456 14.456 0 00-2.38-4.094c-1.257-1.882-2.934.42-4.611-.51-1.677-.93-1.032-2.744-1.134-4.65" fill="#263238"/><path d="M384.734 118.305l-21.529-7.2s-9.508 27.396-12.465 27.668c-16.136 1.474-33.405-3.889-39.456-5.998a41.095 41.095 0 01-2.107-2.54 9.743 9.743 0 01-1.519-2.903 15.034 15.034 0 01-.861-3.992 1.265 1.265 0 00-.735-1.269 1.27 1.27 0 00-1.441.271c-.691.907-.872 4.366.714 8.097 1.587 3.73-4.045.759-6.119-.284-2.073-1.043-8.634-3.969-9.461-3.583-1.213.567-.828 1.962 1.269 2.959 2.096.998 8.17 4.411 7.558 5.477-.612 1.066-11.071-4.399-11.071-4.399s-2.062-1.52-2.799-.306c-1.326 2.188 10.198 7.155 11.331 7.597.782.317.17 1.497-.645 1.134-.816-.363-10.199-5.692-11.604-3.425-1.065 1.701 9.473 4.185 10.833 6.373 1.36 2.189-7.796-2.687-8.736-1.02-.352.612-.533 1.133 5.133 3.175a122.916 122.916 0 0012.634 3.22v.057s56.589 25.332 68.804.918c12.929-25.967 12.272-30.027 12.272-30.027z" fill="#E5BAAB"/><path d="M406 95.615l9.394.17 7.456 21.398-6.074 24.516c-1.779 7.155 6.289 21.488 6.074 29.391l-52.668 8.539-1.133-35.209v-1.134l-18.233-9.071 6.017-14.741c9.258-21.704 25.428-23.02 25.428-23.02L406 95.617z" fill="#657C90"/><path opacity=".2" d="M406 95.615l9.394.17 7.456 21.398-6.074 24.516c-1.779 7.155 6.289 21.488 6.074 29.391l-52.668 8.539-1.133-35.209v-1.134l-18.233-9.071 6.017-14.741c9.258-21.704 25.428-23.02 25.428-23.02L406 95.617z" fill="#fff"/><path d="M415.777 95.842s-.102 0-.306.125a8.69 8.69 0 01-.918.26 22.218 22.218 0 01-3.648.364l.113-.216 3.592 5.84.249.385-.464-.079a22.86 22.86 0 00-6.301-.204l.216-.272c.08 2.396.422 4.776 1.02 7.098l.158.476-.498-.113a25.816 25.816 0 01-6.856-2.517l.442-.193c-.43 2.109-.872 4.32-1.326 6.577l-.102.487-.385-.306a29.504 29.504 0 01-2.708-2.438 29.197 29.197 0 01-2.368-2.676l.43.057-6.028 4.751-.374.295-.102-.465c-.431-2.098-.838-4.139-1.235-6.089l.363.204-6.448 2.268-.442.158.125-.453a921.67 921.67 0 011.869-6.985l.159.249-5.598-.964h-.226l.124-.192 2.448-3.584.657-.918c.147-.204.238-.306.249-.295a2.728 2.728 0 01-.181.34l-.589.953-2.323 3.662-.102-.226 5.609.85h.227v.227l-1.791 7.008-.317-.307 6.414-2.267.305-.114.068.318 1.27 6.089-.476-.17 6.017-4.774.238-.193.192.238a29.6 29.6 0 002.289 2.552 30.052 30.052 0 002.652 2.392l-.476.182c.453-2.268.906-4.468 1.337-6.577l.079-.408.363.215a25.419 25.419 0 006.685 2.472l-.328.352a32.268 32.268 0 01-.975-7.212v-.25h.249a22.38 22.38 0 016.437.284l-.216.317c-1.371-2.268-2.538-4.309-3.49-5.908l-.113-.204h.227a25.077 25.077 0 003.637-.226c.771-.17 1.201-.273 1.201-.25z" fill="#455A64"/><path d="M426.184 104.834s-.363-.17-1.134-.385a6.596 6.596 0 00-3.331-.057l.091-.125c.215 1.248.555 2.744 1.02 4.457.464 1.712 1.031 3.651 1.541 5.84l.079.317-.329-.091c-2.685-.782-5.847-1.372-9.167-2.494l.306-.25c.351 3.232.329 6.804.521 10.659v.329h-.34a53.622 53.622 0 01-8.895-2.347c-.362-.102-.782-.25-.884-.091a2.618 2.618 0 00-.498.93l-.941 2.268c-.623 1.531-1.269 3.084-1.915 4.649l-.192.476-.318-.397-6.028-7.484-.453-.555h.408l-9.677 6.667-.317.216-.136-.363c-1.134-3.153-2.153-6.191-3.173-9.14l.43.148a54.989 54.989 0 01-10.787 5.431l-.397.159v-.431c.692-4.91 1.315-9.321 1.847-13.131l.284.216a20.473 20.473 0 01-8.669 1.394h-.192l.067-.181 2.029-5.466c.238-.578.408-1.043.544-1.394.056-.162.128-.318.215-.465-.03.166-.075.329-.136.487-.125.363-.283.828-.476 1.429-.453 1.293-1.133 3.141-1.915 5.511l-.125-.193a20.381 20.381 0 008.499-1.485l.329-.136v.351c-.51 3.822-1.134 8.221-1.745 13.143l-.352-.273a55.314 55.314 0 0010.652-5.431l.306-.193.124.34 3.196 9.072-.453-.136 9.688-6.679.238-.159.17.215.453.556 6.017 7.495-.51.068 1.926-4.649.941-2.268c.136-.428.373-.816.691-1.134a.813.813 0 01.408-.192c.128-.013.257-.013.385 0 .212.043.42.1.624.17a54.792 54.792 0 008.804 2.358l-.317.284c-.17-3.833-.136-7.427-.453-10.636v-.375l.351.125c3.286 1.134 6.425 1.758 9.133 2.574l-.249.227c-.476-2.166-1.032-4.105-1.462-5.84-.431-1.735-.748-3.232-.941-4.536v-.102h.102a6.418 6.418 0 013.4.159c.385.132.751.315 1.088.544z" fill="#455A64"/><path d="M369.343 142.98a3.24 3.24 0 01-1.133-.601 9.165 9.165 0 01-2.436-2.506 8.03 8.03 0 01-1.235-5.035 11.182 11.182 0 015.779-9.366l-.159.227c.431-3.232.827-6.01 1.133-7.938.115-1.052.308-2.095.578-3.118a20.21 20.21 0 01-.226 3.175c-.193 1.973-.522 4.762-.918 8.005v.137l-.147.079a10.93 10.93 0 00-5.474 8.879 7.85 7.85 0 001.043 4.774 10.052 10.052 0 002.266 2.551c.323.229.633.475.929.737z" fill="#455A64"/><path d="M371.315 119.224c-.148.079-.669-.68-1.133-1.678-.465-.998-.771-1.871-.612-1.951.158-.079.668.681 1.133 1.69.464 1.009.782 1.871.612 1.939z" fill="#455A64"/><path d="M405.367 95.922l1.62-37.046-14.731-11.147-13.359 6.532s-.453 16.793 0 24.085c.453 7.29 7.784 8.05 7.784 8.05s-.17 4.275-.34 8.754a9.525 9.525 0 002.677 6.996 9.502 9.502 0 006.91 2.881 9.504 9.504 0 006.539-2.664 9.518 9.518 0 002.9-6.441z" fill="#E5BAAB"/><path d="M380.383 66.507a.94.94 0 10.929-.93.93.93 0 00-.929.93zm-.91-1.02c.114.124.805-.465 1.802-.522.997-.057 1.756.43 1.87.295.113-.136-.08-.272-.408-.5a2.482 2.482 0 00-2.935.171c-.295.272-.397.51-.329.556zm11.695 1.02a.928.928 0 101.788-.356.935.935 0 00-.859-.574.93.93 0 00-.929.93zm-.59-1.02c.113.124.805-.465 1.813-.522 1.009-.057 1.745.43 1.858.295.114-.136-.079-.272-.407-.5a2.483 2.483 0 00-2.935.171c-.329.272-.329.51-.329.556z" fill="#263238"/><path d="M390.283 74.91a18.108 18.108 0 01-4.849 1.678 2.81 2.81 0 003.32.941 2.082 2.082 0 001.598-1.779 2.076 2.076 0 00-.069-.84z" fill="#fff"/><path d="M386.691 86.397a18.122 18.122 0 009.643-3.255s-2.187 5.352-9.484 5.046l-.159-1.791z" fill="#D78776"/><path d="M428.166 79.808a5.218 5.218 0 01-2.64-.6 7.294 7.294 0 01-2.878-2.79 30.086 30.086 0 01-2.153-4.615c-1.36-3.402-2.38-6.52-3.083-8.811-.102-.363-.204-.692-.294-1.01-.091-.317-.125-.736-.193-.997-3.977-15.184-17.28-18.018-19.954-18.018-2.822 0-7.774-1.554-14.992 5.941a16.505 16.505 0 00-2.742 3.788 16.353 16.353 0 00-3.218 6.86 8.368 8.368 0 00-.17 3.617c.136 0 .159-1.383.725-3.492.34-1.241.811-2.442 1.405-3.583a13.853 13.853 0 00.737 8.39l2.583-.714 9.269-3.152c-.838-2.88.397-6.44 1.134-8.108l.068-.056a14.516 14.516 0 004.192 7.951 14.5 14.5 0 008.068 3.955l1.711 23.813c12.317-2.631 12.034-19.13 11.955-22.486a76.427 76.427 0 002.198 6.338 27.713 27.713 0 002.266 4.695 7.608 7.608 0 003.207 2.891 4.983 4.983 0 002.867.42c.362-.033.707-.166.997-.385 0 0-.419.113-1.065.158z" fill="#263238"/><path d="M386.965 73.969a6.18 6.18 0 00-1.632-.205c-.26 0-.51-.056-.566-.238a1.45 1.45 0 01.147-.816l.68-2.075c.487-1.486.895-2.835 1.133-3.81.187-.52.313-1.061.374-1.61a6.51 6.51 0 00-.646 1.519c-.34.964-.793 2.268-1.28 3.776-.227.726-.442 1.429-.658 2.086a1.613 1.613 0 00-.09 1.044.594.594 0 00.419.362c.147.02.295.02.442 0a6.723 6.723 0 001.677-.033z" fill="#263238"/><path d="M407.758 73.662a8.936 8.936 0 01.397-3.594 3.403 3.403 0 012.617-2.268 2.869 2.869 0 012.946 2.392 3.522 3.522 0 01-1.79 3.504 4.606 4.606 0 01-4.045.114" fill="#E5BAAB"/><path d="M409.84 72.597c0-.08.396.102.918-.057a1.647 1.647 0 001.133-1.542 1.252 1.252 0 00-.261-.975 1.132 1.132 0 00-.793-.239c-.544.057-.929.193-.963.102-.034-.09.249-.34.895-.521a1.416 1.416 0 011.224.238 1.645 1.645 0 01.498 1.429 2.26 2.26 0 01-.544 1.36 1.584 1.584 0 01-1.065.567c-.736.08-1.042-.317-1.042-.362z" fill="#D78776"/><path d="M398.727 362.193v-10.614l19.876-.124.158 15.523-1.223.091c-5.485.34-27.898 1.338-31.57.249-4.09-1.213 12.759-5.125 12.759-5.125z" fill="#EB8B55"/><path d="M385.504 366.343c0-.181 7.433-.34 16.6-.34 9.167 0 16.589.159 16.589.34 0 .182-7.422.34-16.589.34-9.167 0-16.6-.147-16.6-.34zm12.883-1.984c-.17.09-.555-.295-.952-.805-.397-.511-.657-.976-.533-1.134.125-.159.646.147 1.077.703.431.555.533 1.145.408 1.236zm-1.269.703c-.182.068-.533-.42-.896-1.032-.362-.612-.611-1.134-.464-1.281.147-.148.657.272 1.042.941.386.669.488 1.304.318 1.372z" fill="#263238"/><path d="M412.707 366.275c-.068-.057.091-.431.43-.986a6.957 6.957 0 011.746-1.928 3.973 3.973 0 012.526-.817c.703 0 1.066.307 1.032.386-.034.079-.431 0-1.02.091a4.635 4.635 0 00-2.142.884 12.066 12.066 0 00-1.756 1.678c-.442.465-.737.749-.816.692zm-14.389-3.878c.102-.159.544-.079 1.042.091.499.17.907.397.873.578-.034.181-.533.261-1.133.068-.601-.193-.873-.612-.782-.737zm.316-1.066c0-.181.543-.329 1.189-.317.646.011 1.133.17 1.133.351 0 .181-.521.34-1.189.329-.669-.011-1.156-.17-1.133-.363z" fill="#263238"/><path d="M380.98 178.019l-10.878 1.825 6.266 7.711c1.801 36.286 1.36 71.495 3.025 89.037.25 2.665 11.49 86.179 10.369 84.263l33.098 1.383-9.881-83.911 4.68-74.534a39.496 39.496 0 004.148-29.108l-.816-3.345" fill="#455A64"/><path d="M302.624 103.049l-26.357 90.428c-1.36 4.665 1.317 9.549 5.98 10.908l148.056 43.154c4.663 1.359 9.545-1.321 10.905-5.986l26.357-90.429c1.36-4.665-1.317-9.549-5.98-10.908L313.529 97.062c-4.663-1.36-9.545 1.321-10.905 5.987z" fill="#EB8B55"/><path d="M438.418 160.556a11.847 11.847 0 01-21.766 2.348 11.866 11.866 0 016.823-17.007 11.84 11.84 0 0110.989 2.057 11.848 11.848 0 012.979 3.555 11.867 11.867 0 01.975 9.047z" fill="#fff"/><path d="M440.777 173.71a12.472 12.472 0 01-12.405-10.878 12.474 12.474 0 019.242-13.672c2.94-.76 6.057-.421 8.765.956a12.472 12.472 0 016.084 15.342 12.464 12.464 0 01-11.686 8.252zm0-23.745a11.33 11.33 0 00-11.351 12.344 11.33 11.33 0 0013.35 10.145 11.337 11.337 0 008.834-8.043 11.346 11.346 0 00-1.834-9.913 11.337 11.337 0 00-8.999-4.533zm-141.088 17.508l-2.674 9.162-.941-.272 2.425-8.323-2.164-.635.249-.839 3.105.907zm7.038 11.067l-.249.839-6.47-1.814.192-.669 4.896-2.619c1.337-.715 1.711-1.282 1.892-1.905.306-1.066-.249-1.928-1.643-2.336a3.243 3.243 0 00-2.799.283l-.499-.771a4.33 4.33 0 013.627-.363c1.858.544 2.753 1.837 2.266 3.402-.249.873-.759 1.576-2.334 2.427l-4.012 2.154 5.133 1.372zm10.048 1.293l-1.835-.533-.703 2.404-.94-.272.702-2.415-5.167-1.509.193-.68 6.629-4.649 1.042.306-6.402 4.536 3.977 1.134.612-2.121.918.273-.612 2.12 1.824.533-.238.873zm14.032 4.048l-1.836-.544-.703 2.415-.94-.272.702-2.415-5.167-1.508.204-.681 6.618-4.66 1.042.306-6.402 4.536 3.977 1.134.612-2.121.918.261-.612 2.132 1.825.533-.238.884zm8.088 2.041c-.465 1.554-1.904 2.461-4.136 1.803a4.91 4.91 0 01-2.947-2.132l.68-.612a4.17 4.17 0 002.561 1.882c1.553.454 2.606-.068 2.924-1.134.317-1.065-.17-2.131-2.504-2.8l-1.949-.579 1.813-4.456 5.008 1.463-.238.839-4.193-1.225-1.133 2.835 1.133.34c2.72.76 3.445 2.155 2.981 3.776zm9.052 2.597a2.966 2.966 0 01-3.943 1.905c-2.436-.703-3.263-2.778-2.425-5.67.907-3.107 3.082-4.241 5.564-3.515a4.302 4.302 0 012.028 1.134l-.6.646a3.311 3.311 0 00-1.655-.952c-1.971-.578-3.614.329-4.328 2.812-.074.25-.134.504-.182.76a3.057 3.057 0 013.252-.76 2.884 2.884 0 011.956 1.31 2.895 2.895 0 01.333 2.33zm-.94-.238a2.081 2.081 0 00-.886-2.349 2.11 2.11 0 00-.836-.305 2.117 2.117 0 00-1.788-.035 2.115 2.115 0 00-.884 3.117 2.104 2.104 0 001.538.91 2.088 2.088 0 002.856-1.338zm13.439 4.025c-.442 1.531-1.904 2.382-4.114 1.735a4.986 4.986 0 01-2.957-2.131l.68-.624a4.174 4.174 0 002.527 1.894c1.518.442 2.561 0 2.901-1.134.34-1.134-.25-2.053-1.949-2.54l-.658-.193.204-.692 3.468-2.449-4.68-1.361.238-.839 5.892 1.712-.192.669-3.547 2.506c1.937.635 2.617 1.951 2.187 3.447zm9.213 2.552a2.99 2.99 0 01-1.563 1.814 2.986 2.986 0 01-2.392.079c-2.425-.703-3.252-2.778-2.414-5.669.907-3.119 3.082-4.241 5.564-3.527a4.465 4.465 0 012.028 1.134l-.6.646a3.487 3.487 0 00-1.655-.952c-1.971-.567-3.614.329-4.34 2.812-.069.25-.126.504-.169.76a3.025 3.025 0 013.252-.749 2.89 2.89 0 012.373 2.448c.057.403.028.813-.084 1.204zm-.941-.25a2.104 2.104 0 00-.263-1.716 2.098 2.098 0 00-1.459-.937 2.1 2.1 0 00-1.788-.036 2.115 2.115 0 00-.884 3.117 2.1 2.1 0 001.539.91 2.091 2.091 0 002.446-.578c.192-.232.332-.503.409-.794v.034zm11.232-3.73l-.192.669-6.301 7.382-1.019-.295 6.186-7.235-4.713-1.361-.499 1.713-.929-.273.748-2.551 6.719 1.951zm13.086 3.821l-.193.669-6.3 7.371-1.02-.295 6.187-7.223-4.714-1.372-.498 1.712-.929-.272.748-2.552 6.719 1.962zm7.092 9.242c-.476 1.621-2.142 2.267-4.329 1.587-2.187-.68-3.24-2.041-2.765-3.663a2.369 2.369 0 012.425-1.735 2.13 2.13 0 01-.849-2.437c.43-1.486 1.971-2.053 3.909-1.486 1.938.567 2.957 1.871 2.515 3.402a2.15 2.15 0 01-2.051 1.587 2.407 2.407 0 011.145 2.745zm-.963-.295c.328-1.134-.442-2.121-2.063-2.597-1.62-.476-2.787 0-3.116 1.134-.328 1.134.42 2.12 2.051 2.597 1.632.476 2.788 0 3.128-1.134zm-1.791-3.345c1.428.419 2.471 0 2.754-.964.283-.964-.419-1.928-1.79-2.325-1.372-.397-2.448 0-2.743.987-.294.986.295 1.893 1.779 2.302zm12.261 4.116c-.907 3.118-3.082 4.252-5.575 3.526a4.328 4.328 0 01-2.017-1.134l.601-.646a3.318 3.318 0 001.643.953c1.983.578 3.614-.329 4.339-2.813.074-.25.134-.503.182-.759a3.027 3.027 0 01-3.252.748 2.88 2.88 0 01-1.684-4.717 2.965 2.965 0 012.156-1.042c.412-.013.822.06 1.205.214 2.413.703 3.241 2.778 2.402 5.67zm-.771-2.189a2.254 2.254 0 00-.358-1.728 2.27 2.27 0 00-1.489-.948 2.087 2.087 0 10-1.133 3.992 2.271 2.271 0 002.98-1.316zm11.372.397l-2.674 9.162-.941-.272 2.425-8.323-2.164-.635.249-.839 3.105.907zm6.989 11.067l-.249.839-6.425-1.814.192-.669 4.896-2.619c1.337-.715 1.711-1.282 1.892-1.905.306-1.055-.249-1.928-1.643-2.336a3.243 3.243 0 00-2.799.283l-.499-.771a4.33 4.33 0 011.775-.577 4.297 4.297 0 011.851.226c1.859.533 2.754 1.825 2.267 3.401-.261.874-.759 1.577-2.335 2.427l-4.011 2.155 5.088 1.36zm8.736.613c-.453 1.53-1.903 2.381-4.113 1.735a4.951 4.951 0 01-2.957-2.144l.68-.612a4.172 4.172 0 002.526 1.894c1.519.442 2.561 0 2.89-1.134.329-1.134-.238-2.053-1.938-2.54l-.657-.193.204-.703 3.456-2.438-4.68-1.361.249-.839 5.881 1.712-.192.669-3.536 2.506c1.927.658 2.607 1.974 2.187 3.448zm-73.093-11.068l-1.157 3.974 73.337 21.377 1.157-3.974-73.337-21.377zm33.409 18.34l-1.16 3.985 37.621 10.966 1.159-3.985-37.62-10.966z" fill="#fff"/><path d="M328.446 142.405l-19.984-5.829a5.62 5.62 0 00-6.968 3.826l-3.555 12.204a5.625 5.625 0 003.823 6.973l19.984 5.829a5.62 5.62 0 006.969-3.826l3.554-12.203a5.625 5.625 0 00-3.823-6.974z" fill="#BEC0C1"/><path d="M298.238 151.621l.431-1.475 15.864 4.627a3.458 3.458 0 004.001-4.986 3.458 3.458 0 00-2.064-1.659l-15.863-4.615.43-1.474 15.864 4.615a5.006 5.006 0 01.89 9.057 4.994 4.994 0 01-3.677.536l-15.876-4.626z" fill="#fff"/><path d="M319.737 151.863l-.432 1.48 10.876 3.183.432-1.481-10.876-3.182zm71.636-11.655l-79.143-23.084-1.978 6.793 79.142 23.084 1.979-6.793z" fill="#fff"/><path d="M403.79 46.867a5.596 5.596 0 01-3.4-3.787 4.908 4.908 0 011.507-4.797 4.375 4.375 0 014.93-.465 6.252 6.252 0 012.447 3.402c.372.892.474 1.874.295 2.824a4.164 4.164 0 01-3.048 2.755c-1.411.282-2.86.32-4.284.114" fill="#263238"/><path d="M432.992 67.074a3.48 3.48 0 00.068-1.485 3.402 3.402 0 00-.782-1.508 4.127 4.127 0 00-1.949-1.135 8.278 8.278 0 00-2.799-.192c-1.031.068-2.13.25-3.331.272a6.523 6.523 0 01-3.683-.873 5.894 5.894 0 01-2.21-3.402 18.132 18.132 0 00-3.626-6.509 19.344 19.344 0 00-4.691-3.923 27.071 27.071 0 00-5.235-2.189h.396c.261 0 .646.091 1.134.227a16.63 16.63 0 013.932 1.565 18.958 18.958 0 014.895 3.923 18.278 18.278 0 013.796 6.657 5.384 5.384 0 001.949 3.106 6.092 6.092 0 003.399.817c1.133 0 2.267-.17 3.309-.215a8.548 8.548 0 012.946.283 4.273 4.273 0 012.085 1.315 3.49 3.49 0 01.771 1.701 2.52 2.52 0 01-.102 1.134c-.159.329-.261.442-.272.431z" fill="#263238"/><path d="M412.109 73.594c0-.056.544.375.544 1.35a2.16 2.16 0 01-.691 1.52 2.327 2.327 0 01-1.96.611 2.366 2.366 0 01-1.666-1.201 2.127 2.127 0 01-.159-1.656c.306-.93.93-1.134.941-1.134.011 0-.385.42-.521 1.213-.082.44-.002.896.226 1.282a1.924 1.924 0 001.281.873 1.892 1.892 0 001.484-.42c.343-.288.568-.691.635-1.134.068-.782-.25-1.258-.114-1.304z" fill="#E0E0E0"/><path d="M409.126 48.296a17.208 17.208 0 00-8.884-4.706 9.998 9.998 0 018.884 4.706z" fill="#657C90"/><path d="M413.353 72.2c0-.08.328-.103.532.272a.863.863 0 010 .714.889.889 0 01-.77.476.918.918 0 01-.975-1.032c0-.385.272-.51.329-.465.056.046 0 .227.102.454a.502.502 0 00.521.431.36.36 0 00.368-.268.372.372 0 00.006-.163c0-.215-.136-.329-.113-.42z" fill="#E0E0E0"/><path d="M405.604 94.788a3.4 3.4 0 01.125 1.224 9.538 9.538 0 01-.657 3.3 10.155 10.155 0 01-2.924 4.06 10.061 10.061 0 01-11.626.691 10.05 10.05 0 01-3.399-3.674 9.59 9.59 0 01-1.054-3.197 3.317 3.317 0 010-1.225 13.202 13.202 0 001.439 4.218 10.194 10.194 0 003.309 3.402 9.707 9.707 0 0010.98-.669 10.063 10.063 0 002.878-3.787c.549-1.386.863-2.854.929-4.343z" fill="#455A64"/><path d="M403.223 354.652a1.104 1.104 0 01-.068-.306c0-.238-.08-.533-.125-.907-.113-.839-.272-2.007-.465-3.481-.385-3.028-.895-7.405-1.495-12.836-1.213-10.841-2.697-25.832-4.034-42.421-1.337-16.59-2.266-31.648-2.788-42.545a717.518 717.518 0 01-.566-12.905c-.046-1.512-.08-2.68-.102-3.504v-.918a1.205 1.205 0 010-.306c.012.102.012.204 0 .306 0 .238 0 .544.068.907.056.851.124 2.019.226 3.504.182 3.096.431 7.484.748 12.893a2239.45 2239.45 0 002.98 42.511 2127.666 2127.666 0 003.842 42.432c.555 5.398.997 9.775 1.314 12.859.147 1.474.261 2.642.34 3.493 0 .374.057.669.079.907.03.103.046.21.046.317z" fill="#263238"/><path d="M421.72 354.732a5.13 5.13 0 01-1.269.181 98.81 98.81 0 01-3.467.215c-2.935.148-6.992.216-11.468.148a486.613 486.613 0 01-11.456-.318l-3.467-.17a4.847 4.847 0 01-1.281-.136c.421-.09.852-.124 1.281-.102h3.479c2.923 0 6.98.068 11.456.136 4.476.068 8.51.068 11.444 0h3.468a5.127 5.127 0 011.28.046z" fill="#263238"/><path d="M428.163 133.24l-19.456-12.791s-9.507 27.396-12.464 27.668c-16.136 1.474-33.405-3.89-39.456-5.999a45.071 45.071 0 01-2.096-2.54 9.731 9.731 0 01-1.519-2.903 14.555 14.555 0 01-.861-3.991 1.263 1.263 0 00-.166-.751 1.263 1.263 0 00-1.332-.612 1.274 1.274 0 00-.678.365c-.702.907-.883 4.366.714 8.096 1.598 3.731-4.045.76-6.119-.283-2.073-1.043-8.645-3.969-9.473-3.583-1.201.567-.827 1.961 1.269 2.959 2.097.998 8.17 4.411 7.57 5.477-.601 1.066-11.082-4.4-11.082-4.4s-2.051-1.519-2.788-.306c-1.337 2.189 10.198 7.155 11.332 7.598.77.317.158 1.496-.658 1.134-.816-.363-10.334-5.67-11.705-3.47-1.054 1.701 9.484 4.184 10.844 6.372 1.36 2.189-7.807-2.687-8.748-1.031-.351.623-.521 1.134 5.145 3.186a121.63 121.63 0 0012.623 3.22v.057s57.858 25.922 68.804.919c11.728-26.648 10.3-24.391 10.3-24.391z" fill="#E5BAAB"/><path d="M415.393 95.785s17.677 2.087 15.864 23.133a102.758 102.758 0 01-10.764 37.318l-23.184-12.179a143.23 143.23 0 0011.694-32.816l6.447-15.456h-.057z" fill="#657C90"/><path opacity=".2" d="M415.393 95.785s17.677 2.087 15.864 23.133a102.758 102.758 0 01-10.764 37.318l-23.184-12.179a143.23 143.23 0 0011.694-32.816l6.447-15.456h-.057z" fill="#fff"/><path d="M415.779 95.842c0 .148-1.915.67-4.872.873l.215-.408 2.187 3.55 1.382 2.267.329.556-.635-.125a50.507 50.507 0 00-6.323-.533 5.659 5.659 0 011.802-.283 19.72 19.72 0 014.623.249l-.294.431-1.405-2.268-2.119-3.583-.238-.397h.453a79.547 79.547 0 003.535-.238 6.698 6.698 0 011.36-.09zm10.405 8.992c0 .102-1.643-.295-4.464-.363l.192-.215c.669 2.653 1.553 6.191 2.584 10.273l.113.477-.464-.125-7.207-1.95-1.96-.545.385-.306c.158 3.912.306 7.541.43 10.659v.34l-.317-.09-6.923-1.939-1.915-.567a2.729 2.729 0 01-.658-.261c.239.004.475.042.703.113l1.949.442 6.946 1.724-.306.261c-.158-3.118-.34-6.747-.532-10.648v-.419l.408.113 1.96.544 7.184 2.007-.351.352c-.952-4.116-1.768-7.677-2.391-10.353l-.057-.227h.249c1.108.058 2.211.198 3.298.42a5.5 5.5 0 011.144.283zm1.424 28.757a3.433 3.433 0 01-.816-.85c-.476-.601-.997-1.599-1.745-2.756h.306a68.498 68.498 0 01-6.413 10.205l-.227.307-.238-.307a92.479 92.479 0 01-3.399-4.535l-2.607-3.402h.431l-4.193 3.697-1.881 1.621-.872.76-.419.363-.102.09h-.125c0 .102-.374-.136-.295-.238.08-.102 0 0 0 0v-.068s.08.193.114.182c.034-.012 0 0 0 0l-.193.056-.068-.215c-.669-2.268-1.133-4.06-1.416-5.352a5.851 5.851 0 01-.227-2.03s.113.714.465 1.973a111.28 111.28 0 001.62 5.273l-.261-.159a.482.482 0 01.25 0 .281.281 0 01.192.272.53.53 0 010 .159h-.056l-.159-.068a.298.298 0 00-.068-.113l-.068-.068h.057l.09-.091.42-.374.861-.771c.589-.533 1.201-1.134 1.847-1.656l4.136-3.685.238-.216.204.261 2.606 3.402a179.959 179.959 0 013.399 4.536h-.464a80.297 80.297 0 006.56-10.024l.159-.273.159.261c.725 1.214 1.133 2.268 1.597 2.846.465.579.635.953.601.987z" fill="#455A64"/><path d="M407.576 117.466a3.898 3.898 0 01-.193 1.134c-.17.703-.43 1.701-.793 2.937a113.242 113.242 0 01-3.252 9.48 110.469 110.469 0 01-4.079 9.162c-.578 1.134-1.065 2.064-1.428 2.687a3.958 3.958 0 01-.601.942 34.86 34.86 0 011.644-3.81 206.714 206.714 0 003.898-9.197 186.778 186.778 0 003.399-9.4c.386-1.34.855-2.654 1.405-3.935zm8.203-21.624c0 .148-1.915.67-4.872.873l.215-.408 2.187 3.55 1.382 2.267.329.556-.635-.125a50.507 50.507 0 00-6.323-.533 5.659 5.659 0 011.802-.283 19.72 19.72 0 014.623.249l-.294.431-1.405-2.268-2.119-3.583-.238-.397h.453a79.547 79.547 0 003.535-.238 6.698 6.698 0 011.36-.09z" fill="#455A64"/><path d="M426.184 104.834c0 .102-1.643-.295-4.464-.363l.192-.215c.669 2.653 1.553 6.191 2.584 10.273l.113.477-.464-.125-7.207-1.95-1.96-.545.385-.306c.158 3.912.306 7.541.43 10.659v.34l-.317-.09-6.923-1.939-1.915-.567a2.729 2.729 0 01-.658-.261c.239.004.475.042.703.113l1.949.442 6.946 1.724-.306.261c-.158-3.118-.34-6.747-.532-10.648v-.419l.408.113 1.96.544 7.184 2.007-.351.352c-.952-4.116-1.768-7.677-2.391-10.353l-.057-.227h.249c1.108.058 2.211.198 3.298.42a5.5 5.5 0 011.144.283zm1.424 28.757a3.433 3.433 0 01-.816-.85c-.476-.601-.997-1.599-1.745-2.756h.306a68.498 68.498 0 01-6.413 10.205l-.227.307-.238-.307a92.479 92.479 0 01-3.399-4.535l-2.607-3.402h.431l-4.193 3.697-1.881 1.621-.872.76-.419.363-.102.09h-.125c0 .102-.374-.136-.295-.238.08-.102 0 0 0 0v-.068s.08.193.114.182c.034-.012 0 0 0 0l-.193.056-.068-.215c-.669-2.268-1.133-4.06-1.416-5.352a5.851 5.851 0 01-.227-2.03s.113.714.465 1.973a111.28 111.28 0 001.62 5.273l-.261-.159a.482.482 0 01.25 0 .281.281 0 01.192.272.53.53 0 010 .159h-.056l-.159-.068a.298.298 0 00-.068-.113l-.068-.068h.057l.09-.091.42-.374.861-.771c.589-.533 1.201-1.134 1.847-1.656l4.136-3.685.238-.216.204.261 2.606 3.402a179.959 179.959 0 013.399 4.536h-.464a80.297 80.297 0 006.56-10.024l.159-.273.159.261c.725 1.214 1.133 2.268 1.597 2.846.465.579.635.953.601.987z" fill="#455A64"/><path d="M407.576 117.466a3.898 3.898 0 01-.193 1.134c-.17.703-.43 1.701-.793 2.937a113.242 113.242 0 01-3.252 9.48 110.469 110.469 0 01-4.079 9.162c-.578 1.134-1.065 2.064-1.428 2.687a3.958 3.958 0 01-.601.942 34.86 34.86 0 011.644-3.81 206.714 206.714 0 003.898-9.197 186.778 186.778 0 003.399-9.4c.386-1.34.855-2.654 1.405-3.935z" fill="#455A64"/></svg>