<svg width="470" height="368" fill="none" xmlns="http://www.w3.org/2000/svg"><path d="M406.078 326.652c-1.84-1.579-5.956-6.585-2.786-12.409 1.163-2.139 3.639-3.192 5.856-4.136 2.217-.945 4.585-1.755 6.442-3.343 3.488-2.967 4.45-7.897 6.767-11.849 2.661-4.546 7.621-7.947 12.866-7.713 6.007.275 11.018 5.172 13.285 10.763 2.267 5.59 2.35 11.791 2.401 17.824 0 3.342-.126 7.094-2.577 9.351-2.259 2.08-5.663 2.106-8.725 2.005l-32.826-1.003" fill="#F5F5F5"/><path d="M468.858 236.495h-86.323l15.552 92.614a10.321 10.321 0 002.488 5.191 10.35 10.35 0 004.882 3.057l.301.083c.259.059.502.151.769.193.579.118 1.167.185 1.757.2v.092l.427-.067h38.481c.71-.001 1.419-.071 2.116-.209a10.377 10.377 0 008.725-9.05l7.529-63.818.335-2.507h-.042l2.961-25.303.042-.476zm-16.287 59.071h-8.851l.895-26.874h10.265l-2.309 26.874zm3.162-26.874h8.482l-3.162 26.874h-7.621l2.301-26.874zm-25.306 56.673l-.543-23.347h12.757l-.778 23.347h-11.436zm-13.794-23.347h12.397l.536 23.347h-11.118l-1.815-23.347zm.953 23.347h-10.389l-3.665-23.347h12.239l1.815 23.347zm-1.472-29.799l-2.091-26.874h14.221l.619 26.874h-12.749zm13.602 0l-.619-26.874h14.623l-.836 26.874h-13.168zm-.761-33.325l-.577-24.885h16.396l-.836 24.885h-14.983zm-.836 0h-14.581l-1.933-24.885h15.894l.62 24.885zm-15.435 0h-15.426c-.543-3.434-1.062-6.685-1.531-9.618-1.606-10.028-2.208-13.847-2.509-15.267h17.567l1.899 24.885zm.502 6.451l2.092 26.874H402.52c-.426-2.724-.836-5.481-1.296-8.239-1.004-6.351-2-12.693-2.945-18.635h14.907zm-11.527 26.874h-8.366l-4.517-26.874h8.608a3170.487 3170.487 0 014.266 26.874h.009zm1.02 6.452c1.263 8.08 2.51 16.044 3.656 23.347h-7.997l-3.924-23.347h8.265zm40.054 23.347l.778-23.347h8.516l-1.991 23.347h-7.303zm2.1-63.124l.836-24.885h11.896l-2.133 24.885h-10.599zm-52.46-24.885c.343 1.796 1.916 11.59 4.024 24.885h-8.667l-4.183-24.885h8.826zm65.192 88.009h-6.692l2.049-23.347h7.42l-2.777 23.347zm7.412-63.124h-8.709l2.125-24.885h9.503l-2.919 24.885zM470 113.263h-75.983V4.442L469.464.518 470 113.263z" fill="#E0E0E0"/><path d="M469.464.518h-75.288v108.821h75.288V.518z" fill="#fff"/><path d="M393.654 109.857V0h76.326v109.857h-76.326zm1.038-108.822v107.762h74.25V1.035h-74.25z" fill="#E0E0E0"/><path d="M460.109 97.55V12.308h-56.583V97.55h56.583z" fill="#fff"/><path d="M460.11 97.55v-6.312l-.067-17.533-.125-61.365.251.242h-56.575l.268-.268-.05 85.244-.218-.208c17.223.041 31.339.083 41.169.108 4.915 0 8.75.042 11.387.059h3.031-2.947c-2.621 0-6.447 0-11.337.05-9.863 0-24.03.067-41.303.117h-.218v-.217l-.05-85.244v-.268h57.002v.25l-.117 61.525-.067 17.533v5.811l-.034.476z" fill="#E0E0E0"/><path d="M469.656.518a8.978 8.978 0 01-1.214 1.87c-.837 1.119-1.951 2.63-3.265 4.267a85.056 85.056 0 01-3.483 4.09 8.748 8.748 0 01-1.6 1.562c-.117-.1 2.052-2.722 4.664-5.986 2.612-3.265 4.798-5.895 4.898-5.803zm-.192 108.821c-.117.091-2.303-2.505-4.89-5.728-2.587-3.223-4.58-5.97-4.463-6.061.118-.092 2.303 2.504 4.89 5.727 2.587 3.223 4.58 5.97 4.463 6.062z" fill="#E0E0E0"/><path d="M394.165 109.254l9.855-12.148-9.855 12.148z" fill="#fff"/><path d="M404.023 97.106c.117.1-1.993 2.889-4.714 6.237-2.721 3.348-5.024 5.994-5.141 5.902-.117-.091 1.993-2.888 4.722-6.236 2.73-3.348 5.024-5.986 5.133-5.903zM394.173.518c.117-.092 2.286 2.446 4.839 5.669 2.554 3.223 4.53 5.903 4.413 5.995-.117.091-2.286-2.438-4.84-5.661-2.553-3.223-4.529-5.911-4.412-6.003zm48.314 29.094h-18.948v53.643h18.948V29.612z" fill="#E0E0E0"/><path d="M23.955 46.503H406.43c1.344 0 2.632.594 3.583 1.65.95 1.056 1.484 2.489 1.484 3.983v271.332c-.002 3.227-1.156 6.32-3.208 8.601-2.053 2.282-4.836 3.564-7.738 3.566H29.082c-2.905 0-5.69-1.282-7.745-3.566-2.054-2.283-3.208-5.38-3.208-8.609V52.971c.002-1.716.617-3.361 1.709-4.574 1.092-1.212 2.573-1.894 4.117-1.894z" fill="#455A64"/><path d="M1.68 314.26h426.183v13.855c0 3.04-1.087 5.957-3.021 8.107-1.935 2.15-4.558 3.358-7.294 3.358H11.994c-2.735 0-5.359-1.208-7.293-3.358-1.935-2.15-3.021-5.067-3.021-8.107V314.26z" fill="#455A64"/><path d="M399.836 57.977H28.684V302.16h371.152V57.977z" fill="#F5F5F5"/><path d="M176.031 314.26l5.293 9.351h74.418l4.909-9.351h-84.62z" fill="#263238"/><path d="M411.567 314.168H18.191v1.396h393.376v-1.396z" fill="#263238"/><path d="M114.588 46.503H69.113v-16.01c0-11.29 9.16-20.841 20.462-20.841l25.013.392v36.46z" fill="#E0E0E0"/><path d="M88.598 9.626s25.882-2.348 25.882 31.37v262.266h203.114v-271.8a22.27 22.27 0 00-6.553-15.769 22.311 22.311 0 00-15.8-6.51l-206.643.443z" fill="#fff"/><path d="M88.597 9.626l150.268-.484 36.39-.1 19.349-.059a22.591 22.591 0 0117.877 7.997 22.47 22.47 0 014.643 9.192c.214.85.374 1.712.477 2.582.117.836.109 1.747.167 2.624V303.48H114.237v-.201c0-90.801.058-167.905.083-222.28v-36.41c0-2.657 0-5.214-.15-7.662a46.595 46.595 0 00-.971-6.986 36.212 36.212 0 00-1.991-6.125 28.018 28.018 0 00-2.911-5.014 22.171 22.171 0 00-7.336-6.276 24.15 24.15 0 00-6.693-2.356 24.596 24.596 0 00-4.3-.485h-1.472c.49-.03.982-.03 1.472 0a24.82 24.82 0 014.317.451 24.1 24.1 0 016.692 2.34 22.11 22.11 0 017.387 6.284 28.327 28.327 0 012.945 5.014 36.626 36.626 0 012.016 6.15c.506 2.309.836 4.653.987 7.011.184 2.457.159 5.014.159 7.671v36.41c0 54.408.042 131.513.075 222.28l-.201-.192h203.114l-.218.217V36.642c-.05-3.517.259-7.044-.627-10.386a22.164 22.164 0 00-4.409-9 22.183 22.183 0 00-17.567-7.88h-19.391l-36.449.058-150.202.192z" fill="#263238"/><path d="M201.419 89.221c0 .117-12.356.218-27.606.218-15.25 0-27.606-.1-27.606-.218 0-.117 12.347-.217 27.606-.217 15.259 0 27.606.117 27.606.217zm12.365 6.585c0 .126-15.116.218-33.771.218s-33.763-.092-33.763-.218c0-.125 15.116-.217 33.763-.217s33.771.1 33.771.217zm4.435 25.947c0 .117-15.61.217-34.867.217-19.258 0-34.868-.1-34.868-.217 0-.117 15.61-.218 34.868-.218 19.257 0 34.867.092 34.867.218zm45.549 25.286c0 .117-26.1.218-58.29.218s-58.29-.101-58.29-.218c0-.117 26.091-.217 58.29-.217s58.29.092 58.29.217zm17.321-102.725c0 .117-26.1.218-58.291.218-32.19 0-58.29-.1-58.29-.218 0-.117 26.092-.217 58.29-.217 32.199 0 58.291.092 58.291.217zm-17.321 110.263c0 .125-26.1.217-58.29.217s-58.29-.092-58.29-.217 26.091-.217 58.29-.217 58.29.1 58.29.217zm17.321-102.725c0 .125-26.1.217-58.291.217-32.19 0-58.29-.092-58.29-.217s26.092-.217 58.29-.217c32.199 0 58.291.1 58.291.217zm-17.321 110.271c0 .125-26.1.217-58.29.217s-58.29-.092-58.29-.217c0-.126 26.091-.218 58.29-.218s58.29.101 58.29.218zm0 7.546c0 .117-26.1.217-58.29.217s-58.29-.1-58.29-.217c0-.117 26.091-.218 58.29-.218s58.29.101 58.29.218zm0 7.546c0 .117-26.1.217-58.29.217s-58.29-.1-58.29-.217c0-.118 26.091-.218 58.29-.218s58.29.092 58.29.218zm-72.369 7.545c0 .117-9.905.218-22.11.218s-22.101-.101-22.101-.218c0-.117 9.896-.217 22.101-.217 12.205 0 22.11.092 22.11.217zm89.445 31.847c0 .117-11.578.217-25.85.217-14.271 0-25.857-.1-25.857-.217 0-.117 11.578-.218 25.857-.218 14.28 0 25.85.101 25.85.218zm0 7.286c0 .117-11.578.218-25.85.218-14.271 0-25.857-.101-25.857-.218 0-.117 11.552-.234 25.866-.234 14.313 0 25.841.117 25.841.234z" fill="#263238"/><path d="M277.416 255.556a1.741 1.741 0 010-.368c0-.259-.042-.61-.076-1.061 0-.234-.016-.493-.05-.777 0-.293-.092-.602-.142-.936a16.512 16.512 0 00-.477-2.307 21.027 21.027 0 00-2.51-5.924 22.227 22.227 0 00-11.649-9.536 22.254 22.254 0 00-15.061.068c-.993.357-1.96.781-2.895 1.27a24.171 24.171 0 00-2.727 1.747 25.194 25.194 0 00-2.51 2.139 25.69 25.69 0 00-2.175 2.574 21.312 21.312 0 00-3.17 6.108 21.929 21.929 0 000 13.997 21.33 21.33 0 003.17 6.109 25.79 25.79 0 002.175 2.573 25.337 25.337 0 002.51 2.14 20.862 20.862 0 005.622 3.025 22.403 22.403 0 0011.644.977 22.363 22.363 0 0015.058-10.454 21.027 21.027 0 002.51-5.924c.214-.756.374-1.527.477-2.307.05-.334.108-.643.142-.927.033-.284 0-.552.05-.786 0-.451.059-.835.075-1.061a1.657 1.657 0 010-.359c.011.119.011.24 0 .359v1.855c0 .284-.075.602-.125.944-.085.785-.23 1.562-.435 2.324a21.129 21.129 0 01-2.443 6.008 22.485 22.485 0 01-11.767 9.747 22.513 22.513 0 01-15.287-.02 23.568 23.568 0 01-2.953-1.287 22.612 22.612 0 01-2.777-1.78 25.097 25.097 0 01-2.577-2.173 25.822 25.822 0 01-2.217-2.624 21.724 21.724 0 01-3.237-6.225 22.312 22.312 0 010-14.265 21.813 21.813 0 013.237-6.225 24.881 24.881 0 012.226-2.616 25.198 25.198 0 012.568-2.181 22.539 22.539 0 0126.463-.211 22.51 22.51 0 016.321 6.896 21.263 21.263 0 012.443 6.009c.206.764.351 1.544.435 2.331.05.343.1.652.125.936.025.284 0 .552 0 .794v1.061c.013.114.015.229.009.343z" fill="#A39085"/><path d="M268.999 258.871c1.841-7.731-2.941-15.49-10.681-17.329-7.74-1.839-15.507 2.938-17.348 10.669-1.841 7.732 2.941 15.49 10.681 17.329 7.74 1.839 15.507-2.937 17.348-10.669z" fill="#A39085"/><path d="M287.034 243.163l-.602.335-1.799.952-6.918 3.602-10.934 5.691a11.02 11.02 0 01-3.555 1.136 4.832 4.832 0 01-3.781-1.153 3.536 3.536 0 01-1.113-1.797 2.283 2.283 0 01.477-2.114 3.003 3.003 0 012.016-.969 1.882 1.882 0 011.974 1.103v.058a9.923 9.923 0 01-2.417 6.577 9.366 9.366 0 01-6.692 3.342 10.148 10.148 0 01-7.437-2.682 6.754 6.754 0 01-2.142-3.602 3.43 3.43 0 01.285-2.172 3.101 3.101 0 011.622-1.521 2.34 2.34 0 012.234.309 3.768 3.768 0 011.263 1.872c.238.713.354 1.462.343 2.214.034.373.034.747 0 1.12a7.162 7.162 0 01-.142 1.12 12.992 12.992 0 01-4.668 7.696 11.416 11.416 0 01-8.867 2.507 12.796 12.796 0 01-8.115-4.93 12.136 12.136 0 01-2.325-5.014 9.327 9.327 0 01.409-5.449 4.625 4.625 0 011.791-2.105 3.84 3.84 0 012.71-.51 3.2 3.2 0 012.142 1.671c.408.792.706 1.635.886 2.507a17.86 17.86 0 01-.619 10.17 14.534 14.534 0 01-6.148 7.521 14.238 14.238 0 01-9.06 1.98 11.846 11.846 0 01-4.292-1.387 11.637 11.637 0 01-3.346-2.833 12.047 12.047 0 01-2.769-7.671 10.15 10.15 0 01.837-3.827 4.648 4.648 0 012.593-2.666 3.417 3.417 0 011.857-.05 3.964 3.964 0 011.531.927 7.313 7.313 0 011.765 2.892 9.433 9.433 0 01.561 3.133v1.521c0 .502-.042.986-.092 1.463a25.106 25.106 0 01-2.819 9.384 24.398 24.398 0 01-3.581 5.072c-.477.527-.878.894-1.146 1.145-.268.251-.41.368-.41.368s.126-.142.385-.401.636-.636 1.104-1.17a25.649 25.649 0 003.497-5.089 25.228 25.228 0 002.727-9.326c.05-.476.075-.961.084-1.454.008-.493 0-.995 0-1.504a9.284 9.284 0 00-.561-3.05 7.02 7.02 0 00-1.673-2.766c-.4-.384-.884-.67-1.414-.836a3.079 3.079 0 00-1.673.05 4.366 4.366 0 00-2.401 2.507 9.926 9.926 0 00-.761 3.694 11.78 11.78 0 002.711 7.445 10.987 10.987 0 007.386 4.061 13.88 13.88 0 008.809-1.938 14.123 14.123 0 005.965-7.346 17.405 17.405 0 00.594-9.927 9.27 9.27 0 00-.837-2.398 2.79 2.79 0 00-1.865-1.479 3.346 3.346 0 00-2.393.468 4.023 4.023 0 00-1.614 1.913 8.799 8.799 0 00-.385 5.181 11.688 11.688 0 002.25 4.838 12.401 12.401 0 007.83 4.764 11.01 11.01 0 008.533-2.449 12.535 12.535 0 004.517-7.437c.134-.711.19-1.433.168-2.156a6.254 6.254 0 00-.318-2.089 3.467 3.467 0 00-1.113-1.671 1.929 1.929 0 00-1.849-.251 2.733 2.733 0 00-1.405 1.32 3.043 3.043 0 00-.251 1.922 6.345 6.345 0 002.024 3.343 9.763 9.763 0 003.304 2.023 9.764 9.764 0 003.832.576 8.983 8.983 0 003.544-.935 8.946 8.946 0 002.872-2.274 9.59 9.59 0 002.359-6.343v.059a1.524 1.524 0 00-.681-.737 1.525 1.525 0 00-.992-.157 2.652 2.652 0 00-1.79.835 1.986 1.986 0 00-.418 1.839 3.222 3.222 0 001.02 1.671 4.479 4.479 0 003.539 1.086 10.605 10.605 0 003.472-1.086l10.958-5.574 6.969-3.518 1.815-.911.619-.259z" fill="#263238"/><path d="M212.096 37.019c0 .125-17.693.226-39.518.226-21.826 0-39.527-.1-39.527-.226 0-.125 17.693-.218 39.527-.218 21.833 0 39.518.1 39.518.218zm13.177 0c-1.817.3-3.671.3-5.488 0 1.818-.29 3.67-.29 5.488 0zm78.684 0c0 .125-16.146.226-36.047.226-19.901 0-36.047-.1-36.047-.226 0-.125 16.129-.218 36.047-.218 19.918 0 36.047.1 36.047.218zm-91.861 21.969c0 .125-17.693.217-39.518.217-21.826 0-39.527-.092-39.527-.217 0-.126 17.693-.218 39.527-.218 21.833 0 39.518.1 39.518.218zm13.177 0c-1.818.29-3.67.29-5.488 0 1.818-.29 3.67-.29 5.488 0zm78.684 0c0 .125-16.146.217-36.047.217-19.901 0-36.047-.092-36.047-.217 0-.126 16.129-.218 36.047-.218 19.918 0 36.047.1 36.047.218z" fill="#E0E0E0"/><path d="M313.182 145.945l-20.738 48.141a1.21 1.21 0 001.606 1.596l15.986-7.053a1.22 1.22 0 011.003-.008c.158.07.299.172.415.3.116.128.203.279.255.444l5.396 16.169a1.212 1.212 0 002.292 0l19.5-51.926-25.715-7.663zm27.029 8.047l9.93 51.459a1.218 1.218 0 00.974.968c.241.045.49.017.715-.081.224-.099.414-.262.544-.469l9.252-14.8a1.22 1.22 0 01.815-.553 1.223 1.223 0 01.959.228l13.56 10.353a1.22 1.22 0 001.924-1.253l-13.1-53.899-25.573 8.047z" fill="#EB8B55"/><path opacity=".3" d="M313.182 145.945l-20.738 48.141a1.21 1.21 0 001.606 1.596l15.986-7.053a1.22 1.22 0 011.003-.008c.158.07.299.172.415.3.116.128.203.279.255.444l5.396 16.169a1.212 1.212 0 002.292 0l19.5-51.926-25.715-7.663zm27.029 8.047l9.93 51.459a1.218 1.218 0 00.974.968c.241.045.49.017.715-.081.224-.099.414-.262.544-.469l9.252-14.8a1.22 1.22 0 01.815-.553 1.223 1.223 0 01.959.228l13.56 10.353a1.22 1.22 0 001.924-1.253l-13.1-53.899-25.573 8.047z" fill="#000"/><path d="M341.217 61.594l6.809-4.997 5.354 6.527 7.838-3.142 3.556 7.654 8.382-1.103 1.531 8.298 8.39 1.011-.577 8.424 7.872 3.058-2.652 8.014 6.86 4.93-4.559 7.103 5.42 6.468-6.198 5.749 3.647 7.613-7.429 4.028 1.632 8.281-8.198 2.055-.486 8.424-8.449-.042-2.568 8.039-8.173-2.139-4.492 7.144-7.379-4.103-6.131 5.808-6.124-5.808-7.378 4.103-4.493-7.144-8.173 2.139-2.568-8.039-8.449.042-.485-8.424-8.198-2.055 1.631-8.281-7.429-4.028 3.639-7.613-6.19-5.749 5.421-6.468-4.559-7.103 6.859-4.93-2.66-8.014 7.88-3.058-.577-8.424 8.391-1.01 1.531-8.299 8.382 1.103 3.555-7.654 7.839 3.142 5.345-6.527 6.81 4.997z" fill="#EB8B55"/><path d="M368.213 137.704c14.934-14.943 14.934-39.17 0-54.112-14.933-14.942-39.146-14.942-54.079 0-14.934 14.943-14.934 39.169 0 54.112 14.933 14.942 39.146 14.942 54.079 0z" fill="#fff"/><path d="M349.565 101.589l10.264 1.504a2.063 2.063 0 011.663 1.401 2.055 2.055 0 01-.525 2.109l-7.437 7.228c-.24.232-.42.52-.524.837a2.057 2.057 0 00-.07.985l1.748 10.236a2.05 2.05 0 01-.82 2.009 2.056 2.056 0 01-2.166.156l-9.202-4.839a2.05 2.05 0 00-1.916 0l-9.202 4.814a2.066 2.066 0 01-2.164-.164 2.054 2.054 0 01-.814-2.009l1.765-10.212a2.057 2.057 0 00-.585-1.821l-7.429-7.245a2.061 2.061 0 01-.522-2.112 2.056 2.056 0 011.668-1.398l10.273-1.479a2.043 2.043 0 001.548-1.12l4.609-9.292a2.056 2.056 0 012.93-.835c.326.202.589.491.759.835l4.576 9.309a2.05 2.05 0 001.573 1.103z" fill="#A39085"/><path d="M102.297 106.67c6.098.793 7.001 7.036 9.26 12.275 2.259 5.24 6.584 9.903 9.913 14.59 1.757 2.507 4.183 4.705 4.785 7.647.661 3.075-.744 6.259-1.405 9.392-.661 3.134-.193 6.969 2.819 8.357a3.344 3.344 0 01-2.761 1.161c0 1.446-1.397 2.691-2.919 3.109a11.297 11.297 0 01-4.643-.05c.41.961-.46 2.122-1.539 2.507a6.353 6.353 0 01-3.346 0 8.277 8.277 0 00-3.347-.243c-2.509.543-3.973 3.343-6.483 3.694-3.446.501-5.922-3.903-9.327-3.134-1.598.359-2.66 1.755-3.974 2.708-1.313.952-3.53.71-4.183-.661-1.823 2.298-4.642 4.53-7.612 5.14a2.757 2.757 0 00-.577-3.009 11.713 11.713 0 01-5.664 2.507 5.85 5.85 0 001.89-4.529 5.858 5.858 0 01-5.019 1.078c3.062-1.746 3.347-5.808 2.276-8.858-1.07-3.05-3.162-5.782-3.564-9-.443-3.501 3.673-7.93 2.87-11.364-1.239-5.298-1.147-8.524-.929-13.471.142-3.234 1.573-6.108 2.995-9.125a18.596 18.596 0 018.114-8.774c3.238-1.822 7.906-3.493 11.612-3.577 6.608-.142 9.294-.351 14.522 3.142" fill="#263238"/><path d="M81.936 149.805a81.56 81.56 0 01-5.379-13.119 28.635 28.635 0 01-.753-14.031c.16-.693 1.673-5.448 2.393-5.473.51 0-.234 4.32.084 4.73 3.003 3.86 4.35 8.816 4.609 13.696.21 4.756-.11 9.52-.954 14.206" fill="#263238"/><path d="M110.825 189.833c-7.303.836-24.87-6.835-25.85-14.105l-5.922-43.754c-1.958-11.699 3.22-22.563 14.99-24.234l1.096-.092a21.25 21.25 0 0114.809 4.456 21.204 21.204 0 017.853 13.31c1.673 10.153 3.347 21.384 3.706 26.874.77 11.356-10.448 14.03-10.448 14.03s.284 2.624.694 5.942c.929 7.454-.259 15.626-.928 17.548v.025z" fill="#FFBE9D"/><path d="M111.06 166.318a27.575 27.575 0 01-15.15-3.184s4.25 8.248 15.501 6.317l-.351-3.133z" fill="#EB996E"/><path d="M113.575 135.291a1.62 1.62 0 01-1.431 1.755 1.551 1.551 0 01-1.59-.744 1.548 1.548 0 01-.2-.585 1.62 1.62 0 011.431-1.755 1.537 1.537 0 011.79 1.329zm2.213-4.68c-.184.226-1.48-.585-3.229-.443-1.748.142-2.953 1.12-3.162.92-.209-.201.075-.485.603-.928a4.434 4.434 0 012.509-1.003 4.275 4.275 0 012.593.61c.569.368.778.736.686.844zm-18.63 5.958a1.672 1.672 0 01-1.43 1.764 1.55 1.55 0 01-1.79-1.329 1.671 1.671 0 012.046-1.737 1.564 1.564 0 011.174 1.302zm1.55-4.186c-.184.226-1.49-.577-3.23-.435-1.74.142-2.96 1.12-3.161.92-.201-.201.067-.485.594-.937a4.398 4.398 0 012.51-.994 4.29 4.29 0 012.601.61c.569.368.811.736.686.836zm7.343 12.902a11.214 11.214 0 012.795-.736c.443-.083.836-.209.903-.518a2.223 2.223 0 00-.402-1.295l-1.589-3.284c-2.217-4.68-3.865-8.549-3.672-8.632.192-.084 2.141 3.635 4.358 8.314l1.539 3.343c.323.515.453 1.128.368 1.73a1.115 1.115 0 01-.677.71 3.305 3.305 0 01-.753.167c-.944.187-1.908.255-2.87.201zm-8.056-19.395c-.2.46-1.932.125-3.998.251-2.067.125-3.765.576-4.007.133-.11-.209.209-.643.903-1.061a7.022 7.022 0 016.099-.293c.77.343 1.129.736 1.003.97zm17.06.677c-.327.426-1.782.15-3.497.292-1.715.143-3.129.569-3.497.184-.167-.184 0-.601.619-1.036a5.854 5.854 0 015.638-.393c.636.351.879.744.737.953z" fill="#263238"/><path d="M80.66 140.304c-.201-.067-7.99-1.671-7.12 6.059.87 7.729 8.466 5.273 8.458 5.014-.008-.26-1.339-11.073-1.339-11.073z" fill="#FFBE9D"/><path d="M79.31 148.744s-.126.109-.344.242c-.305.17-.664.217-1.003.134-.837-.209-1.674-1.429-1.891-2.824a4.497 4.497 0 01.167-1.972 1.54 1.54 0 01.895-1.145.696.696 0 01.837.276c.134.208.1.367.142.376.042.008.15-.151.05-.46a.836.836 0 00-.36-.451 1.032 1.032 0 00-.77-.117 1.92 1.92 0 00-1.27 1.362 4.666 4.666 0 00-.227 2.206c.226 1.554 1.188 2.925 2.343 3.125a1.44 1.44 0 001.213-.342c.217-.218.242-.401.217-.41z" fill="#EB996E"/><path d="M111.238 113.205c1.171-.836-3.079-4.446-6.324-5.465-4.911-1.546-12.172-1.981-16.322-.243-5.019 2.089-8.959 5.173-10.983 10.187a30.542 30.542 0 00-1.531 15.935 9.24 9.24 0 001.673 4.596c1.288 1.58 3.497 2.407 3.689 4.772.054.867.444 1.68 1.088 2.264 1.606 1.329 3.162-.292 3.79-1.805 1.33-3.233 1.078-6.877.836-10.361a22.62 22.62 0 00-1.389-7.296c-.535-1.245-1.288-2.39-1.757-3.66a4.673 4.673 0 01.084-3.919c.15-.242.324-.469.519-.677a8.148 8.148 0 017.822-2.507c4.542 1.011 12.271 2.407 14.037.694 2.509-2.507 3.036-3.928 3.036-3.928l1.732 1.413zm-9.856 33.575c-.1 0-.117.46.117 1.112a4.343 4.343 0 001.674 2.097 7.14 7.14 0 002.417 1.028c.644.151 1.063.167 1.096.067.033-.1-.318-.326-.903-.61a15.603 15.603 0 01-2.142-1.162c-1.556-.994-2.016-2.598-2.259-2.532z" fill="#263238"/><path d="M80.914 141.315c.067.134.126.277.192.436 0 .016-.075-.159-.192-.436z" fill="#A39085"/><path d="M78.261 140.096s1.297-1.672 2.652 1.186c-1.614-3.794-12.347-31.228 17.082-34.846 0 0-10.632-1.872-17.04 3.409 0 .034-13.033 7.814-2.694 30.251z" fill="#455A64"/><path d="M134.535 278.628l-68.404.928s-19.132-7.997-24.386-8.215c-5.253-.217-15.693.451-20.52 8.215-5.02 8.022-5.68 22.169 9.687 32.448 14.974 10.027 83.429 19.269 92.857 18.384l17.249-23.164s.184-19.011 0-19.922c-.184-.911-3.078-9.05-3.078-9.05l-3.405.376z" fill="#263238"/><path d="M93.589 310.717l-35.444 13.144L74.297 368c4.124-1.805 4.242-27.727 4.242-27.727l23.055-7.52-8.006-22.036z" fill="#A39085"/><path opacity=".6" d="M75.458 325.925a1.918 1.918 0 00-2.51-.493 1.84 1.84 0 00-.51 2.507 2.026 2.026 0 002.669.51 1.913 1.913 0 00.242-2.641" fill="#fff"/><path d="M58.145 323.861l3.58-1.32 14.221 42.893s-.134 2.282-1.606 2.566l-16.196-44.139zm20.875 17.048c-.217.067-.702-.978-1.79-1.78-1.087-.803-2.191-1.045-2.183-1.271.008-.225 1.38-.368 2.669.636 1.288 1.003 1.522 2.382 1.305 2.415zm-.216 5.323c-.192.125-.903-.669-2.083-1.07-1.18-.401-2.217-.259-2.292-.476-.075-.218 1.104-.836 2.56-.276 1.456.56 2.016 1.747 1.815 1.822zm-4.584 4.654c-.117-.175.837-.836 2.234-.752 1.397.084 2.226.961 2.075 1.12-.15.159-1.004-.234-2.142-.318-1.137-.083-2.066.159-2.166-.05zm9.873-12.276c-.234 0-.293-1.111-.837-2.298-.543-1.186-1.263-1.997-1.12-2.181.142-.184 1.246.451 1.848 1.864.603 1.412.318 2.665.109 2.615zm4.859-2.975c-.092 0-.535-.768-.836-2.214a10.807 10.807 0 01-.134-2.574c.035-.511.105-1.019.209-1.521.05-.29.142-.572.276-.835a.997.997 0 011.112-.518 1.249 1.249 0 01.837.76c.102.269.167.55.193.836a8.233 8.233 0 01-.561 4.078c-.577 1.37-1.255 2.013-1.322 1.955-.067-.059.385-.836.787-2.148a9.422 9.422 0 00.393-2.373 9.093 9.093 0 00-.076-1.412c-.05-.51-.192-.911-.443-.953-.092 0-.125 0-.234.134a2.68 2.68 0 00-.2.635c-.105.463-.184.932-.235 1.404a13.491 13.491 0 000 2.44c.13.763.208 1.533.234 2.306z" fill="#263238"/><path d="M88.535 335.477c-.058-.059.56-.769 1.924-1.362a7.78 7.78 0 012.51-.585 8.174 8.174 0 011.547.075 1.942 1.942 0 011.631 1.003 1.07 1.07 0 01-.276 1.145c-.214.211-.46.388-.727.526a5.272 5.272 0 01-1.49.543 5.36 5.36 0 01-2.634-.108c-1.456-.443-2.042-1.246-1.975-1.296.686.296 1.39.548 2.108.752a5.46 5.46 0 002.343-.066 4.87 4.87 0 001.263-.502c.443-.242.753-.56.644-.718-.109-.159-.569-.46-1.012-.502a8.174 8.174 0 00-1.397-.117c-.804.015-1.6.144-2.368.385-1.288.409-2.016.935-2.091.827z" fill="#263238"/><path d="M122.822 305.26l34.299 15.877-19.576 42.726c-3.973-2.114-2.049-27.969-2.049-27.969l-22.394-9.284 9.72-21.35z" fill="#A39085"/><path opacity=".6" d="M139.697 321.847a1.922 1.922 0 012.509-.292 1.833 1.833 0 01.31 2.507 2.022 2.022 0 01-2.694.301 1.915 1.915 0 010-2.658" fill="#fff"/><path d="M157.125 321.154l-3.464-1.605-17.509 41.649s-.041 2.289 1.398 2.682l19.575-42.726zm-22.162 15.318c.217.083.786-.92 1.932-1.672 1.146-.752 2.267-.836 2.276-1.095.008-.259-1.347-.468-2.711.426-1.363.895-1.706 2.341-1.497 2.341zm-.162 5.356c.176.142.946-.602 2.159-.903 1.213-.301 2.233-.083 2.317-.292.083-.209-1.029-.886-2.51-.477-1.48.41-2.2 1.58-1.966 1.672zm4.185 5.005c.134-.175-.777-.936-2.166-.928-1.389.009-2.292.786-2.158.953.133.168 1.02-.158 2.166-.15 1.146.008 2.025.318 2.158.125zm-8.892-13.011c.234 0 .385-1.095 1.004-2.231.619-1.137 1.414-1.897 1.288-2.089-.125-.192-1.28.359-1.991 1.671-.711 1.312-.51 2.674-.301 2.649zm-4.613-3.342c.092.041.594-.719.97-2.14a10.561 10.561 0 00.251-4.086 2.846 2.846 0 00-.209-.877 1.008 1.008 0 00-1.071-.602 1.27 1.27 0 00-.895.694 3.05 3.05 0 00-.251.835 8.275 8.275 0 00-.159 1.538c-.002.87.131 1.735.393 2.565a4.036 4.036 0 001.163 2.056c.117-.067-.318-.836-.611-2.206a9.57 9.57 0 01-.209-2.399 9.47 9.47 0 01.184-1.403c.092-.502.268-.895.519-.92.1 0 .134 0 .218.159.08.207.13.423.15.644.072.473.117.95.134 1.429a13.37 13.37 0 01-.159 2.431 18.204 18.204 0 00-.418 2.282z" fill="#263238"/><path d="M125.909 330.346c.067-.059-.494-.836-1.807-1.513a7.69 7.69 0 00-2.51-.777 7.922 7.922 0 00-1.547-.05 1.96 1.96 0 00-1.673.836 1.108 1.108 0 00.184 1.17c.198.225.429.419.686.576a5.07 5.07 0 001.447.66 5.374 5.374 0 002.627.101c1.497-.326 2.141-1.087 2.074-1.137-.709.237-1.433.43-2.166.577a5.362 5.362 0 01-2.318-.243 4.884 4.884 0 01-1.221-.601c-.427-.276-.711-.619-.585-.761.125-.142.602-.418 1.037-.434a7.85 7.85 0 011.405 0 8.343 8.343 0 012.334.56c1.272.559 1.949 1.136 2.033 1.036z" fill="#263238"/><path d="M137.942 278.26s29.539-11.022 40.414-9.593c6.082.836 15.585 5.432 16.313 13.22.727 7.788-1.18 18.192-11.712 23.264-10.532 5.073-52.468 23.875-62.431 26.741-9.964 2.866-34.826 9.677-34.826 9.677l-9.41-26.824s51.505-17.816 54.224-19.814c2.719-1.997 9.603-4.704 9.603-4.704l-2.175-11.967z" fill="#263238"/><path d="M35.254 281.921l.209-.059.594-.175a37.213 37.213 0 012.3-.627 27.733 27.733 0 013.698-.644c1.653-.15 3.316-.15 4.97 0 2.005.166 3.988.544 5.913 1.128 1.072.319 2.115.724 3.12 1.212l3.213 1.571a232.647 232.647 0 0014.615 6.343c10.523 4.178 20.629 6.217 27.831 7.846 3.614.836 6.542 1.454 8.55 1.939l2.326.543.602.142h.209l-.201-.067-.602-.167c-.519-.142-1.297-.359-2.301-.61a401.534 401.534 0 00-8.532-2.03c-7.195-1.672-17.275-3.727-27.765-7.922a239.763 239.763 0 01-14.606-6.318l-3.23-1.512a20.775 20.775 0 00-3.17-1.212 28.453 28.453 0 00-5.965-1.103 27.501 27.501 0 00-5.019 0 26.77 26.77 0 00-3.714.702 30.413 30.413 0 00-2.284.677l-.585.217a.921.921 0 00-.176.126zm1.546-3.894c0 .05.904-.109 2.352-.268a36.683 36.683 0 015.663-.159c1.893.1 3.776.349 5.63.744 1.422.301 2.292.552 2.3.502a2.69 2.69 0 00-.585-.234 16.484 16.484 0 00-1.673-.485 29.646 29.646 0 00-11.377-.585c-.72.1-1.305.209-1.673.309a2.864 2.864 0 00-.636.176zm113.571 8.038c0 .05.837-.585 2.267-1.462a30.22 30.22 0 0112.155-4.287c1.673-.201 2.694-.226 2.685-.284a3.533 3.533 0 00-.727 0 19.311 19.311 0 00-1.983.092 27.012 27.012 0 00-12.255 4.32c-.695.468-1.247.836-1.607 1.17-.194.13-.374.282-.535.451z" fill="#455A64"/><path d="M135.548 326.151l-.235.092-.669.284c-.594.234-1.455.643-2.61 1.086-2.3.911-5.705 2.165-10.038 3.593-8.725 2.85-21.274 6.477-36.281 10.254l.175.092c-2.802-7.755-5.855-16.32-9.135-25.32l-.092.2 11.294-4.637 62.582-25.73c2.551-2.691 4.893-5.064 7.094-6.986a47.426 47.426 0 015.939-4.471 44.907 44.907 0 014.074-2.272l1.096-.51.368-.184-.377.159-1.112.484a41.813 41.813 0 00-4.108 2.223 47 47 0 00-5.989 4.446c-2.217 1.913-4.576 4.278-7.136 6.961-15.25 6.25-37.644 15.426-62.615 25.629l-11.31 4.646-.143.058.05.143a18730.7 18730.7 0 019.16 25.311l.043.117h.133c15.008-3.81 27.539-7.479 36.256-10.37 4.359-1.463 7.755-2.733 10.039-3.677 1.146-.451 2.007-.877 2.593-1.128l.661-.309.293-.184z" fill="#455A64"/><path d="M62.528 184.217s-8.5 4.897-10.223 10.646c-1.054 3.493-8.984 48.158-10.24 56.966-1.254 8.808 1.39 15.334 5.154 18.259 3.764 2.924 15.158 6.81 15.158 6.81l16.037 5.19 4.592-11.699-15.258-21.903 1.472-14.757-6.692-49.512z" fill="#A39085"/><path d="M79.25 176.504l5.304-3.911s6.91 7.062 14.848 6.226c7.939-.836 12.64-6.902 12.64-6.902l23.675 4.821c1.589.318 4.484 1.32 7.253 5.273 3.095 4.412 17.743 23.966 17.743 23.966h10.256a7.636 7.636 0 016.742 4.061c1.749 3.343 3.848 7.789 3.648 9.635-.352 3.117.251 11.699-3.932 14.357-1.33.835-6.09 3.392-9.771 3.225-5.446-.259-11.77-3.092-15.409-5.632-3.087-2.156-10.256-9.601-13.017-12.535v.042l-1.773 62.038-62.047-1.738-12.883-95.213s16.096-7.713 16.723-7.713z" fill="#A39085"/><path d="M139.444 193.125c-.083 0-.242 7.688-.359 17.173-.117 9.484-.134 17.172-.042 17.172s.251-7.68.359-17.172c.109-9.493.134-17.173.042-17.173zm-84.428 50.147s.527.084 1.464.259c1.322.264 2.61.676 3.84 1.228a24.707 24.707 0 015.119 3.084 44.402 44.402 0 015.396 5.014c1.773 1.913 3.396 3.81 4.919 5.49a58.373 58.373 0 004.224 4.304 30.02 30.02 0 003.179 2.506c.393.285.72.468.929.602.104.073.216.135.334.184a1.32 1.32 0 00-.3-.234c-.202-.159-.511-.359-.888-.652a34.93 34.93 0 01-3.103-2.607c-1.247-1.162-2.652-2.641-4.183-4.329-1.53-1.688-3.12-3.593-4.902-5.515a43.177 43.177 0 00-5.454-5.014 24.149 24.149 0 00-5.204-3.058 16.566 16.566 0 00-3.906-1.137 9.981 9.981 0 00-1.105-.125 1.664 1.664 0 00-.36 0zm-1.406-4.203c0 .058.936.192 2.417.601a22.369 22.369 0 0110.18 6.05c1.072 1.103 1.674 1.872 1.674 1.839a2.488 2.488 0 00-.36-.568 14 14 0 00-1.154-1.429 20.298 20.298 0 00-10.273-6.109 13.511 13.511 0 00-1.807-.334 3.274 3.274 0 00-.678-.05z" fill="#263238"/><path opacity=".3" d="M169.103 228.18c-3.288.894-7.236-3.827-10.223-6.785-1.547-1.538-3.162-3.176-3.731-5.281a8.359 8.359 0 01.51-5.29 20.008 20.008 0 012.184-4.245c-.268 2.549-.904 6.459-.042 9.66.719 2.666 2.409 4.796 4.183 6.81 1.773 2.014 4.182 4.371 7.094 5.131" fill="#000"/><path d="M155.083 225.481c.067 0-.318-1.086-.627-2.866a22.645 22.645 0 01-.301-3.15 24.337 24.337 0 01.267-3.861c.211-1.274.524-2.529.937-3.752a22.43 22.43 0 011.263-2.908c.837-1.596 1.531-2.507 1.481-2.507a3.31 3.31 0 00-.51.61 6.726 6.726 0 00-.527.76c-.233.34-.448.692-.644 1.053a20.498 20.498 0 00-1.339 2.908 22.566 22.566 0 00-.979 3.803 23.042 23.042 0 00-.242 3.919c.04 1.069.166 2.134.376 3.184.076.451.193.835.285 1.203.074.299.163.595.267.886.079.246.177.487.293.718zm-45.628-51.124c0 .083.686.51 1.448 1.187.761.677 1.313 1.32 1.313 1.262a4.68 4.68 0 00-2.794-2.508l.033.059zm-6.438 3.71c-.067.067.552.735 1.054 1.721.502.986.694 1.881.795 1.872a3.524 3.524 0 00-.511-2.014 3.406 3.406 0 00-1.338-1.579zm-11.079 3.886c.291-.593.53-1.211.71-1.847a9.248 9.248 0 00.628-1.88 7.263 7.263 0 00-1.338 3.727zm-7.118-3.36c.092 0 .335-1.061 1.038-2.206.702-1.145 1.539-1.863 1.472-1.939a4.279 4.279 0 00-1.74 1.78 4.36 4.36 0 00-.77 2.365zm-20.44 20.089c-.084 0 .962 8.49 2.35 18.927 1.389 10.438 2.569 18.894 2.66 18.886.093-.008-.961-8.49-2.35-18.927-1.389-10.438-2.568-18.894-2.66-18.886zm93.011 13.721a4.027 4.027 0 000 .878c.019.342.061.683.125 1.019.042.201.075.41.109.635.033.226.117.452.184.694.298 1.151.707 2.27 1.221 3.343a22.954 22.954 0 002.276 3.701 19.891 19.891 0 003.036 3.117c.925.75 1.95 1.366 3.045 1.83.235.101.452.201.67.276l.619.176.543.15c.168 0 .327.042.469.059.276.046.556.071.836.075a16.226 16.226 0 01-3.086-.936 13.852 13.852 0 01-2.945-1.855 20.25 20.25 0 01-2.97-3.092 24.25 24.25 0 01-2.267-3.627 21.348 21.348 0 01-1.271-3.267c-.494-1.947-.511-3.184-.594-3.176z" fill="#263238"/><path opacity=".3" d="M66.384 283.316c-2.635-1.27-3.229-4.68-3.497-7.588-.786-8.523-1.575-17.044-2.367-25.562-.368-4.011-.544-8.582 2.284-11.448 2.584-2.616 6.692-2.775 10.364-2.766 22.713.067 42.773.735 65.485.835l-1.154 39.693-71.115 6.836z" fill="#000"/><path d="M148.44 242.879l-2.417 46.036a3.34 3.34 0 01-3.346 3.158l-73.399.134a3.34 3.34 0 01-3.346-3.175l-2.802-45.259c-.093-1.871 1.246-4.378 3.153-4.412h78.778a3.354 3.354 0 013.174 2.177c.16.428.229.885.205 1.341z" fill="#E0E0E0"/><path d="M148.437 242.879a1.164 1.164 0 000-.167 2.987 2.987 0 000-.518 3.344 3.344 0 00-2.099-2.624 4.32 4.32 0 00-1.774-.251h-4.459l-28.442-.05-42.187-.041H66.48a2.647 2.647 0 00-1.514.392 3.888 3.888 0 00-1.121 1.095 5.254 5.254 0 00-.92 2.967c.058 1.027.125 2.064.184 3.1.25 4.178.519 8.356.778 12.676.535 8.616 1.087 17.549 1.673 26.666l.109 1.671c.05.577.041 1.128.142 1.73a3.508 3.508 0 002.208 2.59 4.406 4.406 0 001.724.234h18.195l24.913-.058 22.545-.05h6.475c.433.006.866-.014 1.296-.059a3.494 3.494 0 003.02-3.535c.042-.835.084-1.587.126-2.373.083-1.571.159-3.1.234-4.596.611-11.975 1.104-21.668 1.439-28.412.167-3.342.293-5.941.376-7.713.042-.877.075-1.546.092-2.005.017-.46 0-.685 0-.685l-.05.685c0 .459-.067 1.128-.117 2.005-.101 1.772-.251 4.362-.435 7.713-.368 6.685-.895 16.387-1.548 28.362-.075 1.496-.159 3.033-.242 4.596-.039.786-.081 1.579-.126 2.382a3.337 3.337 0 01-.769 2.172 3.28 3.28 0 01-2.05 1.12c-.412.03-.826.03-1.238 0H69.735a4.093 4.093 0 01-1.606-.209 3.223 3.223 0 01-2.016-2.365c-.092-.518-.092-1.12-.134-1.671l-.109-1.671c-.568-9.134-1.12-18.05-1.673-26.666-.267-4.303-.535-8.54-.836-12.676-.059-1.036-.126-2.064-.184-3.092a4.96 4.96 0 01.836-2.791 2.728 2.728 0 012.393-1.354h45.173l28.443-.05h4.459a4.172 4.172 0 011.748.226c.461.18.874.466 1.205.835.465.483.774 1.095.886 1.755.052.235.091.472.117.71z" fill="#263238"/><path d="M100.883 265.35a4.313 4.313 0 002.67 3.991 4.327 4.327 0 005.897-3.148 4.32 4.32 0 00-4.242-5.164 4.342 4.342 0 00-3.056 1.268 4.326 4.326 0 00-1.269 3.053z" fill="#fff"/><path d="M100.878 265.35c.042 0 0-.385.201-1.037a4.294 4.294 0 011.581-2.306 4.182 4.182 0 016.298 5.115 4.176 4.176 0 01-2.725 2.27 4.19 4.19 0 01-1.817.069 4.193 4.193 0 01-1.773-.769 4.294 4.294 0 01-1.581-2.306c-.176-.652-.159-1.036-.201-1.036a.974.974 0 000 .275c.002.267.033.534.092.794a4.293 4.293 0 001.565 2.449 4.362 4.362 0 001.865.835 4.445 4.445 0 002.342-.175 4.343 4.343 0 002.083-1.555 4.437 4.437 0 00.19-5.018 4.45 4.45 0 00-4.615-1.993 4.352 4.352 0 00-1.865.836 4.302 4.302 0 00-1.565 2.457c-.06.26-.09.527-.092.794-.01.1-.004.202.017.301zm45.091-17.357c-.092 0-.451 7.73-.836 17.273-.385 9.543-.577 17.29-.485 17.29.092 0 .443-7.73.836-17.273.393-9.543.569-17.29.485-17.29z" fill="#263238"/><path d="M168.031 187.936c.427-.368-1.447-7.596-1.447-7.596s4.977-8.114 5.111-10.73c.134-2.615-1.966-7.989-1.966-7.989l-14.288-3.668s-4.584 8.515-5.504 11.523c-.921 3.009 1.597 13.237 1.597 13.237l2.418 5.239s7.278 5.741 14.079-.016z" fill="#FFBE9D"/><path d="M171.659 171.173a32.755 32.755 0 001.506-3.167c.903-2.148 2.016-4.245 0-5.449a2.62 2.62 0 00-2.15-.334s.309-1.805-.77-2.507a2.318 2.318 0 00-2.116-.184s.334-2.507-1.213-3.618a3.766 3.766 0 00-1.962-.618 3.766 3.766 0 00-1.995.501s1.23-11.131 1.338-11.699c.385-2.164-.41-4.078-2.568-3.543-.795.192-1.23 1.028-2.158 4.654-.929 3.627-2.418 9.811-2.418 9.811s-2.509 4.354-3.689 6.685c-1.18 2.331-3.53 7.738-3.723 9.192-.51 3.685 1.673 8.565 1.673 8.565l15.184.836s4.484-8.072 5.061-9.125z" fill="#FFBE9D"/><path d="M170.715 162.699c-.43.528-.822 1.087-1.171 1.672l-1.204 1.83c-.251.358-.47.739-.653 1.136-.214.45-.275.958-.176 1.446.044.256.156.495.323.694.168.198.386.348.631.434.46.114.945.054 1.364-.167a6.797 6.797 0 001.012-.627c.301-.217.577-.418.836-.618a17.69 17.69 0 001.13-.945c.251-.234.393-.376.376-.392-.017-.017-.627.443-1.673 1.161-.573.433-1.18.818-1.815 1.153-.354.179-.76.227-1.146.134a1.134 1.134 0 01-.745-.894 2.077 2.077 0 01.151-1.253c.174-.385.381-.754.619-1.104l1.138-1.863c.384-.569.72-1.171 1.003-1.797zm-12.491 1.329a5.106 5.106 0 00-.159-2.39 5.06 5.06 0 00-.945-2.189c-.084.042.343 1.011.636 2.264.293 1.254.41 2.315.468 2.315z" fill="#EB996E"/><path d="M152.242 167.279a10.038 10.038 0 015.078-2.649 19.186 19.186 0 015.789-.217c1.539.133 3.346.534 4.007 1.913.661 1.379-.142 3.259-1.514 4.07a7.724 7.724 0 01-4.66.71 19.42 19.42 0 00-4.768-.192" fill="#FFBE9D"/><path d="M156.175 170.914h1.196c1.089.047 2.175.15 3.254.309.757.096 1.521.127 2.284.092a6.13 6.13 0 002.56-.644 3.895 3.895 0 001.899-2.206 3.038 3.038 0 00.108-1.579 2.68 2.68 0 00-.836-1.396 5.445 5.445 0 00-2.92-1.136 26.753 26.753 0 00-2.886-.175 14.442 14.442 0 00-4.827.735 9.752 9.752 0 00-2.902 1.563 7.9 7.9 0 00-.661.593c-.143.15-.209.234-.201.242.008.009.318-.292.937-.744a10.461 10.461 0 012.894-1.445c1.542-.47 3.149-.69 4.76-.652.951.017 1.9.081 2.844.192.999.08 1.952.449 2.744 1.061.369.327.629.759.745 1.237a2.7 2.7 0 01-.101 1.412 3.603 3.603 0 01-1.74 2.039 5.938 5.938 0 01-2.434.644c-.748.036-1.497.017-2.242-.059a24.462 24.462 0 00-3.279-.209 7.759 7.759 0 00-.887.084c-.209 0-.309.025-.309.042z" fill="#EB996E"/><path d="M170.606 162.875c-1.597 2.423-3.011 5.089-4.358 7.663a4.724 4.724 0 01-1.522 1.98c-.578.351-2.008-.292-2.644-.51l4.384-9.969" fill="#FFBE9D"/><path d="M166.464 162.039a4.895 4.895 0 00-.385.744l-.97 2.089c-.836 1.772-1.932 4.262-3.17 7.07l-.076.158.168.059c.5.2 1.011.373 1.53.518.22.055.444.088.67.1.121.006.243-.008.359-.042a.836.836 0 00.327-.158c.353-.255.654-.576.886-.945.452-.71.77-1.42 1.13-2.072a133.072 133.072 0 011.865-3.501 82.271 82.271 0 011.33-2.323c.179-.267.339-.546.477-.836a5.204 5.204 0 00-.585.836 49.504 49.504 0 00-1.414 2.272 92.885 92.885 0 00-1.933 3.477c-.368.652-.702 1.379-1.129 2.039-.221.33-.505.614-.836.835a1.324 1.324 0 01-1.105.05 15.042 15.042 0 01-1.505-.509l.092.217a653.713 653.713 0 003.078-7.12l.878-2.131c.131-.265.238-.542.318-.827z" fill="#EB996E"/><path d="M167.655 159.073l-4.233 10.596a7.356 7.356 0 01-1.137 2.131 2.515 2.515 0 01-2.134.927 2.511 2.511 0 01-1.874-2.448 7.968 7.968 0 01.787-3.218 66.07 66.07 0 003.036-9.91" fill="#FFBE9D"/><path d="M162.099 157.151c-.05.1-.087.207-.109.317l-.251.936a79.378 79.378 0 01-.978 3.426 76.84 76.84 0 01-1.757 5.014 10.606 10.606 0 00-.887 3.034c-.04.576.073 1.152.326 1.671.25.562.705 1.007 1.272 1.245a2.162 2.162 0 001.773-.142 3.35 3.35 0 001.247-1.178 18.24 18.24 0 001.28-2.875c.728-1.847 1.38-3.51 1.932-4.93l1.28-3.343c.134-.367.243-.668.326-.911.047-.104.08-.213.101-.326a1.114 1.114 0 00-.159.301c-.101.243-.234.535-.385.894l-1.355 3.276c-.569 1.412-1.247 3.067-1.991 4.905a18.745 18.745 0 01-1.272 2.816 3.06 3.06 0 01-1.129 1.062 1.824 1.824 0 01-1.514.133c-.49-.213-.884-.6-1.104-1.086a2.95 2.95 0 01-.293-1.529 9.929 9.929 0 01.836-2.942 55.249 55.249 0 001.673-5.013c.402-1.438.712-2.641.896-3.46.083-.418.15-.735.192-.953.032-.111.049-.226.05-.342z" fill="#EB996E"/><path d="M177.383 213.841c-.385-1.404-10.039-29.925-10.039-29.925l-15.961-1.905 6.525 24.568s-1.012 6.242 0 9.936c1.012 3.693 9.202 13.746 13.385 11.331 4.182-2.415 6.466-12.601 6.09-14.005z" fill="#FFBE9D"/><path d="M157.875 179.488c.309.038.623-.003.912-.117a5.093 5.093 0 003.204-2.934 1.89 1.89 0 00.192-.894 8.241 8.241 0 01-1.673 2.507 8.051 8.051 0 01-2.635 1.438z" fill="#EB996E"/></svg>