<svg width="470" height="314" fill="none" xmlns="http://www.w3.org/2000/svg"><path d="M108.877 148.953l-22.584 65.175 96.488 33.577 22.584-65.174-96.488-33.578z" fill="#EBEBEB"/><path d="M205.358 182.516c-.38.223-.781.41-1.197.559l-3.503 1.419-12.959 5.08-42.977 16.485-.357.132-.201-.32-.495-.779-24.766-39.601-7.42-12.058-1.974-3.303a7.389 7.389 0 01-.626-1.187c.296.335.558.699.783 1.086l2.125 3.209 7.664 11.926 25.004 39.457c.163.27.332.534.488.779l-.557-.188 43.077-16.222 13.066-4.829 3.566-1.256a6.694 6.694 0 011.259-.389z" fill="#E0E0E0"/><path d="M86.292 214.148c-.131-.22 10.221-6.625 23.118-14.312 12.897-7.687 23.462-13.735 23.594-13.515.132.22-10.221 6.626-23.124 14.312-12.903 7.687-23.456 13.703-23.588 13.515zm79.067-17.515c.238-.082 4.337 11.304 9.149 25.377 4.813 14.074 8.517 25.598 8.272 25.679-.244.082-4.336-11.304-9.149-25.377-4.813-14.074-8.516-25.597-8.272-25.679zm228.255-64.643l-95.477 16.217 10.908 64.493 95.477-16.218-10.908-64.492z" fill="#E0E0E0"/><path d="M393.603 132.018c-.214.36-.462.698-.739 1.011l-2.263 2.782-8.46 10.149a86295.95 86295.95 0 00-28.2 33.347l-.232.276-.313-.176-.764-.421-38.616-21.59-11.649-6.632-3.134-1.84a6.197 6.197 0 01-1.065-.697c.399.146.785.327 1.153.54l3.227 1.702 11.788 6.38 38.74 21.352.765.421-.545.101 28.413-33.178 8.667-9.966a588.582 588.582 0 002.387-2.682c.256-.315.537-.609.84-.879z" fill="#EBEBEB"/><path d="M309.035 212.722c-.207-.125 5.477-10.186 12.696-22.469 7.219-12.284 13.248-22.144 13.455-22.018.206.126-5.477 10.18-12.697 22.47-7.219 12.29-13.247 22.137-13.454 22.017zm57.753-50.698c.163-.176 8.774 7.391 19.157 16.912 10.384 9.52 18.731 17.383 18.562 17.584-.169.201-8.735-7.404-19.157-16.912-10.421-9.508-18.75-17.389-18.562-17.584zM298.177 29.477l-17.2 43.825 64.884 25.574 17.201-43.826-64.885-25.573z" fill="#EBEBEB"/><path d="M363.042 55.635a3.898 3.898 0 01-.834.345l-2.425.88-8.98 3.108-29.773 10.048-.244.081-.126-.226-.313-.54-15.786-27.7a3419.83 3419.83 0 01-4.725-8.429l-1.253-2.304a4.832 4.832 0 01-.401-.83c.194.237.366.492.514.76.338.572.789 1.32 1.359 2.249l4.901 8.333c4.111 7.116 9.745 16.85 15.961 27.632l.313.547-.369-.145 29.823-9.872 9.024-2.945 2.463-.735a5.73 5.73 0 01.871-.258z" fill="#E0E0E0"/><path d="M280.96 73.897c-.088-.151 7.15-4.24 16.162-9.125 9.011-4.886 16.381-8.717 16.462-8.566.082.15-7.144 4.239-16.162 9.106-9.017 4.867-16.381 8.742-16.462 8.585zm54.408-9.741c.17-.05 2.651 7.819 5.54 17.584 2.889 9.766 5.108 17.697 4.938 17.748-.169.05-2.65-7.813-5.539-17.584-2.889-9.772-5.108-17.697-4.939-17.748z" fill="#E0E0E0"/><path d="M414.59 287.046c0 .088-80.413.163-179.583.163s-179.597-.075-179.597-.163c0-.088 80.395-.163 179.597-.163 99.201 0 179.583.069 179.583.163z" fill="#263238"/><path d="M73.132 115.841l8.96-3.184-3.853-5.156a20.054 20.054 0 01-.276-3.448 5.328 5.328 0 01.301-1.746 8.016 8.016 0 01.934-1.997.683.683 0 00-.627-1.143c-.627.157-1.805 1.589-2.337 3.712-.533 2.123-1.987-1.005-2.507-2.129s-2.413-4.54-2.895-4.647c-.702-.157-.997.571-.42 1.683.576 1.111 2.062 4.578 1.447 4.842-.614.263-3.315-5.527-3.315-5.527s-.376-1.331-1.09-1.048c-1.29.502 2.05 6.437 2.381 6.989.232.39-.42.697-.626.27-.207-.427-2.576-5.834-3.892-5.331-1.009.383 2.701 4.904 2.57 6.28-.132 1.375-2.463-3.712-3.416-3.31-.35.151-.627.314 1.166 3.052a44.97 44.97 0 002.826 3.699l4.681 8.126" fill="#FFBE9D"/><path d="M153.789 126.818s-4.424-10.349-7.476-15.379c-2.876-4.735-6.686-5.502-8.717-5.652a13.777 13.777 0 00-2.581-.534l-16.576-.132a15.69 15.69 0 00-9.907 3.642c-.771.628-6.505 7.298-14.12 16.793l-13.316-14.444-7.94 4.71s8.623 29.836 19.427 27.789c6.43-1.199 11.443-5.671 11.443-5.671l8.429-6.807.194 1.13c.169 1.375.595 3.599.921 4.942 1.015 4.265 1.585 9.879-.627 13.597 0 0-3.001 2.304-.626 4.835h31.239s4.424-3.008.382-6.349l-2.506-6.349 1.635-7.749.627-3.103 2.751 4.723s5.439 6.858 11.098 6.016c6.8-1.017 10.741-13.433 4.606-29.849l-7.394 2.255-.966 11.586z" fill="#EB8B55"/><path opacity=".4" d="M73.13 115.841l.784 2.487 8.824-5.395-1.667-1.802-7.94 4.71z" fill="#000"/><path opacity=".2" d="M112.938 150.802a9.84 9.84 0 006.58-4.057 10.315 10.315 0 001.88-7.687 3.428 3.428 0 00-1.304-2.449c-.984-.628-2.331-.302-3.353-.848-.839-.446-1.284-1.363-1.88-2.116-.595-.754-1.391-1.922-2.256-1.545 0 0 1.047 5.526 1.504 7.988.458 2.462.627 5.997-.256 8.578a10.774 10.774 0 01-.915 2.136z" fill="#000"/><path d="M93.135 130.624a7.94 7.94 0 01.463-2.594c.192-.858.456-1.698.79-2.512a7.546 7.546 0 01-.464 2.594 15.524 15.524 0 01-.79 2.512z" fill="#263238"/><path d="M95.115 129.274a10.53 10.53 0 01-.752-3.724 5.39 5.39 0 01.54 1.827c.177.616.25 1.257.212 1.897z" fill="#263238"/><path d="M154.686 92.718l-11.342 18.413 8.923 2.493 9.902-15.304-7.483-5.602z" fill="#455A64"/><path d="M153.978 108.405l.383 2.695 1.585 2.041.157 1.67 5.69-1.733-2.3-8.164c.184-1.1.26-2.214.226-3.329l-1.567 2.079-.432-3.391-3.203-2.581a.78.78 0 00-1.015 1.18l2.576 2.274.169 2.807-1.88-1.733a1.362 1.362 0 00-.658-.34l-2.588-.521a.673.673 0 00-.717.331.684.684 0 00.022.708c.086.13.214.227.363.274l2.356.722 2.381 2.411-2.331-.891-3.165.446a.625.625 0 00-.526.628.628.628 0 00.627.628l2.011-.113 1.185.37-2.72.722a.543.543 0 00-.407.559.551.551 0 00.183.386.543.543 0 00.406.135l3.189-.27z" fill="#FFBE9D"/><path opacity=".4" d="M154.725 115.232l-.245 3.014 8.63-2.38-.99-2.889-7.395 2.255z" fill="#000"/><path d="M143.342 111.156s-.764-1.036-.702-1.212c.063-.176 10.792-17.88 10.792-17.88l1.253.68-11.343 18.412zm14.184-13.816a.394.394 0 01.663.371.385.385 0 01-.267.286.393.393 0 01-.202.009.415.415 0 01-.219-.628" fill="#263238"/><path d="M150.4 120.067c-.08.168-.191.319-.326.446a2.936 2.936 0 01-1.397.729 6.262 6.262 0 01-2.507 0 8.571 8.571 0 00-3.215-.145 8.778 8.778 0 00-3.39 1.884c-1.122.861-2.306 1.928-3.898 2.431a6.317 6.317 0 01-2.507.194 10.962 10.962 0 01-2.506-.697c-1.642-.628-3.215-1.557-4.945-2.185a8.774 8.774 0 00-5.232-.364c-1.699.351-3.29.942-4.876 1.256a12.293 12.293 0 01-8.353-1.156 12.536 12.536 0 01-4.387-3.768 9.17 9.17 0 01-1.047-1.84c.044 0 .345.678 1.154 1.765a12.837 12.837 0 004.386 3.617 12.15 12.15 0 008.203 1.068c1.561-.34 3.134-.936 4.876-1.3a9.055 9.055 0 015.414.37c1.767.628 3.347 1.558 4.957 2.198.781.322 1.597.552 2.432.685a6.172 6.172 0 002.381-.176c1.504-.465 2.682-1.495 3.81-2.355a8.934 8.934 0 013.516-1.884 8.596 8.596 0 013.296.188 6.18 6.18 0 002.431.063 2.967 2.967 0 001.379-.628c.124-.125.241-.257.351-.396z" fill="#FAFAFA"/><path d="M153.972 132.031a11.714 11.714 0 01-.256-2.782c-.087-.932-.06-1.87.081-2.795.197.914.283 1.848.257 2.782.086.932.059 1.87-.082 2.795z" fill="#263238"/><path d="M134.426 247.501c.269 1.093 6.661 37.008 6.661 37.008l9.795-.735-1.792-36.675-14.664.402z" fill="#FFBE9D"/><path d="M151.176 284.346l-.031-1.036-10.434.219.063 3.404h.626c2.87.094 14.602.289 16.5-.282 2.144-.622-6.724-2.305-6.724-2.305z" fill="#EB8B55"/><path opacity=".3" d="M144.541 286.782a3.367 3.367 0 00-1.372-2.034 3.708 3.708 0 00-2.444-.66l.056 2.707 3.76-.013z" fill="#000"/><path opacity=".3" d="M155.513 285.313s3.133.773 2.738 1.256c-.395.484-12.239.703-17.478.371v-.22l13.837-.138s.301-1.237.903-1.269z" fill="#000"/><path d="M140.623 286.713h.689l1.88.044c1.598 0 3.798.032 6.236 0 2.437-.031 4.637-.125 6.235-.207l1.88-.107.508-.037h.181-.695l-1.88.069c-1.592.056-3.798.132-6.229.169-2.432.038-4.638.05-6.236.05h-2.569v.019z" fill="#263238"/><path d="M154.624 286.726c.074-.296.185-.581.332-.848.18-.253.39-.483.627-.684a1.328 1.328 0 00-.74.628 1.258 1.258 0 00-.219.904zm-3.095-1.394s.169-.151.32-.377c.15-.226.238-.421.207-.44-.032-.018-.17.151-.314.377s-.244.421-.213.44zm-.854-.402s.188-.082.364-.232c.175-.151.294-.296.275-.321-.019-.025-.188.082-.363.233-.176.15-.301.301-.276.32zm-.55-.904c.175.059.362.078.545.056.182.019.366-.002.539-.063a1.376 1.376 0 00-.545-.056 1.406 1.406 0 00-.539.063zm-.195-.641c.187.116.406.171.626.157.214.032.432-.001.627-.094a4.101 4.101 0 00-.627 0 3.46 3.46 0 00-.626-.063z" fill="#263238"/><path d="M151.861 284.484c.222.035.449.035.671 0 .239-.03.474-.085.702-.163.142-.036.279-.091.407-.163a.324.324 0 00.099-.081.333.333 0 00.058-.114.218.218 0 00-.107-.245 1.25 1.25 0 00-1.504.358 1.12 1.12 0 00-.207.421v.169c.06-.195.158-.377.289-.534.15-.17.346-.294.564-.358a1.09 1.09 0 01.796.038c.106.069.068.189-.044.251a1.93 1.93 0 01-.376.157 4.745 4.745 0 01-.683.183c-.408.081-.665.081-.665.081z" fill="#263238"/><path d="M152.035 284.484a.633.633 0 00.063-.433.995.995 0 00-.188-.452.679.679 0 00-.564-.308.238.238 0 00-.162.102.249.249 0 00-.039.187c.017.1.058.195.119.276.093.137.202.261.326.371a.958.958 0 00.389.245s-.138-.107-.326-.302a2.1 2.1 0 01-.288-.37c-.094-.126-.163-.365 0-.396a.634.634 0 01.444.257.955.955 0 01.195.402c.024.139.035.28.031.421zm-11.262-.421s.301-.031.771 0a3.545 3.545 0 011.686.628 3.14 3.14 0 011.078 1.357c.169.414.188.691.213.691a.458.458 0 000-.195 2.658 2.658 0 00-.119-.521 3.028 3.028 0 00-1.091-1.426 3.388 3.388 0 00-1.754-.628 3.015 3.015 0 00-.57 0c-.145.063-.214.082-.214.094zm5.051 1.752c.501.102 1.013.14 1.523.113a6.342 6.342 0 001.517-.138c0-.037-.684 0-1.523 0-.84 0-1.511-.006-1.517.025z" fill="#263238"/><path d="M143.787 285.853s.057.132.132.276c.075.145.112.27.15.27.038 0 .05-.157-.037-.32-.088-.163-.22-.251-.245-.226zm-.783-.879s.044.125.15.226c.107.1.22.163.245.138.025-.025-.044-.126-.157-.226-.113-.101-.219-.157-.238-.138zm-1.109-.383c0 .031.144.031.301.075s.263.119.288.101c.025-.019-.062-.157-.25-.214-.188-.057-.351.006-.339.038zm-.788-.176s.05.075.138.107c.088.031.169.031.181 0 .013-.032-.05-.082-.137-.114-.088-.031-.169-.025-.182.007z" fill="#263238"/><path d="M109.51 244.506c-.05 1.124-4.117 36.097-4.117 36.097l9.581 2.129 8.843-35.633-14.307-2.593z" fill="#FFBE9D"/><path d="M115.407 283.661l.22-1.005-10.19-2.279-.746 3.322.627.176c2.764.778 14.113 3.768 16.099 3.661 2.206-.119-6.01-3.875-6.01-3.875z" fill="#EB8B55"/><path opacity=".3" d="M108.413 284.484a3.35 3.35 0 00-.846-2.305 3.703 3.703 0 00-2.218-1.224l-.589 2.644 3.653.885z" fill="#000"/><path opacity=".3" d="M119.393 285.64s2.839 1.494 2.363 1.884c-.477.389-12.051-2.242-17.065-3.812l.063-.208 13.473 3.14s.571-1.117 1.166-1.004z" fill="#000"/><path d="M104.598 283.448l.169.056.495.145 1.824.49c1.547.402 3.684.935 6.059 1.476 2.375.54 4.537.985 6.104 1.287l1.88.345.508.082h.181l-.175-.044-.501-.107-1.88-.383a334.998 334.998 0 01-6.098-1.319 343.116 343.116 0 01-6.066-1.444l-1.817-.427-.502-.119a.59.59 0 00-.181-.038z" fill="#263238"/><path d="M118.188 286.801a3.77 3.77 0 01.526-.747c.239-.2.499-.373.777-.515-.331.037-.637.19-.865.433-.247.21-.405.507-.438.829zm-2.675-2.091s.206-.107.401-.295c.194-.189.332-.352.307-.371-.025-.018-.201.107-.395.289s-.338.352-.313.377zm-.733-.59a.872.872 0 00.407-.145c.207-.107.364-.22.345-.245-.019-.025-.2.032-.407.138-.207.107-.358.22-.345.252zm-.356-1.683c.151.15.342.253.551.295.199.079.416.101.627.063a3.117 3.117 0 00-.589-.176 4.219 4.219 0 00-.589-.182z" fill="#263238"/><path d="M116.041 283.963c.2.078.412.125.627.138.241.023.485.023.727 0 .143-.006.286-.027.426-.063a.35.35 0 00.207-.151.261.261 0 00.018-.141.26.26 0 00-.062-.129 1.256 1.256 0 00-1.548 0 1.058 1.058 0 00-.307.358c-.05.095-.057.157-.05.157.106-.173.244-.324.407-.445a1.18 1.18 0 01.627-.214 1.08 1.08 0 01.764.226c.088.094 0 .195-.106.232a2.124 2.124 0 01-.395.07 5.575 5.575 0 01-.708 0c-.376-.007-.621-.057-.627-.038z" fill="#263238"/><path d="M116.202 284.026s.138-.12.169-.402a1.016 1.016 0 00-.081-.484.674.674 0 00-.185-.276.67.67 0 00-.292-.157.244.244 0 00-.257.238.639.639 0 00.05.296c.057.153.132.299.226.433.08.134.189.248.32.333 0 0-.107-.138-.245-.371a2.487 2.487 0 01-.194-.427c-.063-.15-.069-.395.1-.383.169.013.301.207.37.352.066.137.1.287.1.439a1.9 1.9 0 01-.081.409zm-10.829-3.115s.295.038.746.195a3.494 3.494 0 011.491.992c.385.449.636.997.727 1.582.026.238.038.477.038.716 0 0 .031-.069.044-.188.019-.18.019-.361 0-.54a3.043 3.043 0 00-.715-1.639 3.412 3.412 0 00-1.566-1.005 2.936 2.936 0 00-.564-.113.566.566 0 00-.201 0zm4.488 2.907c.461.219.947.377 1.448.471.492.137.999.213 1.51.226 0-.031-.67-.144-1.479-.339-.808-.194-1.466-.389-1.479-.358z" fill="#263238"/><path d="M107.875 283.366s0 .145.063.302c.062.157.044.289.081.295.038.006.088-.138.044-.314s-.163-.302-.188-.283zm-.559-1.036s0 .132.101.251c.1.119.175.207.2.195.025-.013 0-.132-.094-.251-.094-.12-.175-.214-.207-.195zm-.984-.641c0 .038.138.063.276.145.138.081.232.182.263.169.031-.012 0-.169-.201-.27-.2-.1-.338-.075-.338-.044zm-.721-.345s.032.088.107.138c.075.05.156.069.175.038.018-.032 0-.088-.107-.138-.106-.05-.156-.076-.175-.038zM145.48 88.749c-.257-.747-.89-1.306-1.197-2.035-.457-1.092-.119-2.33 0-3.504s-.125-2.606-1.197-3.09a11.078 11.078 0 01-1.378-.458c-.84-.528-.796-1.72-.872-2.707a5.546 5.546 0 00-.488-1.884l.175-.056a2.776 2.776 0 013.202 1.588 1.631 1.631 0 01-.112 1.577 1.034 1.034 0 01-1.216.395.862.862 0 01-.445-.954.628.628 0 01.689-.39.675.675 0 01.483.27c.075.114.081.195.094.189.012-.006 0-.082 0-.22a.738.738 0 00-.533-.383.93.93 0 00-.482.038.715.715 0 00-.42.427 1.066 1.066 0 00.52 1.256 1.296 1.296 0 001.579-.44 1.936 1.936 0 00.188-1.884 3.099 3.099 0 00-3.296-1.884 2.069 2.069 0 00.194-1.67 2.344 2.344 0 00-1.448-1.457 3.127 3.127 0 00-1.836-.1 4.651 4.651 0 00-1.447.627c-.408.264-.721.553-1.022.748-.249.18-.54.292-.846.326a1.327 1.327 0 01-.758-.157s.194.302.765.302a1.83 1.83 0 00.946-.296c.332-.188.664-.47 1.053-.703a3.435 3.435 0 013.02-.446 2.012 2.012 0 011.253 1.256 1.624 1.624 0 01-.432 1.677 3.65 3.65 0 00-1.354-1.394c-1.253-.71-3.133-.365-3.76.93L124.819 70.7a5.011 5.011 0 00-4.725-.948l-.213-.038a3.44 3.44 0 00-1.736.29 5.648 5.648 0 00-1.749 1.531 4.012 4.012 0 01-.983.823 1.966 1.966 0 01-.201.076 9.032 9.032 0 01-1.372.05c-.865-.201-1.761-.697-2.827-.804a4.373 4.373 0 00-1.779.126 3.425 3.425 0 00-1.592 1.01 2.721 2.721 0 00-.689 1.828c.008.484.084.963.225 1.426a4.91 4.91 0 00-.301 1.947c.044.872.295 1.79.307 2.643a2.498 2.498 0 01-.846.434c-.538.17-1.121.25-1.673.464a3.903 3.903 0 00-2.218 2.355 2.744 2.744 0 00-.189 1.335c.048.454.207.889.465 1.265a3.973 3.973 0 00.727 3.322c.57.544 1.108 1.12 1.61 1.727.677 1.05.577 2.4.752 3.637.176 1.237.884 2.643 2.131 2.725 1.002.063 1.88-.779 2.907-.697 1.404.113 1.981 1.802 2.795 2.958a5.01 5.01 0 004.669 2.035c1.253-.17 2.544-.848 3.791-.534 1.573.402 2.507 2.248 4.13 2.48 1.191.17 2.3-.628 3.19-1.444.89-.816 1.786-1.758 2.977-1.972 1.428-.257 2.807.628 4.248.804a4.802 4.802 0 004.738-2.38c.79-1.438.783-3.203 1.529-4.666a26.198 26.198 0 011.88-2.682c.589-.885 1.047-2.022.683-3.077zm-41.235-4.635a.837.837 0 00-.351 0s.107 0 .282.07l-.194.144a3.768 3.768 0 00-1.216 1.884 2.703 2.703 0 01-.062-2.142 3.601 3.601 0 012.055-2.135c.502-.188 1.072-.27 1.655-.446a2.68 2.68 0 00.714-.32 2.381 2.381 0 01-.294.973c-.539.936-1.68 1.332-2.589 1.972zm7.019-11.555a5.41 5.41 0 00-3.873 2.977 4.083 4.083 0 01-.1-.86 2.403 2.403 0 01.595-1.596 3.463 3.463 0 013.058-1.036 7.216 7.216 0 011.686.434 9.018 9.018 0 00-1.366.081zm5.158-.433c-.126.056-.257.094-.383.138a6.67 6.67 0 00.52-.527 5.813 5.813 0 011.642-1.52 3.197 3.197 0 011.523-.327 4.07 4.07 0 00-.777.383c-.877.565-1.573 1.413-2.525 1.853z" fill="#263238"/><path d="M138.713 93.698c.489-3.09.338-8.164.075-12.316a6.566 6.566 0 00-7.232-6.123l-10.772 1.143a2.175 2.175 0 00-1.949 2.217l1.109 26.521h-2.506v4.804a9.957 9.957 0 002.907 7.034 9.916 9.916 0 0014.038 0 9.962 9.962 0 002.907-7.034v-4.157s-2.582-.848-4.148-.76h-.382c0-2.431.2-4.334.2-4.334s4.769-.772 5.753-6.995z" fill="#FFBE9D"/><path d="M137.176 85.408a.805.805 0 01-.771.804.756.756 0 01-.821-.722.805.805 0 01.771-.804.766.766 0 01.821.722zm.515-1.382c-.1.1-.702-.345-1.56-.345-.859 0-1.486.433-1.58.326-.094-.106.057-.232.333-.433a2.22 2.22 0 011.253-.39c.45-.002.889.139 1.253.403.257.2.351.39.301.44zm-8.893 1.382a.8.8 0 01-.764.804.756.756 0 01-.821-.722.794.794 0 01.765-.804.758.758 0 01.561.188.767.767 0 01.259.534zm.469-1.225c-.1.107-.702-.339-1.56-.339-.859 0-1.485.434-1.579.327-.094-.107.056-.233.332-.434a2.126 2.126 0 011.253-.389c.45-.006.89.135 1.253.402.257.201.351.402.301.433zm3.111 6.368a5.663 5.663 0 011.391-.25c.219 0 .426-.064.463-.214a1.13 1.13 0 00-.144-.628 53.483 53.483 0 01-.626-1.67c-.896-2.375-1.548-4.328-1.448-4.365a29.734 29.734 0 011.799 4.239c.213.59.419 1.143.626 1.683.139.264.179.569.113.86a.56.56 0 01-.363.32c-.121.033-.245.05-.37.05a5.56 5.56 0 01-1.441-.025z" fill="#263238"/><path d="M132.972 100.712a15.764 15.764 0 01-8.316-2.223s2.018 4.277 8.228 3.693l.088-1.47zm-.959-8.088a1.544 1.544 0 00-1.385-.578 1.406 1.406 0 00-.971.527.892.892 0 00-.069 1.024 1.05 1.05 0 001.122.283c.402-.137.775-.35 1.097-.628a.97.97 0 00.244-.258.286.286 0 00.05-.16.286.286 0 00-.05-.16" fill="#EB996E"/><path d="M129.858 91.148c.138 0 .138.923.934 1.583.796.659 1.786.559 1.792.69.007.132-.219.183-.626.195a2.291 2.291 0 01-1.492-.527 1.991 1.991 0 01-.727-1.326c-.019-.389.057-.621.119-.615zm-.208-8.466c-.081.233-.94.12-1.943.245-1.002.126-1.817.396-1.949.182-.062-.094.082-.313.408-.54.434-.285.931-.46 1.447-.508a3.297 3.297 0 011.523.175c.37.151.583.333.514.446zm7.729-.414c-.151.195-.746 0-1.454 0s-1.31.132-1.448-.075c-.063-.1 0-.296.295-.478a2.04 2.04 0 011.178-.32c.417.007.822.143 1.159.39.251.188.332.389.27.483z" fill="#263238"/><path d="M141.101 75.831c-.427-1.658-1.68-3.19-3.359-3.504-1.097-.201-2.219.12-3.328.05-.921-.056-1.253-.791-2.124-1.08-1.454-.477-2.57-2.098-5.709-1.758-.84.094-1.918 1.067-2.689 2.172-1.203-.52-2.788.038-3.653.421-1.799.785-2.92 2.813-3.278 4.873-.357 2.06-.062 4.177.226 6.249.132.942.263 1.884.401 2.838.051.63.219 1.243.495 1.81l-1.429 13.313a5.513 5.513 0 004.347-.422 5.532 5.532 0 002.684-3.453c.552-2.619-.902-5.282-.67-7.95.138-1.59 1.034-3.065 1.028-4.66a6.307 6.307 0 00-.226-1.551c2.507-2.054 3.171-3.706 3.065-5.652a4.828 4.828 0 002.632.873c1.328 0 2.713-.503 3.954 0a6.902 6.902 0 012.212 1.796c.683.678 1.567 1.3 2.507 1.168a6.55 6.55 0 001.303-.459 1.567 1.567 0 011.341 0c.507-1.643.6-3.386.27-5.074z" fill="#263238"/><path d="M103.977 89.465c.642.467 1.334.863 2.061 1.18.854.36 1.769.555 2.695.572a5.723 5.723 0 003.44-1.036 5.25 5.25 0 002.219-3.642 3.813 3.813 0 00-.47-2.337 2.513 2.513 0 00-2.037-1.256 1.834 1.834 0 00-1.178.39 2.332 2.332 0 00-.727 1.086 2.71 2.71 0 00.476 2.594 4.52 4.52 0 002.457 1.47c.987.233 2.013.25 3.008.05.998-.2 1.936-.63 2.738-1.257a5.182 5.182 0 001.699-2.342 5.243 5.243 0 00.225-2.788 4.118 4.118 0 00-.464-1.256 2.876 2.876 0 00-.846-.993 2.004 2.004 0 00-1.146-.433 1.058 1.058 0 00-.959.54 1.52 1.52 0 00-.119 1.124c.121.374.337.71.626.974a5.402 5.402 0 007.295-.283 5.655 5.655 0 001.372-2.374 6.35 6.35 0 00.195-2.348c.057.204.091.415.1.628a5.43 5.43 0 01-.163 1.777 5.87 5.87 0 01-1.366 2.468 5.396 5.396 0 01-3.334 1.639 5.49 5.49 0 01-4.293-1.288 2.44 2.44 0 01-.689-1.099 1.821 1.821 0 01.144-1.35 1.368 1.368 0 011.216-.697c.485.02.951.192 1.335.49.389.286.709.658.933 1.086a4.6 4.6 0 01.508 1.376c.195.99.115 2.016-.232 2.964a5.563 5.563 0 01-1.799 2.512 6.879 6.879 0 01-2.882 1.306 7.337 7.337 0 01-3.134-.056 4.883 4.883 0 01-2.638-1.583 3.068 3.068 0 01-.626-1.4 3.29 3.29 0 01.119-1.508 2.67 2.67 0 01.833-1.256 2.177 2.177 0 011.391-.452 2.776 2.776 0 012.281 1.432c.427.764.6 1.643.495 2.512a5.479 5.479 0 01-2.362 3.806 5.825 5.825 0 01-3.572 1.03 7.213 7.213 0 01-2.745-.628 7.376 7.376 0 01-1.542-.898c-.162-.12-.275-.226-.357-.29l-.181-.156zm37.487-10.821a1.188 1.188 0 01-.301.208 3.392 3.392 0 01-.984.364 4.18 4.18 0 01-1.667 0 4.54 4.54 0 01-1.961-1.017 5.895 5.895 0 01-1.542-2.192 1.983 1.983 0 01-.05-1.551c.12-.268.325-.49.583-.628a.975.975 0 01.902 0 1.383 1.383 0 01.627 1.595 2.293 2.293 0 01-1.253 1.306 4.74 4.74 0 01-3.629.057 8.965 8.965 0 01-1.673-.81 6.171 6.171 0 01-1.423-1.137 1.435 1.435 0 01-.144-1.784.928.928 0 01.903-.32c.303.067.573.238.764.484.191.24.279.548.245.854-.04.286-.162.554-.351.772a2.012 2.012 0 01-1.373.69 3.578 3.578 0 01-1.41-.181 10.34 10.34 0 01-1.197-.465 4.31 4.31 0 01-1.748-1.344 2.458 2.458 0 01-.451-1.608c.022-.357.148-.7.363-.986a.949.949 0 01.276-.244 1.925 1.925 0 00-.508 1.256 2.35 2.35 0 00.47 1.482c.448.56 1.033.992 1.699 1.256a5.471 5.471 0 002.506.59 1.733 1.733 0 001.178-.628.967.967 0 00.088-1.256c-.282-.37-.883-.534-1.165-.15a.884.884 0 00-.17.677c.037.256.146.496.314.691.394.414.846.77 1.341 1.055a8.241 8.241 0 001.61.773 4.377 4.377 0 003.372 0 1.935 1.935 0 001.059-1.1 1.062 1.062 0 00-.483-1.255.778.778 0 00-.9.184.786.786 0 00-.165.28 1.71 1.71 0 00.044 1.319 5.7 5.7 0 001.441 2.11 4.384 4.384 0 001.843 1.018 4.06 4.06 0 001.598.081 5.244 5.244 0 001.322-.446zm-18.1 14.608a.957.957 0 01-.263.213 2.49 2.49 0 01-.915.364 2.922 2.922 0 01-1.548-.1 2.501 2.501 0 01-1.573-1.35 1.065 1.065 0 01.238-1.256 1.102 1.102 0 011.348 0 2.772 2.772 0 01.965 2.681 3.289 3.289 0 01-1.811 2.569 3.698 3.698 0 01-3.372-.251 3.767 3.767 0 01-1.291-1.2 2.166 2.166 0 01-.307-1.714c.076-.292.23-.557.445-.766a1.132 1.132 0 01.834-.32 1.64 1.64 0 011.341.897c.232.456.358.958.37 1.47.018.47-.028.942-.138 1.4a4.396 4.396 0 01-1.254 2.18 3.13 3.13 0 01-3.415.627 2.7 2.7 0 01-.815-.552 1.034 1.034 0 01-.213-.264c.322.285.685.518 1.078.69.467.182.97.244 1.467.183a2.976 2.976 0 001.729-.835 4.174 4.174 0 001.128-2.066c.101-.434.139-.88.113-1.325a3.062 3.062 0 00-.345-1.326 1.322 1.322 0 00-1.078-.734 1.013 1.013 0 00-.94.854 1.811 1.811 0 00.27 1.444c.301.45.702.824 1.172 1.093a3.408 3.408 0 003.108.226 3.004 3.004 0 001.642-2.317 2.514 2.514 0 00-.815-2.4.826.826 0 00-1.021 0 .808.808 0 00-.182.942 2.316 2.316 0 001.391 1.257c.468.174.973.225 1.467.15a3.73 3.73 0 001.19-.464z" fill="#455A64"/><path d="M97.478 245.912s4.193 8.164 15.122 4.195c0 0 10.703 5.828 20.943-.697 0 0 13.254 1.778 20.467-1.72l-9.249-80.158-1.179-12.309h-29.271s-8.686 3.963-10.083 23.311c-1.398 19.349-4.387 45.926-4.387 45.926l-2.362 21.452z" fill="#6B8D72"/><path d="M132.917 249.655v-.245c0-.163-.038-.408-.063-.71-.05-.628-.119-1.563-.213-2.738a725.285 725.285 0 01-.658-10.048c-.507-8.503-1.046-20.271-1.328-33.284a903.172 903.172 0 01-.113-33.284c.069-4.264.144-7.711.226-10.092.037-1.18.069-2.097.094-2.744v-.716a1.183 1.183 0 010-.238c.009.079.009.159 0 .238v.716c0 .628 0 1.57-.032 2.744 0 2.399-.069 5.847-.119 10.092a1110.39 1110.39 0 00.207 33.284c.282 12.987.79 24.762 1.253 33.284.232 4.246.42 7.681.558 10.048.063 1.175.113 2.098.15 2.738 0 .302 0 .541.032.716.008.08.011.159.006.239zm2.569-22.947s.063-.088.226-.132c.241-.052.493-.021.714.088a1.244 1.244 0 01.67.848 1.217 1.217 0 01-1.93 1.105 1.261 1.261 0 01-.382-1.017c.018-.247.12-.479.288-.66.119-.119.22-.144.226-.132a1.554 1.554 0 00-.282.804c0 .146.031.29.091.423.059.133.145.252.254.35a.94.94 0 001.441-.823 1.001 1.001 0 00-.489-.691 1.415 1.415 0 00-.827-.163zm-.653-23.801s.063-.082.226-.126c.241-.056.494-.025.714.088a1.193 1.193 0 01.671.848 1.224 1.224 0 01-.609 1.171 1.21 1.21 0 01-1.315-.072 1.202 1.202 0 01-.382-1.011c.02-.235.119-.457.281-.628.126-.126.22-.145.226-.132a1.548 1.548 0 00-.282.798 1.047 1.047 0 00.345.772.93.93 0 001.322-.327.929.929 0 00.119-.489 1.04 1.04 0 00-.482-.697 1.557 1.557 0 00-.834-.195zm-.382-21.051s.063-.081.232-.125c.239-.056.49-.025.708.088a1.205 1.205 0 01.677.847 1.219 1.219 0 01-1.281 1.334 1.212 1.212 0 01-.649-.235 1.21 1.21 0 01-.382-1.011c.017-.245.116-.477.282-.659.125-.119.219-.145.232-.132-.171.233-.271.51-.289.798a1.017 1.017 0 00.351.772.934.934 0 001.435-.816 1.04 1.04 0 00-.482-.697 1.553 1.553 0 00-.834-.164zm-.745-22.52s.063-.088.226-.132a1.06 1.06 0 01.714.095 1.205 1.205 0 01.67.847 1.136 1.136 0 01-.626 1.175 1.15 1.15 0 01-1.322-.076 1.251 1.251 0 01-.383-1.017c.025-.235.126-.456.289-.628.125-.119.219-.144.225-.132a1.55 1.55 0 00-.282.804 1.033 1.033 0 00.345.772.932.932 0 00.967.022.938.938 0 00.474-.844 1.011 1.011 0 00-.489-.691 1.404 1.404 0 00-.808-.195z" fill="#455A64"/><path d="M171.857 134.957l147.811-1.074 4.118 100.706-153.057-1.419 1.128-98.213zm-.007 0l69.961-56.727a8.022 8.022 0 0110.145.038l67.712 55.615" fill="#EB8B55"/><path opacity=".3" d="M171.85 134.957l69.961-56.727a8.022 8.022 0 0110.145.038l67.712 55.615" fill="#000"/><path d="M170.729 233.17c-.182-.176 11.649-13.125 26.432-28.919 14.783-15.795 26.909-28.461 27.097-28.292.188.17-11.649 13.119-26.432 28.92-14.783 15.8-26.909 28.461-27.097 28.291zm153.057 1.419c-.188.17-11.712-12.516-25.737-28.329-14.025-15.813-25.242-28.775-25.067-28.944.176-.17 11.713 12.516 25.738 28.335 14.024 15.819 25.267 28.769 25.066 28.938z" fill="#263238"/><path opacity=".5" d="M319.669 133.883l-74.228 59.422-73.584-58.348" fill="#000"/><path d="M179.296 140.458L179.07 94.2l129.426-1.539 1.46 48.677-64.522 51.188-66.138-52.068z" fill="#FAFAFA"/><path d="M179.296 140.458s.42.314 1.215.936l3.51 2.738 13.379 10.469 48.134 37.818h-.163l64.503-51.207-.062.132c-.276-9.282-.571-19.028-.872-28.938-.194-6.676-.394-13.27-.589-19.738l.163.157L179.089 94.3l.1-.1c.05 14.551.094 26.112.119 34.038v9.106c0-2.067-.044-5.112-.075-9.069-.05-7.938-.125-19.505-.219-34.075v-.107h.1l129.432-1.589h.156v.164c.195 6.462.389 13.056.589 19.731.301 9.917.589 19.657.871 28.945v.082l-.062.05-64.547 51.163-.081.063-.082-.063-48.103-37.944-13.298-10.519-3.509-2.763a81.006 81.006 0 01-1.184-.955z" fill="#263238"/><path d="M271.485 172.367c-.17.029-.342.042-.514.038l-1.492.044-5.464.088-18.042.257c-7.044.12-13.43.157-18.048.164h-6.956a3.27 3.27 0 01-.514-.032c.17-.029.342-.041.514-.038l1.491-.037 5.465-.094 18.042-.258c7.043-.119 13.429-.157 18.041-.163h6.963c.171-.001.343.01.514.031zm-16.663 12.711c0 .088-4.218.163-9.4.163-5.183 0-9.401-.075-9.401-.163 0-.088 4.224-.164 9.401-.164 5.176 0 9.4.069 9.4.164z" fill="#263238"/><path d="M180.311 73.068h14.3l-1.936-2.223v-5.332c0-1.386-.55-2.715-1.527-3.695a5.21 5.21 0 00-5.682-1.132 5.214 5.214 0 00-3.213 4.827v5.068l-1.942 2.487z" fill="#EB8B55"/><path d="M185.494 72.365a2.219 2.219 0 00.824 1.613 2.214 2.214 0 001.752.453 2.206 2.206 0 001.813-1.883c.042-.31.018-.625-.071-.925m-1.555-13.508h-1.403v2.99h1.403v-2.99z" fill="#EB8B55"/><path d="M208.31 63.265a2.723 2.723 0 01-.1-.377c-.062-.27-.144-.628-.25-1.105-.131-.6-.301-1.193-.508-1.771-.125-.34-.213-.722-.382-1.105l-.533-1.219a21.809 21.809 0 00-3.791-5.614 21.038 21.038 0 00-7.226-4.974 20.768 20.768 0 00-4.85-1.382 21.127 21.127 0 00-5.427-.087c-.95.1-1.892.263-2.82.49-.47.1-.928.282-1.404.426a9.57 9.57 0 00-1.397.51 19.86 19.86 0 00-5.296 3.183 21.127 21.127 0 00-7.081 11.348 20.81 20.81 0 00-.407 7.285 20.167 20.167 0 002.149 7.21l.364.684.044.088v.094c-1.16 3.768-2.288 7.536-3.391 11.134l-.294-.27 8.955-4.678.106-.057.101.076a20.806 20.806 0 0026.012-.453 21.7 21.7 0 004.707-5.526 23.475 23.475 0 002.287-5.564c.351-1.478.561-2.985.627-4.503v-1.651c0-.484-.075-.867-.101-1.2-.025-.333-.05-.553-.062-.735a1.055 1.055 0 010-.25c.022.08.037.161.044.244 0 .184.031.43.094.735.037.333.081.728.138 1.206.056.477 0 1.036 0 1.658a22.822 22.822 0 01-.564 4.546 23.196 23.196 0 01-2.256 5.652 21.882 21.882 0 01-4.738 5.652 21.151 21.151 0 01-16.82 4.685 21.451 21.451 0 01-9.632-4.126h.213l-8.942 4.691-.451.239.15-.509 3.384-11.134v.182l-.37-.697a20.663 20.663 0 01-2.193-7.367 20.897 20.897 0 01.426-7.454 21.515 21.515 0 017.238-11.561 20.393 20.393 0 015.408-3.222c.46-.209.936-.381 1.423-.515.482-.138.946-.32 1.429-.42a20.05 20.05 0 012.864-.49 21.208 21.208 0 015.514.112 21.61 21.61 0 014.913 1.432 21.167 21.167 0 017.282 5.1 21.586 21.586 0 013.76 5.714c.182.44.357.848.514 1.256.157.409.251.78.37 1.124.203.584.36 1.182.47 1.79.087.471.163.842.213 1.118.037.115.066.233.087.352z" fill="#263238"/><path d="M381.209 212.396c2.049 6.939.495 15.863-1.987 22.658a34.34 34.34 0 01-13.248 16.774c-.676.446-1.548.879-2.262.496a2.314 2.314 0 01-.871-1.752 35.435 35.435 0 012.85-22.167 35.332 35.332 0 0115.543-16.028" fill="#6B8D72"/><path opacity=".2" d="M381.209 212.396c2.049 6.939.495 15.863-1.987 22.658a34.34 34.34 0 01-13.248 16.774c-.676.446-1.548.879-2.262.496a2.314 2.314 0 01-.871-1.752 35.435 35.435 0 012.85-22.167 35.332 35.332 0 0115.543-16.028" fill="#000"/><path d="M350.426 179.457c4.312-.119 7.157 4.685 7.589 8.993.433 4.308-.52 8.792.74 12.912 1.579 5.25 6.504 9.018 7.983 14.312 1.755 6.236-1.66 12.711-1.823 19.185-.082 3.14.626 6.337.031 9.42a11.604 11.604 0 01-3.942 6.745 11.564 11.564 0 01-7.317 2.707 11.564 11.564 0 01-7.37-2.561 11.6 11.6 0 01-4.075-6.665c-1.009-4.848 1.128-10.004-.151-14.795-.946-3.536-3.691-6.544-3.916-10.199-.263-4.352 3.096-8.114 3.722-12.428.627-4.314-1.554-8.528-1.88-12.88-.583-7.8 2.638-13.923 10.403-14.758" fill="#6B8D72"/><path d="M359.875 268.288c.059-.14.103-.285.132-.434.075-.326.169-.747.282-1.256.231-1.086.626-2.662 1.065-4.603a150.077 150.077 0 0110.421-29.321 188.623 188.623 0 012.081-4.245l.57-1.15c.073-.131.132-.27.176-.414a1.9 1.9 0 00-.245.37l-.626 1.118a92.097 92.097 0 00-2.2 4.195 131.332 131.332 0 00-10.447 29.378c-.432 1.953-.752 3.542-.94 4.647-.081.509-.15.93-.206 1.256-.038.15-.059.304-.063.459zm-9.273-67.554c.002.231.023.462.062.69.057.484.138 1.143.238 1.972l.959 7.254c.809 6.123 1.924 14.576 3.096 23.927 1.172 9.35 2.181 17.822 2.901 23.958.364 3.033.658 5.507.871 7.259.107.829.188 1.489.251 1.972.022.231.06.46.113.685.019-.23.019-.461 0-.691-.044-.49-.1-1.149-.176-1.984-.181-1.759-.432-4.233-.739-7.279-.627-6.142-1.611-14.62-2.782-23.971a1270.815 1270.815 0 00-3.221-23.92c-.452-3.021-.821-5.483-1.078-7.228-.138-.829-.245-1.483-.32-1.966a3.773 3.773 0 00-.175-.678z" fill="#263238"/><path d="M374.927 259.803h-32.749v3.831h32.749v-3.831zm-29.708 3.831l3.841 23.249h20.317l2.657-23.249h-26.815z" fill="#EB8B55"/><path d="M372.139 263.477c0 .094-6.047.239-13.511.333-7.463.094-13.511.094-13.511 0s6.048-.239 13.511-.333c7.464-.094 13.511-.088 13.511 0zm-1.114 11.637h-.727a14.065 14.065 0 01-2.093-.081 6.389 6.389 0 01-3.096-1.169 4.339 4.339 0 01-1.347-1.595 3.145 3.145 0 01-.195-2.336 2.123 2.123 0 012.043-1.482c.483.04.932.265 1.254.628.314.381.529.834.626 1.319.395 1.984-.996 4.195-3.133 4.886-2.137.691-4.744-.503-5.809-2.669a4.461 4.461 0 01-.477-1.759 2.935 2.935 0 01.477-1.808 2.281 2.281 0 011.629-.98 1.955 1.955 0 011.723.854 3.05 3.05 0 01.558 1.84 4.06 4.06 0 01-.47 1.821 5.647 5.647 0 01-2.607 2.475 10.605 10.605 0 01-3.34.948 7.305 7.305 0 01-3.321-.289 4.783 4.783 0 01-2.507-1.959 3.453 3.453 0 01-.501-1.445 3.452 3.452 0 01.175-1.519 2.689 2.689 0 012.062-1.841 2.629 2.629 0 012.394.892 2.282 2.282 0 01.213 2.311 3.532 3.532 0 01-1.379 1.57 7.842 7.842 0 01-1.623.792c-.52.201-1.003.358-1.441.483-.669.196-1.349.351-2.037.465l-.539.081h-.182s.057 0 .176-.05l.533-.107a20.882 20.882 0 003.434-1.029 7.776 7.776 0 001.579-.798 3.403 3.403 0 001.253-1.501 2.033 2.033 0 00-.2-2.085 2.38 2.38 0 00-2.175-.791 2.43 2.43 0 00-1.842 1.683 3.136 3.136 0 00.313 2.725 4.525 4.525 0 002.35 1.828 7.111 7.111 0 003.184.264 10.43 10.43 0 003.233-.924 5.357 5.357 0 002.463-2.342 3.205 3.205 0 00-.063-3.316 1.615 1.615 0 00-1.435-.722 1.956 1.956 0 00-1.385.842 2.581 2.581 0 00-.42 1.607 4.26 4.26 0 00.433 1.633c.996 2.028 3.447 3.197 5.433 2.512 1.987-.685 3.303-2.719 2.939-4.54a2.563 2.563 0 00-.564-1.2 1.579 1.579 0 00-1.078-.559 1.884 1.884 0 00-1.811 1.3 2.914 2.914 0 00.163 2.173 4.182 4.182 0 001.253 1.539 6.393 6.393 0 003.002 1.187c.688.089 1.381.135 2.074.138h.546l.282.1z" fill="#455A64"/><path d="M243.304 152.118l-.626 6.96.592-.001 2.183-6.956-2.149-.003zm25.877.064l.553 6.961h-.59l-2.111-6.965 2.148.004z" fill="#A39085"/><path d="M272.388 141.838l-33.095-.086-.054 10.365 33.095.086.054-10.365z" fill="#A39085"/><path d="M255.567 146.791l-.017-.083c-.013-.061-.004-.142-.007-.238a47.823 47.823 0 00-.013-.914c-.002-.804-.009-1.951-.02-3.386l.069.07-15.703-.008.106-.106.005.027.008.036.014.068-.002.151-.002.298-.004.591c-.003.395-.002.784-.005 1.171-.004.772-.007 1.53-.013 2.265l-.102-.105 11.213.077 3.305.039.893.016.238.004.082.009-.293.014-.871.01-3.28.022-11.291.018-.106.001.004-.106.011-2.264c0-.385.003-.777.005-1.171-.003-.196-.002-.393-.001-.595l.001-.298.003-.148-.015-.072-.008-.036-.005-.027c.217-.212.063-.06.112-.108l15.731.087.065-.013.014.064c-.023 1.454-.043 2.611-.055 3.427l-.021.897a2.569 2.569 0 01-.045.315v.001zm-.024 4.87l-.018-.083-.007-.238a790.631 790.631 0 01-.028-4.301l.065.071-15.731-.003.108-.106.006.027.008.036.014.068.002.15-.006.299c-.001.197-.002.398 0 .59l-.009 1.172c-.004.772-.007 1.53-.013 2.265l-.102-.105 11.213.077 3.305.039.893.016.238.004.082.009-.293.014-.871.01-3.28.022-11.291.018-.097.021-.01-.107.011-2.264c0-.385.003-.777.004-1.171l.004-.596.001-.298-.001-.147-.015-.072-.008-.036-.005-.024.108-.107 15.731.087.065-.014.014.065c-.023 1.454-.043 2.611-.055 3.427l-.021.897c.002.096-.003.192-.012.287l.001.001zm16.275-4.831l-.017-.083c-.013-.061-.004-.142-.007-.238-.001-.227-.004-.527-.009-.915-.006-.803-.012-1.945-.02-3.385l.065.07-15.73-.002.108-.107.006.027.007.036.015.073.002.146-.006.299c-.001.202.002.419.001.595l-.009 1.172a971.14 971.14 0 00-.015 2.261l-.102-.105 11.214.077 3.304.038.894.016.237.005.082.009a1.505 1.505 0 01-.292.014l-.872.009-3.279.023-11.291.018h-.102l-.021-.101.011-2.264c0-.385.004-.777.005-1.171l.004-.591.001-.303-.002-.147-.015-.072-.007-.036-.006-.027.108-.107 15.731.087.065-.014.014.065c-.023 1.454-.043 2.611-.055 3.427l-.021.897c.009.101.009.204.004.304zm-.005 4.867l-.017-.084c-.013-.06-.004-.142-.007-.237 0-.227-.004-.527-.009-.915-.006-.803-.012-1.946-.02-3.386l.065.071-15.73-.003.108-.106.006.027.007.036.015.072.002.147-.002.298-.003.596-.01 1.167-.011 2.265-.106-.105 11.214.078 3.308.037.894.016.233.006.082.009a1.5 1.5 0 01-.292.014l-.872.009-3.312.048-11.287.017-.106.001v-.105l.01-2.265c0-.385.004-.776.005-1.17l.004-.592.001-.302-.002-.147-.015-.072-.007-.036-.006-.028.108-.106 15.731.086.068-.014.014.065c-.023 1.454-.043 2.611-.055 3.427l-.021.897c.011.094.014.191.013.286l.002-.002z" fill="#455A64"/><path d="M239.854 142.125c-.037.049-.188.006-.342-.101-.152-.106-.251-.233-.219-.28.032-.049.186-.001.343.104.157.106.255.231.218.278v-.001zm-.094 9.492c.038.042-.047.195-.199.335-.153.14-.304.222-.343.179-.038-.042.044-.194.197-.334.152-.14.295-.228.347-.18h-.002z" fill="#455A64"/><path d="M272.335 152.192c.012.056-7.419.086-16.574.063-9.155-.022-16.572-.088-16.571-.151-.001-.063 7.418-.087 16.574-.063 9.155.022 16.559.095 16.571.151zm-24.173-2.863c-.036.007-.038-.185-.234-.317a.409.409 0 00-.366-.038.41.41 0 00-.244.352.389.389 0 00.476.389.44.44 0 00.135-.054c.201-.129.203-.318.239-.314.034.005.03.043.025.124a.458.458 0 01-.167.311.54.54 0 01-.525.109.56.56 0 01-.376-.419.565.565 0 01.445-.668.54.54 0 01.464.117.47.47 0 01.159.265l.007.048c-.006.052-.023.093-.035.091l-.003.004zm.025-4.869c-.032.007-.038-.184-.231-.317a.415.415 0 00-.369-.036.41.41 0 00-.239.351.385.385 0 00.236.35.424.424 0 00.368-.035c.202-.129.204-.318.235-.313.03.006.035.043.026.124a.462.462 0 01-.167.311.55.55 0 01-.525.109.56.56 0 01.069-1.087.538.538 0 01.463.117.49.49 0 01.159.271l.008.042c.001.067-.015.112-.032.111l-.001.002zm16.431 4.93c-.032.007-.039-.184-.232-.317a.414.414 0 00-.369-.036.388.388 0 00-.239.352.37.37 0 00.242.369.424.424 0 00.369-.035c.197-.128.2-.318.234-.313.035.005.01.048.026.124a.49.49 0 01-.167.311.573.573 0 01-.531.111.57.57 0 01-.369-.419.568.568 0 01.436-.669.546.546 0 01.464.117.448.448 0 01.158.261c.004.017.006.034.009.054-.003.03-.02.088-.031.09zm.022-4.889c-.036.008-.038-.184-.234-.317a.413.413 0 00-.367-.038.383.383 0 00-.231.432.372.372 0 00.23.269.424.424 0 00.369-.034c.197-.129.2-.319.234-.314.035.005.031.044.026.124a.475.475 0 01-.171.312.548.548 0 01-.526.109.563.563 0 01.005-1.069.542.542 0 01.526.099.475.475 0 01.16.265l.007.048c.005.07-.014.113-.027.111l-.001.003zm7.758-2.699c.012.061-.094.162-.244.269-.151.106-.288.181-.33.139-.042-.041.035-.195.204-.315.169-.119.346-.142.368-.093h.002z" fill="#455A64"/><path d="M272.417 152.191c-.038.045-.205-.032-.374-.173-.168-.141-.272-.296-.231-.342.04-.046.206.037.374.178.169.141.269.296.231.337zm-47.386-19.302a26.444 26.444 0 00-5.919-13.385c-5.331-6.393-10.234-6.105-10.234-6.105s5.517-2.087 11.303 4.776a20.883 20.883 0 014.455 9.171 20.92 20.92 0 01.394 5.543h.001z" fill="#455A64"/><path d="M223.721 107.879c-.115-.19.373 15.533.373 15.533l1.24 11.277s.936-8.343.731-12.621c-.205-4.277-1.295-12.46-2.344-14.191v.002z" fill="#455A64"/><path d="M229.612 107.896s-2.396 1.491-3.165 13.009c-.587 8.828-.982 12.208-1.111 13.312a1.636 1.636 0 00-.003.474c.022.156 2.897-8.19 3.754-12.616.856-4.426-.323-10.806.525-14.177v-.002zm-3.741 29.168c-.011.288.961-3.782 6.047-8.772 4.732-4.644 6.851-4.823 6.851-4.823s-4.897.664-8.177 4.152c-2.897 3.077-4.587 6.52-4.721 9.443zm-.567 4.57c-.545-2.004-1.151-4.026-2.308-5.753-1.158-1.725-2.949-3.139-5.023-3.371 3.335 2.443 5.77 5.256 7.331 9.124zm.039-7.919s-.9-7.799-6.522-10.239c-3.131-1.361-7.8-.509-7.8-.509s5.861.744 8.035 2.104c2.174 1.358 6.289 8.645 6.289 8.645l-.002-.001z" fill="#455A64"/><path d="M225.196 156.476a.178.178 0 01-.013-.045.761.761 0 01-.007-.047 3.951 3.951 0 00-.009-.287 77.888 77.888 0 00-.016-1.107c0-.976-.005-2.358-.001-4.06l.039-13.394c.003-.655.008-1.301.019-1.94l.006-.948c.008-.162-.01-.308.013-.481s.076-.305.107-.442c.12-.599.196-1.201.32-1.789.123-.586.242-1.148.354-1.703.229-1.112.472-2.159.647-3.156.178-.996.349-1.912.509-2.753.158-.841.255-1.611.367-2.289.112-.677.164-1.245.248-1.727.086-.482.124-.825.166-1.09l.038-.284a.325.325 0 01.022-.098.394.394 0 01-.001.097l-.016.288c-.019.251-.069.622-.126 1.1-.057.476-.129 1.061-.216 1.721-.087.658-.166 1.45-.328 2.293-.163.842-.307 1.772-.481 2.765-.174.99-.417 2.046-.609 3.155-.116.556-.231 1.124-.35 1.707-.119.582-.177 1.176-.315 1.788-.027.153-.073.317-.102.44-.029.124-.005.304-.013.451-.002.315.001.628-.001.947-.002.638-.007 1.284-.019 1.94-.041 5.22-.075 9.95-.103 13.391-.021 1.702-.038 3.084-.054 4.063-.01.463-.015.84-.024 1.102l-.011.288c-.032.074-.037.108-.042.106l.002-.002z" fill="#263238"/><path d="M226.517 134.696c-.043.34-.113.679-.213 1.008a35.408 35.408 0 00-.838 4.897c-.02.344-.071.688-.15 1.023a4.513 4.513 0 010-1.039c.043-.828.139-1.662.277-2.483.138-.823.335-1.644.574-2.44.074-.336.193-.661.35-.966z" fill="#263238"/><path d="M228.595 159.018c1.201-1.087 1.401-2.926.977-4.481-.425-1.555-1.351-2.904-2.121-4.314l-4.392-.01c-.786 1.42-1.732 2.755-2.168 4.304-.438 1.549-.262 3.407.932 4.483l6.774.019-.002-.001z" fill="#A39085"/><path d="M224.682 114.336a.58.58 0 01.041.196c.031.149.042.339.067.561.047.492.106 1.201.166 2.061.125 1.755.25 4.184.336 6.869.086 2.685.109 5.113.079 6.875a46.05 46.05 0 01-.069 2.085c-.013.225-.026.424-.039.565a.829.829 0 01-.027.198l-.005-.026a.582.582 0 01-.01-.172c-.003-.154 0-.344 0-.565 0-.528-.003-1.232-.012-2.093a199.035 199.035 0 00-.162-6.863c-.107-2.685-.189-5.111-.276-6.868-.038-.83-.075-1.555-.103-2.074l-.021-.57c.007-.06.019-.121.034-.178l.001-.001z" fill="#263238"/><path d="M221.164 120.954c.101.11.192.232.266.364.159.239.377.597.639 1.04a28.343 28.343 0 012.925 7.456l.251 1.205a1.622 1.622 0 01.049.441c-.032.006-.169-.61-.436-1.586a35.866 35.866 0 00-2.911-7.418c-.492-.937-.813-1.482-.783-1.502zm-2.404 3.08a1.5 1.5 0 01.42.194c.365.208.718.445 1.046.704.484.384.952.801 1.388 1.241.53.553.992 1.169 1.372 1.831a30.097 30.097 0 011.851 3.687c.21.484.366.883.47 1.159a1.93 1.93 0 01.138.437 1.811 1.811 0 01-.214-.403l-.534-1.146c-.45-.95-1.075-2.266-1.897-3.641a9.82 9.82 0 00-1.337-1.818 16.856 16.856 0 00-1.342-1.263 11.221 11.221 0 00-1-.752 2.588 2.588 0 01-.36-.23h-.001zm57.248-18.889l-1.615-.004-.139 26.806 1.615.005.139-26.807z" fill="#263238"/><path d="M274.387 105.397l-32.657-.084-.136 26.338 32.656.085.137-26.339z" fill="#fff"/><path d="M274.875 132.342l-33.896-.086.141-27.57 33.896.086-.141 27.57zm-32.65-1.317l31.417.082.128-25.094-31.416-.078-.129 25.09z" fill="#455A64"/><path d="M269.922 108.92l-24.113-.062-.097 18.649 24.113.062.097-18.649z" fill="#A39085"/></svg>