<svg width="564" height="343" fill="none" xmlns="http://www.w3.org/2000/svg"><path d="M533.585 293.777H461v48.508h72.585v-48.508z" fill="#EBEBEB"/><path d="M533.592 293.777h-29.545v48.508h29.545v-48.508zM529.22 48h-70.259v101.835h70.259V48z" fill="#E0E0E0"/><path d="M525.704 48h-70.259v101.835h70.259V48z" fill="#F5F5F5"/><path d="M516.976 16.188h-52.8v79.78h52.8v-79.78z" fill="#fff"/><path d="M516.976 138.803v-22.327c0-14.069-.056-33.99-.088-57.444l.176.175h-52.76l.191-.191v79.771l-.151-.152 38.426.08 10.616.04h3.757-3.693l-10.584.04-38.522.08h-.296v-.152c0-21.935 0-49.682-.04-79.771v-.192h53.135v.176c0 23.502-.071 43.463-.087 57.556 0 7.019-.04 12.582-.048 16.396v5.451c0 .256-.032.464-.032.464z" fill="#E0E0E0"/><path d="M525.897 48c-.36.644-.777 1.254-1.247 1.823-.8 1.087-1.975 2.574-3.302 4.18a133.437 133.437 0 01-3.469 4.037 12.525 12.525 0 01-1.551 1.6 12.92 12.92 0 011.343-1.752l3.381-4.108c1.287-1.551 2.439-2.958 3.382-4.101.442-.598.931-1.16 1.463-1.679z" fill="#E0E0E0"/><path d="M517.238 95.704a65.622 65.622 0 009.209 11.519l-9.209-11.52z" fill="#fff"/><path d="M526.447 150.067a11.486 11.486 0 01-1.599-1.463 52.01 52.01 0 01-6.531-8.17 10.677 10.677 0 01-1.071-1.887c.475.545.908 1.125 1.295 1.735.8 1.087 1.863 2.574 3.134 4.165 1.271 1.591 2.486 2.974 3.373 3.997a14.13 14.13 0 011.399 1.623z" fill="#E0E0E0"/><path d="M455.438 106.911a4535.33 4535.33 0 019.201-11.36l-9.201 11.36z" fill="#fff"/><path d="M464.639 138.396a70.093 70.093 0 01-4.453 5.803 71.978 71.978 0 01-4.748 5.556 67.134 67.134 0 014.452-5.796 69.13 69.13 0 014.749-5.563zM455.445 48a65.741 65.741 0 014.469 5.34 62.886 62.886 0 014.165 5.596 63.978 63.978 0 01-4.469-5.34A65.987 65.987 0 01455.445 48zm45.077 27.227H482.84v50.194h17.682V75.227zm-413.199-.092H34.867v54.679h52.456V75.135z" fill="#E0E0E0"/><path d="M83.777 75.135H31.32v54.679h52.457V75.135z" fill="#FAFAFA"/><path d="M83.793 129.83H31.305V75.12h52.488v54.71zm-52.456 0H83.76V75.151H31.337v54.679z" fill="#E0E0E0"/><path d="M76.726 82.481H38.371v39.978h38.355V82.481z" fill="#FAFAFA"/><path d="M38.369 122.731a6.296 6.296 0 01-.944 1.087c-.615.648-1.478 1.527-2.398 2.478-.919.952-1.854 1.791-2.51 2.398a6.314 6.314 0 01-1.103.92c.266-.402.58-.77.935-1.095a108.49 108.49 0 012.447-2.479c.967-.951 1.854-1.798 2.51-2.398a5.483 5.483 0 011.063-.911zm38.358-.104c.398.276.766.595 1.095.951a92.897 92.897 0 012.478 2.438c.951.968 1.79 1.847 2.398 2.503.349.333.657.706.92 1.111a6.218 6.218 0 01-1.096-.944 91.508 91.508 0 01-2.478-2.438 99.256 99.256 0 01-2.398-2.518 5.253 5.253 0 01-.92-1.103zm-.106-40.034c.267-.406.584-.776.943-1.103.616-.647 1.471-1.519 2.399-2.47.927-.951 1.854-1.799 2.502-2.398a6.48 6.48 0 011.11-.927c-.267.402-.584.77-.943 1.095-.607.647-1.47 1.527-2.398 2.478a59.58 59.58 0 01-2.51 2.398 6.69 6.69 0 01-1.103.927zm-38.351.097a6.14 6.14 0 01-1.096-.944 127.159 127.159 0 01-2.47-2.438 89.533 89.533 0 01-2.398-2.51 5.483 5.483 0 01-.92-1.112 6.66 6.66 0 011.088.968c.647.615 1.519 1.479 2.47 2.446a88.828 88.828 0 012.398 2.51c.349.324.66.686.928 1.08z" fill="#E0E0E0"/><path d="M76.623 122.459a.694.694 0 010-.192v-10.863c0-7.003-.048-16.98-.08-28.922l.152.151H38.452l.168-.175v39.969l-.144-.144 27.69.08h10.561-10.464l-27.787.08h-.144V82.154h38.563v.144c0 11.99-.056 21.991-.072 29.018V122.1c0 .127-.2.367-.2.359z" fill="#E0E0E0"/><path d="M63.943 96.071H51.145v12.799h12.798V96.071z" fill="#EBEBEB"/><path d="M563.573 342.181c0 .112-126.169.208-281.771.208C126.2 342.389 0 342.293 0 342.181c0-.112 126.144-.208 281.802-.208 155.658 0 281.771.08 281.771.208z" fill="#263238"/><path d="M47.158 287.694c-11.99-6.491-25.484-18.29-30.728-31.696 12.974 6.723 23.941 17.994 30.728 31.696zm-.781-20.081c-11.99-6.483-25.485-18.29-30.729-31.696 12.975 6.691 23.926 17.963 30.73 31.696zm-1.793-19.657c-11.99-6.483-25.485-18.29-30.729-31.696 12.967 6.691 23.902 17.962 30.73 31.696zm-2.614-20.648c-11.136-8.114-23.11-21.704-26.724-35.733 12.07 8.449 21.584 21.16 26.724 35.733zm-3.397-15.932c-7.53-12.055-13.958-29.53-12.487-44.015a79.263 79.263 0 0112.487 44.015zm1.708 7.57c3.198-15.029 10.888-33.575 22-44.023a93.227 93.227 0 01-22 44.023zm2.489 17.011c4.54-15.372 14.1-34.022 26.531-43.967a96.722 96.722 0 01-26.532 43.967zm2.71 20.713c4.541-15.381 14.102-34.023 26.532-43.967A96.836 96.836 0 0145.48 256.67zm1.375 25.236c4.541-15.38 14.102-34.022 26.532-43.966a96.827 96.827 0 01-26.532 43.966z" fill="#657C90"/><path d="M38.277 208.338c.033.08.057.163.072.248.048.192.104.432.168.719.152.68.352 1.599.616 2.798.527 2.398 1.223 5.948 2.006 10.32.784 4.373 1.599 9.593 2.454 15.397.856 5.803 1.6 12.223 2.19 18.969a484.702 484.702 0 011.304 19.05c.28 5.86.383 11.152.391 15.596.008 4.445 0 7.994-.088 10.512 0 1.207-.063 2.159-.087 2.854v.743c.01.083.01.166 0 .248a.962.962 0 010-.248v-3.605c0-2.478 0-6.067-.064-10.504a474.716 474.716 0 00-.504-15.572c-.28-5.86-.727-12.287-1.335-19.034-.608-6.746-1.383-13.134-2.15-18.945a400.447 400.447 0 00-2.35-15.405c-.752-4.372-1.384-7.906-1.855-10.344a409.019 409.019 0 00-.52-2.806l-.12-.735a1.022 1.022 0 01-.128-.256z" fill="#263238"/><path opacity=".5" d="M47.158 287.694c-11.99-6.491-25.484-18.29-30.728-31.696 12.974 6.723 23.941 17.994 30.728 31.696zm-.781-20.081c-11.99-6.483-25.485-18.29-30.729-31.696 12.975 6.691 23.926 17.963 30.73 31.696zm-1.793-19.657c-11.99-6.483-25.485-18.29-30.729-31.696 12.967 6.691 23.902 17.962 30.73 31.696zm-2.614-20.648c-11.136-8.114-23.11-21.704-26.724-35.733 12.07 8.449 21.584 21.16 26.724 35.733zm-3.397-15.932c-7.53-12.055-13.958-29.53-12.487-44.015a79.263 79.263 0 0112.487 44.015zm1.708 7.57c3.198-15.029 10.888-33.575 22-44.023a93.227 93.227 0 01-22 44.023zm2.489 17.011c4.54-15.372 14.1-34.022 26.531-43.967a96.722 96.722 0 01-26.532 43.967zm2.71 20.713c4.541-15.381 14.102-34.023 26.532-43.967A96.836 96.836 0 0145.48 256.67zm1.375 25.236c4.541-15.38 14.102-34.022 26.532-43.966a96.827 96.827 0 01-26.532 43.966z" fill="#000"/><path d="M52.426 292.914c-5.595-11.695-9.648-28.139-6.906-40.969a72.633 72.633 0 016.906 40.969zm9.289-15.141c-5.595-11.695-9.648-28.138-6.906-40.977a72.675 72.675 0 016.906 40.977zm8.329-15.396c-5.596-11.695-9.65-28.138-6.907-40.977a72.65 72.65 0 016.907 40.977zm8.211-16.611c-4.157-12.375-6.235-29.25-1.998-41.569a73.058 73.058 0 011.998 41.569zm5.339-13.598c.407-13.166 4.285-29.665 12.462-39.386a71.394 71.394 0 01-12.462 39.386zm-2.454 6.531c9.69-9.137 24.414-18.218 37.652-19.401a72.934 72.934 0 01-37.651 19.401zm-6.546 13.822c10.856-8.602 26.979-16.676 40.921-16.708a75.948 75.948 0 01-40.921 16.708zM66.43 269.26c10.855-8.601 26.98-16.675 40.921-16.707A75.949 75.949 0 0166.43 269.26zm-11.375 19.233c10.855-8.601 26.987-16.675 40.929-16.707a75.993 75.993 0 01-40.93 16.707z" fill="#657C90"/><path d="M84.866 229.778a.866.866 0 01-.064.224c-.064.16-.136.367-.224.615l-.911 2.398a288.74 288.74 0 01-3.55 8.626c-3.101 7.242-7.69 17.115-13.39 27.699a374.275 374.275 0 01-8.41 14.717 278.52 278.52 0 01-7.394 11.631c-2.182 3.253-3.997 5.907-5.276 7.698l-1.478 2.054-.4.528c-.042.061-.09.117-.144.168 0 0 0-.072.104-.2l.36-.551c.343-.52.799-1.224 1.407-2.111a394.462 394.462 0 005.132-7.77 431.62 431.62 0 007.306-11.735c2.678-4.453 5.5-9.433 8.362-14.717a399.592 399.592 0 0013.502-27.603 390.059 390.059 0 003.693-8.562l.991-2.326.272-.607a.774.774 0 01.112-.176z" fill="#263238"/><path d="M68.341 342.181H34.04l-6.388-47.269h47.26l-6.57 47.269z" fill="#263238"/><path d="M73.233 301.835c0 .12-9.92.208-22.16.208-12.238 0-22.167-.088-22.167-.208s9.929-.208 22.167-.208c12.24 0 22.16.096 22.16.208z" fill="#455A64"/><path d="M391.769 0h-219.97a9.233 9.233 0 00-9.233 9.233v323.715a9.233 9.233 0 009.233 9.233h219.97a9.233 9.233 0 009.233-9.233V9.233c0-5.1-4.134-9.233-9.233-9.233z" fill="#263238"/><path d="M393.375 24.413H169.977v285.76h223.398V24.413z" fill="#fff"/><path d="M290.935 324.986a9.147 9.147 0 01-15.615 6.455 9.143 9.143 0 019.971-14.912 9.16 9.16 0 014.95 4.955c.459 1.11.695 2.3.694 3.502zM316.721 9.857h-69.867a.975.975 0 00-.975.975v1.83c0 .54.437.976.975.976h69.867a.976.976 0 00.976-.976v-1.83a.976.976 0 00-.976-.975z" fill="#455A64"/><path d="M240.944 71.227h-50.146a3.677 3.677 0 00-3.677 3.677v50.146a3.677 3.677 0 003.677 3.677h50.146a3.678 3.678 0 003.678-3.677V74.904a3.678 3.678 0 00-3.678-3.677z" fill="#657C90"/><path d="M305.722 70.347h-50.146a3.678 3.678 0 00-3.678 3.677v50.146a3.678 3.678 0 003.678 3.677h50.146a3.677 3.677 0 003.677-3.677V74.024a3.677 3.677 0 00-3.677-3.677zm65.054 0H320.63a3.677 3.677 0 00-3.677 3.677v50.146a3.677 3.677 0 003.677 3.677h50.146a3.678 3.678 0 003.678-3.677V74.024a3.678 3.678 0 00-3.678-3.677zm-130.101 72.345h-50.146a3.677 3.677 0 00-3.677 3.677v50.146a3.677 3.677 0 003.677 3.677h50.146a3.677 3.677 0 003.677-3.677v-50.146a3.677 3.677 0 00-3.677-3.677zm65.047 0h-50.146a3.678 3.678 0 00-3.678 3.677v50.146a3.678 3.678 0 003.678 3.677h50.146a3.677 3.677 0 003.677-3.677v-50.146a3.677 3.677 0 00-3.677-3.677z" fill="#E0E0E0"/><path d="M370.776 142.692H320.63a3.677 3.677 0 00-3.677 3.677v50.146a3.677 3.677 0 003.677 3.677h50.146a3.678 3.678 0 003.678-3.677v-50.146a3.678 3.678 0 00-3.678-3.677zm-130.101 72.345h-50.146a3.677 3.677 0 00-3.677 3.677v50.146a3.677 3.677 0 003.677 3.677h50.146a3.677 3.677 0 003.677-3.677v-50.146a3.677 3.677 0 00-3.677-3.677z" fill="#657C90"/><path d="M305.722 215.037h-50.146a3.678 3.678 0 00-3.678 3.677v50.146a3.678 3.678 0 003.678 3.677h50.146a3.677 3.677 0 003.677-3.677v-50.146a3.677 3.677 0 00-3.677-3.677zm65.054 0H320.63a3.677 3.677 0 00-3.677 3.677v50.146a3.677 3.677 0 003.677 3.677h50.146a3.678 3.678 0 003.678-3.677v-50.146a3.678 3.678 0 00-3.678-3.677z" fill="#E0E0E0"/><path d="M273.465 291.515a2.062 2.062 0 100-4.124 2.062 2.062 0 000 4.124zm10.382-2.062a2.059 2.059 0 01-2.469 2.013 2.056 2.056 0 01-1.616-1.622 2.062 2.062 0 114.085-.391zm8.333-.001a2.073 2.073 0 01-1.28 1.914 2.07 2.07 0 111.28-1.914zM200.049 48.355h-10.52a.4.4 0 01-.283-.682.4.4 0 01.283-.117h10.52a.398.398 0 01.282.682.399.399 0 01-.282.117z" fill="#263238"/><path d="M193.613 51.72a.415.415 0 01-.232-.071l-4.725-3.366a.394.394 0 01-.176-.327.452.452 0 01.176-.328l4.869-3.318a.395.395 0 01.471-.04.406.406 0 01.185.271.394.394 0 01-.08.318.4.4 0 01-.129.107l-4.388 2.998 4.268 3.03a.397.397 0 01.152.449.398.398 0 01-.383.278h-.008zm176.357-3.325h-10.52a.398.398 0 01-.399-.4.4.4 0 01.399-.4h10.52a.399.399 0 110 .8z" fill="#263238"/><path d="M365.725 51.72a.413.413 0 01-.336-.175.412.412 0 01-.058-.297.413.413 0 01.162-.255l4.397-3.005-4.261-3.022a.41.41 0 01-.096-.56.407.407 0 01.26-.164.403.403 0 01.3.068l4.724 3.366a.355.355 0 01.168.328.417.417 0 01-.168.328l-4.868 3.317a.409.409 0 01-.224.072zM253.809 47.5a3.153 3.153 0 012.071-3.014 3.153 3.153 0 011.279-.184 3.194 3.194 0 012.614 1.152l-1.096.99a1.79 1.79 0 00-1.431-.71 1.744 1.744 0 00-1.155 2.928c.302.323.715.519 1.155.549a1.815 1.815 0 001.431-.712l1.096.991a3.201 3.201 0 01-2.614 1.144 3.148 3.148 0 01-3.35-3.134zm10.726 1.862h-2.574l-.48 1.184h-1.758l2.694-6.092h1.694l2.694 6.092h-1.806l-.464-1.184zm-.504-1.27l-.799-1.943-.799 1.943h1.598zm4.254-2.271h-1.871v-1.367h5.452v1.367h-1.863v4.725h-1.718V45.82zm8 3.541h-2.574l-.48 1.184h-1.758l2.686-6.092h1.694l2.702 6.092h-1.79l-.48-1.184zm-.504-1.27l-.799-1.943-.799 1.943h1.598zm3.262-3.638h1.719v4.725h2.901v1.367h-4.62v-6.092zm4.892 3.046a3.39 3.39 0 113.382 3.198 3.2 3.2 0 01-3.122-1.93 3.195 3.195 0 01-.26-1.268zm5.028 0a1.64 1.64 0 00-1.08-1.451 1.648 1.648 0 00-2.077 2.197 1.65 1.65 0 001.511.997 1.6 1.6 0 001.662-1.743h-.016z" fill="#263238"/><path d="M295.687 47.372h1.519v2.518c-.751.521-1.644.8-2.558.8a3.197 3.197 0 11.04-6.332 3.343 3.343 0 012.662 1.111l-1.095.992a1.925 1.925 0 00-1.479-.672 1.745 1.745 0 00-1.625 1.739 1.745 1.745 0 001.625 1.739 2.24 2.24 0 00.935-.2l-.024-1.695zm2.567.504v-3.382h1.719v3.326c0 1.047.431 1.463 1.159 1.463.727 0 1.143-.416 1.143-1.463v-3.326h1.703v3.382a2.862 2.862 0 01-5.724 0zm11.775 1.343v1.327h-4.892v-6.092h4.796v1.335h-3.078v1.023h2.71V48.1h-2.71v1.119h3.174z" fill="#263238"/><path d="M314.722 55.334c0 .112-14.669.208-32.775.208-18.106 0-32.775-.096-32.775-.208 0-.112 14.669-.208 32.775-.208 18.106 0 32.775.088 32.775.208zm-22.007 2.654c0 .112-4.796.208-10.76.208-5.963 0-10.76-.096-10.76-.208 0-.112 4.797-.208 10.76-.208 5.964 0 10.76.088 10.76.208z" fill="#E0E0E0"/><path d="M90.637 311.676l.959 30.057 37.46-.632c-.28-3.573-21.336-10.28-21.336-10.28l-.152-20.208-16.931 1.063z" fill="#657C90"/><path opacity=".3" d="M90.637 311.676l.959 30.057 37.46-.632c-.28-3.573-21.336-10.28-21.336-10.28l-.152-20.208-16.931 1.063z" fill="#000"/><path d="M97.653 329.262a1.52 1.52 0 00-1.023 1.759 1.482 1.482 0 001.743 1.039 1.599 1.599 0 001.071-1.878 1.517 1.517 0 00-1.927-.872m-5.925 12.399l-.096-3.038 36.045.528s1.678.703 1.511 1.879l-37.46.631zm16.725-10.584c0 .184-.919.288-1.807.888-.887.599-1.351 1.383-1.526 1.311-.176-.072.088-1.128 1.175-1.839 1.087-.711 2.158-.528 2.158-.36zm4.908 1.623c.04.176-.744.504-1.351 1.287-.608.783-.8 1.599-.96 1.599-.159 0-.311-1.039.464-1.999.775-.959 1.839-1.063 1.847-.887zm2.232 4.508c-.168.048-.44-.863 0-1.878s1.295-1.423 1.375-1.271c.08.152-.44.695-.799 1.535-.36.839-.4 1.614-.576 1.614zm-7.548-11.143c-.08.168-.919-.064-1.951 0-1.031.064-1.838.432-1.934.28-.096-.152.663-.799 1.886-.911 1.223-.112 2.079.487 1.999.631zm.583-4.509a3.482 3.482 0 01-1.878 0 8.389 8.389 0 01-1.975-.567 10.08 10.08 0 01-1.087-.552 2.753 2.753 0 01-.575-.431.798.798 0 01-.096-.976.99.99 0 01.799-.431c.238-.008.475.022.704.088.403.086.796.212 1.175.375a6.61 6.61 0 011.75 1.111c.888.8 1.191 1.463 1.127 1.503-.064.04-.511-.503-1.406-1.151a6.976 6.976 0 00-2.774-1.231c-.4-.096-.736-.096-.8.08-.064.176-.04.096 0 .216.127.123.269.227.424.312.324.2.657.384.999.551.589.276 1.202.498 1.831.664a13.63 13.63 0 011.782.439z" fill="#263238"/><path d="M127.855 60.666a13.94 13.94 0 00-13.398-13.35h-.727c-7.794.16-11.991 6.875-11.647 14.661l-.544 33.343c6.523 4.26 12.79 7.434 17.938 5.42l.8-13.87s7.53-.88 7.906-8.354c.192-3.677-.04-11.143-.328-17.85z" fill="#FFBE9D"/><path d="M120.309 86.798a17.435 17.435 0 01-9.641-3.141s2.03 5.524 9.521 5.14l.12-1.999z" fill="#EB996E"/><path d="M125.654 66.198a1.07 1.07 0 01-1.071 1.039 1.027 1.027 0 01-.982-.585 1.016 1.016 0 01-.097-.39 1.06 1.06 0 011.071-1.04 1.016 1.016 0 011.079.976zm.46-1.983c-.144.136-.927-.495-2.078-.535-1.152-.04-2.015.503-2.135.36-.12-.144.088-.312.464-.568a2.907 2.907 0 011.718-.456c.596.023 1.17.233 1.639.6.344.288.456.543.392.6zm-11.187 1.975a1.076 1.076 0 01-1.071 1.04 1.013 1.013 0 01-1.063-.968 1.071 1.071 0 011.063-1.04 1.03 1.03 0 011.071.968zm-.13-2.19c-.136.135-.919-.496-2.07-.536-1.151-.04-2.015.504-2.134.36-.12-.144.087-.312.463-.568a2.902 2.902 0 011.711-.456 2.792 2.792 0 011.647.6c.343.28.455.544.383.6zm3.846 8.657a7.877 7.877 0 011.886-.264c.288 0 .568-.064.632-.264a1.594 1.594 0 00-.168-.879c-.248-.72-.504-1.479-.799-2.27-1.08-3.198-1.855-5.876-1.727-5.916.128-.04 1.119 2.534 2.198 5.764l.752 2.278c.168.363.205.773.104 1.16a.755.755 0 01-.496.415c-.166.034-.335.05-.504.048a7.685 7.685 0 01-1.878-.072zm-9.086-11.296c.12-.311 1.263-.16 2.614-.32s2.446-.519 2.622-.24c.08.137-.112.425-.552.728a4.357 4.357 0 01-1.942.68 4.494 4.494 0 01-2.047-.248c-.496-.2-.743-.448-.695-.6zm16.347-1.135c-.255.248-1.223-.056-2.398-.111-1.175-.056-2.174.087-2.398-.192-.096-.136.072-.392.52-.624a3.891 3.891 0 011.958-.352 3.736 3.736 0 011.895.6c.423.32.543.56.423.68z" fill="#263238"/><path d="M102.483 67.469c-.12-.064-5.076-1.719-5.108 3.405-.032 5.124 5.108 4.093 5.124 3.941.016-.152-.016-7.346-.016-7.346z" fill="#FFBE9D"/><path d="M100.946 72.873s-.096.056-.247.128a.889.889 0 01-.664 0 2.207 2.207 0 01-1.007-1.983c-.01-.44.077-.877.256-1.279a1.023 1.023 0 01.68-.68.44.44 0 01.519.249c.072.143.04.247.064.255.024.008.112-.088.072-.296a.612.612 0 00-.2-.327.688.688 0 00-.496-.128 1.255 1.255 0 00-.935.8c-.22.443-.33.934-.32 1.43a2.318 2.318 0 001.287 2.215.951.951 0 00.799-.128c.176-.136.208-.248.192-.256zm9.848-4.133a.136.136 0 01-.143-.12.145.145 0 010-.051.117.117 0 01.02-.047.123.123 0 01.084-.054.117.117 0 01.097.023.117.117 0 01.046.089.128.128 0 01-.104.16zm2.215-.417a.145.145 0 01-.143-.135c-.008-.088 0-.168.095-.176a.146.146 0 01.104.037.147.147 0 01.048.1.145.145 0 01-.104.175zm1.489.025c-.072 0-.136-.08-.152-.2-.015-.12.04-.207.112-.215.072-.009.136.08.144.191.008.112-.04.216-.104.224zm-2.671 1.814c-.072 0-.128-.047-.128-.087 0-.04.064-.08.136-.08.071 0 .119.04.119.088 0 .047-.056.08-.127.08zm2.028-.392a.144.144 0 01-.135-.135.137.137 0 01.119-.152.135.135 0 01.136.136.143.143 0 01-.12.151zm10.53-.855a.133.133 0 01-.101-.028.142.142 0 01-.035-.04.15.15 0 01-.016-.051.138.138 0 01.019-.102c.02-.03.05-.05.085-.058a.143.143 0 01.124.216.142.142 0 01-.076.063zm1.517-.08a.13.13 0 01-.055-.012.137.137 0 01-.075-.083.155.155 0 01-.005-.057.15.15 0 01.112-.167.147.147 0 01.099.048.149.149 0 01.036.104c-.008.087-.056.167-.112.167zm-2.847.072a.119.119 0 01-.087-.02.118.118 0 01-.049-.076.118.118 0 01.003-.045.114.114 0 01.101-.082.118.118 0 01.089.014.118.118 0 01.054.074.128.128 0 01-.111.135zm1.059 1.535a.136.136 0 01-.167-.088.126.126 0 01-.01-.106.137.137 0 01.028-.047.133.133 0 01.046-.03.134.134 0 01.101.01.133.133 0 01.066.078.134.134 0 01.007.105.13.13 0 01-.071.078zm1.287-.184a.114.114 0 01-.036-.02.108.108 0 01-.037-.071.112.112 0 01.005-.04.109.109 0 01.091-.072.109.109 0 01.041.004.103.103 0 01.076.047.101.101 0 01.011.089.103.103 0 01-.024.038.1.1 0 01-.038.027.108.108 0 01-.089-.002z" fill="#EB996E"/><path d="M120.348 76.654c-.056.104-.983-.368-2.222-.584-1.239-.215-2.27-.111-2.286-.231a4.721 4.721 0 014.508.799v.016zm12.188-26.116a3.07 3.07 0 01-.879-.424 1.92 1.92 0 01-.408-1.495 1.602 1.602 0 00-.552-1.423c-.631-.351-1.455.248-2.126 0-.672-.247-.744-1.19-1.095-1.83a1.977 1.977 0 00-2.438-.8c-.592.264-1.231.84-1.791.504-.56-.336-.416-1.023-.632-1.55a1.38 1.38 0 00-.824-.738 1.393 1.393 0 00-1.102.098c-.496.295-.959.943-1.487.703-.528-.24-.424-.967-.839-1.279a.92.92 0 00-1.136.176 6.19 6.19 0 00-.743 1.007 1.274 1.274 0 01-1.031.608c-.456 0-.8-.448-1.127-.744-1.191-1.007-3.062-.8-4.349.096a7.49 7.49 0 00-1.99 2.198 8.674 8.674 0 00-4.173.104c-3.054.896-5.484 3.893-5.3 7.067.096 1.487.703 2.886.951 4.357.17 1.761.199 3.533.088 5.3 0 1.766.112 3.39 1.271 4.724l1.527.392c.105.183.225.357.36.52a1.598 1.598 0 002.014.527 2.01 2.01 0 00.639-1.16c.936-3.197 1.871-6.65 1.439-9.911a4.383 4.383 0 012.151-4.469 6.879 6.879 0 011.535-.672c.528-.1 1.07-.1 1.598 0a4.395 4.395 0 012.782 1.815c.456.656.8 1.51 1.599 1.71.799.2 1.639-.447 2.494-.447.856 0 1.599.712 2.254 1.335.656.623 1.519 1.231 2.399.967.879-.264 1.215-1.087 1.974-1.343a2.399 2.399 0 011.671.216 7.379 7.379 0 001.599.632 1.47 1.47 0 001.535-.52c.343-.552.127-1.35.535-1.863.408-.511 1.023-.471 1.599-.695a2 2 0 00.048-3.653l-.04-.04z" fill="#263238"/><path d="M99.453 60.066c0-.063.52 0 1.327-.111a7.277 7.277 0 005.244-3.118c.225-.384.47-.755.736-1.111-.052.458-.22.896-.488 1.27a6.58 6.58 0 01-5.476 3.254 2.733 2.733 0 01-1.343-.184zm-.297 1.919a11.61 11.61 0 003.997-.6 11.852 11.852 0 003.334-2.246c.04 0-.184.448-.712 1a7.08 7.08 0 01-2.47 1.598 7.012 7.012 0 01-2.982.528c-.405 0-.805-.096-1.167-.28z" fill="#455A64"/><path d="M93.672 163.884l-9.297 29.298 5.924 132.667 18.122-2.198 2.374-63.104 9.777-70.587.983-24.981-27.883-1.095z" fill="#263238"/><path d="M99.637 294.041l-17.754 24.286 29.905 22.558c1.983-2.989-10.48-21.239-10.48-21.239l12.319-15.988-13.99-9.617z" fill="#657C90"/><path d="M94.353 312.211a1.53 1.53 0 00-1.895.76 1.47 1.47 0 00.727 1.886 1.598 1.598 0 002.007-.799 1.534 1.534 0 00-.983-1.879m-12.326 6.148l1.798-2.454 28.075 22.607s.887 1.598 0 2.398l-29.873-22.551zm19.663 1.934c-.112.144-.896-.343-1.967-.415-1.071-.072-1.918.255-2.006.096-.088-.16.76-.8 2.062-.736 1.303.064 2.047.943 1.911 1.055zm2.892 4.317c-.072.16-.887-.064-1.854.176-.968.24-1.599.799-1.735.679-.136-.119.392-1.015 1.599-1.295 1.207-.279 2.094.328 1.99.44zm-.998 4.908c-.16-.072.184-.951 1.167-1.471.983-.519 1.903-.32 1.871-.152-.032.168-.8.28-1.599.712-.8.431-1.287 1.007-1.439.911zm.879-13.414c-.16.088-.68-.615-1.543-1.183-.863-.567-1.655-.815-1.655-.975 0-.16 1.031-.24 2.047.448 1.015.687 1.327 1.655 1.151 1.71zm3.256-3.189c0 .064-.688-.28-1.487-1.135a8.304 8.304 0 01-1.207-1.671 8.38 8.38 0 01-.52-1.111 2.642 2.642 0 01-.184-.688.8.8 0 01.52-.799 1.02 1.02 0 01.895.152c.189.14.356.307.496.496.261.32.493.663.695 1.023.333.61.568 1.268.696 1.95a3.2 3.2 0 010 1.879c-.104 0-.096-.712-.408-1.775a7.191 7.191 0 00-.799-1.758 7.422 7.422 0 00-.656-.92c-.256-.319-.527-.527-.711-.447-.184.08-.088.056-.096.199.025.174.074.343.144.504.125.359.275.709.447 1.047.291.583.636 1.138 1.032 1.655.671.855 1.207 1.327 1.143 1.399z" fill="#263238"/><path d="M121.556 164.979l10.52.416s23.406 83.704 21.048 91.043c-2.358 7.338-45.677 56.037-45.677 56.037l-12.966-13.59s13.877-23.606 20.104-30.313c4.461-4.796 15.988-14.013 15.988-14.013l-14.813-29.865 5.796-59.715z" fill="#263238"/><path d="M122.576 197.522c-.117.45-.267.891-.447 1.319-.312.8-.76 2.055-1.287 3.558a124.893 124.893 0 00-3.534 11.991 125.822 125.822 0 00-2.286 12.278c-.216 1.599-.376 2.87-.472 3.757a9.946 9.946 0 01-.199 1.375 7.87 7.87 0 010-1.39c.048-.896.16-2.183.335-3.782.477-4.151 1.203-8.27 2.175-12.334.981-4.066 2.204-8.07 3.661-11.991a78.842 78.842 0 011.415-3.526c.177-.435.391-.855.639-1.255zm-15.132 114.953l-.256-.232-.704-.703-2.662-2.726-9.472-9.841-.088-.088.072-.119c3.365-5.644 7.378-12.463 12.071-19.554a94.942 94.942 0 0112.55-15.62 71.951 71.951 0 016.203-5.38c1-.735 1.935-1.439 2.83-2.07l2.526-1.711h.048l5.036 1.127 1.335.312c.157.025.31.068.456.128a3.315 3.315 0 01-.464-.072l-1.351-.248-5.06-1.015h.088l-2.494 1.743c-.887.631-1.815 1.351-2.806 2.086a74.692 74.692 0 00-6.131 5.404 96.457 96.457 0 00-12.455 15.588c-4.692 7.075-8.721 13.878-12.126 19.505v-.216l9.36 9.945 2.59 2.782.672.743c.086.069.163.146.232.232z" fill="#455A64"/><path d="M134.455 148.08c.04.215 3.805-1.128 4.213-2.606.408-1.479.296-5.748.296-5.748l-9.593-5.804.048 7.994a7.935 7.935 0 015.036 6.164zm-10.631-62.537l4.245 2.71s1.327 3.286 3.022 4.796c1.694 1.511 4.612 4.565 4.612 4.565l1.287 4.621 9.265-2.359-3.997-13.39-1.167-3.54s-2.03-3.11-4.652-1.456c0 0 .327-1.159-.8-1.23-.927 0-1.851.096-2.758.287a4.443 4.443 0 00-2.342-.84 9.316 9.316 0 00-1.783.184s-.311-1.319-1.015-1.15c-.703.167-1.599 1.422-1.846 2.166a9.648 9.648 0 00-.072 2.798l-1.999 1.838z" fill="#FFBE9D"/><path d="M136.896 81.45a3.915 3.915 0 00-1.543 1.599 4.803 4.803 0 00-.504 2.334c.005.483.048.964.128 1.44.04.247.08.503.128.759.027.247.08.491.16.727a.712.712 0 00.496.344c.217.06.446.06.663 0a1.17 1.17 0 00.848-.864c.223-.799-.056-1.702.064-2.446.032-.347.168-.676.391-.943.166-.204.389-.354.64-.432.423-.12.647.064.631.072a1.595 1.595 0 00-.575.08 1.411 1.411 0 00-.8 1.255c-.088.664.24 1.503 0 2.518a1.597 1.597 0 01-2.75.6 3.36 3.36 0 01-.191-.84c-.048-.263-.088-.52-.128-.799a9.588 9.588 0 01-.104-1.495 4.947 4.947 0 01.623-2.478 3.34 3.34 0 011.207-1.231c.376-.2.608-.2.616-.2z" fill="#EB996E"/><path d="M140.029 86.43c0 .112-.512.16-1.119.192-.608.032-1.12.048-1.144-.064-.024-.111.472-.311 1.12-.351.647-.04 1.151.112 1.143.224zm-5.1 1.895s.103.192.127.576a1.954 1.954 0 01-.543 1.543 1.559 1.559 0 01-1.103.455 1.453 1.453 0 01-1.175-.72 3.858 3.858 0 01-.488-1.374 20.344 20.344 0 01-.32-4.397c-.006-.812.11-1.62.344-2.398a2.54 2.54 0 01.975-1.303 1 1 0 01.56-.208s-.184.104-.464.336a2.631 2.631 0 00-.799 1.27 9.022 9.022 0 00-.24 2.287 23.87 23.87 0 00.136 2.854c.038.933.246 1.852.615 2.71a1.094 1.094 0 00.864.575c.326.007.643-.11.887-.327.36-.35.569-.826.584-1.327-.004-.185.009-.37.04-.552zm-3.704-.727c.088 0-.159.799-1.335 1.19a1.6 1.6 0 01-1.598-1.238 8.058 8.058 0 01-.288-2.398 11.123 11.123 0 01.799-4.27c.188-.425.523-.768.944-.967.303-.127.487-.088.487-.064 0 .025-.168.056-.416.208a1.923 1.923 0 00-.743.944 13.002 13.002 0 00-.671 4.148c-.028.764.05 1.528.231 2.27a1.389 1.389 0 001.168 1.08 2.407 2.407 0 001.071-.56c.263-.2.319-.351.351-.343z" fill="#EB996E"/><path d="M128.823 79.891c.05.344.031.695-.056 1.032a4.566 4.566 0 01-.904 2.398 1.29 1.29 0 01-.679.447.981.981 0 01-.799-.144 1.392 1.392 0 01-.632-1.039 1.594 1.594 0 01.136-1.047c.072 0 0 .416.152.991a1.166 1.166 0 00.535.8.72.72 0 00.952-.248c.464-.642.781-1.38.927-2.158.184-.664.312-1.072.368-1.032zm11.508 11.544a20.296 20.296 0 00-1.791-1.44 19.842 19.842 0 00-2.126-.886 3.054 3.054 0 012.334.527c.371.18.702.43.973.74.272.308.48.669.61 1.059zm1.609 2.214a5.207 5.207 0 01-5.596 2.398 13.658 13.658 0 003.005-.703 13.51 13.51 0 002.591-1.695z" fill="#EB996E"/><path d="M128.118 78.013a8.986 8.986 0 01-4.501 7.554 19.24 19.24 0 002.878-3.397 19.687 19.687 0 001.623-4.157z" fill="#EB996E"/><path d="M128.917 102.906s2.742 1.263 4.093 5.22c.919 2.702 6.115 12.151 6.115 12.151l-2.134-18.042 9.169-3.198s7.746 16.859 9.593 27.18c1.846 10.112-3.198 16.787-8.578 16.595-5.38-.192-18.386-9.249-18.386-9.249l.128-30.657z" fill="#EB8B55"/><path d="M136.99 102.235c.099.348.168.703.208 1.063.103.799.247 1.75.415 2.926.328 2.47.76 5.891 1.207 9.664.168 1.471.336 2.886.488 4.189.232 1.359.448 2.63.647 3.781.173.988.422 1.961.744 2.91.567 1.599 1.031 2.478.975 2.502a3.548 3.548 0 01-.376-.607 20.06 20.06 0 01-.799-1.815 17.61 17.61 0 01-.847-2.926c-.216-1.151-.448-2.398-.704-3.773-.16-1.303-.336-2.718-.511-4.189-.448-3.773-.8-7.194-1.088-9.68-.111-1.176-.207-2.159-.279-2.934a4.653 4.653 0 01-.08-1.111z" fill="#263238"/><path opacity=".3" d="M156.136 131.692c0-1.83-6.395.44-8.866 2.111a15.892 15.892 0 00-5.547 7.29s4.372 2.518 7.73 1.375c4.764-1.615 6.627-7.634 6.683-10.776z" fill="#000"/><path d="M98.876 90.963s-17.33 8.378-19.185 13.51c-1.855 5.132 1.231 18.322 1.231 18.322l6.843 35.597 1.423 13.302-3.701 5.372 1.598 5.516c18.682 2.486 36.149 3.005 51.042-.68l-1.032-12.263-6.874-28.418-.896-23.878-.415-14.437-9.313-7.634s-1.519 4.157-5.364 3.285c-3.845-.871-12.862-10.008-12.862-10.008l-2.495 2.414z" fill="#EB8B55"/><path d="M81.553 126.112c.528.544 11.463 29.578 19.185 33.159 7.722 3.582 12.271 2.334 15.628 1.415 3.358-.919 18.043-11.287 18.043-11.287s-1.031-6.971-5.3-7.195a33.306 33.306 0 00-8.05.64l-5.18-3.43s-3.006-5.875-4.741-6.123l-10.064-22.383s-9.36-18.266-18.666-9.833c-9.057 8.194-.855 25.037-.855 25.037z" fill="#EB8B55"/><path d="M121.258 97.438c-.143.321-.332.62-.56.888a9.25 9.25 0 01-1.99 1.99 6.291 6.291 0 01-1.799.879 6.859 6.859 0 01-2.286.232 15.696 15.696 0 01-5.02-1.319 17.579 17.579 0 01-4.485-2.67 26.63 26.63 0 01-3.006-2.974 33.118 33.118 0 01-1.782-2.206 4.511 4.511 0 01-.592-.863 5.4 5.4 0 01.712.8c.447.503 1.071 1.238 1.886 2.11a29.845 29.845 0 003.022 2.877 17.988 17.988 0 004.373 2.574 16.019 16.019 0 004.876 1.319 6.04 6.04 0 003.893-.967 9.977 9.977 0 002.054-1.886c.217-.277.452-.539.704-.784zm6.729 13.518c.112 0 .544 6.915.96 15.452.415 8.538.663 15.461.543 15.469-.12.008-.543-6.915-.959-15.453-.416-8.537-.664-15.46-.544-15.468z" fill="#263238"/><path d="M84.737 101.435l.192-.088.591-.24a9.839 9.839 0 012.398-.567 9.048 9.048 0 013.997.463 12.634 12.634 0 014.525 2.902 22.95 22.95 0 013.997 5.316c.599 1.055 1.079 2.23 1.599 3.406.519 1.175 1.087 2.398 1.654 3.669l7.619 16.875-.144-.104a3.357 3.357 0 011.599 1.159c.431.509.832 1.042 1.199 1.599a37.432 37.432 0 012.062 3.485l-.04-.048 2.031 2.031-.128-.056 9.864.663 1.271.08c.452.035.896.135 1.319.296a4.971 4.971 0 012.087 1.647 12.455 12.455 0 012.054 4.908c0 .176.072.352.096.52v.128l-.104.072c-4.317 3.021-8.569 5.923-12.79 8.537-1.063.64-2.119 1.287-3.198 1.855-.264.152-.535.28-.799.415a7.866 7.866 0 01-.848.368c-.572.204-1.157.372-1.75.504-2.285.605-4.664.77-7.011.487a24.044 24.044 0 01-6.443-1.822 12.345 12.345 0 01-1.471-.696 4.706 4.706 0 01-.68-.439 6.417 6.417 0 01-.623-.504 17.857 17.857 0 01-2.15-2.254 61.832 61.832 0 01-5.996-9.593c-3.197-6.115-5.372-11.255-6.882-14.797-.728-1.766-1.303-3.141-1.695-4.093a45.523 45.523 0 00-.608-1.423c.271.441.499.907.68 1.391l1.774 4.061c1.551 3.518 3.773 8.642 6.987 14.725A63.716 63.716 0 0097 155.794a11.188 11.188 0 004.796 3.773 23.8 23.8 0 006.347 1.783c2.3.271 4.63.103 6.867-.496.58-.128 1.152-.293 1.711-.496.273-.103.54-.223.799-.359.273-.122.54-.258.799-.408 1.072-.56 2.119-1.199 3.198-1.847 4.213-2.606 8.466-5.507 12.79-8.521l-.088.2-.096-.504a11.98 11.98 0 00-1.974-4.732 4.613 4.613 0 00-1.911-1.519 8.444 8.444 0 00-2.462-.352l-9.864-.695h-.072l-.056-.056-2.023-2.031a39.016 39.016 0 00-2.03-3.445 16.581 16.581 0 00-1.167-1.535 3.118 3.118 0 00-1.391-1.039h-.112v-.08l-7.562-16.907-1.639-3.678c-.544-1.191-1.007-2.342-1.599-3.389a22.676 22.676 0 00-3.909-5.284 12.472 12.472 0 00-4.42-2.902 9.094 9.094 0 00-3.894-.511c-.816.072-1.621.241-2.398.503l-.6.216-.303-.048z" fill="#263238"/><path d="M122.153 141.733c0 .247-2.183.159-4.837-.056l-3.405-.272a5.96 5.96 0 01-1.407-.184c0-.136 2.182-.16 4.844.064 1.335.104 2.542.232 3.414.328l1.391.12zm-18.712-8.002a18.104 18.104 0 013.838-.472 18.464 18.464 0 013.869-.056 18.187 18.187 0 01-3.846.472 18.388 18.388 0 01-3.861.056z" fill="#263238"/><path opacity=".3" d="M120.994 158.28a17.048 17.048 0 00-11.32-8.21c-4.796-.927-10.496.688-14.389 3.661a16.4 16.4 0 0011.759 7.659 19.357 19.357 0 0013.95-3.11zm-20.256-65.814c1.327 3.293 3.198 6.467 5.996 8.665 2.798 2.199 6.619 3.286 9.992 2.191 1.743-.56 3.422-1.903 3.589-3.718a15.764 15.764 0 01-19.057-6.395m28.106 40.714a62.972 62.972 0 00-.072-20.089c-.08-.464-.36-1.063-.8-.951-.439.111-.439.559-.455.927-.099 6.792.227 13.584.975 20.336" fill="#000"/><path d="M128.07 177.53a1.456 1.456 0 01-.392.135l-1.119.312a32.72 32.72 0 01-1.79.424c-.704.144-1.503.344-2.399.487a60.988 60.988 0 01-6.299.8 72.24 72.24 0 01-7.786.184 73.232 73.232 0 01-7.754-.72c-2.398-.367-4.485-.799-6.235-1.255-.88-.2-1.663-.447-2.399-.647-.735-.2-1.279-.384-1.758-.552l-1.095-.384a2.68 2.68 0 01-.376-.159c.136.007.27.034.4.079l1.119.312a35.65 35.65 0 001.775.48c.695.168 1.478.4 2.398.583 1.75.416 3.86.8 6.219 1.168 2.358.367 4.964.575 7.714.679 2.75.104 5.364 0 7.738-.152a62.935 62.935 0 006.283-.727c.896-.12 1.695-.288 2.399-.416a41.63 41.63 0 001.798-.36l1.143-.232a1.53 1.53 0 01.416-.039z" fill="#263238"/><path opacity=".3" d="M92.33 176.81a4.128 4.128 0 013.293-1.647c1.276.002 2.545.177 3.774.52a57.184 57.184 0 0026.14-.36 2.794 2.794 0 01-1.463 2.614 8.786 8.786 0 01-3.046.84c-9.593 1.798-19.521.631-28.778-1.599" fill="#000"/><path d="M56.637 34.811a.975.975 0 01-.552-.871v-4.796a.975.975 0 011.24-.936 3.014 3.014 0 002.397-.36 2.703 2.703 0 001.223-1.766 2.773 2.773 0 00-.495-2.11 3.102 3.102 0 00-1.99-1.32 3.637 3.637 0 00-3.806 2.462.97.97 0 01-1.847-.591 5.596 5.596 0 015.956-3.79 5.003 5.003 0 013.285 2.135 4.501 4.501 0 01-1.383 6.603 5.108 5.108 0 01-2.67.744v3.725a.967.967 0 01-.967.967.944.944 0 01-.391-.096zm1.34 2.039a.799.799 0 11-1.598 0 .799.799 0 011.598 0z" fill="#657C90"/><path d="M81.4 47.38s-.24 0-.631.2a2.974 2.974 0 00-1.351 1.151 2.75 2.75 0 00-.416 1.151c-.052.47.03.944.24 1.367a2.854 2.854 0 002.606 1.6 2.83 2.83 0 002.398-1.887c.163-.444.19-.925.08-1.384-.1-.4-.286-.773-.543-1.095a2.997 2.997 0 00-1.48-.99c-.407-.113-.655-.097-.655-.12a.457.457 0 01.176 0 .975.975 0 01.216 0c.096-.01.192-.01.288 0a2.974 2.974 0 011.599.974c.286.332.491.727.6 1.152a2.639 2.639 0 01-.065 1.486 2.98 2.98 0 01-.935 1.352 2.83 2.83 0 01-1.599.679 2.877 2.877 0 01-1.695-.48 3.038 3.038 0 01-1.087-1.239 2.511 2.511 0 01-.24-1.463c.057-.436.216-.852.464-1.215a2.913 2.913 0 011.439-1.15c.09-.035.184-.062.28-.08a.738.738 0 01.208 0c.048-.017.103-.017.103-.009zm7.061 7.019s-.144 0-.391.136c-.332.159-.61.412-.8.727a1.598 1.598 0 00-.096 1.599 1.646 1.646 0 003.078-.184 1.599 1.599 0 00-.32-1.607 1.863 1.863 0 00-.903-.623c-.264-.072-.416-.072-.416-.088a.8.8 0 01.432 0c.394.09.748.306 1.007.615.182.21.313.46.384.728.098.312.098.647 0 .96a1.91 1.91 0 01-1.639 1.302 1.935 1.935 0 01-1.79-1.103 1.655 1.655 0 01-.153-.943c.037-.287.14-.561.304-.8.217-.336.541-.59.92-.72a.872.872 0 01.383 0zm-8.227-21.408v-2.23c0-.304 0-.608-.064-.944-.064-.335-.056-.711-.088-1.103a4.09 4.09 0 00-.08-.607c-.04-.208-.08-.416-.12-.64a21.433 21.433 0 00-1.942-6.115 22.185 22.185 0 00-5.172-6.771l-.904-.8c-.32-.247-.663-.479-.999-.727l-.512-.36a3.996 3.996 0 00-.527-.351l-1.111-.648-.568-.32-.6-.271-1.215-.56c-.415-.176-.855-.296-1.286-.456l-.656-.223-.328-.104-.343-.08a21.006 21.006 0 00-2.79-.544c-.48-.056-.96-.144-1.447-.176h-2.23l-.752.056c-.496.048-1.007.064-1.51.128a23.68 23.68 0 00-3.039.64l-.799.216-.392.063-.367.144-1.495.584c-.488.216-.968.48-1.447.72-.24.127-.496.231-.728.383l-.695.44a24.92 24.92 0 00-2.67 1.966l-1.231 1.135-.312.296-.28.32-.567.64-.56.647-.511.695-.504.704-.248.352a5.8 5.8 0 00-.224.375l-.88 1.511-.734 1.599A22.135 22.135 0 0036.21 36.62l.48 1.663c.208.552.424 1.087.631 1.599l.16.407.192.384.392.8.392.799.455.727.464.72.224.36.264.335 1.03 1.335c.751.83 1.552 1.612 2.399 2.343l.616.543c.207.176.44.32.655.488.448.312.871.64 1.327.935l1.383.8.288.215.36.168.719.328c.947.432 1.922.8 2.918 1.103.495.136.99.24 1.486.36l.728.168c.248.056.496.072.743.104l1.471.191c.488.049.976 0 1.455.056.944.038 1.89.011 2.83-.08h.352l.343-.055.68-.12c.448-.088.903-.144 1.335-.248l1.295-.36.632-.176.615-.24 1.2-.463c.198-.073.39-.161.575-.264l.56-.28c.367-.192.743-.367 1.094-.56l1.024-.647a22.232 22.232 0 006.155-5.883l.544-.752.447-.8.44-.743c.072-.128.144-.24.208-.367l.168-.368c.234-.496.45-.967.647-1.415.2-.456.328-.903.48-1.32.072-.215.144-.415.216-.615.07-.19.125-.385.168-.583.096-.384.175-.744.255-1.08.08-.335.16-.639.216-.919.056-.28.072-.551.104-.799.064-.458.112-.81.144-1.055 0-.24.064-.36.064-.36s0 .12-.04.36-.072.6-.128 1.063c0 .232-.056.496-.096.8-.04.303-.128.59-.2.927-.072.335-.16.695-.248 1.079a4.43 4.43 0 01-.167.591c-.072.2-.136.4-.208.616-.152.416-.28.871-.472 1.327l-.647 1.423-.168.375c-.064.128-.136.24-.208.368l-.432.752c-.144.255-.296.511-.455.8-.16.287-.352.503-.536.799a22.384 22.384 0 01-6.18 5.939l-1.023.647c-.351.2-.727.376-1.103.568l-.56.288a4.93 4.93 0 01-.583.264l-1.207.471c-.2.08-.4.168-.607.24l-.64.176-1.303.368c-.44.112-.895.168-1.351.255l-.68.12-.351.056h-.344c-.953.105-1.912.145-2.87.12-.48 0-.975 0-1.463-.056l-1.478-.264c-.248 0-.504-.055-.752-.103l-.735-.176c-.496-.12-1-.216-1.495-.36a23.56 23.56 0 01-2.926-1.103l-.728-.336c-.12-.056-.24-.104-.36-.168l-.351-.2-1.399-.799c-.448-.288-.88-.623-1.327-.943a7.863 7.863 0 01-.663-.488l-.624-.544a25.57 25.57 0 01-2.398-2.398L39.68 44.51l-.264-.343-.232-.36-.416-.728-.463-.735-.4-.8-.392-.799-.2-.392-.16-.407a123.02 123.02 0 00-.639-1.639l-.504-1.623a22.24 22.24 0 011.112-14.173c.247-.544.487-1.08.735-1.599l.911-1.559c.08-.128.144-.255.224-.375l.256-.36.512-.703.511-.704.568-.655.567-.648.288-.32.312-.295 1.239-1.168a25.378 25.378 0 012.718-1.958l.703-.448c.232-.144.488-.256.728-.383.487-.24.967-.504 1.463-.72l1.51-.584.368-.151.384-.104.8-.216a23.296 23.296 0 013.07-.64c.51-.064 1.022-.088 1.526-.128l.8-.056h2.246c.487 0 .975.12 1.455.168.949.124 1.889.31 2.813.56l.344.08.328.112.663.224c.432.16.872.287 1.287.463l1.231.56.6.28c.2.104.384.215.576.327l1.119.656c.185.102.362.22.527.352l.512.367c.336.248.68.48 1 .728l.91.8a22.176 22.176 0 015.18 6.826 20.966 20.966 0 011.983 6.163c.04.224.08.44.112.648.042.2.069.403.08.607 0 .39.024.757.072 1.104 0 .343.056.655.056.95v1.871c0 .272-.176.408-.176.408zm135.789 85.914V93.402h-.886v25.509l.886-.006z" fill="#263238"/><path d="M210.52 87.183l-3.293 14.703h16.71l-3.759-14.658-9.658-.045z" fill="#FAFAFA"/><path d="M207.108 106.239c0 .029.165-.148.412-.423l.964-1.076.965-1.077.297-.323a.593.593 0 01.117-.111.673.673 0 01-.095.131 68.699 68.699 0 01-1.232 1.429c-.375.423-.722.798-.987 1.063a5.687 5.687 0 01-.315.306.99.99 0 01-.096.075.068.068 0 01-.031.011c-.004.004.001-.007.001-.004v-.001zm1.974 3.601c-.017-.01.765-1.41 1.747-3.129.982-1.718 1.792-3.101 1.81-3.092.019.008-.765 1.409-1.746 3.129-.982 1.72-1.792 3.101-1.811 3.092zm14.65-4.6c-.39-.269-.769-.562-1.128-.869a12.831 12.831 0 01-1.077-.927c.389.269.769.562 1.128.87.374.287.736.599 1.076.926h.001zm.002 3.939a.319.319 0 01-.056-.054l-.153-.165c-.131-.141-.322-.352-.564-.606-.474-.51-1.143-1.202-1.884-1.965a65.436 65.436 0 01-1.871-1.981 14.897 14.897 0 01-.543-.623l-.141-.173a.315.315 0 01-.045-.065c.02.016.04.035.056.055l.152.165c.132.141.322.352.565.606.474.51 1.144 1.203 1.885 1.965.74.763 1.41 1.461 1.871 1.981.232.26.423.473.541.623l.142.174c.017.018.032.04.045.063zm-13.288-7.289c-.021 0 .452-3.295 1.055-7.354.604-4.058 1.11-7.346 1.129-7.343.02.003-.453 3.295-1.055 7.354-.603 4.06-1.109 7.346-1.129 7.343zm2.224-16.093c-.018.01-.362-.665-.769-1.507-.406-.841-.721-1.53-.705-1.538.015-.008.363.666.769 1.507.406.842.724 1.53.705 1.538zm2.382-5.104c.02 0 .037 1.17.037 2.612 0 1.442-.017 2.604-.037 2.604-.019 0-.036-1.169-.036-2.61 0-1.443.022-2.606.036-2.606zm3.43 1.518c.02 0-.232.72-.564 1.592-.332.871-.614 1.572-.632 1.565-.018-.007.234-.72.565-1.592.33-.873.613-1.572.632-1.565h-.001zm-2.459 180.796v-25.504h-.886v25.509l.886-.005z" fill="#263238"/><path d="M210.52 231.284l-3.293 14.704h16.71l-3.759-14.658-9.658-.046z" fill="#FAFAFA"/><path d="M207.108 250.34c0 .029.165-.148.412-.423l.964-1.076.965-1.077.297-.323a.593.593 0 01.117-.111.673.673 0 01-.095.131 68.699 68.699 0 01-1.232 1.429c-.375.423-.722.798-.987 1.063a5.687 5.687 0 01-.315.306.99.99 0 01-.096.075.068.068 0 01-.031.011c-.004.004.001-.007.001-.004v-.001zm1.974 3.601c-.017-.01.765-1.41 1.747-3.128.982-1.719 1.792-3.101 1.81-3.093.019.008-.765 1.41-1.746 3.13-.982 1.719-1.792 3.101-1.811 3.091zm14.65-4.6c-.39-.269-.769-.561-1.128-.869a12.649 12.649 0 01-1.077-.927c.389.27.769.562 1.128.87.374.287.736.599 1.076.927h.001v-.001zm.002 3.939a.319.319 0 01-.056-.054l-.153-.165c-.131-.141-.322-.352-.564-.606-.474-.51-1.143-1.202-1.884-1.965a63.127 63.127 0 01-1.871-1.981 14.897 14.897 0 01-.543-.623l-.141-.173a.27.27 0 01-.045-.065c.02.016.04.035.056.055l.152.165c.132.141.322.353.565.607.474.51 1.144 1.202 1.885 1.965.74.762 1.41 1.46 1.871 1.98.232.26.423.473.541.624l.142.173a.36.36 0 01.045.063zm-13.288-7.288c-.021 0 .452-3.296 1.055-7.355.604-4.058 1.11-7.345 1.129-7.343.02.003-.453 3.295-1.055 7.355-.603 4.06-1.109 7.346-1.129 7.343zm2.224-16.093c-.018.01-.362-.666-.769-1.507-.406-.842-.721-1.53-.705-1.538.015-.009.363.665.769 1.507.406.841.724 1.529.705 1.538zm2.382-5.105c.02 0 .037 1.171.037 2.613s-.017 2.603-.037 2.603c-.019 0-.036-1.168-.036-2.61s.022-2.605.036-2.605v-.001zm3.43 1.519c.02 0-.232.72-.564 1.591-.332.871-.614 1.572-.632 1.565-.018-.007.234-.719.565-1.592.33-.872.613-1.572.632-1.564h-.001zm63.806-107.408V93.402h-.886v25.509l.886-.006z" fill="#263238"/><path d="M276.785 87.183l-3.293 14.703h16.711l-3.759-14.658-9.659-.045z" fill="#657C90"/><path d="M273.374 106.239c0 .029.165-.148.412-.423l.964-1.076.965-1.077.296-.323a.593.593 0 01.117-.111.712.712 0 01-.094.131 73.403 73.403 0 01-1.232 1.429 25.76 25.76 0 01-.988 1.063 5.735 5.735 0 01-.314.306 1.13 1.13 0 01-.096.075.072.072 0 01-.031.011c-.005.004.001-.007.001-.004v-.001zm1.974 3.601c-.017-.01.765-1.41 1.747-3.129.982-1.718 1.791-3.101 1.81-3.092.018.008-.765 1.409-1.747 3.129-.982 1.72-1.792 3.101-1.81 3.092zm14.649-4.6a13.97 13.97 0 01-1.128-.869 12.979 12.979 0 01-1.076-.927c.389.269.768.562 1.127.87.375.287.736.599 1.077.926h.001-.001zm.003 3.939a.364.364 0 01-.057-.054l-.152-.165c-.131-.141-.322-.352-.565-.606-.474-.51-1.142-1.202-1.883-1.965a65.436 65.436 0 01-1.871-1.981 14.18 14.18 0 01-.543-.623l-.142-.173a.418.418 0 01-.045-.065.37.37 0 01.057.055l.152.165c.131.141.322.352.564.606.474.51 1.145 1.203 1.885 1.965a65.436 65.436 0 011.871 1.981c.233.26.424.473.542.623l.141.174c.018.018.033.04.045.063H290zm-13.288-7.289c-.022 0 .451-3.295 1.055-7.354.604-4.058 1.109-7.346 1.129-7.343.02.003-.453 3.295-1.056 7.354-.602 4.06-1.108 7.346-1.128 7.343zm2.224-16.093c-.019.01-.363-.665-.769-1.507-.406-.841-.721-1.53-.706-1.538.016-.008.363.666.769 1.507.407.842.724 1.53.706 1.538zm2.382-5.104c.02 0 .037 1.17.037 2.612 0 1.442-.017 2.604-.037 2.604-.02 0-.037-1.169-.037-2.61 0-1.443.023-2.606.037-2.606zm3.43 1.518c.02 0-.233.72-.564 1.592-.332.871-.614 1.572-.632 1.565-.019-.007.234-.72.564-1.592.33-.873.614-1.572.632-1.565zm-2.46 180.796v-25.504h-.886v25.509l.886-.005z" fill="#263238"/><path d="M276.785 231.284l-3.293 14.704h16.711l-3.759-14.658-9.659-.046z" fill="#657C90"/><path d="M273.374 250.34c0 .029.165-.148.412-.423l.964-1.076.965-1.077.296-.323a.593.593 0 01.117-.111.712.712 0 01-.094.131 73.403 73.403 0 01-1.232 1.429 25.76 25.76 0 01-.988 1.063 5.735 5.735 0 01-.314.306 1.13 1.13 0 01-.096.075.072.072 0 01-.031.011c-.005.004.001-.007.001-.004v-.001zm1.974 3.601c-.017-.01.765-1.41 1.747-3.128.982-1.719 1.791-3.101 1.81-3.093.018.008-.765 1.41-1.747 3.13-.982 1.719-1.792 3.101-1.81 3.091zm14.649-4.6a13.745 13.745 0 01-1.128-.869 12.792 12.792 0 01-1.076-.927c.389.27.768.562 1.127.87.375.287.736.599 1.077.927h.001l-.001-.001zm.003 3.939a.364.364 0 01-.057-.054l-.152-.165c-.131-.141-.322-.352-.565-.606-.474-.51-1.142-1.202-1.883-1.965a63.127 63.127 0 01-1.871-1.981 14.18 14.18 0 01-.543-.623l-.142-.173a.34.34 0 01-.045-.065.37.37 0 01.057.055l.152.165c.131.141.322.353.564.607.474.51 1.145 1.202 1.885 1.965.741.762 1.411 1.46 1.871 1.98.233.26.424.473.542.624l.141.173c.018.019.033.04.045.063H290zm-13.288-7.288c-.022 0 .451-3.296 1.055-7.355.604-4.058 1.109-7.345 1.129-7.343.02.003-.453 3.295-1.056 7.355-.602 4.06-1.108 7.346-1.128 7.343zm2.224-16.093c-.019.01-.363-.666-.769-1.507-.406-.842-.721-1.53-.706-1.538.016-.009.363.665.769 1.507.407.841.724 1.529.706 1.538zm2.382-5.105c.02 0 .037 1.171.037 2.613s-.017 2.603-.037 2.603c-.02 0-.037-1.168-.037-2.61s.023-2.605.037-2.605v-.001zm3.43 1.519c.02 0-.233.72-.564 1.591-.332.871-.614 1.572-.632 1.565-.019-.007.234-.719.564-1.592.33-.872.614-1.572.632-1.564zm61.704-107.408V93.402h-.886v25.509l.886-.006z" fill="#263238"/><path d="M340.949 87.183l-3.293 14.703h16.711l-3.759-14.658-9.659-.045z" fill="#455A64"/><path d="M337.538 106.239c0 .029.165-.148.412-.423l.964-1.076.965-1.077.296-.323a.593.593 0 01.117-.111.712.712 0 01-.094.131 73.403 73.403 0 01-1.232 1.429 25.76 25.76 0 01-.988 1.063 5.735 5.735 0 01-.314.306 1.13 1.13 0 01-.096.075.068.068 0 01-.031.011c-.004.004.001-.007.001-.004v-.001zm1.974 3.601c-.017-.01.765-1.41 1.747-3.129.982-1.718 1.791-3.101 1.81-3.092.018.008-.765 1.409-1.747 3.129-.982 1.72-1.792 3.101-1.81 3.092zm14.649-4.6a13.954 13.954 0 01-1.127-.869 12.831 12.831 0 01-1.077-.927c.389.269.768.562 1.127.87.375.287.736.599 1.077.926h.001-.001zm.003 3.939a.364.364 0 01-.057-.054l-.152-.165c-.131-.141-.322-.352-.565-.606-.474-.51-1.142-1.202-1.883-1.965a65.436 65.436 0 01-1.871-1.981 14.18 14.18 0 01-.543-.623l-.142-.173a.418.418 0 01-.045-.065.37.37 0 01.057.055l.152.165c.131.141.322.352.564.606.475.51 1.145 1.203 1.885 1.965a65.436 65.436 0 011.871 1.981c.233.26.424.473.542.623l.141.174c.018.018.033.04.046.063zm-13.288-7.289c-.022 0 .451-3.295 1.055-7.354.604-4.058 1.109-7.346 1.129-7.343.02.003-.453 3.295-1.056 7.354-.602 4.06-1.108 7.346-1.128 7.343zm2.224-16.093c-.018.01-.363-.665-.769-1.507-.406-.841-.721-1.53-.705-1.538.015-.008.362.666.769 1.507.406.842.723 1.53.705 1.538zm2.382-5.104c.02 0 .037 1.17.037 2.612 0 1.442-.017 2.604-.037 2.604-.02 0-.037-1.169-.037-2.61 0-1.443.023-2.606.037-2.606zm3.43 1.518c.02 0-.233.72-.564 1.592-.332.871-.614 1.572-.632 1.565-.019-.007.234-.72.564-1.592.33-.873.614-1.572.632-1.565zm-2.46 180.796v-25.504h-.886v25.509l.886-.005z" fill="#263238"/><path d="M340.949 231.284l-3.293 14.704h16.711l-3.759-14.658-9.659-.046z" fill="#455A64"/><path d="M337.538 250.34c0 .029.165-.148.412-.423l.964-1.076.965-1.077.296-.323a.593.593 0 01.117-.111.712.712 0 01-.094.131 73.403 73.403 0 01-1.232 1.429 25.76 25.76 0 01-.988 1.063 5.735 5.735 0 01-.314.306 1.13 1.13 0 01-.096.075.068.068 0 01-.031.011c-.004.004.001-.007.001-.004v-.001zm1.974 3.601c-.017-.01.765-1.41 1.747-3.128.982-1.719 1.791-3.101 1.81-3.093.018.008-.765 1.41-1.747 3.13-.982 1.719-1.792 3.101-1.81 3.091zm14.649-4.6a13.73 13.73 0 01-1.127-.869 12.649 12.649 0 01-1.077-.927c.389.27.768.562 1.127.87.375.287.736.599 1.077.927h.001l-.001-.001zm.003 3.939a.364.364 0 01-.057-.054l-.152-.165c-.131-.141-.322-.352-.565-.606-.474-.51-1.142-1.202-1.883-1.965a63.127 63.127 0 01-1.871-1.981 14.18 14.18 0 01-.543-.623l-.142-.173a.34.34 0 01-.045-.065.37.37 0 01.057.055l.152.165c.131.141.322.353.564.607.475.51 1.145 1.202 1.885 1.965.741.762 1.411 1.46 1.871 1.98.233.26.424.473.542.624l.141.173c.018.019.033.04.046.063zm-13.288-7.288c-.022 0 .451-3.296 1.055-7.355.604-4.058 1.109-7.345 1.129-7.343.02.003-.453 3.295-1.056 7.355-.602 4.06-1.108 7.346-1.128 7.343zm2.224-16.093c-.018.01-.363-.666-.769-1.507-.406-.842-.721-1.53-.705-1.538.015-.009.362.665.769 1.507.406.841.723 1.529.705 1.538zm2.382-5.105c.02 0 .037 1.171.037 2.613s-.017 2.603-.037 2.603c-.02 0-.037-1.168-.037-2.61s.023-2.605.037-2.605v-.001zm3.43 1.519c.02 0-.233.72-.564 1.591-.332.871-.614 1.572-.632 1.565-.019-.007.234-.719.564-1.592.33-.872.614-1.572.632-1.564z" fill="#263238"/><path d="M226.651 168.56a11.418 11.418 0 00-9.875-13.1 11.427 11.427 0 00-10.662 4.642 11.42 11.42 0 002.863 16.154l-.444 2.845 9.884 1.541s.309-1.587.553-3.01a11.415 11.415 0 007.681-9.072z" fill="#657C90"/><path d="M216.931 180.409v-.142c0-.093.009-.236.018-.417a78.558 78.558 0 01.734-7.479c.088-.619.189-1.264.305-1.936.058-.335.119-.677.181-1.026a3.56 3.56 0 01.298-1.046c.088-.17.214-.316.369-.427a.717.717 0 01.266-.126.728.728 0 01.294-.013c.098.024.19.069.268.133a.676.676 0 01.187.234c.094.179.136.381.121.582a1.33 1.33 0 01-.653.979 1.992 1.992 0 01-1.189.295 2.163 2.163 0 01-1.178-.435 2.28 2.28 0 01-.742-1.043 2.72 2.72 0 01-.144-1.305 1.99 1.99 0 01.191-.652.947.947 0 01.489-.49.617.617 0 01.356-.016c.115.03.222.086.312.163.177.159.297.372.344.605.045.229.057.463.034.695-.019.232-.05.463-.093.692a4.665 4.665 0 01-.442 1.336c-.213.434-.544.8-.954 1.056a2.079 2.079 0 01-.674.262 1.607 1.607 0 01-.72-.026 1.498 1.498 0 01-.616-.364 1.953 1.953 0 01-.403-.582 4.299 4.299 0 01-.335-1.347 9.312 9.312 0 01-.049-.682 4.111 4.111 0 01.012-.684c.022-.232.117-.451.269-.628a.728.728 0 01.289-.197.48.48 0 01.35 0c.11.046.203.124.268.223.063.095.111.198.144.307.063.211.095.431.094.652.02.867-.191 1.744-.703 2.413a2.44 2.44 0 01-.969.752c-.372.167-.79.204-1.186.106a1.581 1.581 0 01-.918-.698c-.212-.32-.315-.7-.294-1.083.01-.187.055-.37.132-.54a.829.829 0 01.372-.403.426.426 0 01.512.122c.105.144.17.313.188.49.028.335.015.672-.039 1.005l-.1.952c-.261 2.482-.51 4.487-.706 5.873a66.063 66.063 0 01-.317 2.002c-.016.096-.027.139-.027.139s0-.048.018-.141c.017-.093.037-.233.065-.412.055-.364.135-.899.228-1.591.188-1.383.428-3.388.682-5.873l.096-.953c.052-.327.064-.659.036-.988a.92.92 0 00-.174-.46.357.357 0 00-.436-.105.774.774 0 00-.338.372 1.43 1.43 0 00-.124.514c-.018.368.081.733.284 1.041.198.325.512.564.878.667a1.76 1.76 0 001.142-.104c.37-.159.693-.411.938-.731.489-.653.705-1.511.684-2.362a2.18 2.18 0 00-.09-.632.72.72 0 00-.366-.479.491.491 0 00-.549.163 1.033 1.033 0 00-.248.585 3.739 3.739 0 00-.012.669c0 .225.023.452.048.677.036.455.146.901.326 1.32.092.209.222.399.385.56.164.159.363.277.582.342a1.697 1.697 0 001.328-.226c.397-.249.717-.604.923-1.025.21-.411.357-.851.436-1.305.075-.452.152-.917.059-1.354a1.01 1.01 0 00-.317-.561.576.576 0 00-.587-.137.859.859 0 00-.44.442 1.9 1.9 0 00-.183.621c-.058.428-.01.864.139 1.27.139.398.39.748.724 1.008.33.251.728.398 1.142.422.4.025.799-.073 1.142-.282a1.261 1.261 0 00.618-.928 1.008 1.008 0 00-.111-.542.621.621 0 00-.406-.326.662.662 0 00-.506.127 1.12 1.12 0 00-.349.403c-.15.325-.249.67-.294 1.025l-.184 1.026a84.17 84.17 0 00-1.085 9.409c-.011.183-.019.327-.026.418a.834.834 0 01-.024.155z" fill="#fff"/><path d="M209.734 188.129c.24.219.449.47.619.747a.74.74 0 00.538.369l2.209.342a.758.758 0 00.669-.231c.199-.216.533-.454.846-.47l-4.881-.757z" fill="#263238"/><path d="M208.301 181.61c0 .044-.031 3.573-.039 4.922a1.645 1.645 0 00.719 1.391 1.5 1.5 0 00.607.235l4.829.749s1.261.196 1.703-.76c.465-1.008 1.677-5.057 1.677-5.057l-9.496-1.48z" fill="#E0E0E0"/><path d="M207.881 186.182l.004-.025a.262.262 0 01.032-.09.267.267 0 01.064-.07.25.25 0 01.181-.044l8.418 1.276a.241.241 0 01.202.275l-.003.026a.242.242 0 01-.275.202l-8.42-1.276a.248.248 0 01-.159-.096.233.233 0 01-.04-.086.235.235 0 01-.005-.095l.001.003z" fill="#E0E0E0"/><path d="M216.498 187.732a.288.288 0 00.175-.05.253.253 0 00.094-.193.232.232 0 00-.143-.233c-.457-.077-1.142-.163-1.969-.29l-6.505-.979a.193.193 0 00-.098.01.206.206 0 00-.127.141.326.326 0 00-.008.103.2.2 0 00.038.09.202.202 0 00.074.062c.072.021.145.035.219.042l.914.139 1.726.264 2.921.465 1.97.312.535.088.138.026.046.011h-.047l-.141-.018-.536-.073-1.973-.285-2.925-.434-1.727-.26-.914-.137-.116-.018a.417.417 0 01-.125-.031.299.299 0 01-.109-.087.304.304 0 01-.055-.128.378.378 0 01.01-.134.284.284 0 01.327-.214l6.501.997c.832.134 1.502.23 1.97.327a.257.257 0 01.163.265.253.253 0 01-.031.114.277.277 0 01-.078.089.215.215 0 01-.095.032.21.21 0 01-.099-.013z" fill="#263238"/><path d="M207.868 185.069l.004-.025a.242.242 0 01.275-.203l8.775 1.33a.257.257 0 01.089.032.267.267 0 01.07.064.253.253 0 01.045.181l-.004.026a.242.242 0 01-.275.202l-8.775-1.33a.24.24 0 01-.159-.096.248.248 0 01-.045-.181z" fill="#E0E0E0"/><path d="M216.847 186.674a.275.275 0 00.179-.056.25.25 0 00.09-.202.235.235 0 00-.043-.141.236.236 0 00-.12-.086l-2.048-.298-6.757-1.012a.193.193 0 00-.101.011.198.198 0 00-.126.151.242.242 0 000 .107.205.205 0 00.047.09.205.205 0 00.084.055c.065.017.163.027.233.04l.95.143 1.794.274 3.036.47 2.044.326.556.092.144.026a.17.17 0 01.049.013.434.434 0 01-.051 0l-.145-.016-.558-.077-2.049-.299-3.049-.45-1.794-.271-.948-.142c-.083-.014-.155-.019-.248-.042a.283.283 0 01-.184-.206.33.33 0 01.06-.269.273.273 0 01.117-.084.273.273 0 01.144-.015l6.752 1.029c.865.135 1.561.243 2.048.326a.258.258 0 01.186.258.275.275 0 01-.105.215.215.215 0 01-.187.04z" fill="#263238"/><path d="M207.923 183.966l.004-.025a.24.24 0 01.276-.204l9.002 1.364a.242.242 0 01.203.275l-.004.026a.242.242 0 01-.275.203l-9.002-1.365a.238.238 0 01-.159-.095.222.222 0 01-.04-.085.228.228 0 01-.005-.094z" fill="#E0E0E0"/><path d="M217.13 185.604a.27.27 0 00.183-.058.253.253 0 00.086-.208.233.233 0 00-.053-.145.232.232 0 00-.133-.077l-2.098-.304-6.917-1.037a.205.205 0 00-.104.012.192.192 0 00-.083.063.204.204 0 00-.043.096.246.246 0 000 .108.196.196 0 00.142.14c.073.015.163.026.243.039l.971.147 1.837.281 3.099.479 2.093.327.57.094.147.026.05.012h-.05l-.151-.018-.571-.079-2.094-.303-3.1-.463-1.837-.276-.97-.145c-.085-.015-.164-.023-.253-.041a.284.284 0 01-.199-.197.318.318 0 010-.144.299.299 0 01.058-.134.3.3 0 01.119-.089.296.296 0 01.147-.017l6.914 1.061 2.095.326a.254.254 0 01.204.251.287.287 0 01-.1.224.223.223 0 01-.202.049z" fill="#263238"/><path d="M207.911 182.853l.004-.026a.242.242 0 01.275-.203l9.368 1.421a.217.217 0 01.089.032.237.237 0 01.109.148.253.253 0 01.005.095l-.004.025a.243.243 0 01-.277.204l-9.365-1.42a.241.241 0 01-.202-.274l-.002-.002z" fill="#E0E0E0"/><path d="M217.478 184.545a.25.25 0 00.204-.076.25.25 0 00.066-.207.235.235 0 00-.068-.144.23.23 0 00-.146-.064l-2.176-.317-7.178-1.075a.199.199 0 00-.193.08.259.259 0 00-.031.214.205.205 0 00.163.13l.256.038 1.008.153 1.904.292 3.224.498 2.173.342.59.097.152.027.052.012a.151.151 0 01-.052 0l-.163-.02-.592-.081-2.176-.317-3.227-.48-1.904-.287-1.008-.151-.258-.04a.285.285 0 01-.225-.182.295.295 0 01-.013-.15.282.282 0 01.174-.234.283.283 0 01.152-.019l7.178 1.098 2.173.342a.257.257 0 01.233.24.283.283 0 01-.018.129.293.293 0 01-.075.106.226.226 0 01-.146.055.121.121 0 01-.053-.009z" fill="#263238"/><path d="M207.586 177.272c-.015.09-.143 2.232-.209 3.333a1.322 1.322 0 00.441 1.065l.444.395 9.338 1.449.535-.239a1.319 1.319 0 00.745-.895l.785-3.234-12.079-1.874z" fill="#657C90"/><path opacity=".3" d="M208.398 186.488c.868.344 1.762.499 2.749.652.798.119 1.576.263 2.447.379.637.086 1.224.143 1.86.215.326.036.685.008.76-.046l-7.816-1.2zm-.164-1.142c.938.354 1.903.522 2.968.682.86.13 1.7.282 2.635.409.685.093 1.319.163 2.006.237.346.04.737.018.816-.036l-8.425-1.292zm.168-1.084c.938.354 1.903.522 2.968.682.86.131 1.698.283 2.634.41.686.093 1.32.163 2.005.236.348.041.738.018.816-.036l-8.423-1.292zm.164-1.078c.938.354 1.903.522 2.968.682.86.131 1.7.282 2.635.409.686.093 1.319.164 2.006.237.346.041.738.018.816-.036l-8.425-1.292z" fill="#000"/><path d="M210.162 176.066a.833.833 0 01-.126-.065c-.078-.046-.2-.108-.347-.202a9.867 9.867 0 01-1.201-.87c-.564-.471-1.077-1-1.53-1.579a10.464 10.464 0 01-2.144-4.894 10.701 10.701 0 01.052-3.666c.03-.163.067-.303.088-.393.01-.046.022-.091.036-.135a.64.64 0 01-.021.138c-.013.092-.046.224-.072.397-.081.485-.13.976-.146 1.468a10.87 10.87 0 00.895 4.744 10.93 10.93 0 002.88 3.875c.373.321.767.617 1.179.887.145.098.263.163.339.215.042.024.081.05.118.08zm-4.359-13.878a2.163 2.163 0 01-.189.56 2.176 2.176 0 01-.266.53c.036-.195.1-.384.189-.561.065-.187.154-.365.266-.529zm19.184 8.802a.578.578 0 01.036-.116c.029-.083.07-.191.119-.327l.09-.234c.029-.087.054-.183.085-.286.058-.205.14-.435.191-.7.027-.132.058-.269.091-.413.033-.143.046-.295.072-.451.055-.312.073-.653.103-1.004a11.02 11.02 0 00-.723-4.535c-.139-.326-.26-.643-.411-.922-.072-.14-.134-.28-.207-.406l-.216-.364c-.13-.236-.279-.429-.398-.607-.062-.088-.116-.163-.171-.244l-.163-.196-.216-.272a.968.968 0 01-.07-.098.483.483 0 01.083.086l.229.264c.049.058.103.123.163.191.06.069.113.163.176.242.147.194.284.395.41.603l.221.364c.077.127.139.266.214.406.154.279.279.597.419.927.571 1.452.819 3.01.728 4.568-.02.338-.057.675-.111 1.01-.028.163-.044.31-.077.455l-.097.413a6.844 6.844 0 01-.203.701c-.032.101-.06.197-.093.284l-.094.233-.136.326a.922.922 0 01-.044.102z" fill="#263238"/><path opacity=".2" d="M216.19 158.632c-.122-.504-.592-.932-1.186-1.214a3.589 3.589 0 00-2.71-.117c-2.61.9-4.225 2.227-5.496 4.827-.43.879-.815 2.387-.497 3.364a1.841 1.841 0 00.956 1.142c1.215.568 2.419-.512 2.998-1.631.539-1.045.865-2.268 1.782-3.005.755-.606 1.766-.759 2.651-1.152.884-.393 1.729-1.276 1.502-2.214zm4.587.264c-.303-.786-1.305-1.248-1.957-1.067a1.85 1.85 0 00-.722.416 1.85 1.85 0 00-.469.689 1.702 1.702 0 00.476 1.843 1.612 1.612 0 001.886.111c.568-.38 1.033-1.361.786-1.992z" fill="#fff"/><path opacity=".3" d="M207.586 177.272c-.015.09-.143 2.232-.209 3.333a1.322 1.322 0 00.441 1.065l.444.395 9.338 1.449.535-.239a1.319 1.319 0 00.745-.895l.785-3.234-12.079-1.874z" fill="#000"/><path d="M219.739 179.156c0 .023-2.715-.378-6.054-.897-3.34-.519-6.046-.956-6.037-.979.01-.023 2.715.379 6.056.897 3.341.519 6.038.956 6.035.979zm-1.156 3.638c0 .023-2.504-.347-5.584-.825-3.08-.478-5.576-.883-5.573-.906.003-.023 2.502.346 5.584.824s5.576.884 5.573.907z" fill="#263238"/><path d="M292.916 168.56a11.418 11.418 0 00-15.84-12.238 11.416 11.416 0 00-5.761 15.36 11.426 11.426 0 003.927 4.574l-.444 2.845 9.885 1.541s.308-1.587.553-3.01a11.411 11.411 0 007.68-9.072z" fill="#455A64"/><path d="M283.196 180.409v-.142c0-.093.01-.236.018-.417a79.1 79.1 0 01.734-7.479c.088-.619.19-1.264.305-1.936l.181-1.026c.046-.362.147-.715.299-1.046.087-.17.214-.316.369-.427a.73.73 0 01.559-.139.686.686 0 01.455.367c.095.179.137.381.121.582a1.326 1.326 0 01-.652.979 1.994 1.994 0 01-1.19.295 2.163 2.163 0 01-1.178-.435 2.287 2.287 0 01-.742-1.043 2.731 2.731 0 01-.143-1.305c.025-.226.09-.447.19-.652a.953.953 0 01.49-.49.617.617 0 01.356-.016c.115.03.221.086.311.163.177.159.298.372.344.605.046.229.057.463.035.695-.019.232-.05.463-.093.692-.08.465-.229.916-.442 1.336-.214.434-.544.8-.955 1.056a2.061 2.061 0 01-.674.262 1.603 1.603 0 01-.719-.026 1.501 1.501 0 01-.617-.364 1.971 1.971 0 01-.403-.582 4.325 4.325 0 01-.334-1.347 8.789 8.789 0 01-.049-.682 4.222 4.222 0 01.011-.684 1.13 1.13 0 01.27-.628.731.731 0 01.288-.197.483.483 0 01.351 0 .601.601 0 01.268.223c.062.095.111.198.143.307.064.211.096.431.095.652.019.867-.191 1.744-.703 2.413a2.448 2.448 0 01-.969.752c-.373.167-.79.204-1.186.106a1.586 1.586 0 01-.919-.698 1.79 1.79 0 01-.293-1.083c.01-.187.054-.37.132-.54a.82.82 0 01.372-.403.426.426 0 01.512.122c.105.144.17.313.188.49.028.335.015.672-.04 1.005l-.099.952a172.133 172.133 0 01-.707 5.873 62.218 62.218 0 01-.244 1.589l-.072.413a1.507 1.507 0 01-.028.139s0-.048.018-.141c.018-.093.038-.233.065-.412a83.2 83.2 0 00.229-1.591c.187-1.383.427-3.388.682-5.873.03-.31.062-.628.096-.953.052-.327.064-.659.036-.988a.92.92 0 00-.175-.46.355.355 0 00-.435-.105.774.774 0 00-.338.372 1.43 1.43 0 00-.124.514c-.018.368.081.733.284 1.041.198.325.511.564.878.667a1.76 1.76 0 001.142-.104c.37-.159.693-.411.938-.731.489-.653.704-1.511.683-2.362a2.146 2.146 0 00-.09-.632.718.718 0 00-.365-.479.491.491 0 00-.55.163 1.04 1.04 0 00-.248.585 3.834 3.834 0 00-.011.669c0 .225.023.452.047.677.036.455.147.901.326 1.32.092.209.223.399.385.56.164.159.364.277.583.342a1.692 1.692 0 001.328-.226c.397-.249.717-.604.923-1.025.209-.411.356-.851.436-1.305.075-.452.151-.917.058-1.354a1.003 1.003 0 00-.316-.561.575.575 0 00-.587-.137.865.865 0 00-.441.442 1.95 1.95 0 00-.183.621c-.057.428-.01.864.139 1.27.139.398.391.748.724 1.008a2.09 2.09 0 001.142.422c.401.025.8-.073 1.142-.282a1.269 1.269 0 00.619-.928 1.018 1.018 0 00-.111-.542.636.636 0 00-.406-.326.662.662 0 00-.506.127 1.12 1.12 0 00-.349.403c-.15.325-.249.67-.294 1.025-.064.349-.124.69-.184 1.026a84.17 84.17 0 00-1.085 9.409l-.026.418a.882.882 0 01-.025.155z" fill="#fff"/><path d="M276 188.129c.24.219.448.47.618.747a.743.743 0 00.539.369l2.209.342a.76.76 0 00.668-.231c.199-.216.534-.454.847-.47l-4.881-.757z" fill="#263238"/><path d="M274.567 181.61c0 .044-.031 3.573-.039 4.922a1.649 1.649 0 00.719 1.391 1.5 1.5 0 00.607.235l4.829.749s1.261.196 1.703-.76c.465-1.008 1.677-5.057 1.677-5.057l-9.496-1.48z" fill="#E0E0E0"/><path d="M274.147 186.182l.004-.025a.262.262 0 01.032-.09.251.251 0 01.064-.07.25.25 0 01.181-.044l8.418 1.276a.241.241 0 01.202.275l-.004.026a.241.241 0 01-.275.202l-8.419-1.276a.234.234 0 01-.089-.033.239.239 0 01-.115-.244l.001.003z" fill="#E0E0E0"/><path d="M282.764 187.732a.284.284 0 00.174-.05.241.241 0 00.069-.086.235.235 0 00.026-.107.23.23 0 00-.144-.233c-.457-.077-1.142-.163-1.969-.29l-6.504-.979a.205.205 0 00-.18.065.215.215 0 00-.045.086.326.326 0 00-.008.103.21.21 0 00.037.09c.02.026.046.048.075.062.072.021.145.035.219.042l.913.139 1.726.264 2.922.465 1.969.312.535.088.139.026.046.011h-.048l-.14-.018-.537-.073-1.972-.285-2.925-.434-1.728-.26-.913-.137-.116-.018a.423.423 0 01-.126-.031.292.292 0 01-.163-.215.357.357 0 01.01-.134.283.283 0 01.326-.214l6.501.997c.832.134 1.503.23 1.971.327.052.02.097.057.126.105a.25.25 0 01.037.16.28.28 0 01-.031.114.277.277 0 01-.078.089.215.215 0 01-.095.032.207.207 0 01-.099-.013z" fill="#263238"/><path d="M274.134 185.069l.004-.025a.242.242 0 01.275-.203l8.774 1.33a.262.262 0 01.09.032.267.267 0 01.07.064.25.25 0 01.044.181l-.004.026a.241.241 0 01-.275.202l-8.774-1.33a.238.238 0 01-.159-.096.24.24 0 01-.045-.181z" fill="#E0E0E0"/><path d="M283.112 186.674a.278.278 0 00.18-.056.256.256 0 00.089-.202.228.228 0 00-.163-.227l-2.047-.298-6.757-1.012a.204.204 0 00-.185.07.194.194 0 00-.042.092.242.242 0 000 .107.205.205 0 00.13.145c.066.017.164.027.234.04l.949.143 1.795.274 3.036.47 2.044.326.556.092.144.026a.178.178 0 01.049.013.434.434 0 01-.051 0l-.145-.016-.558-.077-2.049-.299-3.049-.45-1.795-.271-.947-.142c-.084-.014-.155-.019-.248-.042a.283.283 0 01-.185-.206.33.33 0 01.061-.269.273.273 0 01.117-.084.272.272 0 01.144-.015l6.752 1.029c.864.135 1.561.243 2.047.326a.257.257 0 01.186.258.274.274 0 01-.104.215.215.215 0 01-.188.04z" fill="#263238"/><path d="M274.188 183.966l.004-.025a.243.243 0 01.277-.204l9.002 1.364a.242.242 0 01.202.275l-.004.026a.241.241 0 01-.275.203l-9.001-1.365a.232.232 0 01-.089-.032.24.24 0 01-.116-.242z" fill="#E0E0E0"/><path d="M283.396 185.604a.269.269 0 00.182-.058.245.245 0 00.068-.094.261.261 0 00.019-.114.23.23 0 00-.186-.222l-2.098-.304-6.917-1.037a.201.201 0 00-.188.075.203.203 0 00-.042.096.246.246 0 000 .108.196.196 0 00.142.14c.073.015.163.026.243.039l.97.147 1.837.281 3.1.479 2.093.327.569.094.147.026.051.012h-.051l-.15-.018-.571-.079-2.095-.303-3.099-.463-1.837-.276-.971-.145c-.085-.015-.163-.023-.253-.041a.286.286 0 01-.199-.197.35.35 0 010-.144.29.29 0 01.325-.24l6.914 1.061 2.094.326a.254.254 0 01.204.251.273.273 0 01-.099.224.23.23 0 01-.095.05.228.228 0 01-.107-.001z" fill="#263238"/><path d="M274.177 182.853l.004-.026a.245.245 0 01.095-.158.247.247 0 01.18-.045l9.368 1.421a.218.218 0 01.088.032.235.235 0 01.11.148.234.234 0 01.004.095l-.004.025a.243.243 0 01-.276.204l-9.365-1.42a.241.241 0 01-.203-.274l-.001-.002z" fill="#E0E0E0"/><path d="M283.744 184.545a.258.258 0 00.203-.076.244.244 0 00.066-.207.23.23 0 00-.214-.208l-2.176-.317-7.178-1.075a.206.206 0 00-.107.013.193.193 0 00-.085.067.26.26 0 00-.04.103.26.26 0 00.009.111.204.204 0 00.163.13l.256.038 1.008.153 1.904.292 3.224.498 2.173.342.59.097.152.027.052.012a.151.151 0 01-.052 0l-.163-.02-.593-.081-2.176-.317-3.227-.48-1.903-.287-1.009-.151-.257-.04a.281.281 0 01-.226-.182.306.306 0 01-.013-.15.324.324 0 01.054-.141.284.284 0 01.121-.093c.048-.02.1-.027.152-.019l7.178 1.098 2.173.342a.26.26 0 01.161.077.262.262 0 01.072.163.284.284 0 01-.093.235.227.227 0 01-.147.055.117.117 0 01-.052-.009z" fill="#263238"/><path d="M273.852 177.272c-.015.09-.144 2.232-.209 3.333a1.316 1.316 0 00.44 1.065l.444.395 9.338 1.449.535-.239a1.33 1.33 0 00.746-.895l.784-3.234-12.078-1.874z" fill="#455A64"/><path opacity=".3" d="M274.664 186.488c.868.344 1.762.499 2.749.652.798.119 1.576.263 2.447.379.636.086 1.224.143 1.86.215.326.036.685.008.76-.046l-7.816-1.2zm-.168-1.142c.938.354 1.902.522 2.968.682.859.13 1.699.282 2.634.409.685.093 1.32.163 2.007.237.346.04.737.018.816-.036l-8.425-1.292zm.172-1.084c.938.354 1.902.522 2.967.682.86.131 1.699.283 2.635.41.685.093 1.32.163 2.005.236.348.041.737.018.816-.036l-8.423-1.292zm.164-1.078c.938.354 1.902.522 2.967.682.86.131 1.7.282 2.635.409.687.093 1.32.164 2.007.237.346.041.737.018.815-.036l-8.424-1.292z" fill="#000"/><path d="M276.427 176.066a.873.873 0 01-.125-.065c-.079-.046-.201-.108-.348-.202a9.934 9.934 0 01-1.2-.87c-.564-.471-1.077-1-1.531-1.579a10.473 10.473 0 01-2.143-4.894 10.632 10.632 0 01.052-3.666c.029-.163.067-.303.088-.393.009-.046.021-.091.036-.135a.64.64 0 01-.021.138c-.013.092-.046.224-.072.397-.081.485-.13.976-.147 1.468-.06 1.629.246 3.25.896 4.744a10.939 10.939 0 002.879 3.875c.374.321.768.617 1.18.887.145.098.262.163.339.215.041.024.081.05.117.08zm-4.359-13.878a2.09 2.09 0 01-.189.56 2.141 2.141 0 01-.266.53c.037-.195.101-.384.19-.561.065-.187.154-.365.265-.529zm19.185 8.802a.578.578 0 01.036-.116c.029-.083.07-.191.119-.327l.09-.234c.029-.087.053-.183.084-.286.059-.205.141-.435.191-.7.028-.132.059-.269.092-.413.032-.143.045-.295.071-.451.056-.312.074-.653.103-1.004a11.02 11.02 0 00-.723-4.535c-.138-.326-.259-.643-.411-.922-.071-.14-.133-.28-.207-.406l-.215-.364c-.131-.236-.279-.429-.398-.607l-.172-.244-.163-.196c-.089-.113-.163-.204-.215-.272a.833.833 0 01-.07-.098.483.483 0 01.083.086l.228.264c.049.058.103.123.164.191.06.069.112.163.176.242.146.194.283.395.409.603.072.116.145.237.222.364.077.127.139.266.214.406.153.279.279.597.419.927.571 1.452.819 3.01.728 4.568-.02.338-.057.675-.111 1.01-.028.163-.044.31-.077.455l-.098.413a6.838 6.838 0 01-.202.701c-.033.101-.06.197-.093.284l-.095.233c-.055.134-.101.24-.135.326a1.16 1.16 0 01-.044.102z" fill="#263238"/><path opacity=".2" d="M282.456 158.632c-.123-.504-.592-.932-1.186-1.214a3.589 3.589 0 00-2.71-.117c-2.61.9-4.225 2.227-5.496 4.827-.431.879-.816 2.387-.498 3.364a1.861 1.861 0 00.956 1.142c1.216.568 2.42-.512 2.999-1.631.538-1.045.864-2.268 1.781-3.005.756-.606 1.767-.759 2.651-1.152.884-.393 1.729-1.276 1.503-2.214zm4.587.264c-.303-.786-1.305-1.248-1.958-1.067a1.85 1.85 0 00-1.19 1.105 1.694 1.694 0 00.476 1.843 1.61 1.61 0 001.886.111c.567-.38 1.032-1.361.786-1.992z" fill="#fff"/><path opacity=".3" d="M273.852 177.272c-.015.09-.144 2.232-.209 3.333a1.316 1.316 0 00.44 1.065l.444.395 9.338 1.449.535-.239a1.33 1.33 0 00.746-.895l.784-3.234-12.078-1.874z" fill="#000"/><path d="M286.004 179.156c0 .023-2.714-.378-6.054-.897-3.339-.519-6.046-.956-6.036-.979.01-.023 2.715.379 6.056.897 3.341.519 6.037.956 6.034.979zm-1.156 3.638c0 .023-2.504-.347-5.584-.825-3.08-.478-5.576-.883-5.573-.906.004-.023 2.503.346 5.585.824 3.081.478 5.576.884 5.572.907z" fill="#263238"/><path d="M357.08 168.56a11.418 11.418 0 00-15.84-12.238 11.416 11.416 0 00-5.761 15.36 11.426 11.426 0 003.927 4.574l-.444 2.845 9.885 1.541s.308-1.587.553-3.01a11.411 11.411 0 007.68-9.072z" fill="#FAFAFA"/><path d="M347.36 180.409v-.142c0-.093.01-.236.018-.417a78.455 78.455 0 01.734-7.479c.088-.619.19-1.264.305-1.936l.182-1.026a3.56 3.56 0 01.298-1.046c.087-.17.214-.316.369-.427a.73.73 0 01.559-.139.68.68 0 01.455.367c.095.179.137.381.121.582a1.326 1.326 0 01-.652.979 1.994 1.994 0 01-1.19.295 2.16 2.16 0 01-1.177-.435c-.342-.27-.6-.631-.743-1.043a2.731 2.731 0 01-.143-1.305c.025-.226.09-.447.191-.652a.947.947 0 01.489-.49.617.617 0 01.356-.016c.115.03.221.086.311.163.177.159.298.372.344.605.046.229.058.463.035.695-.019.232-.05.463-.093.692-.08.465-.229.916-.442 1.336-.214.434-.544.8-.955 1.056a2.061 2.061 0 01-.674.262 1.603 1.603 0 01-.719-.026 1.501 1.501 0 01-.617-.364 1.971 1.971 0 01-.403-.582 4.325 4.325 0 01-.334-1.347 8.789 8.789 0 01-.049-.682 4.222 4.222 0 01.011-.684 1.13 1.13 0 01.27-.628.731.731 0 01.288-.197.483.483 0 01.351 0c.11.046.203.124.268.223.062.095.111.198.143.307.064.211.096.431.095.652.019.867-.191 1.744-.703 2.413a2.448 2.448 0 01-.969.752c-.373.167-.79.204-1.186.106a1.586 1.586 0 01-.919-.698 1.79 1.79 0 01-.293-1.083c.01-.187.054-.37.132-.54a.824.824 0 01.372-.403.426.426 0 01.512.122c.105.144.17.313.188.49.028.335.015.672-.04 1.005l-.099.952a175.228 175.228 0 01-.706 5.873 66.063 66.063 0 01-.245 1.589l-.072.413a1.507 1.507 0 01-.028.139s0-.048.018-.141c.018-.093.038-.233.065-.412a83.2 83.2 0 00.229-1.591c.187-1.383.427-3.388.682-5.873.03-.31.062-.628.096-.953.052-.327.064-.659.036-.988a.92.92 0 00-.175-.46.355.355 0 00-.435-.105.774.774 0 00-.338.372 1.43 1.43 0 00-.124.514c-.018.368.081.733.284 1.041.198.325.511.564.878.667a1.76 1.76 0 001.142-.104c.37-.159.693-.411.938-.731.489-.653.704-1.511.683-2.362a2.114 2.114 0 00-.09-.632.704.704 0 00-.365-.479.491.491 0 00-.55.163 1.04 1.04 0 00-.248.585 3.834 3.834 0 00-.011.669c0 .225.023.452.047.677.037.455.147.901.326 1.32.092.209.223.399.385.56.164.159.364.277.583.342a1.692 1.692 0 001.328-.226c.397-.249.717-.604.923-1.025.21-.411.356-.851.436-1.305.075-.452.151-.917.058-1.354a1.003 1.003 0 00-.316-.561.575.575 0 00-.587-.137.865.865 0 00-.441.442 1.924 1.924 0 00-.182.621c-.058.428-.011.864.138 1.27.14.398.391.748.725 1.008.33.251.727.398 1.141.422.401.025.8-.073 1.142-.282a1.256 1.256 0 00.619-.928 1.018 1.018 0 00-.111-.542.624.624 0 00-.406-.326.662.662 0 00-.506.127 1.12 1.12 0 00-.349.403c-.15.325-.249.67-.294 1.025-.064.349-.124.69-.184 1.026a84.17 84.17 0 00-1.085 9.409l-.026.418a.882.882 0 01-.025.155z" fill="#657C90"/><path d="M340.164 188.129c.24.219.448.47.618.747a.743.743 0 00.539.369l2.209.342a.759.759 0 00.668-.231c.199-.216.534-.454.847-.47l-4.881-.757z" fill="#263238"/><path d="M338.731 181.61c0 .044-.031 3.573-.039 4.922a1.649 1.649 0 00.719 1.391 1.5 1.5 0 00.607.235l4.829.749s1.261.196 1.703-.76c.465-1.008 1.677-5.057 1.677-5.057l-9.496-1.48z" fill="#E0E0E0"/><path d="M338.311 186.182l.004-.025a.262.262 0 01.032-.09.251.251 0 01.064-.07.25.25 0 01.181-.044l8.418 1.276a.241.241 0 01.202.275l-.004.026a.241.241 0 01-.275.202l-8.419-1.276a.234.234 0 01-.089-.033.239.239 0 01-.111-.149.254.254 0 01-.004-.095l.001.003z" fill="#E0E0E0"/><path d="M346.928 187.732a.284.284 0 00.174-.05.247.247 0 00.095-.193.23.23 0 00-.144-.233c-.457-.077-1.142-.163-1.969-.29l-6.504-.979a.205.205 0 00-.18.065.215.215 0 00-.045.086.326.326 0 00-.008.103.21.21 0 00.037.09c.02.026.046.048.075.062.072.021.145.035.219.042l.913.139 1.726.264 2.922.465 1.969.312.535.088.139.026.046.011h-.048l-.14-.018-.537-.073-1.972-.285-2.925-.434-1.728-.26-.913-.137-.116-.018a.423.423 0 01-.126-.031.295.295 0 01-.108-.087.304.304 0 01-.055-.128.357.357 0 01.01-.134.283.283 0 01.326-.214l6.501.997c.832.134 1.503.23 1.971.327.052.02.097.057.126.105a.25.25 0 01.037.16.266.266 0 01-.109.203.215.215 0 01-.095.032.207.207 0 01-.099-.013z" fill="#263238"/><path d="M338.298 185.069l.004-.025a.242.242 0 01.275-.203l8.774 1.33a.262.262 0 01.09.032.267.267 0 01.07.064.25.25 0 01.044.181l-.004.026a.241.241 0 01-.275.202l-8.774-1.33a.244.244 0 01-.204-.277z" fill="#E0E0E0"/><path d="M347.276 186.674a.278.278 0 00.18-.056.256.256 0 00.089-.202.228.228 0 00-.163-.227l-2.047-.298-6.757-1.012a.204.204 0 00-.185.07.204.204 0 00-.042.092.242.242 0 000 .107.205.205 0 00.047.09.193.193 0 00.084.055c.065.017.163.027.233.04l.949.143 1.795.274 3.036.47 2.044.326.556.092.144.026a.17.17 0 01.049.013.434.434 0 01-.051 0l-.145-.016-.558-.077-2.049-.299-3.049-.45-1.795-.271-.947-.142c-.084-.014-.155-.019-.248-.042a.283.283 0 01-.185-.206.33.33 0 01.061-.269.273.273 0 01.117-.084.272.272 0 01.144-.015l6.752 1.029c.865.135 1.561.243 2.047.326a.257.257 0 01.186.258.274.274 0 01-.104.215.215.215 0 01-.188.04z" fill="#263238"/><path d="M338.352 183.966l.004-.025a.243.243 0 01.277-.204l9.002 1.364a.242.242 0 01.202.275l-.004.026a.241.241 0 01-.274.203l-9.002-1.365a.232.232 0 01-.089-.032.24.24 0 01-.116-.242z" fill="#E0E0E0"/><path d="M347.56 185.604a.267.267 0 00.182-.058.245.245 0 00.068-.094.261.261 0 00.019-.114.234.234 0 00-.054-.145.226.226 0 00-.132-.077l-2.098-.304-6.917-1.037a.201.201 0 00-.188.075.203.203 0 00-.042.096.246.246 0 000 .108.196.196 0 00.142.14c.073.015.163.026.243.039l.97.147 1.837.281 3.1.479 2.093.327.569.094.147.026.051.012h-.051l-.15-.018-.571-.079-2.095-.303-3.099-.463-1.837-.276-.971-.145c-.085-.015-.163-.023-.253-.041a.291.291 0 01-.125-.072.295.295 0 01-.074-.125.35.35 0 010-.144.29.29 0 01.325-.24l6.914 1.061 2.094.326a.251.251 0 01.204.251.273.273 0 01-.099.224.23.23 0 01-.095.05.228.228 0 01-.107-.001z" fill="#263238"/><path d="M338.341 182.853l.004-.026a.242.242 0 01.275-.203l9.368 1.421a.218.218 0 01.088.032.235.235 0 01.11.148.234.234 0 01.004.095l-.004.025a.243.243 0 01-.276.204l-9.365-1.42a.241.241 0 01-.203-.274l-.001-.002z" fill="#E0E0E0"/><path d="M347.908 184.545a.258.258 0 00.203-.076.244.244 0 00.066-.207.23.23 0 00-.213-.208l-2.177-.317-7.178-1.075a.206.206 0 00-.107.013.193.193 0 00-.085.067.26.26 0 00-.04.103.26.26 0 00.009.111.204.204 0 00.163.13l.256.038 1.008.153 1.904.292 3.224.498 2.173.342.59.097.152.027.052.012a.151.151 0 01-.052 0l-.163-.02-.592-.081-2.177-.317-3.227-.48-1.903-.287-1.009-.151-.257-.04a.281.281 0 01-.225-.182.295.295 0 01-.014-.15.324.324 0 01.054-.141.284.284 0 01.121-.093c.048-.02.1-.027.152-.019l7.178 1.098 2.173.342a.26.26 0 01.161.077.262.262 0 01.072.163.284.284 0 01-.093.235.227.227 0 01-.147.055.117.117 0 01-.052-.009z" fill="#263238"/><path d="M338.016 177.272c-.015.09-.144 2.232-.209 3.333a1.322 1.322 0 00.441 1.065l.443.395 9.338 1.449.535-.239a1.322 1.322 0 00.746-.895l.785-3.234-12.079-1.874z" fill="#FAFAFA"/><path opacity=".3" d="M338.828 186.488c.868.344 1.762.499 2.749.652.798.119 1.576.263 2.447.379.636.086 1.224.143 1.86.215.326.036.685.008.76-.046l-7.816-1.2zm-.168-1.142c.938.354 1.902.522 2.968.682.859.13 1.7.282 2.634.409.685.093 1.32.163 2.007.237.346.04.737.018.816-.036l-8.425-1.292zm.172-1.084c.938.354 1.902.522 2.967.682.86.131 1.699.283 2.635.41.685.093 1.32.163 2.005.236.348.041.738.018.816-.036l-8.423-1.292zm.164-1.078c.938.354 1.902.522 2.968.682.859.131 1.699.282 2.634.409.687.093 1.32.164 2.007.237.346.041.737.018.815-.036l-8.424-1.292z" fill="#000"/><path d="M340.591 176.066a.873.873 0 01-.125-.065c-.078-.046-.201-.108-.348-.202a9.934 9.934 0 01-1.2-.87c-.564-.471-1.077-1-1.531-1.579a10.473 10.473 0 01-2.143-4.894 10.632 10.632 0 01.052-3.666c.029-.163.067-.303.088-.393.009-.046.021-.091.036-.135a.64.64 0 01-.021.138c-.013.092-.046.224-.072.397-.081.485-.13.976-.147 1.468-.06 1.629.246 3.25.896 4.744a10.939 10.939 0 002.879 3.875c.374.321.768.617 1.18.887.145.098.262.163.339.215.041.024.081.05.117.08zm-4.359-13.878a2.09 2.09 0 01-.189.56 2.107 2.107 0 01-.266.53c.037-.195.101-.384.19-.561.065-.187.154-.365.265-.529zm19.185 8.802a.578.578 0 01.036-.116c.029-.083.07-.191.119-.327l.09-.234c.029-.087.053-.183.084-.286.059-.205.141-.435.191-.7.028-.132.059-.269.092-.413.032-.143.045-.295.071-.451.056-.312.074-.653.103-1.004a11.02 11.02 0 00-.722-4.535c-.139-.326-.26-.643-.412-.922-.071-.14-.133-.28-.207-.406l-.215-.364c-.131-.236-.279-.429-.398-.607-.062-.088-.116-.163-.171-.244l-.164-.196c-.089-.113-.163-.204-.215-.272a.833.833 0 01-.07-.098.483.483 0 01.083.086l.228.264c.049.058.103.123.164.191.06.069.112.163.176.242.147.194.283.395.409.603.072.116.145.237.222.364.077.127.139.266.214.406.153.279.279.597.419.927.571 1.452.819 3.01.728 4.568-.02.338-.057.675-.111 1.01-.028.163-.044.31-.077.455l-.098.413a6.838 6.838 0 01-.202.701c-.033.101-.06.197-.093.284l-.095.233c-.055.134-.101.24-.135.326a1.16 1.16 0 01-.044.102z" fill="#263238"/><path opacity=".2" d="M346.62 158.632c-.123-.504-.592-.932-1.186-1.214a3.589 3.589 0 00-2.71-.117c-2.61.9-4.225 2.227-5.496 4.827-.431.879-.816 2.387-.498 3.364a1.848 1.848 0 00.956 1.142c1.216.568 2.42-.512 2.999-1.631.538-1.045.864-2.268 1.781-3.005.756-.606 1.767-.759 2.651-1.152.884-.393 1.73-1.276 1.503-2.214zm4.587.264c-.303-.786-1.305-1.248-1.958-1.067a1.85 1.85 0 00-1.19 1.105 1.694 1.694 0 00.476 1.843 1.61 1.61 0 001.886.111c.568-.38 1.032-1.361.786-1.992z" fill="#fff"/><path opacity=".3" d="M338.016 177.272c-.015.09-.144 2.232-.209 3.333a1.322 1.322 0 00.441 1.065l.443.395 9.338 1.449.535-.239a1.322 1.322 0 00.746-.895l.785-3.234-12.079-1.874z" fill="#000"/><path d="M350.168 179.156c0 .023-2.714-.378-6.054-.897-3.339-.519-6.046-.956-6.036-.979.01-.023 2.715.379 6.056.897 3.341.519 6.038.956 6.034.979zm-1.156 3.638c0 .023-2.504-.347-5.584-.825-3.08-.478-5.576-.883-5.573-.906.004-.023 2.503.346 5.585.824 3.081.478 5.576.884 5.572.907z" fill="#263238"/></svg>