<svg width="253" height="81" fill="none" xmlns="http://www.w3.org/2000/svg"><path d="M81 40.5C81 62.868 62.867 81 40.5 81S0 62.868 0 40.5C0 18.133 18.133 0 40.5 0S81 18.133 81 40.5z" fill="#EB8B55"/><path fill-rule="evenodd" clip-rule="evenodd" d="M32.61 32.61h1.565v13.885h11.059v15.57h-1.566V48.179h-9.493v13.886H32.61V32.61z" fill="#fff"/><path fill-rule="evenodd" clip-rule="evenodd" d="M45.96 15.78h1.62v17.036l.377.38 7.796 7.83H37.87l.002-.001 7.795-7.83.293-.294V15.779zm-4.364 23.805h10.433l-5.217-5.24-5.216 5.24z" fill="#fff"/><path d="M107.786 15.028c2.631 0 5.262.551 7.893 1.654l-.883 4.857-.831.31a15.133 15.133 0 00-3.427-1.86c-1.177-.448-2.302-.672-3.375-.672-1.696 0-3.046.465-4.05 1.395-1.004.93-1.506 2.015-1.506 3.255 0 1.205.502 2.204 1.506 2.997 1.004.757 2.579 1.636 4.725 2.635 1.87.895 3.375 1.705 4.518 2.428 1.177.723 2.181 1.688 3.011 2.893.831 1.172 1.247 2.584 1.247 4.237 0 1.791-.502 3.445-1.506 4.96-.969 1.481-2.354 2.67-4.154 3.565-1.766.861-3.791 1.292-6.075 1.292-1.523 0-3.099-.19-4.725-.568a21.05 21.05 0 01-4.622-1.654l.675-5.27.675-.31c1.281 1.206 2.683 2.119 4.206 2.739 1.558.585 2.994.878 4.31.878 1.8 0 3.237-.465 4.31-1.395 1.073-.965 1.609-2.101 1.609-3.41 0-1.31-.519-2.36-1.557-3.152-1.039-.827-2.631-1.74-4.778-2.738-1.834-.861-3.323-1.636-4.465-2.325-1.142-.724-2.129-1.67-2.96-2.842-.796-1.171-1.194-2.583-1.194-4.237 0-1.791.485-3.427 1.454-4.908.97-1.481 2.319-2.635 4.05-3.462 1.731-.861 3.704-1.292 5.919-1.292zm26.658.31c3.358 0 5.937.862 7.737 2.584 1.835 1.688 2.752 4.133 2.752 7.337 0 3.72-1.16 6.665-3.479 8.835-2.285 2.17-5.435 3.255-9.45 3.255h-3.687v.775l.26 10.437h-5.452l.363-9.972-.363-23.199 11.319-.052zm-.882 17.877c1.903-.379 3.34-1.188 4.309-2.428 1.004-1.274 1.506-2.962 1.506-5.063 0-2.067-.537-3.6-1.61-4.599-1.038-.999-2.63-1.533-4.777-1.602l-4.413.155-.208 13.434 5.193.103zm37.03 10.799l.312.465-.364 4.082h-19.679l.363-9.972-.363-23.199h19.783l.312.465-.416 4.082-7.892-.207-6.335.052-.156 9.662 6.024.103 5.504-.155.363.413-.415 4.082-5.868-.155-5.66.103-.052 4.289.156 6.097 6.335.051 8.048-.258zm17.63-28.986c3.392 0 6.387.758 8.983 2.274l-.987 4.701-.519.155c-2.319-1.79-4.881-2.686-7.685-2.686-3.046 0-5.383 1.033-7.01 3.1-1.592 2.032-2.388 5.08-2.388 9.145 0 4.168.813 7.337 2.44 9.507s3.946 3.255 6.958 3.255a13.32 13.32 0 004.31-.723 15.312 15.312 0 003.998-2.119l.519.31-.415 4.857c-2.977 1.447-5.92 2.17-8.827 2.17-4.674 0-8.274-1.447-10.801-4.34-2.527-2.893-3.79-7.01-3.79-12.349 0-5.51 1.315-9.765 3.946-12.762 2.666-2.996 6.422-4.495 11.268-4.495zm34.715.827l-.312 4.03-6.023-.31h-2.804l-.26 18.549.26 10.437h-5.4l.311-9.972-.259-19.014h-2.804l-6.127.31-.364-.465.416-4.03h23.054l.312.465zm20.62 19.427c2.354 3.755 5.141 7.768 8.36 12.039l-.052.62a23.536 23.536 0 01-5.141 1.085l-.623-.414c-2.873-4.684-5.192-8.645-6.958-11.883h-5.659v1.395l.259 10.437h-5.452l.364-9.972-.364-23.199 11.32-.052c3.358 0 5.954.844 7.789 2.532 1.834 1.653 2.751 4.03 2.751 7.13 0 2.205-.588 4.203-1.765 5.994-1.142 1.756-2.752 3.186-4.829 4.288zm-9.969-2.893l5.711.155c3.497-1.068 5.245-3.445 5.245-7.13 0-1.93-.537-3.376-1.61-4.34-1.039-.965-2.631-1.482-4.777-1.55l-4.414.154-.155 12.71zM95.33 67.874l-.024-3.55.95-.097-.025 3.551.012 2.756h-.95l.038-2.66zm2.071-.74a55.164 55.164 0 002.391 3.208v.123a2.748 2.748 0 01-.517.124c-.181.036-.3.06-.358.068l-.098-.054c-.995-1.307-1.787-2.432-2.379-3.373v-.096l1.812-2.317.32-.562h1.06l-2.23 2.879zm5.403-2.989c.764 0 1.356.279 1.775.836.427.549.64 1.326.64 2.331 0 1.06-.221 1.883-.665 2.468-.444.576-1.076.864-1.898.864-.772 0-1.372-.275-1.799-.823-.419-.558-.629-1.339-.629-2.344 0-1.06.222-1.879.666-2.455.452-.585 1.088-.877 1.91-.877zm-.062.768c-.517 0-.912.196-1.183.59-.271.392-.407.968-.407 1.727 0 .877.132 1.535.395 1.974.271.439.661.658 1.171.658.517 0 .912-.192 1.183-.576.271-.384.406-.96.406-1.727 0-.868-.135-1.527-.406-1.974-.263-.448-.649-.672-1.159-.672zm4.198-.658h.961l.308.96 1.122 3.372h.074l1.22-3.414.296-.918h.961l.542 6.279h-.788l-.124-1.974-.246-2.838h-.074l-1.516 4.099h-.702l-1.405-4.1h-.062l-.271 2.66-.16 2.153h-.752l.616-6.28zm11.516 4.045l.025 2.234h-.961l.049-2.125-.025-3.373h-2.501l-.025 3.263.025 2.235h-.962l.05-2.125-.037-4.154h4.387l-.025 4.044zm5.762-.522l.037 2.756h-.962l.037-2.66-.024-2.88h-1.467l-.049.508c-.107 1.27-.234 2.258-.382 2.962-.148.704-.333 1.22-.555 1.549-.214.329-.497.54-.85.63l-.247.028-.16-.836c.304-.12.546-.325.727-.617.181-.293.325-.736.431-1.33.107-.594.206-1.449.296-2.564l.099-1.042-.012-.027h3.13l-.049 3.523zm2.413-.425v.028c0 .767.156 1.357.468 1.768.312.412.756.617 1.331.617.288 0 .575-.05.863-.15.287-.11.55-.261.789-.453l.098.082-.148.932c-.575.311-1.15.467-1.725.467-.805 0-1.438-.284-1.898-.85-.46-.576-.69-1.362-.69-2.359 0-1.005.23-1.805.69-2.399.46-.594 1.08-.891 1.861-.891.657 0 1.167.21 1.528.63.362.412.542.988.542 1.728 0 .247-.016.48-.049.7l-.123.136-3.537.014zm1.639-2.44c-.411 0-.756.15-1.035.452-.272.293-.452.709-.543 1.248l2.724-.055.025-.192c0-.466-.103-.823-.308-1.07-.198-.255-.485-.383-.863-.383zm3.697 2.961l-.025-3.55.949-.097-.024 3.551.012 2.756h-.949l.037-2.66zm2.07-.74a55.122 55.122 0 002.391 3.208v.123a2.74 2.74 0 01-.517.124c-.181.036-.3.06-.358.068l-.098-.054c-.994-1.307-1.787-2.432-2.379-3.373v-.096l1.812-2.317.32-.562h1.06l-2.231 2.879zm7.025-2.811l-.074.727-1.035-.028h-.69l-.025 2.756.037 2.756h-.961l.037-2.66-.025-2.852h-.69l-1.048.028-.061-.096.061-.7h4.4l.074.07zm2.777-.178c.534 0 .954.146 1.258.439.312.292.468.694.468 1.206 0 .155-.025.718-.074 1.686a60.369 60.369 0 00-.074 1.7c0 .202.029.343.086.426.058.073.156.11.296.11.123 0 .263-.028.419-.083l.099.096-.099.617a1.645 1.645 0 01-.702.274.931.931 0 01-.617-.301c-.148-.174-.226-.412-.234-.713h-.086c-.444.502-.883.845-1.319 1.028-.55 0-.982-.15-1.294-.453-.304-.31-.456-.73-.456-1.26 0-.403.095-.723.284-.96.197-.238.484-.407.862-.508l1.997-.52.012-.892c0-.357-.086-.63-.259-.823-.164-.192-.402-.288-.714-.288-.28 0-.559.073-.839.22-.279.146-.579.374-.899.685l-.099-.055-.123-.781c.682-.567 1.384-.85 2.107-.85zm-.986 3.962a.705.705 0 00-.357.233c-.074.092-.111.233-.111.425 0 .302.074.54.222.713a.81.81 0 00.616.247c.452 0 .912-.324 1.381-.973l.037-1.125-1.788.48zm9.9 3.88l-.678.083-.123-1.536h-4.412l.049-2.66-.037-3.62h.949l-.037 3.524.025 1.933 2.465.014.025-1.85-.037-3.62h.949l-.025 3.523.012 1.947h.875v2.262zm1.384-4.113l-.05-3.592.949-.055-.024 4.758h.074l2.551-4.73h.961l-.037 3.51.037 2.769h-.949l.037-2.591v-2.208h-.074l-2.588 4.799h-.937l.05-2.66zm10.047-.096l.025 2.756h-.9l.025-2.317h-1.072c-.329.658-.773 1.43-1.331 2.317l-.111.082c-.329-.009-.604-.073-.826-.192l-.012-.123a26.217 26.217 0 001.565-2.249c-.411-.155-.719-.384-.924-.685-.198-.302-.296-.681-.296-1.138 0-.594.185-1.074.554-1.44.378-.365.875-.548 1.492-.548l1.836.014-.025 3.523zm-1.75-2.838c-.369 0-.661.114-.875.343-.213.228-.32.54-.32.932 0 .357.086.654.259.891.18.229.443.38.788.453l1.048-.041v-2.55l-.9-.028zm10.588 4.799v2.248l-.653.083-.111-1.536h-4.092l-.111 1.453-.665.083v-2.331h.456a1.74 1.74 0 00.579-.727c.148-.31.267-.75.357-1.316.099-.567.189-1.357.272-2.372l.086-1.07h3.081l-.025 3.524.013 1.96h.813zm-1.701-1.865l-.024-2.893h-1.442l-.05.508c-.106 1.27-.242 2.225-.406 2.865-.156.63-.382 1.092-.678 1.385h2.576l.024-1.865zm3.107 0l-.049-3.592.949-.055-.025 4.758h.074l2.552-4.73h.961l-.037 3.51.037 2.769h-.949l.037-2.591v-2.208h-.074l-2.588 4.799h-.937l.049-2.66zm8.692-.617c.789.22 1.184.718 1.184 1.495 0 .576-.202 1.032-.604 1.37-.403.339-.945.508-1.627.508a3.27 3.27 0 01-.9-.123 2.251 2.251 0 01-.727-.343l.173-.837.074-.04c.189.155.398.278.628.37.238.082.485.123.74.123.394 0 .714-.1.961-.302a.978.978 0 00.37-.795c0-.265-.078-.48-.235-.644-.147-.174-.365-.288-.653-.343h-1.207l-.074-.082.061-.686 1.159.014c.197-.092.357-.233.48-.425.124-.192.185-.402.185-.63 0-.275-.09-.48-.271-.618-.173-.146-.427-.22-.764-.22-.477 0-.957.156-1.442.467l-.111-.041.074-.864a2.898 2.898 0 011.528-.425c.584 0 1.044.142 1.381.425.345.274.517.649.517 1.124 0 .33-.078.631-.234.905-.156.265-.378.47-.666.617zm4.517-3.112c.534 0 .953.146 1.257.439.312.292.468.694.468 1.206 0 .155-.025.718-.074 1.686a60.369 60.369 0 00-.074 1.7c0 .202.029.343.086.426.058.073.156.11.296.11.123 0 .263-.028.419-.083l.099.096-.099.617a1.645 1.645 0 01-.702.274.933.933 0 01-.617-.301c-.147-.174-.225-.412-.234-.713h-.086c-.444.502-.883.845-1.319 1.028-.55 0-.981-.15-1.294-.453-.304-.31-.456-.73-.456-1.26 0-.403.095-.723.284-.96.197-.238.485-.407.862-.508l1.997-.52.012-.892c0-.357-.086-.63-.258-.823-.165-.192-.403-.288-.715-.288-.28 0-.559.073-.838.22-.28.146-.58.374-.9.685l-.099-.055-.123-.781c.682-.567 1.385-.85 2.108-.85zm-.986 3.962a.703.703 0 00-.358.233c-.074.092-.111.233-.111.425 0 .302.074.54.222.713a.81.81 0 00.616.247c.452 0 .912-.324 1.381-.973l.037-1.125-1.787.48zm4.735-.233l-.049-3.592.949-.055-.024 4.758h.073l2.552-4.73h.961l-.037 3.51.037 2.769h-.949l.037-2.591v-2.208h-.074l-2.588 4.799h-.937l.049-2.66zm3.957-5.813a1.708 1.708 0 01-.666.891 1.98 1.98 0 01-1.097.302c-.419 0-.776-.1-1.072-.302-.296-.201-.514-.498-.653-.891l.493-.384h.135c.083.31.214.54.395.685.18.138.423.206.727.206s.542-.068.715-.206c.18-.146.316-.374.406-.685h.124l.493.384zm6.944 5.717l.037 2.756h-.961l.037-2.66v-.096l-2.724.014.037 2.742h-.961l.049-2.66-.037-3.62h.949l-.024 2.701 2.711.014-.025-2.714h.949l-.037 3.523zm4.476-1.261v.685l-2.97.48-.099-.11v-.685l2.983-.466.086.096zm5.739 1.783l.024 2.234h-.961l.049-2.125-.024-3.373h-2.502l-.025 3.263.025 2.235h-.961l.049-2.125-.037-4.154h4.387l-.024 4.044zm4.627-4.114c.707 0 1.249.26 1.627.781.378.522.567 1.267.567 2.235 0 1.097-.238 1.947-.715 2.55-.476.595-1.154.892-2.033.892a4.94 4.94 0 01-1.073-.124l.025 2.55h-.961l.061-5.196-.061-3.55.936-.097-.012.891h.086c.288-.265.547-.466.777-.603a3.26 3.26 0 01.776-.329zm-.431 5.662c.542 0 .961-.21 1.257-.63.296-.42.444-1.02.444-1.796 0-.759-.12-1.34-.358-1.742-.23-.402-.563-.603-.998-.603-.255 0-.51.078-.764.233-.247.156-.51.398-.789.727l-.012 1.741.012 1.714c.403.238.805.356 1.208.356zm6.172-5.703c.764 0 1.356.279 1.775.836.427.549.641 1.326.641 2.331 0 1.06-.222 1.883-.666 2.468-.444.576-1.076.864-1.898.864-.772 0-1.372-.275-1.799-.823-.419-.558-.629-1.339-.629-2.344 0-1.06.222-1.879.666-2.455.452-.585 1.088-.877 1.91-.877zm-.062.768c-.517 0-.912.196-1.183.59-.271.392-.406.968-.406 1.727 0 .877.131 1.535.394 1.974.271.439.661.658 1.171.658.517 0 .912-.192 1.183-.576.271-.384.407-.96.407-1.727 0-.868-.136-1.527-.407-1.974-.263-.448-.649-.672-1.159-.672zm4.343 2.44v.028c0 .767.156 1.357.468 1.768.313.412.756.617 1.332.617.287 0 .575-.05.862-.15.288-.11.551-.261.789-.453l.099.082-.148.932c-.575.311-1.151.467-1.726.467-.805 0-1.438-.284-1.898-.85-.46-.576-.69-1.362-.69-2.359 0-1.005.23-1.805.69-2.399.46-.594 1.081-.891 1.861-.891.658 0 1.167.21 1.528.63.362.412.543.988.543 1.728a4.7 4.7 0 01-.05.7l-.123.136-3.537.014zm1.639-2.44c-.411 0-.756.15-1.035.452-.271.293-.452.709-.542 1.248l2.723-.055.025-.192c0-.466-.103-.823-.308-1.07-.197-.255-.485-.383-.863-.383zm3.697 2.961l-.024-3.55.949-.097-.025 3.551.012 2.756h-.949l.037-2.66zm2.071-.74a55.122 55.122 0 002.391 3.208v.123a2.75 2.75 0 01-.518.124c-.181.036-.3.06-.357.068l-.099-.054c-.994-1.307-1.787-2.432-2.378-3.373v-.096l1.811-2.317.321-.562h1.06l-2.231 2.879zm7.025-2.811l-.074.727-1.036-.028h-.69l-.024 2.756.037 2.756h-.962l.037-2.66-.024-2.852h-.691l-1.047.028-.062-.096.062-.7h4.4l.074.07zm2.891-.178c.764 0 1.355.279 1.774.836.428.549.641 1.326.641 2.331 0 1.06-.222 1.883-.665 2.468-.444.576-1.077.864-1.898.864-.773 0-1.372-.275-1.8-.823-.419-.558-.628-1.339-.628-2.344 0-1.06.222-1.879.665-2.455.452-.585 1.089-.877 1.911-.877zm-.062.768c-.518 0-.912.196-1.183.59-.271.392-.407.968-.407 1.727 0 .877.132 1.535.395 1.974.271.439.661.658 1.17.658.518 0 .912-.192 1.184-.576.271-.384.406-.96.406-1.727 0-.868-.135-1.527-.406-1.974-.263-.448-.65-.672-1.159-.672zm6.798 2.344c.838.201 1.257.7 1.257 1.495 0 1.215-.854 1.823-2.563 1.823a35.97 35.97 0 01-1.627-.041l.049-2.66-.037-3.62 1.96-.013c.624 0 1.105.132 1.442.397.337.256.505.631.505 1.125 0 .338-.086.635-.259.89a1.644 1.644 0 01-.727.604zm.087-1.37c0-.64-.444-.96-1.331-.96-.329 0-.588.004-.777.013l-.012 2.043 1.134.041c.328-.064.575-.192.739-.384.164-.2.247-.452.247-.754zm-1.307 4.016c.51 0 .9-.1 1.171-.301.271-.201.407-.494.407-.878 0-.612-.374-.964-1.122-1.056l-1.282.014v.096l.025 2.084c.263.028.53.041.801.041z" fill="#181818"/></svg>