<svg width="242" height="181" fill="none" xmlns="http://www.w3.org/2000/svg"><g clip-path="url(#clip0_139_455)"><path d="M170.009 112.551v-1.562c0-1.012-.023-2.471-.04-4.303l.068.067-22.183.044.111-.111v5.861l-.107-.111 15.809.048 4.666.032h1.592a.369.369 0 01.115 0h-1.654l-4.642.032-15.886.048h-.112v-5.97c.228-.227.064-.064.116-.111l22.183.044h.072v.067c0 1.853-.032 3.32-.04 4.343v1.427a.458.458 0 01-.068.155z" fill="#E0E0E0"/><path d="M173.012 106.685v-.423c0-.287 0-.681-.02-1.176 0-1.028-.024-2.482-.044-4.268l.08.084-13.329.032.116-.116v5.854l-.108-.108 9.536.052 2.792.029h1.014a2.445 2.445 0 01-.24 0h-.725l-2.757.028-9.607.052h-.108v-5.898c-.024.024.216-.211.112-.111l13.328.032h.084v.079c-.02 1.809-.032 3.276-.044 4.316 0 .49 0 .873-.02 1.159a2.749 2.749 0 01-.06.383z" fill="#E0E0E0"/><path d="M115.218 30.844H94.554v5.463h20.664v-5.463z" fill="#EBEBEB"/><path d="M106.48 42.061v-1.455c0-.944-.02-2.3-.036-4.009l.064.064-20.663.04c.047-.044-.105.108.103-.104v5.455l-.103-.104 14.724.048 4.348.029h1.591-1.543l-4.323.032-14.797.047h-.104v-5.499c.207-.211.056-.06.104-.104l20.664.04h.067v.064c0 1.726-.024 3.093-.032 4.045v1.33a.311.311 0 01-.064.08v.001z" fill="#E0E0E0"/><path d="M86.183 151.671H65.52v5.464h20.663v-5.464z" fill="#EBEBEB"/><path d="M77.449 162.889l-.002-.05.002-.05v-1.355c0-.944-.02-2.299-.031-4.009l.063.064-20.667.04c.049-.048-.104.108.108-.104v5.456l-.104-.104 14.73.044 4.342.032h1.504a.36.36 0 01.056-.005c.019 0 .037.002.056.004h-1.543l-4.323.032-14.8.044h-.104v-5.495c.21-.212.06-.06.104-.108l20.667.044h.064v.044c0 1.725-.029 3.092-.036 4.044v1.331a.796.796 0 01-.083.1l-.003.001zm88.508-147.986v-1.562c0-1.012-.02-2.467-.035-4.3l.067.068-22.214.064c.047-.052-.116.111.111-.111v5.854l-.111-.107 15.813.048 4.667.032h1.603-1.551l-4.643.028-15.889.052h-.108V9.052l.116-.116 22.183.043h.068v.072c0 1.853-.028 3.32-.036 4.344v1.426c0 .077-.035.088-.04.085l-.001-.003z" fill="#E0E0E0"/><path d="M168.964 9.042V8.62c0-.292 0-.682-.02-1.196 0-1.028-.024-2.483-.044-4.269l.08.08-13.329.032.111-.112v5.862l-.107-.107 9.536.052 2.792.028H169a1.64 1.64 0 01-.239 0h-.73l-2.752.032-9.607.052h-.108V3.196c-.028.024.211-.215.112-.111l13.328.032h.084v.08c-.02 1.804-.036 3.275-.044 4.315 0 .486 0 .873-.02 1.16a2.9 2.9 0 01-.06.37z" fill="#E0E0E0"/><path d="M133.433 141.745c-2.082-1.072-4.531-1.196-6.844-.833-1.241.207-2.536.578-3.378 1.51-.842.933-1.005 2.571-.036 3.372.579.474 1.384.55 2.13.538 1.811-.02 3.817-.338 5.261.749.825.622 1.376 1.654 2.361 1.957.985.303 2.054-.271 2.564-1.14a3.984 3.984 0 00.292-2.937 4.483 4.483 0 00-2.349-3.216h-.001zm4.769-9.197c-1.276 1.817-3.749 1.195-4.894.104-1.144-1.092-1.631-2.714-2.074-4.245-1.009-3.503-2.026-7.173-1.276-10.739a5.987 5.987 0 011.371-2.922 3.126 3.126 0 012.96-.981c1.245.327 2.022 1.547 2.58 2.711a25.574 25.574 0 012.533 10.982c0 1.769-.204 3.626-1.197 5.088l-.004.001.001.001zm3.494 2.605c-1.388-1.649-1.643-4.04-1.029-6.081.615-2.04 1.994-3.801 3.59-5.228a19.476 19.476 0 016.453-3.806 6.898 6.898 0 012.919-.482 3.045 3.045 0 012.437 1.471c.678 1.295.028 2.865-.679 4.148a49.135 49.135 0 01-4.239 6.452c-1.269 1.634-2.725 3.252-4.663 3.985-1.938.734-3.949.654-4.973-.689l.184.23z" fill="#6B8D72"/><path d="M138.286 159.944a3.897 3.897 0 01-.116-.825c-.055-.602-.131-1.355-.219-2.252a32.34 32.34 0 00-.507-3.302 25.7 25.7 0 00-1.196-3.902 14.235 14.235 0 00-1.994-3.527 7.392 7.392 0 00-2.52-2.093 6.98 6.98 0 00-2.118-.661 3.976 3.976 0 01-.826-.119 3.679 3.679 0 01.838 0 6.457 6.457 0 012.213.573 7.437 7.437 0 012.656 2.113 13.93 13.93 0 012.067 3.585 23.966 23.966 0 011.195 3.965c.215 1.102.363 2.225.439 3.344.072.957.099 1.73.111 2.268a3.893 3.893 0 01-.023.833z" fill="#49614E"/><path d="M138.131 158.21a1.566 1.566 0 01-.02-.398v-1.096c0-.949 0-2.327-.048-4.025-.084-3.395-.375-7.049-.941-12.206-.534-4.846-1.256-10.484-2.014-14.151a50.668 50.668 0 00-.478-2.239c-.156-.646-.272-1.227-.399-1.686l-.255-1.068a1.6 1.6 0 01-.069-.375c.059.113.105.234.136.358.08.275.188.622.315 1.048.128.427.288 1.02.451 1.674.164.654.355 1.407.531 2.236a124.147 124.147 0 012.125 13.152c.566 5.18.822 9.866.846 13.27 0 1.701 0 3.08-.06 4.033-.029.446-.052.797-.068 1.095-.007 0-.007.002-.007.003 0 .126-.015.252-.044.374l-.001.001z" fill="#49614E"/><path d="M138.107 149.141a8.385 8.385 0 01-.001-1.145c.06-1.032.181-2.077.347-3.099a42.365 42.365 0 011.008-4.514 38.217 38.217 0 011.891-5.343 28.481 28.481 0 015.553-8.635c.407-.428.846-.838 1.303-1.213l.559-.47.507-.347c.304-.232.628-.44.966-.618.052.072-1.367.908-3.162 2.813a30.144 30.144 0 00-5.409 8.602 42.084 42.084 0 00-1.905 5.296 46.24 46.24 0 00-1.507 7.542 6.857 6.857 0 01-.149 1.131h-.001z" fill="#49614E"/><path d="M146.881 165.14l-.909 12.449h-16.009l-.91-12.449h17.828zm1.548-4.91h-21.282v4.906h21.282v-4.906z" fill="#404A4F"/><path d="M148.428 177.115v1.359h-20.93v-1.359h20.93z" fill="#404A4F"/><path d="M146.446 180.868l.982-2.394H128.26l1.145 2.394h17.041z" fill="#404A4F"/><path d="M129.353 169.209s.02.04.075.115l.24.315.929 1.196.044.056.04-.056 2.289-3.168h-.132l2.257 3.188.072.1.076-.092 2.676-3.188h-.156l.148.183 2.393 2.997.079.1.076-.104 2.253-3.189h-.131l2.792 3.164.052.056.035-.064.87-1.459c.091-.159.168-.287.223-.398.056-.112.076-.136.068-.14a.738.738 0 00-.092.124l-.248.374-.913 1.435h.088l-2.736-3.188-.068-.084-.064.088c-.69.968-1.456 2.036-2.277 3.188h.156l-2.393-3.001-.143-.184-.08-.095-.075.091-2.668 3.188h.151a394.545 394.545 0 01-2.281-3.188l-.064-.096-.068.096-2.241 3.188h.08l-.969-1.159-.259-.303a.485.485 0 00-.104-.088v.002zm-.519-4.153c0 .056 3.988.099 8.958.099 4.969 0 8.958-.043 8.958-.099 0-.056-4.012-.099-8.958-.099-4.946 0-8.958.028-8.958.099zm-.81 13.549c0 .056 4.36.099 9.735.099 5.377 0 9.735-.043 9.735-.099 0-.056-4.359-.096-9.735-.096-5.376 0-9.735.044-9.735.096z" fill="#F5F5F5"/><path d="M236.259 3.252h-66.381v119.15h66.381V3.252z" fill="#EBEBEB"/><path d="M232.925 6.707H172.53v112.147h60.395V6.707z" fill="#FAFAFA"/><path d="M239.066 123.477l-2.807-1.071V1.231h2.807v122.246z" fill="#E0E0E0"/><path d="M187.339 79.149a24107.9 24107.9 0 0115.682-14.565c1.994-1.85 4.587-3.838 7.143-2.925 1.228.439 2.154 1.486 3.358 1.992 2.393 1 5.156-.446 7.012-2.283 1.855-1.837 3.31-4.132 5.555-5.463 2.246-1.331 5.727-1.16 6.836 1.196v15.852l-22.793 9.751-22.793-3.554v-.001z" fill="#F5F5F5"/><path d="M172.546 70.036c5.779-2.352 11.565-.35 15.686 4.316.869.984 1.663 2.12 2.859 2.661 1.62.734 3.49.184 5.261 0a13.232 13.232 0 0112.44 6.024l-19.295 9.485-16.951-.14V70.035z" fill="#E0E0E0"/><path d="M232.925 70.115c-3.809-1.837-7.159.399-10.669 2.738-3.51 2.339-6.78 5.367-10.897 6.312-2.752.634-5.703.283-8.375 1.227-5.421 1.933-8.555 8.811-14.302 9.138-3.119.18-5.915-1.714-8.703-3.128-2.787-1.415-4.965-2.766-7.434-.869v33.322h60.379V70.116h.001z" fill="#EBEBEB"/><path d="M234.233 38.969H172.53v1.196h61.703v-1.196zm0 26.707H172.53v1.196h61.703v-1.196zm0 26.707H172.53v1.196h61.703v-1.196z" fill="#E0E0E0"/><path d="M201.201 39.566v82.469h3.052V39.566h-3.052zM185.544 6.707h-1.384v32.86h1.384V6.706zm11.921 0h-1.384v32.86h1.384V6.706zm11.925 0h-1.384v32.86h1.384V6.706zm11.921 0h-1.384v32.86h1.384V6.706zm-51.434-5.476h-2.807V123.14h2.807V1.231z" fill="#E0E0E0"/><path d="M239.066 0H167.07v3.252h71.996V0zm1.903 123.88h-75.89v3.028h75.89v-3.028z" fill="#E0E0E0"/><path d="M236.259 122.406l4.71 1.474H165.08l4.798-1.474h66.381z" fill="#EBEBEB"/><path d="M80.443 65.058h39.074c.642 0 1.164.52 1.164 1.163v39.04c0 .643-.522 1.164-1.165 1.164H80.443a1.164 1.164 0 01-1.164-1.164v-39.04c0-.642.522-1.163 1.165-1.163z" fill="#F5F5F5"/><path d="M119.516 106.426c.136-.011.271-.04.399-.089.388-.152.663-.504.718-.916.02-1.08 0-2.69 0-4.758 0-4.14-.02-10.122-.032-17.514V66.07a1.081 1.081 0 00-1.14-.905H80.445c-.324 0-.63.147-.835.399a1.107 1.107 0 00-.204.43 2.588 2.588 0 00-.024.502v38.557a1.22 1.22 0 00.172.769c.144.22.364.38.618.451a3.892 3.892 0 00.798.039h14.585l17.528.036h6.429-6.429l-17.528.032H80.55l-.07.001c-.125 0-.25-.015-.371-.045a1.272 1.272 0 01-.718-.526 1.37 1.37 0 01-.204-.865V66.499a2.937 2.937 0 01.028-.546c.044-.187.128-.362.244-.514.243-.305.61-.484 1.001-.486h38.989l.067-.002c.289 0 .569.098.795.277.248.198.41.483.454.797.036.593 0 1.143 0 1.709v15.414c0 7.391-.023 13.373-.032 17.513 0 2.068 0 3.675-.032 4.782a1.19 1.19 0 01-.754.928c-.1.035-.205.058-.311.068l-.12-.015v.002z" fill="#263238"/><path d="M97.729 71.793a1.168 1.168 0 111.169 1.112l-.06.002a1.108 1.108 0 01-1.11-1.108v-.005zm3.095 1.112v-.004a.761.761 0 10-.762.761h.004a.957.957 0 10-.41-1.869l1.168 1.111v.001z" fill="#263238"/><path d="M102.42 70.709v2.164h-.332l-1.196-1.467v1.467h-.399v-2.164h.331l1.197 1.466v-1.466h.399zm-4.966 27.998l-.002-.056a1.168 1.168 0 111.11 1.17 1.108 1.108 0 01-1.108-1.108v-.006zm3.095 1.112a.761.761 0 10-.762.76h.004a.959.959 0 10-.41-1.872l1.169 1.112h-.001z" fill="#263238"/><path d="M100.616 97.962v.661h1.046v.339h-1.046v.83h-.398v-2.153h1.595v.335l-1.197-.012zm1.967 0v.661h1.033v.339h-1.045v.83h-.399v-2.153h1.595v.335l-1.184-.012z" fill="#263238"/><path d="M95.923 76.076h9.085c.484 0 .877.393.877.877v17.295a.877.877 0 01-.877.876h-9.085a.877.877 0 01-.878-.877V76.952c0-.484.393-.876.878-.876z" fill="#E0E0E0"/><path d="M105.004 95.124a.979.979 0 00.534-.207.846.846 0 00.311-.605v-.976c0-1.486 0-3.615-.035-6.24-.036-2.627 0-5.775-.02-9.258v-.657a1.101 1.101 0 00-.1-.601.798.798 0 00-.451-.371 2.593 2.593 0 00-.645-.032h-8.676a.763.763 0 00-.581.267.797.797 0 00-.191.626v17.039a.798.798 0 00.842.948h.503l6.245.032 1.699.02h.443a.612.612 0 01.147 0 .595.595 0 01-.147 0h-.443l-1.699.02-6.245.031h-.534a1 1 0 01-.495-.132.93.93 0 01-.38-.399 1.13 1.13 0 01-.095-.553V77.048a1.04 1.04 0 01.243-.765.975.975 0 01.735-.335h9.016l.058-.001a.972.972 0 01.868.511 1.281 1.281 0 01.12.694v.657c0 3.483 0 6.62-.024 9.257-.024 2.638-.024 4.755-.032 6.24v.985a.91.91 0 01-.347.63.8.8 0 01-.622.203h-.002z" fill="#263238"/><path d="M104.72 94.013h-8.51a1.164 1.164 0 01-1.166-1.164V85.6h10.84v7.257a1.164 1.164 0 01-1.165 1.156h.001z" fill="#F5F5F5"/><path d="M104.72 94.013a1.47 1.47 0 00.603-.204c.212-.14.374-.348.458-.589a3.909 3.909 0 00.052-1.036c0-1.594-.024-3.87-.04-6.584l.092.088h-10.84l.104-.104v6.89a1.908 1.908 0 00.067.737c.08.22.234.408.435.53a1.114 1.114 0 00.658.167h3.311l3.741.032h1.368-1.368l-3.742.032h-3.31a1.27 1.27 0 01-1.348-1.204v-7.392h11.031v.087c0 2.714-.027 4.977-.035 6.583v.562l.001.063c0 .15-.027.299-.077.44a1.195 1.195 0 01-.502.608c-.142.085-.3.139-.463.156a.887.887 0 01-.196.135v.003z" fill="#263238"/><path d="M100.465 79.667a.658.658 0 100-1.316.658.658 0 000 1.316z" fill="#6B8D72"/><path d="M114.476 85.6a1.324 1.324 0 11-1.324-1.321h.004c.729 0 1.32.59 1.32 1.319v.004-.001z" fill="#E0E0E0"/><path d="M114.476 85.6s-.02-.119-.079-.314a1.329 1.329 0 00-.487-.677 1.231 1.231 0 100 1.992c.231-.17.402-.409.487-.682.06-.195.064-.31.079-.31a.58.58 0 010 .33 1.325 1.325 0 01-.474.778 1.402 1.402 0 01-2.272-1.108 1.41 1.41 0 011.406-1.41c.308 0 .607.102.85.29.244.196.412.47.475.777a.6.6 0 01.015.335z" fill="#263238"/><path d="M114.125 84.752a8.047 8.047 0 01-1.843 1.809c.229-.37.516-.702.849-.98.286-.326.621-.606.993-.829h.001z" fill="#263238"/><path d="M114.029 86.533a5.54 5.54 0 01-.961-.873 5.164 5.164 0 01-.89-.949c.393.196.745.467 1.033.798.338.282.617.631.818 1.023v.001z" fill="#263238"/><path d="M89.493 85.6a1.324 1.324 0 01-2.648.002 1.323 1.323 0 012.648 0V85.6z" fill="#E0E0E0"/><path d="M89.494 85.6a2.893 2.893 0 01-.08-.314 1.352 1.352 0 00-.487-.677 1.238 1.238 0 00-1.967.996 1.236 1.236 0 001.968.996c.23-.17.4-.409.486-.68.02-.106.047-.21.08-.312a.624.624 0 010 .331 1.3 1.3 0 01-.475.777 1.396 1.396 0 01-1.328.223 1.41 1.41 0 01.467-2.743c.313 0 .617.106.86.3a1.327 1.327 0 01.496.94c0 .056-.007.11-.02.164z" fill="#263238"/><path d="M89.142 84.752a8.286 8.286 0 01-1.842 1.809c.227-.37.514-.702.849-.98.284-.327.62-.607.992-.828h.001v-.001z" fill="#263238"/><path d="M89.046 86.533a15.73 15.73 0 01-1.855-1.82c.395.193.748.466 1.037.796.336.286.613.634.819 1.023v.001z" fill="#263238"/><path d="M79.865 110.714h17.968a.78.78 0 01.781.781v17.952a.78.78 0 01-.781.781H79.865a.78.78 0 01-.781-.781v-17.952c0-.432.35-.782.782-.782v.001z" fill="#F5F5F5"/><path d="M97.83 130.228s.071 0 .195-.036a.798.798 0 00.446-.334 1.598 1.598 0 00.111-.909v-1.291c0-1.948-.02-4.754-.035-8.217v-8.03a.69.69 0 00-.714-.618l-.044.001H79.902a.688.688 0 00-.65.474.92.92 0 00-.031.211v17.845a.709.709 0 00.267.633c.09.072.2.12.314.136h6.832l8.224.036 2.238.02h.778a3.165 3.165 0 01-.098.002l-.099-.002h-.582l-2.238.02-8.224.032H80.18a4.384 4.384 0 01-.398-.001.851.851 0 01-.399-.172.893.893 0 01-.338-.772v-17.845a.893.893 0 01.89-.893H97.82l.053-.001a.878.878 0 01.888.782v8.03c0 3.463-.024 6.269-.032 8.217v1.809a.797.797 0 01-.61.745.583.583 0 01-.29.128z" fill="#263238"/><path d="M94.977 120.473c-.04-.465-.112-.929-.215-1.383a5.686 5.686 0 00-2.078-3.085 5.621 5.621 0 00-5.312-.797 5.582 5.582 0 00-2.597 1.948 5.574 5.574 0 000 6.611c.333.46.737.864 1.197 1.196.43.324.908.583 1.416.765a5.657 5.657 0 002.942.247 5.676 5.676 0 004.446-4.125c.103-.452.177-.916.216-1.379.04-.462 0 .029 0 .092v.271c0 .147-.012.293-.036.438a3.88 3.88 0 01-.107.598 5.31 5.31 0 01-.614 1.534 5.74 5.74 0 01-4.956 2.842c-.668 0-1.33-.115-1.96-.34a5.805 5.805 0 01-3.827-5.437 5.74 5.74 0 011.133-3.425 5.54 5.54 0 011.228-1.227c.444-.34.94-.61 1.467-.797a5.79 5.79 0 013.039-.243 5.784 5.784 0 013.877 2.741c.283.476.49.996.614 1.536.05.196.088.396.108.597.024.145.035.292.035.439v.271l.001.02a.26.26 0 01-.017.091v.001z" fill="#263238"/><path d="M102.128 110.714h17.968a.78.78 0 01.781.781v17.952c0 .432-.35.781-.782.781h-17.968a.78.78 0 01-.781-.781v-17.952c0-.432.35-.782.781-.782l.001.001z" fill="#F5F5F5"/><path d="M120.096 130.228s.067 0 .191-.036a.802.802 0 00.447-.334 1.605 1.605 0 00.111-.909v-1.291c0-1.948-.02-4.754-.032-8.217v-8.03a.689.689 0 00-.714-.618l-.044.001h-17.887a.689.689 0 00-.65.474.996.996 0 00-.032.211v17.845a.723.723 0 00.267.634.678.678 0 00.315.135h6.832l8.224.036 2.238.02h.781a3.336 3.336 0 01-.199 0h-.582l-2.238.02-8.224.032h-6.481a4.405 4.405 0 01-.399-.001.847.847 0 01-.398-.172.891.891 0 01-.339-.772v-17.845a.892.892 0 01.889-.893h17.887l.054-.001a.877.877 0 01.887.782v8.03c0 3.463-.023 6.269-.031 8.217v1.809a.797.797 0 01-.61.745.55.55 0 01-.263.128z" fill="#263238"/><path d="M104.545 113.256h13.018c.482 0 .873.391.873.873v13.007a.873.873 0 01-.874.873h-13.017a.875.875 0 01-.874-.873v-13.007c0-.481.391-.873.874-.873z" fill="#F5F5F5"/><path d="M117.575 128.009a.984.984 0 00.527-.204.851.851 0 00.311-.593v-.965c0-1.466-.02-3.586-.032-6.161v-6.014a.795.795 0 00-.706-.72h-13.089a.796.796 0 00-.778.796c0 .027.002.053.004.08v12.835l-.002.054c0 .164.049.324.142.46a.797.797 0 00.422.303 2.251 2.251 0 00.551.036h4.26l6.166.032 1.675.02h.439a.613.613 0 01.147 0 .893.893 0 01-.073.004c-.025 0-.049-.002-.074-.004h-.439l-1.675.02-6.166.036h-4.26a2.268 2.268 0 01-.603-.041.961.961 0 01-.691-.93l.001-.054v-12.835a1.018 1.018 0 01.247-.753.98.98 0 01.734-.33h13.106a.957.957 0 01.869.892v6.026c0 2.59-.028 4.694-.036 6.161v.968a.892.892 0 01-.347.622.776.776 0 01-.579.26l-.051-.001z" fill="#263238"/><path d="M110.942 127.897c-.06 0-.104-3.279-.104-7.32 0-4.04.044-7.321.104-7.321s.104 3.28.104 7.321-.047 7.32-.104 7.32zm68.818 52.971V48.337h-2.504v132.559l2.504-.028z" fill="#263238"/><path d="M177.256 180.897v-2.674c0-1.765 0-4.364-.02-7.711 0-6.703 0-16.398-.032-28.381 0-23.977-.02-57.116-.032-93.785v-.12h2.712v.105c0 36.661-.024 69.804-.032 93.773 0 11.979-.024 21.67-.032 28.369 0 3.343 0 5.942-.02 7.707 0-1.765 0-4.363-.02-7.707 0-6.699-.02-16.39-.032-28.369 0-23.969-.02-57.1-.032-93.774l.104.104h-2.505l.104-.103c0 36.661-.024 69.807-.032 93.785 0 11.982-.024 21.677-.032 28.38 0 3.347 0 5.946-.02 7.711v1.993c0 .442-.079.697-.079.697z" fill="#263238"/><path d="M164.198 30.707l-9.309 41.564h47.238l-10.625-41.436-27.304-.128z" fill="#EB8B55"/><path d="M154.562 84.576c0 .08.466-.418 1.165-1.195l2.724-3.045 2.728-3.044.838-.912c.204-.212.32-.327.331-.315a1.937 1.937 0 01-.268.37 38.21 38.21 0 01-.798.953c-.678.797-1.623 1.893-2.684 3.089-1.061 1.195-2.042 2.255-2.792 3.004-.362.375-.67.674-.889.865a2.65 2.65 0 01-.271.211.19.19 0 01-.088.032c-.012.012.004-.02.004-.012zm5.58 10.178c-.047-.029 2.162-3.985 4.938-8.843 2.776-4.858 5.065-8.767 5.117-8.743.052.024-2.162 3.985-4.938 8.847-2.775 4.862-5.065 8.766-5.117 8.739zm41.418-13.003a38.716 38.716 0 01-3.188-2.457 36.013 36.013 0 01-3.043-2.62 39.438 39.438 0 013.187 2.46 36.293 36.293 0 013.043 2.618h.002-.001zm0 11.134a1.033 1.033 0 01-.16-.151l-.431-.467c-.37-.398-.909-.996-1.595-1.713-1.341-1.442-3.231-3.399-5.325-5.555-2.093-2.156-3.988-4.129-5.289-5.6-.662-.733-1.197-1.334-1.535-1.76l-.399-.49a.954.954 0 01-.128-.183.983.983 0 01.16.155l.431.466c.37.399.909.996 1.595 1.714 1.34 1.442 3.234 3.399 5.328 5.555 2.094 2.156 3.988 4.129 5.289 5.6.658.733 1.196 1.335 1.532 1.76l.398.49c.05.054.093.115.128.18l.001-.001zm-37.569-20.603c-.06 0 1.276-9.316 2.984-20.789 1.707-11.473 3.135-20.765 3.19-20.757.056.008-1.28 9.313-2.983 20.79-1.703 11.476-3.135 20.765-3.191 20.756zm6.285-45.492c-.052.03-1.025-1.88-2.174-4.26-1.148-2.378-2.038-4.323-1.994-4.347.044-.023 1.025 1.881 2.174 4.26 1.149 2.38 2.046 4.324 1.994 4.348zm6.744-14.429c.056 0 .104 3.308.104 7.385 0 4.076-.048 7.36-.104 7.36-.055 0-.104-3.303-.104-7.38 0-4.076.064-7.364.104-7.364zm9.688 4.292c.055 0-.659 2.036-1.595 4.499-.938 2.463-1.735 4.443-1.787 4.423-.052-.02.662-2.032 1.596-4.499.933-2.466 1.734-4.443 1.786-4.423zM15.726 134.249s-6.457 12.736-6.633 17.187c-.175 4.451 0 13.401 0 13.401l2.046 16.044h34.044l-1.156-30.285s2.744-7.348 1.312-14.251l-29.614-2.096h.001z" fill="#263238"/><path d="M37.171 140.772s-.024.068-.091.18l-.3.498a10.07 10.07 0 01-.507.761c-.21.287-.434.634-.725.976-.291.343-.587.737-.95 1.127-.362.391-.753.798-1.172 1.216a25.526 25.526 0 01-3.006 2.446 26.279 26.279 0 01-3.38 1.92c-.547.239-1.061.478-1.56.654-.498.175-.965.346-1.396.478-.43.131-.825.231-1.168.323-.294.08-.594.147-.895.195l-.57.104a.88.88 0 01-.204 0 .84.84 0 01.195-.064l.562-.135c.243-.056.543-.128.881-.231.34-.104.738-.2 1.157-.35.42-.152.89-.295 1.376-.498.487-.204 1-.427 1.54-.67a27.17 27.17 0 003.335-1.915 27.774 27.774 0 002.988-2.411c.399-.399.83-.797 1.177-1.196.347-.399.678-.757.965-1.104.287-.346.527-.669.742-.952.215-.283.399-.53.534-.737l.332-.474c.043-.052.09-.1.14-.142v.001zm-10.928 40.125c-.06 0-.431-6.691-.83-14.951-.4-8.261-.678-14.964-.618-14.968.06-.004.426 6.695.825 14.956.4 8.261.69 14.963.623 14.963z" fill="#455A64"/><path d="M25.769 141.809c-.108.405-.242.806-.4 1.195a21.38 21.38 0 00-.72 2.917 20.02 20.02 0 00-.288 2.992 11.047 11.047 0 01-.036 1.257 1.254 1.254 0 01-.055-.335 9.31 9.31 0 01-.057-.921l-.002-.313a15.975 15.975 0 011.033-5.647 9.3 9.3 0 01.363-.848 1.08 1.08 0 01.163-.296l-.001-.001z" fill="#455A64"/><path d="M48.765 82.154c-1.352-1.992-2.932-4.176-2.592-6.567.207-1.43 1.1-2.73 1.108-4.18 0-2.606-2.756-4.447-3.234-7.01-.49-2.626 1.53-5.052 1.847-7.706.247-2.057-.547-4.073-.994-6.093-.937-4.28.958-11.03-4.67-17.446l-.363 4.746c-2.612 2.905-3.514 6.918-4.32 10.76-2.042 9.683-4.088 19.493-3.59 29.38.168 3.492.739 7.174 2.984 9.855 2.326 2.79 6.135 3.985 9.752 3.854 2.198-.084 4.683-.882 5.62-2.874 1.032-2.175-.2-4.722-1.548-6.718v-.001zM6.924 57.04a6.687 6.687 0 00-1.197 7.804c.667 1.196 1.72 2.216 2.158 3.526.51 1.53.083 3.248-.723 4.647-.806 1.398-1.958 2.562-3.022 3.778C1.575 79.707-.646 83.589.458 87.303c.443 1.47 1.38 2.79 1.68 4.276.398 1.904-.312 3.885 0 5.798a5.639 5.639 0 003.78 4.41 5.343 5.343 0 005.552-1.594c1.739-2.06 1.576-5.05 1.635-7.746a34.377 34.377 0 013.403-14.137c.622-1.279 1.324-2.534 1.691-3.91.367-1.374.359-2.92-.399-4.128L6.923 57.04h.001z" fill="#263238"/><path d="M38.168 43.472c.082.373.273.714.547.98.22.31.525.552.877.694.036-.047-.335-.37-.722-.83a7.195 7.195 0 00-.702-.844z" fill="#455A64"/><path d="M15.682 54.091c-1.049-2.929-2.086-5.865-2.6-8.946-.515-3.08-.53-6.276.466-9.22.152-.447 1.468-3.451 1.939-3.42.335.024-.447 2.814-.268 3.101 1.7 2.73 2.238 6.057 2.074 9.27a42.114 42.114 0 01-1.592 9.215l-.019.001z" fill="#263238"/><path d="M23.998 79.631c-4.815-.113-8.663-4.05-8.663-8.863v-.023l.064-29.019c-.231-7.798 4.116-14.429 11.92-14.445l.723.04c7.257.412 12.985 6.326 13.162 13.585.164 6.774-.263 12.68-.51 16.286-.491 7.468-7.464 8.568-7.464 8.568s-.12 2.925-.147 5.121c-.058 4.859-4.018 8.77-8.882 8.77l-.203-.002v-.017z" fill="#FFBE9D"/><path d="M33.23 65.76a12.871 12.871 0 01-9.735-1.993c-2.135-1.455 2.162 4.451 9.652 3.958l.084-1.965z" fill="#EB996E"/><path d="M38.647 46.983a1.068 1.068 0 01-1.113 1.053 1.02 1.02 0 01-1.021-.994 1.068 1.068 0 011.11-1.053c.553 0 1.007.44 1.024.994zm.486-2.403c-.14.135-.933-.483-2.086-.506-1.152-.024-1.994.53-2.13.398-.06-.064.084-.314.46-.574a2.948 2.948 0 011.706-.482 2.876 2.876 0 011.656.578c.347.27.458.526.394.585zm-10.844 2.403a1.068 1.068 0 01-1.109 1.053c-.554 0-1.008-.44-1.024-.994a1.067 1.067 0 011.109-1.053c.554 0 1.008.44 1.024.994zm3.466 5.797c0-.067.714-.17 1.878-.29.291-.024.575-.076.627-.275a1.485 1.485 0 00-.175-.877c-.26-.716-.53-1.466-.798-2.255-1.128-3.212-1.942-5.85-1.81-5.894.131-.044 1.152 2.522 2.281 5.734l.798 2.268a1.697 1.697 0 01.123 1.16.729.729 0 01-.49.399c-.16.039-.325.06-.49.06h-.012c-1.205.047-1.927.035-1.931-.028v-.001zm-3.578-12.615c-.148.299-1.28.028-2.644.052-1.364.023-2.492.27-2.64-.029-.068-.143.155-.398.626-.669a4.606 4.606 0 014.025-.02c.474.252.693.523.633.666zm11.399.98c-.227.262-1.133 0-2.218 0-1.084 0-1.994.183-2.214-.092-.096-.131.048-.398.451-.64a3.395 3.395 0 011.8-.435 3.317 3.317 0 011.77.518c.387.255.514.522.41.65v-.001zm-11.522 3.371c-.135.136-.933-.483-2.082-.506-1.148-.024-1.994.53-2.13.398-.06-.064.08-.31.455-.57a2.95 2.95 0 011.712-.482c.598.01 1.176.214 1.65.578.347.267.463.522.395.582z" fill="#263238"/><path d="M31.348 57.064a2.824 2.824 0 01-1.423.73 2.114 2.114 0 01-1.927-.713 1.345 1.345 0 01.12-1.53 2.117 2.117 0 011.467-.761 2.315 2.315 0 012.066.88c.439.564.55.65-.303 1.395z" fill="#EB996E"/><path d="M28.448 54.008c.184 0 .172 1.196 1.197 2.093 1.025.897 2.337.76 2.346.932 0 .076-.292.235-.842.243h-.007a3.05 3.05 0 01-1.955-.709 2.668 2.668 0 01-.933-1.757c-.017-.51.111-.81.195-.801zm8.069-21.745c.55 1.82 2.158 3.084 3.215 4.666 1.487 2.228 1.83 5.017 1.862 7.695-.075-1.26.427-2.475.674-3.714a9.168 9.168 0 00-6.161-10.508l.41 1.861z" fill="#263238"/><path d="M36.8 32.203c.974-1.893.164-4.344-1.436-5.746-1.6-1.403-3.797-1.928-5.922-2.04a18.807 18.807 0 00-18.881 12.92c-1.883 5.75-.933 12.2-3.191 17.812-.603 1.482-1.42 2.873-1.95 4.383-.53 1.51-.763 3.188-.164 4.694.635 1.57 2.114 2.71 2.625 4.324.913 2.877-1.448 6.452.399 8.823 1.34 1.697 4.075 1.47 5.919.338 1.842-1.131 3.19-2.924 4.94-4.192a10.907 10.907 0 0111.881-.398c1.292.797 2.88 1.773 3.881 2.929 1.173 1.355 3.478 6.2 3.742 4.698.191-1.076-1.787-6.543-2.541-7.332-3.928-4.12-5.436-4.934-11.366-6.081a24.573 24.573 0 01-3.126-.646c-4.1-1.351-3.258-5.388-2.34-6.503.917-1.116 2.157-2.068 2.52-3.468.745-2.84-2.577-5.702-1.528-8.46.574-1.537 2.392-2.518 2.516-4.155.096-1.395-1.121-2.762-.63-4.069.49-1.307 2.261-1.51 3.215-2.518 1.069-1.144.9-3.09 2.014-4.188 1.112-1.1 2.943-.842 4.49-.574 1.548.267 3.458.306 4.34-.993l.594.443v-.001z" fill="#263238"/><path d="M5.372 99.983s-.08 0-.235-.029a1.054 1.054 0 01-.29-.068l-.184-.06-.196-.1a3.237 3.237 0 01-1.5-2.187 5.396 5.396 0 01-.084-1.96c.156-.766.401-1.514.725-2.224.332-.77.723-1.57 1.026-2.463a7.02 7.02 0 00.335-1.406 7.85 7.85 0 000-1.519c-.1-1.04-.399-2.108-.61-3.235-.21-1.128-.398-2.351-.087-3.587a6.83 6.83 0 01.702-1.764 15.3 15.3 0 01.53-.822c.188-.267.4-.533.603-.797.842-1.024 1.818-1.968 2.732-3.013.22-.262.455-.521.662-.797.104-.14.216-.275.315-.398l.291-.44c.1-.144.192-.297.272-.453.08-.16.171-.311.247-.47.145-.326.266-.664.359-1.008a5.77 5.77 0 00.188-2.148 11.1 11.1 0 00-.4-2.188c-.398-1.45-.957-2.897-1.232-4.45a7.377 7.377 0 01-.035-2.392 7.037 7.037 0 01.798-2.267c.375-.713.797-1.394 1.133-2.104.34-.704.579-1.456.705-2.228.251-1.53.148-3.076.112-4.586a15.993 15.993 0 01.36-4.45c.35-1.382.866-2.724 1.525-3.986.627-1.247 1.32-2.415 1.994-3.55.674-1.136 1.337-2.228 2.043-3.248 1.4-2.04 3.027-3.77 4.885-4.81a9.474 9.474 0 012.824-1.044 10.743 10.743 0 012.685-.148 10.41 10.41 0 014.108 1.196c.8.425 1.54.963 2.19 1.594.435.446.634.701.634.701l-.171-.167c-.112-.112-.263-.295-.49-.502a9.875 9.875 0 00-2.198-1.55 10.392 10.392 0 00-4.765-1.163c-.657 0-1.318.064-1.963.187a9.309 9.309 0 00-2.793 1.04c-1.83 1.031-3.434 2.75-4.818 4.782-.702 1.011-1.36 2.108-2.03 3.243-.67 1.136-1.356 2.3-1.994 3.543a18.657 18.657 0 00-1.506 3.96 15.788 15.788 0 00-.348 4.384c.036 1.507.143 3.06-.111 4.623a8.317 8.317 0 01-.71 2.275c-.343.722-.766 1.403-1.136 2.109a6.865 6.865 0 00-.798 2.207 7.218 7.218 0 00.036 2.312c.267 1.53.83 2.969 1.224 4.435.21.724.354 1.473.419 2.224a6.108 6.108 0 01-.2 2.219 6.612 6.612 0 01-.374 1.031c-.076.167-.167.323-.251.483a4.51 4.51 0 01-.275.466l-.3.447c-.103.147-.215.282-.322.426-.212.287-.447.546-.67.797-.922 1.048-1.899 1.992-2.737 3.001a8.088 8.088 0 00-1.807 3.291c-.319 1.196-.135 2.391.076 3.511.211 1.12.503 2.192.603 3.248a7.754 7.754 0 010 1.554c-.065.487-.18.967-.343 1.43-.311.901-.714 1.702-1.045 2.467a10.046 10.046 0 00-.734 2.187 5.236 5.236 0 00.064 1.93 3.216 3.216 0 001.439 2.171c.28.15.586.255.901.307h-.003z" fill="#fff"/><path d="M90.156 89.219l3.665-4.615 7.976-4.626s.838.541-.207 1.912-4.619 4.308-4.619 4.308a5.25 5.25 0 011.684.706c.405.428.706.947.873 1.513a2.693 2.693 0 01.626 2.518c-.06.225.49 1-.044 2.738-.131.43-.263.797-.399 1.1a2.338 2.338 0 01-1.89 1.431l-7.665-6.986v.001z" fill="#FFBE9D"/><path d="M30.69 70.49c0 .04-.662-.187-1.755-.367a13.47 13.47 0 00-1.93-.167h-.06c-.77 0-1.539.064-2.297.189-.778.13-1.552.329-2.298.585a12.98 12.98 0 00-1.775.777c-.977.514-1.527.937-1.551.905.11-.119.236-.224.37-.315a5.34 5.34 0 01.467-.36c.187-.119.399-.262.642-.398a12.5 12.5 0 011.78-.796 13.58 13.58 0 012.324-.613A14.035 14.035 0 0127 69.774c.655.02 1.31.092 1.955.215.275.044.519.116.734.167.183.044.365.1.542.163.16.04.313.098.46.172l-.001-.001z" fill="#263238"/><path d="M25.697 70.94s7.73-.757 11.566 4.284c3.318 4.383 8.296 13.549 11.016 15.629 2.72 2.08 14.581 8.906 14.581 8.906s19.544-4.571 21.41-5.726c1.866-1.156 5.77-4.878 5.77-4.878l7.818 7.097s-29.41 19.128-35.217 18.443c-3.342-.399-14.318-5.129-23.044-9.078-9.269-4.2-15.913-12.752-17.333-22.834-.69-4.877-.008-10.169 3.434-11.843h-.001z" fill="#6B8D72"/><path d="M63.581 105.908a3.632 3.632 0 01-.326-.853 14.48 14.48 0 01-.604-4.134l.002-.208-.003-.14c0-.259.03-.518.087-.77.064 0 0 1.391.255 3.076.255 1.686.653 3.01.59 3.03v-.001zm27.931-15.509a9.23 9.23 0 01-1.425 1.299c-.474.434-.997.82-1.555 1.143.427-.481.906-.92 1.424-1.303a8.884 8.884 0 011.556-1.14zm2.712 2.566a6.48 6.48 0 01-1.196 1.108 6.227 6.227 0 01-1.329.948 6.74 6.74 0 011.197-1.108 6.642 6.642 0 011.328-.949v.001zm2.102 2.001a6.522 6.522 0 01-1.432 1.263 6.655 6.655 0 01-1.636.98c.474-.42.98-.802 1.511-1.147a12.97 12.97 0 011.555-1.096h.002z" fill="#263238"/><path d="M26.367 70.307a9.477 9.477 0 00-9.736 3.626 24.696 24.696 0 00-4.905 14.671c-.093 12.732 1.088 38.841 3.09 42.173l-3.099 10.154 36.461-3.151s-1.22-34.203-2.305-42.847c-.746-5.977-6.381-14.716-9.784-19.526a11.069 11.069 0 00-6.584-4.383l-3.139-.718v.001z" fill="#6B8D72"/><path d="M17.672 140.417a7.117 7.117 0 01.08-1.287 27.43 27.43 0 01.539-3.064 26.65 26.65 0 01.9-2.96 6.52 6.52 0 01.512-1.197c-.095.419-.22.834-.372 1.236a41.885 41.885 0 00-.838 2.981 41.322 41.322 0 00-.594 3.037c-.048.42-.126.842-.227 1.254v.001-.001zm8.196-.708a6.47 6.47 0 01-.052-1.236c.027-1.992.365-3.973.993-5.864.112-.399.267-.786.459-1.153-.08.404-.187.807-.319 1.196a29.054 29.054 0 00-.654 2.888c-.158.975-.274 1.96-.33 2.945a9.372 9.372 0 01-.097 1.224zm9.217-.797a36.546 36.546 0 01-.167-3.46c0-.15.005-.317.005-.463a36.251 36.251 0 01.046-3.918c.107 1.156.163 2.336.163 3.501v.418c.015.506.029 1.025.029 1.536 0 .793-.029 1.597-.075 2.386h-.001zm7.63-.662a8.48 8.48 0 01-.088-1.197 38.571 38.571 0 00-.255-2.909 40.265 40.265 0 00-.49-2.877 8.073 8.073 0 01-.223-1.195c.158.374.282.764.366 1.16a23.996 23.996 0 01.751 5.813 6.415 6.415 0 01-.06 1.205h-.001zm1.838-30.418a1.05 1.05 0 01-.219-.075l-.61-.259a80.993 80.993 0 01-2.225-.997 140.12 140.12 0 01-7.207-3.586 145.518 145.518 0 01-7-3.985 80.16 80.16 0 01-2.07-1.295l-.554-.363a1.243 1.243 0 01-.184-.14.775.775 0 01.208.103l.574.332 2.102 1.235a216.683 216.683 0 007.02 3.929 194.308 194.308 0 007.178 3.638l2.198 1.056.598.291c.068.03.132.069.19.116h.002z" fill="#263238"/><path d="M28.915 99.632a8.965 8.965 0 01-1.196.107c-.95.073-1.908.202-2.844.37-.936.172-1.88.402-2.793.669a9.44 9.44 0 01-1.148.323 5.36 5.36 0 011.105-.463 19.04 19.04 0 015.662-1.043 5.715 5.715 0 011.213.036h.001z" fill="#263238"/><path d="M25.17 97.547c3.558 5.245 9.771 8.819 16.112 8.879-5.44-3.044-10.672-5.834-16.112-8.879z" fill="#000" fill-opacity=".302"/><path d="M242 180.896c0 .061-54.178.104-120.995.104C54.189 181 0 180.957 0 180.896c0-.06 54.167-.104 121.005-.104 66.839 0 120.995.048 120.995.104z" fill="#263238"/></g><defs><clipPath id="clip0_139_455"><path fill="#fff" d="M0 0h242v181H0z"/></clipPath></defs></svg>