<svg width="252" height="166" fill="none" xmlns="http://www.w3.org/2000/svg"><g clip-path="url(#clip0_139_586)"><path d="M139.159 135.874v16.768h-2.817v1.834h2.817v11.221h52.686v-10.225h-3.901v-2.223h3.901v-3.336h1.736v-1.533h-2.06v-12.506h-52.362z" fill="#F5F5F5"/><path d="M177.858 135.923v29.575h13.987v-10.209h-3.901v-2.04l3.901.069v-3.336l1.767.004-.031-1.725-2.06-.051v-12.336l-13.663.049z" fill="#E0E0E0"/><path d="M178.853 154.223c0 .103-9.529.184-21.283.184-11.753 0-21.29-.08-21.29-.184s9.529-.189 21.29-.189 21.283.084 21.283.189zm0-1.704c0 .1-9.529.185-21.283.185-11.753 0-21.29-.084-21.29-.185 0-.099 9.529-.188 21.29-.188s21.283.084 21.283.188zm2.748-4.584c0 .103-9.529.184-21.286.184-11.757 0-21.286-.079-21.286-.184 0-.103 9.529-.188 21.286-.188 11.757 0 21.286.083 21.286.188zm.25 12.49c0 .103-9.529.188-21.286.188-11.756 0-21.286-.084-21.286-.188s9.527-.2 21.286-.2c11.761 0 21.286.099 21.286.2z" fill="#E0E0E0"/><path d="M50.339 85.551L29.87 82.96l-3.17 24.732 20.468 2.591 3.17-24.732z" fill="#fff"/><path d="M50.34 85.552l-20.469-2.59-2.36 18.403 20.47 2.591 2.359-18.404z" fill="#EBEBEB"/><path d="M40.188 105.08c0 .034-2.657-.268-5.922-.682-3.264-.414-5.906-.766-5.903-.817.004-.05 2.655.268 5.922.678 3.268.41 5.906.783 5.904.82v.001zm-6.848.417c0 .034-1.157-.08-2.577-.257a24.048 24.048 0 01-2.564-.386c.861.04 1.726.127 2.578.258a24.19 24.19 0 012.563.385v-.002.002z" fill="#E0E0E0"/><path d="M47.172 110.282l-.001-.059.001-.059c0-.084.024-.199.039-.349.039-.307.093-.767.166-1.343.147-1.173.363-2.887.633-5.06.548-4.344 1.331-10.52 2.257-17.87l.054.07-20.45-2.585.08-.062c-1.157 9.147-2.272 17.635-3.182 24.733l-.05-.065 14.84 1.918 4.147.54 1.097.146.386.054-.386-.043-1.084-.131-4.136-.498-14.886-1.855h-.058v-.058c.903-7.077 1.99-15.589 3.16-24.733v-.069h.07l20.45 2.6h.062v.062c-.957 7.364-1.76 13.553-2.315 17.901-.282 2.166-.509 3.872-.66 5.045-.077.579-.138 1.023-.177 1.326l-.05.341c.004.065-.004.103-.004.103h-.003z" fill="#E0E0E0"/><path d="M20.524 73.738L.057 76.34l3.183 24.73 20.467-2.602-3.184-24.73z" fill="#F5F5F5"/><path d="M20.527 73.735L.06 76.337 2.429 94.74l20.467-2.602-2.369-18.403zm-4.889 21.437c0 .035-2.64.403-5.904.82-3.264.418-5.915.72-5.92.682-.003-.038 2.637-.406 5.905-.82 3.268-.414 5.915-.72 5.92-.682zm-6.506 2.113c-.842.174-1.701.303-2.557.384-.848.13-1.719.217-2.577.256a25.37 25.37 0 012.558-.384c.847-.13 1.718-.216 2.576-.254v-.002z" fill="#E0E0E0"/><path d="M23.713 98.466s0-.042-.02-.118c-.019-.077-.026-.195-.05-.35-.038-.306-.1-.765-.177-1.338-.153-1.173-.386-2.887-.667-5.056l-2.314-17.862.069.053-20.45 2.611.062-.077c1.157 9.145 2.265 17.636 3.176 24.733l-.065-.049 14.807-1.86 4.167-.513 1.096-.13.386-.044-.386.054-1.084.142-4.132.54-14.874 1.918H3.2v-.058C2.281 93.985 1.181 85.478 0 76.333v-.069h.07l20.45-2.595h.061v.062l2.278 17.907c.27 2.167.485 3.877.632 5.05.074.579.128 1.023.166 1.33 0 .146.03.257.04.337l.018.111h-.002z" fill="#E0E0E0"/><path d="M39.537 70.723L19.453 66.02l-5.756 24.268 20.084 4.703 5.756-24.268z" fill="#fff"/><path d="M39.536 70.72l-20.084-4.702-4.283 18.058 20.085 4.703 4.282-18.059z" fill="#EBEBEB"/><path d="M27.387 89.088c0 .035-2.612-.54-5.814-1.291-3.202-.751-5.788-1.388-5.788-1.426 0-.039 2.616.54 5.818 1.291 3.202.751 5.796 1.388 5.784 1.426zm-6.853-.295a25.99 25.99 0 01-2.527-.525 25.15 25.15 0 01-2.503-.656 23.43 23.43 0 012.526.535c.847.17 1.683.39 2.506.647l-.002-.001z" fill="#E0E0E0"/><path d="M33.787 94.99l.024-.119c0-.08.043-.191.077-.341.07-.303.174-.744.305-1.32.27-1.15.663-2.833 1.157-4.965 1.004-4.263 2.427-10.324 4.125-17.54l.046.077-20.079-4.696.08-.05c-2.13 8.971-4.112 17.318-5.764 24.266l-.043-.07 14.557 3.452 4.067.966 1.077.26.387.093-.363-.077-1.08-.257-4.063-.935-14.608-3.39h-.058v-.058l5.74-24.267v-.07h.07l20.083 4.709h.058v.062c-1.725 7.223-3.176 13.291-4.194 17.562-.51 2.124-.915 3.795-1.188 4.947l-.317 1.304c-.039.141-.065.253-.085.33l-.01.13v-.004z" fill="#E0E0E0"/><path d="M236.888 84.258l-21.243 8.077 9.885 25.67 21.243-8.077-9.885-25.67z" fill="#fff"/><path d="M236.885 84.26l-21.243 8.076 7.356 19.103 21.243-8.077-7.356-19.103z" fill="#EBEBEB"/><path d="M237.261 108.469c0 .043-2.7 1.115-6.107 2.407s-6.15 2.3-6.174 2.263c-.023-.039 2.701-1.116 6.108-2.407 3.406-1.292 6.157-2.293 6.173-2.263zm-6.435 3.96a54.256 54.256 0 01-5.334 2.026c.859-.402 1.745-.77 2.642-1.085a27.1 27.1 0 012.693-.944l-.001.002v.001z" fill="#E0E0E0"/><path d="M246.773 109.917s0-.042-.05-.122l-.142-.356c-.124-.318-.305-.766-.544-1.392-.471-1.215-1.158-2.991-2.038-5.241-17.281-10.582-14.624-14.98-7.176-18.533l.088.038-21.221 8.085.046-.096c3.65 9.492 7.049 18.322 9.874 25.687l-.08-.034 15.433-5.828c1.856-.701 3.314-1.25 4.314-1.622l1.137-.425.387-.145-.387.152-1.15.418-4.287 1.648-15.433 5.904-.063.023-.023-.062-9.885-25.651-.027-.073.07-.026 21.244-8.051.062-.024.024.062c2.932 7.669 5.401 14.079 7.126 18.598.861 2.251 1.544 4.027 2.003 5.241l.521 1.384.135.352.043.088-.001.001z" fill="#E0E0E0"/><path d="M252 165.9c0 .054-55.881.099-124.794.099-68.914 0-124.81-.045-124.81-.099 0-.053 55.87-.099 124.81-.099 68.941 0 124.794.043 124.794.099z" fill="#263238"/><path d="M199.515 10.468H68.633v86.704h130.882V10.468z" fill="#FAFAFA"/><path d="M199.519 97.171c0-.652-.03-33.857-.08-86.703l.08.077-130.875.023.1-.099v86.704l-.093-.093 130.886.093-130.886.087h-.1V10.37h131.065v.08c-.065 52.865-.097 86.07-.097 86.722z" fill="#263238"/><path d="M138.302 48.177v-1.078c0-.706 0-1.721-.023-3.014 0-2.596-.024-6.298-.043-10.766l.084.08h-19.215c-.024 0 .19-.189.1-.1v14.869l-.089-.093 13.855.046 3.94.023h1.42-1.381l-3.921.024-13.936.107h-.089V33.323l.1-.099h19.28v.1c-.02 4.489-.031 8.208-.043 10.815 0 1.287 0 2.3-.024 2.998v.767c0 .171-.019.272-.019.272l.004.001z" fill="#263238"/><path d="M178.812 83.357H75.662v-65.34h103.15v65.34zm-102.764-.384h102.378V18.4H76.048v64.574z" fill="#263238"/><path d="M178.618 18.207H75.855v3.309h102.763v-3.308zM79.587 35.905h-3.731v47.26h3.73v-47.26z" fill="#263238"/><path d="M79.587 18.207h-3.731v6.23h3.73v-6.23z" fill="#263238"/><path d="M85.023 34.146l-6.818-9.969 1.2-.808 6.818 9.968-1.2.809zM78.74 24.28l6.4 9.331.564-.384-6.381-9.331-.583.384zm10.743 33.582h-8.97v-9.584h8.963l.008 9.584h-.001zm-8.586-.383h8.191V48.66h-8.19v8.819zm97.721 21.944H75.855v3.741h102.763v-3.741z" fill="#263238"/><path d="M85.003 55.734H85a2.561 2.561 0 01-2.57-2.553A2.562 2.562 0 0185 50.628a2.561 2.561 0 012.57 2.553 2.565 2.565 0 01-2.566 2.553zm2.567-7.276h-.005a2.178 2.178 0 00-2.184 2.17c0 1.198.979 2.17 2.184 2.17a2.178 2.178 0 002.185-2.17 2.375 2.375 0 00-2.373-2.174 2.373 2.373 0 00-2.373 2.557l2.566-2.553zm59-17.817h-34.724v-9.316h34.724v9.316zm-34.339-.384h33.953v-8.55h-33.953v8.55z" fill="#263238"/><path d="M123.564 29.446l-4.083-3.386 3.407-4.045 4.071 3.385-3.395 4.046zm-3.53-3.432l3.473 2.894 2.912-3.451-3.473-2.894-2.912 3.45z" fill="#263238"/><path d="M128.985 29.446l-4.072-3.386 3.407-4.045 4.074 3.385-3.411 4.046h.002zm-3.528-3.432l3.474 2.894 2.912-3.451-3.473-2.894-2.913 3.45z" fill="#263238"/><path d="M134.41 29.446l-4.074-3.385 3.422-4.044 4.074 3.385-3.422 4.044zm-3.53-3.432l3.473 2.894 2.912-3.451-3.473-2.894-2.912 3.45zm21.217 2.879a3.173 3.173 0 01-3.183-3.163c0-1.747 1.426-3.162 3.183-3.162a3.172 3.172 0 013.182 3.162c-.001 1.747-1.426 3.161-3.182 3.164v-.001zm3.182-9.106a2.79 2.79 0 00-2.798 2.78 2.79 2.79 0 002.798 2.78 2.79 2.79 0 002.798-2.78 2.988 2.988 0 00-2.99-2.786 2.987 2.987 0 00-2.99 3.17l3.182-3.163v-.001zm-45.64 9.88h-14.89v-8.342h14.89v8.342zm-14.503-.384h14.118v-7.576H95.136v7.576zm80.246 19.657h-8.597V26.943h8.597v21.999zm-8.211-.383h7.826V27.325h-7.826v21.232z" fill="#263238"/><path d="M178.619 18.207h-3.43v61.216h3.43V18.207zm-15.877 26.059h-.625a2.607 2.607 0 01-2.612-2.595v-4.984a2.607 2.607 0 012.612-2.595h.626a2.607 2.607 0 012.612 2.595v4.984a2.607 2.607 0 01-2.612 2.595h-.001zm-.625-9.792a2.223 2.223 0 00-2.226 2.212v4.983a2.223 2.223 0 002.226 2.212h.625a2.224 2.224 0 002.226-2.212v-4.983a2.224 2.224 0 00-2.226-2.212h-.626.001zM122.495 59.49c0 .054-9.742.1-21.757.1-12.014 0-21.76-.046-21.76-.1 0-.053 9.738-.098 21.76-.098 12.023 0 21.757.045 21.757.099z" fill="#263238"/><path d="M122.182 67.52a6.835 6.835 0 01-.073-1.204 119 119 0 01-.026-2.91c0-1.135 0-2.167.026-2.911a6.858 6.858 0 01.073-1.208c.047.344.072.692.072 1.039l-.001.169c0 .744.03 1.771.03 2.91 0 1.14 0 2.167-.03 2.91l.001.169c0 .346-.025.693-.07 1.035h-.002zM90.756 79.871H79.393V59.3h11.363v20.572zm-10.977-.383H90.37V59.681H79.78v19.805zm111.746-61.28c0 .054-4.279.099-9.557.099-5.279 0-9.557-.045-9.557-.1 0-.053 4.274-.098 9.557-.098 5.282 0 9.557.042 9.557.099z" fill="#263238"/><path d="M191.37 89.243c-.054 0-.1-16.363-.1-36.54 0-20.178.046-36.545.1-36.545.054 0 .1 16.359.1 36.544 0 20.186-.046 36.54-.1 36.54z" fill="#263238"/><path d="M195.193 83.314c0 .058-3.835.104-8.561.104s-8.566-.046-8.566-.104c0-.057 3.836-.099 8.566-.099s8.561.046 8.561.1z" fill="#263238"/><path d="M178.372 88.939a37.946 37.946 0 01-.112-2.863c0-.31.008-.633.013-.938-.004-.303-.013-.626-.013-.935 0-.952.04-1.918.113-2.864a36.607 36.607 0 01.1 3.802 36.15 36.15 0 01-.101 3.8v-.002z" fill="#263238"/><path d="M76.68 87.42c0-.057 25.466-.099 56.885-.099 31.419 0 56.887.043 56.887.1 0 .057-25.465.098-56.887.098s-56.884-.045-56.884-.099zm-.454 1.823a22.853 22.853 0 01-.1-3.037 22.519 22.519 0 01.101-3.041 24.799 24.799 0 01.1 3.042 24.297 24.297 0 01-.101 3.036zm9.943-55.918a1.545 1.545 0 01-.278.264c-.186.16-.471.383-.834.633a11.337 11.337 0 01-3.113 1.482 13.782 13.782 0 01-3.41.542h-1.046a1.262 1.262 0 01-.385-.034c0-.035.544-.043 1.42-.108a16.496 16.496 0 003.362-.594 12.852 12.852 0 003.087-1.411c.748-.468 1.176-.805 1.2-.774h-.003zm42.187 44.289l-6.817-9.968 1.2-.809 6.813 9.969-1.196.808zm-6.282-9.865l6.382 9.332.563-.384-6.385-9.329-.56.38v.001z" fill="#263238"/><path d="M129.513 76.786c-.08.1-.173.19-.278.264a8.928 8.928 0 01-.833.633 11.277 11.277 0 01-3.113 1.487 14.185 14.185 0 01-3.41.54h-1.045c-.022.002-.044.002-.065.002-.108 0-.216-.014-.321-.04 0-.03.544-.043 1.42-.107a16.288 16.288 0 003.36-.59 12.887 12.887 0 003.087-1.416c.733-.46 1.161-.802 1.2-.774l-.002.001zm-10.418-46.754c-.054 0-.099-1.867-.099-4.168 0-2.3.045-4.172.099-4.172.054 0 .1 1.866.1 4.172 0 2.304-.054 4.168-.1 4.168zm18.907.364c-.054 0-.1-1.886-.1-4.217 0-2.332.046-4.218.1-4.218.054 0 .104 1.886.104 4.218 0 2.331-.063 4.217-.104 4.217zm28.775 31.752a.922.922 0 010-.212c0-.16.03-.36.054-.602.062-.549.142-1.296.243-2.208l.387-3.27a4.65 4.65 0 00.065-.772l-.003-.153a.827.827 0 00-.503-.695 6.367 6.367 0 00-.969-.276l-1.038-.25-7.157-1.756-2.165-.555-.586-.161a.673.673 0 01-.201-.07.77.77 0 01.209.031l.594.123 2.18.495 7.172 1.703 1.034.249c.346.066.687.163 1.015.291.167.08.312.198.425.346.102.148.163.321.177.502a4.409 4.409 0 01-.069.97c-.158 1.222-.305 2.327-.428 3.266-.123.94-.231 1.652-.309 2.197-.033.24-.064.44-.093.598a.735.735 0 01-.034.208v.001z" fill="#263238"/><path d="M159.288 50.435a7.404 7.404 0 01-1.207.273c-.771.142-1.794.326-2.947.517l.062-.16.034.042a123.33 123.33 0 011.872 2.366c.269.317.512.659.724 1.016a7.658 7.658 0 01-.837-.927c-.499-.59-1.158-1.415-1.93-2.331l-.031-.043-.108-.13.171-.031a157.19 157.19 0 012.955-.457 7.714 7.714 0 011.243-.135h-.001zm-45.618 7.88H90.72V43.209h22.95v15.106zm-22.564-.384h22.178V43.593H91.106V57.93z" fill="#263238"/><path d="M97.192 58.061c-.054 0-.1-3.243-.1-7.242 0-3.998.046-7.238.1-7.238.054 0 .1 3.24.1 7.238 0 3.999-.043 7.242-.1 7.242zm10.371-.051c-.054 0-.1-3.232-.1-7.215 0-3.984.046-7.216.1-7.216.054 0 .099 3.228.099 7.215 0 3.988-.042 7.216-.099 7.216z" fill="#263238"/><path d="M127.53 39.843s-1.254 18.26.308 21.217h19.218l-.771-20.366-18.755-.851z" fill="#E0E0E0"/><path d="M127.53 39.843c.135 7.598.771 14.469 2.165 20.292l21.629.162s-2.133-17.464-2.133-20.454H127.53z" fill="#657C90"/><path d="M146.79 46.71a1.705 1.705 0 01-.258.287 3.185 3.185 0 01-2.703.785 3.283 3.283 0 01-1.986-1.207 2.324 2.324 0 01-.339-.59 1.101 1.101 0 01-.043-.725.808.808 0 01.555-.532.645.645 0 01.417.054.674.674 0 01.281.314 1.66 1.66 0 01-.279 1.56 3.938 3.938 0 01-1.219 1.173 3.879 3.879 0 01-3.523.334 2.129 2.129 0 01-1.281-1.418 1.58 1.58 0 01.147-1c.15-.326.429-.575.771-.686a1.121 1.121 0 011.015.2 1.566 1.566 0 01.602 1.22c0 .214-.044.425-.131.62a2.25 2.25 0 01-.572.785 3.462 3.462 0 01-3.473.577 3.359 3.359 0 01-1.405-.948 3.631 3.631 0 01-.854-2.32c0-.192.016-.384.047-.574.036-.234.105-.464.205-.68a.909.909 0 01.49-.498.641.641 0 01.656.138c.152.147.265.331.328.532a2.219 2.219 0 010 1.112 3.011 3.011 0 01-.881 1.533 2.79 2.79 0 01-.949.588c-.123.05-.254.08-.386.096-.133.014.131-.034.362-.135.339-.142.649-.348.911-.605.421-.403.713-.922.842-1.487a2.123 2.123 0 00-.027-1.047 1.113 1.113 0 00-.293-.476.51.51 0 00-.516-.107.81.81 0 00-.409.43 2.444 2.444 0 00-.181.639c-.026.173-.042.35-.042.527a3.447 3.447 0 00.828 2.23c.359.405.816.715 1.328.896a3.28 3.28 0 003.272-.545c.224-.199.403-.445.521-.72a1.35 1.35 0 00.077-.867 1.369 1.369 0 00-.486-.74.92.92 0 00-.833-.168 1.306 1.306 0 00-.772 1.461 1.92 1.92 0 001.157 1.277c.432.163.893.247 1.355.247a3.81 3.81 0 003.155-1.671c.152-.206.261-.442.321-.69a1.228 1.228 0 00-.043-.706.451.451 0 00-.514-.28.65.65 0 00-.443.426 1.381 1.381 0 00.351 1.178 3.092 3.092 0 003.596 1.033 3.53 3.53 0 001.246-.832l.005.002zm2.254 7.252c-.36.277-.767.489-1.2.625a5.17 5.17 0 01-1.571.272c-.044.002-.091.002-.138.002-.665 0-1.322-.13-1.934-.385a2.723 2.723 0 01-1.043-.683.867.867 0 01-.203-.66.716.716 0 01.436-.579.584.584 0 01.682.31c.063.12.094.251.094.385a.815.815 0 01-.094.383 1.816 1.816 0 01-.47.603c-.19.18-.4.336-.629.463a4.067 4.067 0 01-3.195.35 3.562 3.562 0 01-1.493-.882 2.22 2.22 0 01-.506-.766 1.296 1.296 0 01-.034-.927 1.1 1.1 0 01.632-.695.933.933 0 01.918.17 1.23 1.23 0 01.46.995c0 .229-.045.457-.132.667a3.438 3.438 0 01-2.493 1.99 3.484 3.484 0 01-2.815-.702 2.2 2.2 0 01-.772-1.088 1.48 1.48 0 01-.053-.648.857.857 0 01.332-.54.937.937 0 011.111.064c.277.204.441.526.441.87v.031a1.86 1.86 0 01-.745 1.38 4.478 4.478 0 01-.857.525l-.24.107-.08.03c.096-.064.197-.122.301-.173.29-.155.568-.34.826-.547.41-.322.659-.805.682-1.322v-.026a.97.97 0 00-.386-.775.81.81 0 00-.952-.05.7.7 0 00-.27.452 1.311 1.311 0 00.058.575c.136.404.396.757.745 1.004a3.257 3.257 0 002.037.714 3.25 3.25 0 002.979-1.94 1.547 1.547 0 00.108-.767 1.03 1.03 0 00-.386-.663.728.728 0 00-.717-.133.895.895 0 00-.516.566 1.129 1.129 0 00.03.794c.108.256.266.488.464.682.393.388.878.676 1.408.837a3.885 3.885 0 003.044-.326c.216-.119.415-.265.594-.434.182-.148.333-.334.44-.544a.659.659 0 000-.614.412.412 0 00-.475-.234.55.55 0 00-.336.52c0 .17.061.336.173.465.271.285.603.508.971.648a4.92 4.92 0 001.967.41h.061c.519 0 1.037-.08 1.531-.234a7.256 7.256 0 001.209-.552h.001z" fill="#263238"/><path d="M55.684.637L7.849 6.06l5.459 47.53 47.835-5.423L55.682.637z" fill="#fff"/><path d="M61.14 48.173s0-.077-.03-.226c-.031-.15-.047-.383-.081-.656-.07-.583-.17-1.437-.3-2.553-.264-2.23-.644-5.502-1.136-9.661L55.6.652l.097.077L7.853 6.162l.085-.11c1.994 17.405 3.858 33.737 5.444 47.54l-.097-.078 34.656-3.884 9.73-1.077 2.569-.284.66-.069.227-.019-.216.026-.652.08-2.55.299-9.703 1.123-34.69 3.969h-.085v-.088c-1.59-13.802-3.473-30.122-5.468-47.54v-.1h.1L55.706.546h.089v.088c1.62 14.265 2.97 26.16 3.916 34.504l1.084 9.65c.123 1.11.216 1.96.282 2.539l.07.648c-.011.126-.009.199-.009.199h.002z" fill="#263238"/><path d="M53.497 3.37L10.604 8.233l4.894 42.621 42.893-4.863L53.497 3.37z" fill="#EBEBEB"/><path d="M58.39 45.995s0-.069-.027-.2c-.026-.13-.043-.334-.074-.59l-.274-2.3c-.235-2.005-.578-4.933-1.019-8.663-.863-7.457-2.102-18.1-3.588-30.867l.097.077L10.62 8.337l.089-.108c1.787 15.608 3.473 30.234 4.877 42.622l-.097-.077 31.071-3.478 8.724-.965 2.315-.253.594-.062h.204l-.192.026-.587.073-2.284.268-8.7 1.008-31.13 3.57h-.084v-.084c-1.425-12.388-3.107-27.014-4.905-42.621v-.097h.1L53.504 3.29h.089v.084c1.45 12.793 2.657 23.46 3.507 30.928l.97 8.653c.111.994.196 1.757.25 2.274.026.257.05.449.062.583.011.134.009.185.009.185l-.002-.002z" fill="#263238"/><path d="M40.13 34.383c-.019 0 1.628 8.986 1.628 8.986l-1.623.185-2.805-8.695 2.802-.476h-.002zm9.477-1.235c-.02 0 1.624 8.99 1.624 8.99l-1.624.184-2.8-8.71 2.8-.464zM22.158 36.1l.005 9.494 1.612-.184 1.123-9.302-2.74-.008z" fill="#455A64"/><path d="M51.19 14.305c.308 3.286 1.478 13.748-.972 18.935l-11.105 1.403-17.957 2.032s-4.745-6.629-5.054-13.242l8.875-3.773s1.304-3.834 2.839-3.937c1.084-.077 17.312-1.99 22.024-2.499a1.2 1.2 0 011.35 1.081z" fill="#EB8B55"/><path d="M48.457 13.39v.064c0 .042-.043.107-.078.191-.073.16-.19.384-.351.697a55.92 55.92 0 01-1.443 2.493c-.16.275-.351.535-.567.77-.245.26-.541.47-.868.613-.667.273-1.37.564-2.111.886a49.69 49.69 0 00-2.295 1.051 12.26 12.26 0 00-1.158.629 4.616 4.616 0 00-.563.384c-.177.12-.313.291-.386.49-.143.426-.263.864-.35 1.305-.093.44-.182.873-.26 1.304-.161.855-.308 1.683-.44 2.477-.254 1.576-.481 3.001-.675 4.217l-.443 2.837-.123.766c-.011.09-.03.18-.058.268a1.477 1.477 0 010-.273c.023-.199.054-.456.088-.766.085-.67.212-1.645.387-2.848.172-1.204.386-2.63.636-4.218a108.7 108.7 0 01.425-2.48c.078-.433.17-.866.263-1.31.087-.454.21-.904.359-1.343a1.19 1.19 0 01.455-.568 9.66 9.66 0 01.579-.384c.386-.23.79-.437 1.188-.628a36.57 36.57 0 012.314-1.051c.771-.318 1.455-.603 2.118-.867.307-.132.587-.325.818-.567.21-.233.392-.492.544-.766a97.65 97.65 0 001.498-2.458c.173-.291.3-.521.386-.678.03-.082.07-.16.112-.238h-.001z" fill="#263238"/><path d="M39.109 34.644v-.013c0-.085.007-.172.02-.256.023-.195.05-.448.088-.766.089-.686.216-1.637.386-2.802s.363-2.591.602-4.152c.117-.767.247-1.599.387-2.446.069-.422.146-.855.23-1.292.046-.218.09-.433.154-.663l.054-.172a.536.536 0 01.112-.165c.085-.085.178-.163.279-.23a18.46 18.46 0 012.385-1.237 74.073 74.073 0 012.28-.997 57.669 57.669 0 002.06-.905c.636-.299.975-.856 1.269-1.36.43-.834.811-1.705 1.128-2.585.112-.296.197-.537.266-.721.029-.084.064-.168.1-.25a.983.983 0 01-.061.265c-.046.17-.128.414-.232.732-.293.895-.657 1.78-1.077 2.623a5.8 5.8 0 01-.497.809 1.95 1.95 0 01-.362.383c-.144.105-.3.193-.462.264-.642.307-1.332.603-2.06.925-.73.322-1.5.659-2.3 1-.798.352-1.575.763-2.314 1.224-.089.06-.172.127-.248.202a.285.285 0 00-.078.111l-.045.15c-.058.204-.1.43-.147.644-.084.434-.162.863-.235 1.285-.139.849-.267 1.663-.386 2.441-.244 1.534-.46 2.956-.644 4.14a657.975 657.975 0 00-.432 2.792c-.054.315-.093.568-.127.766a1.285 1.285 0 01-.093.256zm-14.805 1.675a1.144 1.144 0 01-.115-.215l-.308-.64a131.93 131.93 0 01-1.073-2.365c-.443-1-.985-2.193-1.479-3.574a.83.83 0 01.039-.602c.098-.182.246-.334.425-.44.349-.218.746-.35 1.157-.384l2.442-.276 8.573-.944 2.601-.264.706-.062a1.263 1.263 0 01.252 0c-.079.025-.16.041-.244.05l-.706.098-2.592.326-8.566.998-2.442.276a2.43 2.43 0 00-1.065.33.97.97 0 00-.355.36.651.651 0 00-.032.472c.475 1.354 1.01 2.553 1.431 3.566.42 1.012.771 1.806 1.015 2.392l.27.652c.032.078.054.16.065.245h.001z" fill="#263238"/><path d="M22.923 33.26c0-.054 3.087-.449 6.882-.878 3.797-.43 6.902-.74 6.906-.682.005.058-3.087.448-6.882.881-3.797.434-6.9.745-6.906.679zM16.1 23.433a.883.883 0 01.325-.184c.317-.13.653-.21.995-.234a2.509 2.509 0 011.49.304c.265.167.485.396.64.667.168.274.31.564.425.862.428 1.231.771 2.332 1.045 3.14.161.43.291.873.385 1.322a9.12 9.12 0 01-.51-1.272c-.297-.79-.682-1.917-1.102-3.117a4.822 4.822 0 00-.385-.832 1.783 1.783 0 00-.557-.618 2.426 2.426 0 00-1.383-.313c-.466.03-.928.122-1.37.276l.003-.001zm13.733 4.114a1.7 1.7 0 01-.139-.384c-.08-.253-.19-.617-.317-1.07-.258-.9-.598-2.154-.964-3.54a6.676 6.676 0 00-.73-1.844 2.718 2.718 0 00-1.19-1.053 2.054 2.054 0 00-1.06-.176c-.256.03-.387.092-.387.077s.026-.026.093-.058a1.06 1.06 0 01.293-.096 1.924 1.924 0 011.127.126c.53.218.98.596 1.28 1.081.356.586.618 1.227.771 1.894.387 1.384.687 2.641.911 3.555.108.456.197.828.25 1.085.04.127.059.259.059.392v.01l.003.001zm3.527-7.441c-.018-.002-.037-.002-.057-.002a.956.956 0 00-.504.143.452.452 0 00-.213.5.574.574 0 00.55.49c.211 0 .402-.13.48-.325a.565.565 0 00-.035-.564.934.934 0 00-.498-.288c-.192-.04.058-.034.173-.026.169.018.324.1.436.227a.708.708 0 01.097.72.76.76 0 01-.285.353.702.702 0 01-.482.096.77.77 0 01-.61-.652.572.572 0 01.07-.406.65.65 0 01.25-.241.728.728 0 01.478-.095c.1.023.154.064.147.072l.003-.002zm8.484-.564c-.034 0-.123-.219-.386-.268h-.02a.6.6 0 00-.42.034.515.515 0 00-.346.442c.03.2.073.317.05.334-.024.015-.124-.092-.193-.296a.632.632 0 01.406-.648.717.717 0 01.567 0c.15.037.276.14.34.28.026.057.019.103.004.122h-.002z" fill="#263238"/><path d="M37.546 26.546a15.8 15.8 0 01.968-5.067c-.587.413-.861 1.123-1.158 1.775-.297.652-.67 1.343-1.342 1.592-.672.249-1.347 0-2.026.034-.852.024-1.675.425-2.523.352a3.052 3.052 0 01-1.928-1.05 9.007 9.007 0 01-1.216-1.875c.22 1.05.425 2.216-.123 3.144-.622 1.058-1.968 1.403-3.182 1.622-1.216.218-2.558.495-3.273 1.49a6.028 6.028 0 011.574-.383l14.23-1.633v-.001z" fill="#000" fill-opacity=".302"/><path d="M19.214 2.471L17.001 0 3.876 11.608l2.213 2.47L19.214 2.472z" fill="#E0E0E0"/><path d="M128.484 108.944l9.224-10.183 7.265-.567 1.105 7.809-5.876 2.611-6.418 6.714-3.893.881-1.407-7.265z" fill="#EFBE9D"/><path d="M145.586 58.123l-14.461 67.838 79.696 16.775 14.462-67.838-79.697-16.775z" fill="#fff"/><path d="M210.812 142.725l14.376-67.86.065.099-79.694-16.754.119-.077c-5.251 24.613-10.198 47.812-14.469 67.837l-.069-.103 79.675 16.869-79.714-16.681h-.084v-.088c4.268-20.024 9.205-43.224 14.449-67.837l.019-.099h.097l79.706 16.777h.084l-.019.084c-8.754 40.862-14.391 67.142-14.542 67.833h.001z" fill="#263238"/><path d="M148.51 62.093l-13.092 61.417 72.484 15.256 13.092-61.416-72.484-15.257z" fill="#EBEBEB"/><path d="M207.891 138.756l.232-1.13c.153-.749.386-1.848.69-3.282l2.632-12.453 9.453-44.569.065.1-72.479-15.237.119-.077a208852.61 208852.61 0 00-13.1 61.415l-.069-.108 52.407 11.076 14.793 3.136 3.912.832 1.006.219.344.077-.337-.065-.999-.203-3.901-.813-14.782-3.087-52.473-11h-.085v-.088c3.858-18.141 8.338-39.14 13.08-61.418l.02-.1.099.024 72.471 15.267h.081v.08l-9.549 44.599a7515.552 7515.552 0 00-2.67 12.429c-.309 1.426-.548 2.518-.706 3.258-.158.74-.259 1.116-.259 1.116l.005.002z" fill="#263238"/><path d="M171.28 118.417l-1.895 6.25.541.112 3.318-5.951-1.964-.411zm23.643 4.974l-.818 6.474-.54-.111-.605-6.775 1.963.412z" fill="#263238"/><path d="M199.82 114.535l-30.238-6.365-2.02 9.475 30.238 6.364 2.02-9.474z" fill="#263238"/><path d="M183.503 115.872v-.079c0-.058.024-.131.039-.219.043-.208.097-.483.162-.839.151-.736.362-1.787.625-3.102l.05.077-14.353-2.99.116-.077v.125l-.03.137-.059.273-.116.54c-.077.361-.151.717-.227 1.07-.151.706-.298 1.399-.443 2.071l-.073-.116 10.237 2.201 3.013.663.814.184.216.05.073.023-.27-.043-.798-.156-3.003-.603-10.325-2.128-.097-.019.023-.096.441-2.07c.073-.353.151-.71.227-1.071.034-.18.073-.36.112-.544l.058-.273.03-.134v-.13c.24-.152.07-.042.124-.077l14.364 3.068h.063v.062c-.298 1.326-.536 2.381-.702 3.125l-.19.817a2.51 2.51 0 01-.101.279v.001zm-.95 4.452v-.08l.039-.219a1058.253 1058.253 0 01.792-3.941l.046.077-14.38-2.99.119-.077v.125l-.026.138-.063.272c-.038.18-.077.364-.112.541l-.231 1.07c-.151.705-.298 1.399-.443 2.07l-.073-.116 10.236 2.201 3.014.663.814.184.216.05.073.023-.27-.042-.798-.157-3.003-.603-10.325-2.128h-.093l.011-.099.44-2.07.227-1.07.117-.545.058-.272.026-.135v-.126l.119-.077 14.365 3.067h.062v.062c-.298 1.326-.536 2.381-.702 3.125l-.189.817a2.301 2.301 0 01-.066.26v.002zm15.801-1.328v-.08c0-.057.023-.13.039-.218l.166-.839c.146-.736.358-1.783.625-3.102l.046.077-14.38-2.99.119-.077v.129l-.026.135-.062.272c-.039.184-.078.384-.113.545l-.231 1.07-.443 2.066-.073-.116 10.237 2.201 3.013.663.814.184.216.05.074.023a1.345 1.345 0 01-.27-.042l-.799-.157-3.003-.603-10.325-2.128-.093-.019v-.096l.44-2.07.227-1.07.117-.541.058-.276.026-.135v-.129l.119-.077 14.365 3.067h.062v.062c-.297 1.326-.536 2.381-.702 3.125l-.189.817a2.182 2.182 0 01-.054.279zm-.933 4.451v-.079c0-.058.023-.131.039-.219l.166-.839c.146-.736.358-1.783.625-3.102l.046.077-14.38-2.99.119-.077v.129l-.026.135-.058.272-.117.545-.231 1.066-.44 2.07-.077-.115 10.236 2.2 3.018.663.814.185.212.049.073.024a1.46 1.46 0 01-.27-.043l-.799-.157-3.037-.586-10.321-2.128-.097-.019.02-.096.44-2.07c.073-.353.151-.71.227-1.071l.116-.54.058-.277.027-.134v-.13l.119-.077 14.364 3.068h.065v.062l-.701 3.125-.19.817a2.167 2.167 0 01-.043.264l.003-.002z" fill="#455A64"/><path d="M170.026 108.618c-.043.038-.173-.03-.294-.157-.119-.126-.185-.261-.146-.298.038-.039.17.034.293.161.123.126.19.26.147.295v-.001zm-1.891 8.668c.026.046-.08.17-.246.269-.167.099-.32.145-.348.099-.026-.046.078-.17.244-.269.166-.099.313-.152.351-.099h-.001z" fill="#455A64"/><path d="M197.806 124c0 .054-6.799-1.33-15.164-3.091-8.365-1.759-15.133-3.228-15.12-3.286.011-.057 6.798 1.33 15.163 3.091 8.365 1.759 15.121 3.233 15.121 3.286zm-21.552-7.211c-.035 0 0-.176-.154-.335a.385.385 0 00-.328-.104.382.382 0 00-.289.276.363.363 0 00.361.446.4.4 0 00.133-.023c.209-.08.246-.253.278-.242.031.011.02.045 0 .118a.432.432 0 01-.212.253.51.51 0 01-.501 0 .525.525 0 01.27-.982c.158 0 .306.071.402.195a.439.439 0 01.092.318c-.015.047-.038.081-.049.077l-.003.003zm.945-4.452c-.03 0 0-.176-.151-.334a.386.386 0 00-.331-.103.386.386 0 00-.285.276.363.363 0 00.15.365.388.388 0 00.343.038c.209-.079.247-.253.274-.242.026.011.024.046 0 .119a.435.435 0 01-.212.253.521.521 0 01-.25.066.52.52 0 01-.515-.522.528.528 0 01.534-.526c.158 0 .306.071.402.195.061.08.094.177.094.278 0 .013 0 .026-.002.04-.011.062-.034.1-.049.096l-.002.001zm14.082 7.633c-.03 0 0-.176-.15-.334a.382.382 0 00-.331-.104.36.36 0 00-.285.277.346.346 0 00.15.384.394.394 0 00.344.038c.205-.08.243-.253.274-.242.03.011 0 .046 0 .118a.463.463 0 01-.212.254.534.534 0 01-.507 0 .53.53 0 01.269-.983c.158 0 .306.072.401.196.063.075.096.17.096.268l-.003.051c-.008.027-.035.077-.046.077zm.95-4.47c-.035 0 0-.176-.154-.334a.378.378 0 00-.328-.105.358.358 0 00-.293.351c0 .117.059.225.159.29a.39.39 0 00.343.039c.205-.08.244-.254.274-.243.031.011.02.046 0 .119a.449.449 0 01-.216.253.521.521 0 01-.25.066.52.52 0 01-.251-.066.53.53 0 01.269-.982c.158 0 .306.071.401.195a.44.44 0 01.096.272c0 .016-.002.031-.003.046-.008.064-.035.1-.046.096l-.001.003zm7.608-.996c0 .058-.116.13-.274.199-.158.069-.298.112-.328.065-.031-.046.069-.172.246-.249.177-.077.344-.065.355-.015h.001z" fill="#455A64"/><path d="M197.883 124.015c-.043.035-.181-.069-.309-.229-.127-.161-.192-.322-.146-.357.045-.034.181.073.308.234.128.161.19.322.147.352z" fill="#455A64"/><path d="M137.527 117.512l-1.271 5.895 72.428 15.422 1.272-5.895-72.429-15.422z" fill="#E0E0E0"/><path d="M158.23 97.351a24.73 24.73 0 00-2.866-13.373c-3.658-6.862-8.195-7.53-8.195-7.53s5.44-.861 9.425 6.518a19.527 19.527 0 012.329 9.238 19.54 19.54 0 01-.694 5.147h.001z" fill="#455A64"/><path d="M161.788 74.217c-.069-.195-2.612 14.284-2.612 14.284l-1.011 10.555s2.442-7.457 3.068-11.41c.626-3.953 1.185-11.648.555-13.43z" fill="#455A64"/><path d="M167.17 75.352s-2.473.909-5.367 11.302c-2.214 7.967-3.218 10.985-3.546 11.97a1.562 1.562 0 00-.093.433c-.01.147 4.206-6.944 5.831-10.83 1.623-3.888 1.759-9.95 3.175-12.874v-.001zm-8.966 25.979c-.065.261 1.598-3.278 7.196-6.878 5.209-3.35 7.18-3.112 7.18-3.112s-4.603-.322-8.264 2.246c-3.234 2.265-5.433 5.095-6.112 7.744zm-1.388 4.071c-.117-1.937-.286-3.902-1.015-5.701-.73-1.798-2.099-3.432-3.951-4.037 2.585 2.867 4.275 5.903 4.966 9.738zm1.542-7.235s.66-7.308-4.016-10.608c-2.604-1.84-7.033-1.948-7.033-1.948s5.216 1.794 6.945 3.451c1.728 1.657 4.105 9.106 4.105 9.106l-.001-.001z" fill="#455A64"/><path d="M153.898 118.966c-.003-.015-.003-.029-.003-.044 0-.015.001-.029.003-.044.015-.072.03-.16.045-.264.05-.249.117-.586.197-1.017.185-.892.443-2.158.771-3.715l2.582-12.249c.127-.598.254-1.188.386-1.771l.185-.867c.039-.146.05-.283.104-.437.054-.154.127-.264.181-.384.225-.526.409-1.062.633-1.576.224-.513.44-1.004.648-1.492.421-.973.841-1.885 1.192-2.764.351-.878.682-1.684.988-2.422.305-.74.54-1.427.771-2.025.231-.599.386-1.109.555-1.534.17-.425.27-.732.359-.966l.088-.253a.328.328 0 01.039-.085.323.323 0 01-.019.088l-.07.261c-.065.226-.181.556-.323.983-.143.425-.32.946-.525 1.533-.205.586-.428 1.296-.736 2.036-.309.74-.618 1.564-.965 2.439-.348.873-.771 1.793-1.158 2.771-.211.487-.425.985-.643 1.496-.22.51-.386 1.042-.629 1.576-.054.135-.127.276-.177.384-.05.107-.062.276-.097.41-.062.287-.119.575-.181.866a131.77 131.77 0 01-.386 1.772l-2.64 12.234c-.344 1.552-.622 2.814-.822 3.706-.097.423-.173.767-.232 1.005l-.065.261c-.043.062-.054.092-.058.089l.002-.001z" fill="#263238"/><path d="M159.245 99.287c-.104.302-.233.6-.386.881a32.838 32.838 0 00-1.697 4.322 5.74 5.74 0 01-.333.908c.029-.323.096-.644.198-.95.197-.75.443-1.496.726-2.221.282-.726.618-1.44.988-2.123a3.73 3.73 0 01.504-.817z" fill="#263238"/><path d="M156.522 121.937c1.304-.766 1.837-2.411 1.744-3.914-.093-1.504-.682-2.914-1.118-4.351l-4.013-.843c-.989 1.15-2.107 2.192-2.801 3.526-.695 1.335-.887 3.068 0 4.28l6.189 1.304-.001-.002z" fill="#EB8B55"/><path d="M161.441 80.309a.577.577 0 010 .187c0 .141-.027.317-.046.525-.05.46-.132 1.12-.239 1.918a176.4 176.4 0 01-1 6.349 137.9 137.9 0 01-1.235 6.306 42.34 42.34 0 01-.459 1.895 14.54 14.54 0 01-.143.51.798.798 0 01-.062.176v-.025a.59.59 0 01.023-.16c.027-.141.065-.314.108-.516.1-.483.232-1.128.387-1.918.328-1.61.744-3.834 1.157-6.31.412-2.478.799-4.713 1.053-6.338.123-.766.227-1.437.301-1.917.034-.21.065-.384.088-.526.018-.053.04-.107.065-.156h.002z" fill="#263238"/><path d="M156.965 85.695c.072.12.132.25.175.384.099.249.231.618.386 1.073a26.48 26.48 0 011.257 7.378v1.15l.001.063c0 .117-.014.236-.04.35-.031 0-.039-.59-.097-1.534a33.639 33.639 0 00-1.251-7.341c-.272-.95-.461-1.51-.431-1.523zm-2.785 2.362c.129.067.247.154.348.257a8 8 0 01.822.844c.369.442.718.913 1.033 1.398a8.82 8.82 0 01.906 1.937c.411 1.216.749 2.464.991 3.725.1.483.167.878.209 1.15.028.128.043.257.043.386v.04a1.726 1.726 0 01-.119-.41l-.27-1.15c-.231-.954-.552-2.277-1.042-3.691a9.172 9.172 0 00-.876-1.918c-.302-.487-.634-.96-.987-1.411a10.639 10.639 0 00-.771-.878 2.274 2.274 0 01-.285-.279h-.002zm55.927-6.409l-1.476-.311-5.224 24.503 1.476.31 5.224-24.502z" fill="#263238"/><path d="M208.578 81.57l-29.838-6.28-5.132 24.074 29.837 6.281 5.133-24.075z" fill="#fff"/><path d="M203.902 106.318l-30.971-6.517 5.371-25.2 30.971 6.517-5.371 25.2zm-29.597-7.407l28.705 6.043 4.888-22.938-28.706-6.038-4.887 22.933z" fill="#455A64"/><path d="M203.824 83.945l-22.032-4.637-3.634 17.047 22.032 4.637 3.634-17.047z" fill="#EB8B55"/><path d="M101.907 108.652l5.228 16.647 17.413-15.336 6.559 5.563s-14.777 23.341-21.947 27.734c-7.951 4.876-17.412-1.534-18.608-6.238-1.197-4.704-7.494-25.795-7.494-25.795l18.849-2.576v.001z" fill="#EFBE9D"/><path d="M107.548 125.008c.019.035-.46.299-1.131.852-.391.326-.76.685-1.095 1.066a9.639 9.639 0 00-2.258 4.67c-.154.855-.151 1.398-.19 1.398a1.645 1.645 0 01-.029-.298c0-.029.002-.058.003-.085a2.819 2.819 0 010-.449c0-.172.019-.383.058-.59.073-.51.194-1.016.354-1.506a9.183 9.183 0 011.911-3.263 8.94 8.94 0 011.157-1.051c.17-.141.343-.244.486-.345a4.17 4.17 0 01.386-.234c.108-.07.224-.125.348-.165z" fill="#E7996E"/><path d="M88.82 125.174l18.315-4.911s-3.927-11.543-6.984-19.887c-2.7-7.358-7.227-10.42-9.58-12.084a7.118 7.118 0 00-3.214-1.265c-4.333-.575-16.185-2.124-22.066-2.61-7.273-.603-22.463 3.377-22.463 3.377S29.51 95.133 25.018 98.12a6.203 6.203 0 00-2.403 3.005c-.829 2.22-1.887 6.035-3.152 10.969l-3.473 13.518 15.623-.479a2120.598 2120.598 0 006.066 18.019l-1.265 22.758H94.35s-5.347-35.203-5.347-36.019c0-.298-.074-2.312-.182-4.715l-.001-.001z" fill="#657C90"/><path d="M70.8 106.698c-1.157-1.453-3.147-2.047-4.992-1.864-1.844.184-3.558 1.051-5.093 2.085-4.739 3.194-8.102 8.01-11.073 12.867-5.155 8.438-9.557 17.433-13.007 26.71l.12 2.377c3.885-.487 6.415-3.741 8.101-7.25 1.687-3.507 2.412-7.403 3.897-11 2.89-6.908 8.425-12.408 15.373-15.283 2.314.238 4.799-.502 6.312-2.259 1.513-1.756 1.8-4.573.363-6.386v.003z" fill="#000" fill-opacity=".302"/><path d="M89.001 128.186c-.089 0-.606-5.034-1.157-11.256-.552-6.222-.93-11.279-.844-11.287.084-.008.606 5.03 1.157 11.26.552 6.23.926 11.275.844 11.283zm-61.549-22.543a3.7 3.7 0 01.231.766c.136.568.309 1.292.514 2.158.42 1.826.98 4.348 1.578 7.143a575.99 575.99 0 011.493 7.163c.166.873.305 1.606.417 2.177.064.265.1.536.108.809a4.364 4.364 0 01-.227-.766c-.136-.568-.309-1.292-.514-2.159a538.37 538.37 0 01-1.582-7.142 501.3 501.3 0 01-1.49-7.163c-.165-.873-.308-1.606-.416-2.181a4.282 4.282 0 01-.112-.805zm58.751-18.399c.093.023-.436 2.044-.798 4.601-.363 2.557-.44 4.623-.533 4.601a5.216 5.216 0 01-.063-1.368c.028-1.097.13-2.212.287-3.299.154-1.09.382-2.18.664-3.247.09-.443.24-.88.442-1.286l.001-.002z" fill="#263238"/><path d="M61.22 97.807l5.27-10.563-1.636-4.6s7.905-4.08 5.205-12.404c-1.304-4.018-4.67-12.077-7.798-19.334-2.583-5.99-8.516-9.879-15.076-9.879-1.776 0-3.544.29-5.227.85l-.803.264c-8.508 3.405-10.352 12.483-6.694 20.84L45.16 94.037l16.057 3.77h.003z" fill="#EFBE9D"/><path d="M64.855 82.613s-5.127 2.19-11.914.564c0 0 4.591 5.107 12.659 1.579l-.745-2.143z" fill="#E7996E"/><path d="M62.706 59.096c.046.13.07.27.07.407 0 .52-.324.987-.814 1.172a1.202 1.202 0 01-1.59-.655 1.25 1.25 0 01.74-1.58 1.205 1.205 0 011.595.655zm-.899-4.033c-.093.203-1.223-.161-2.504.272-1.28.433-2.003 1.38-2.196 1.273-.093-.046-.035-.384.274-.81a3.477 3.477 0 012.76-1.384c.336 0 .67.05.992.15.497.169.725.403.674.499zm-10.233 7.35a1.243 1.243 0 01-.744 1.574 1.201 1.201 0 01-1.59-.655 1.254 1.254 0 01.745-1.58 1.22 1.22 0 01.47-.093c.494 0 .938.3 1.12.755v-.002zm-2.217-3.577c-.074.21-1.235-.026-2.462.54-1.226.567-1.84 1.592-2.04 1.504-.097-.039-.08-.384.181-.832a3.468 3.468 0 011.544-1.388 3.363 3.363 0 012.044-.245c.517.116.771.322.734.422l-.001-.001zm7.801 9.044c-.026-.073.722-.476 1.956-1.07.317-.146.607-.311.587-.552a1.749 1.749 0 00-.548-.893l-1.79-2.134c-2.534-3.068-4.49-5.651-4.363-5.752.127-.099 2.284 2.3 4.819 5.391.621.766 1.21 1.488 1.77 2.182.25.33.607.678.602 1.218a.859.859 0 01-.386.657 2.501 2.501 0 01-.533.265c-1.282.483-2.083.76-2.115.69l.001-.002zm-9.541-13.469c0 .384-1.347.652-2.79 1.334-1.442.683-2.523 1.495-2.824 1.25-.142-.118-.038-.512.337-1.012a5.394 5.394 0 014.279-1.97c.625.016.995.2 1 .4l-.002-.002zm12.662-2.776c-.128.384-1.112.36-2.177.702-1.064.34-1.897.847-2.206.613-.139-.115-.097-.452.205-.858a3.327 3.327 0 013.531-1.058c.478.17.702.425.648.601h-.002z" fill="#263238"/><path d="M37.21 68.88c-.163 0-6.302.23-4.202 5.835 2.099 5.605 7.331 2.353 7.281 2.19-.05-.165-3.078-8.025-3.078-8.025h-.002z" fill="#EFBE9D"/><path d="M37.77 75.42c-.03 0-.073.103-.209.242a1.033 1.033 0 01-.711.284h-.017c-.68 0-1.543-.766-1.93-1.748a3.42 3.42 0 01-.25-1.504c-.002-.023-.002-.047-.002-.07 0-.37.17-.72.461-.953a.54.54 0 01.679.053c.135.131.142.257.177.253.034-.004.084-.137-.046-.352a.655.655 0 00-.354-.268.771.771 0 00-.6.056 1.463 1.463 0 00-.701 1.248v.003a3.545 3.545 0 00.247 1.686c.46 1.116 1.436 1.959 2.338 1.89.341-.022.652-.2.845-.479.115-.203.095-.34.073-.34z" fill="#E7996E"/><path d="M53.685 70.019c.205-.08.676 1.3 2.2 1.883s2.951-.062 3.029.127c.045.08-.24.383-.861.605a3.693 3.693 0 01-2.505-.026c-.77-.29-1.4-.87-1.75-1.611-.251-.56-.21-.955-.113-.978zm10.622-31.392a3.474 3.474 0 00-2.7-1.887 5.223 5.223 0 00-.422-.905c-1.034-1.74-3.364-2.684-5.254-1.918a4.341 4.341 0 00-3.725-2.107c-1.687 0-3.22.973-3.93 2.491a5.197 5.197 0 00-5.505 1.054 1.302 1.302 0 00-.387.613.603.603 0 00.093.463 3.27 3.27 0 00-2.951-.613 3.038 3.038 0 00-.95.479 3.65 3.65 0 00-1.93 1.967c-2.644.036-4.845 2.033-5.119 4.646a4.94 4.94 0 00-3.056 4.557v.043a3.604 3.604 0 00-2.195 3.31 3.6 3.6 0 001.458 2.89c.917.68-3.689 2.235-1.455 5.433 1.158 1.632 3.474.502 3.474.502l6.944 10.425c-.03.073 1.192 1.15 1.783.637.59-.514.745-1.354.927-2.113.211-.871.513-1.744.44-2.638-.074-.893-.644-1.83-1.544-1.968.876-.651 1.157-1.863 1.015-2.94-.143-1.077-.69-2.055-1.215-3.01l-2.315-4.217a5.98 5.98 0 003.839-4.854c1.859.636 4.132-.79 4.343-2.738a4.492 4.492 0 003.503 1.677c.91 0 1.8-.276 2.548-.79.17 1.251 2.658 1.633 3.925 1.554 1.265-.08 2.446-1.377 2.446-1.377a7.215 7.215 0 002.584.053l.127-.034c1.663-.384 2.748-2.358 3.053-4.026a3.187 3.187 0 001.185-.545 3.442 3.442 0 00.969-4.118l-.003.004z" fill="#263238"/><path d="M55.248 35.575c.083.05.16.112.229.184.2.195.372.42.505.667a3.42 3.42 0 01.434 1.69c0 .445-.085.89-.25 1.305a3.04 3.04 0 01-1.447 1.533 3.691 3.691 0 01-2.426.3 3.19 3.19 0 01-1.223-.556 2.038 2.038 0 01-.498-.499 1.327 1.327 0 01-.255-.69v-.03c0-.254.107-.497.294-.672a1.4 1.4 0 01.69-.326 1.81 1.81 0 01.772.023c.253.054.494.153.711.292a2.772 2.772 0 011.28 2.531 3.444 3.444 0 01-1.295 2.343 4.464 4.464 0 01-2.26.943 6.63 6.63 0 01-2.135-.092 12.375 12.375 0 01-2.893-1.04 12.365 12.365 0 01-.745-.384 2.29 2.29 0 01-.255-.141c.094.026.184.061.27.107l.771.341c.92.43 1.891.757 2.886.97a6.61 6.61 0 002.084.066 4.26 4.26 0 002.165-.92 3.294 3.294 0 001.224-2.216c.002-.055.005-.11.005-.165 0-.884-.454-1.706-1.202-2.18a1.893 1.893 0 00-.645-.266 1.58 1.58 0 00-.682-.023c-.217.034-.422.13-.587.276a.71.71 0 00-.235.527v.025c.06.426.307.806.671 1.04.343.257.738.438 1.157.53a3.497 3.497 0 002.314-.268 2.901 2.901 0 001.39-1.458 3.454 3.454 0 00-.123-2.905 3.571 3.571 0 00-.696-.858v-.004z" fill="#455A64"/><path d="M17.884 125.534s-3.658 13.158-4.465 16.371c-.805 3.213-.814 10.678 1.02 12.886 1.832 2.207 7.881 3.615 7.881 3.615s11.872-5.751 15.915-12.79c4.044-7.038 15.095-26.147 15.095-26.147l-3.5-9.546-18.408 17.464.192-2.274-13.732.422.002-.001z" fill="#EFBE9D"/><path d="M56.328 79.815a1.29 1.29 0 011.74.568l10.595 20.964-2.7 1.2-10.214-21.029a1.278 1.278 0 01.58-1.701v-.002z" fill="#455A64"/><path d="M49.26 110.524l9.904-10.148h9.492l6.069 7.975s-2.882.532-3.912-1.004l-1.343-1.898s1.343 2.921.622 4.359c0 0-1.425 3.331-1.652 3.688-.431.671-.77 1.1-1.998.896-1.227-.203-3.16-1.203-2.956-1.917.132-.425.49-.741.93-.82l-2.89-.41s-2.91 5.237-4.661 6.468a13.8 13.8 0 01-3.526 1.759l-4.08-8.949v.001z" fill="#EFBE9D"/><path d="M31.793 127.079c.023.049-.799.429-2.06 1.15a29.085 29.085 0 00-4.594 3.316 29.107 29.107 0 00-3.861 4.162c-.876 1.15-1.347 1.918-1.393 1.918.07-.199.166-.39.283-.566.283-.5.598-.992.933-1.459a24.691 24.691 0 018.488-7.545 26.541 26.541 0 011.567-.766c.204-.096.418-.166.638-.208l-.001-.002zm29.528-23.755a6.27 6.27 0 011.394-.234 98.44 98.44 0 013.376-.345 4.177 4.177 0 011.002 0c.319.049.623.172.888.356.432.311.78.725 1.006 1.203.227.417.378.873.443 1.343-.05.019-.231-.495-.64-1.238a3.118 3.118 0 00-.97-1.07 1.898 1.898 0 00-.77-.292 4.509 4.509 0 00-.466-.026c-.155 0-.312.01-.465.026-1.32.116-2.515.204-3.383.253a6.282 6.282 0 01-1.416.024h.001zm7.562 9.661c-.054 0 .04-.716-.023-1.859a12.413 12.413 0 00-.274-1.983c-.162-.716-.386-1.576-1.119-1.993a4.279 4.279 0 00-1.157-.41l-1.157-.264a14.256 14.256 0 00-2.002-.306c-.17-.005-.348-.009-.52-.009-.445 0-.896.021-1.34.054.15-.081.315-.133.485-.154a6.222 6.222 0 011.385-.111c.685.023 1.37.105 2.04.242.386.073.771.156 1.18.249a4.21 4.21 0 011.26.44c.395.24.707.598.887 1.023.16.377.28.773.351 1.178.133.668.206 1.349.213 2.031v.112c0 .422-.029.844-.085 1.261a1.485 1.485 0 01-.124.499z" fill="#E7996E"/><path d="M65.466 109.577c.08 0 .142.819.15 1.89v.184l-.192-.034a1.601 1.601 0 00-.317-.031 1.937 1.937 0 00-1.312.575c-.266.277-.352.517-.386.502-.035-.015-.024-.287.23-.643a1.91 1.91 0 011.482-.745c.13 0 .259.016.386.043l-.19.15c-.015-1.081.05-1.89.147-1.89l.002-.001z" fill="#E7996E"/><path d="M65.466 109.892c0 .088-.872-.039-1.93-.092-1.058-.054-1.93-.024-1.93-.112s.853-.257 1.93-.199c1.077.058 1.93.322 1.93.403z" fill="#E7996E"/><path d="M61.764 109.401c.08 0 0 .931-.428 1.973-.428 1.043-1.053 1.738-1.118 1.687-.065-.05.408-.805.829-1.81.42-1.005.626-1.868.717-1.852v.002z" fill="#E7996E"/><path d="M123.938 110.516s6.528-8.434 7.242-8.818c.715-.384 9.804-1.686 9.804-1.686s-.386 2.853-3.014 3.692c-1.859.594-4.039 1.057-4.039 1.057s.725 5.528-.613 7.744a34.658 34.658 0 01-3.742 4.762l-5.638-6.751z" fill="#EFBE9D"/><path d="M132.091 113.79a7.846 7.846 0 001.362-2.3c.312-.924.493-1.89.533-2.864.014-.284.024-.577.024-.863 0-.288-.01-.581-.024-.866a6.983 6.983 0 00-.13-.896 2.377 2.377 0 01-.03-.987.704.704 0 01.386-.383 2.54 2.54 0 01.459-.172 9.01 9.01 0 01.915-.204 12.72 12.72 0 001.691-.382 5.572 5.572 0 002.491-1.45 4.72 4.72 0 00.987-1.68c.154-.44.205-.697.225-.694v.025a.6.6 0 01-.024.163c-.03.179-.073.357-.127.53a4.554 4.554 0 01-.957 1.752 5.609 5.609 0 01-2.543 1.534c-.556.176-1.132.316-1.709.414a9.711 9.711 0 00-.89.204 2.243 2.243 0 00-.43.16.534.534 0 00-.289.26 2.413 2.413 0 00.037.889c.064.303.11.613.132.924.015.288.025.584.025.874 0 .29-.01.586-.025.875a9.93 9.93 0 01-.587 2.902 6.379 6.379 0 01-.991 1.706 3.859 3.859 0 01-.367.401.784.784 0 01-.143.127l-.001.001z" fill="#E7996E"/><path d="M82.272 166h44.132a2.15 2.15 0 002.118-1.761l5.468-29.978a2.146 2.146 0 00-2.118-2.522H87.74a2.154 2.154 0 00-2.122 1.759l-5.464 29.978a2.145 2.145 0 002.118 2.522V166z" fill="#263238"/><path d="M84.513 165.996H56.17v-.292a2.58 2.58 0 012.588-2.572h25.755v2.864z" fill="#263238"/><path d="M88.202 131.74c-.043 0-1.608 7.669-3.5 17.111-1.89 9.443-3.39 17.127-3.352 17.127.039 0 1.609-7.649 3.504-17.111s3.376-17.119 3.348-17.127zm20.334 17.617a1.542 1.542 0 011.316-1.123h-.127a1.508 1.508 0 011.795 1.477c0 .829-.676 1.503-1.513 1.503a1.508 1.508 0 01-1.47-1.857h-.001z" fill="#455A64"/></g><defs><clipPath id="clip0_139_586"><path fill="#fff" d="M0 0h252v166H0z"/></clipPath></defs></svg>