<svg width="276" height="162" fill="none" xmlns="http://www.w3.org/2000/svg"><g clip-path="url(#clip0_139_249)"><path d="M219.649 27.216l.398 1.408-1.268 8.966-2.365.658 1.252-8.567-3.126.861.426 1.532-1.922.542-.921-3.306 7.526-2.094zm9.635 4.264c.463 1.667-.355 3.458-3.039 4.204a6.776 6.776 0 01-3.868 0l.398-1.907a4.724 4.724 0 002.912.104c1.085-.303 1.631-.945 1.42-1.711-.211-.766-.825-1.09-2.532-.614l-2.393.67-.989-5.429 5.735-1.595.474 1.751-3.925 1.09.352 1.83.765-.216c2.78-.785 4.228.16 4.69 1.823zm-.175-4.22c-.423-1.531.151-2.792 1.416-3.143 1.264-.35 2.392.399 2.831 1.963.439 1.563-.163 2.792-1.416 3.143-1.252.35-2.405-.431-2.831-1.963zm3.589-.993c-.339-1.22-1.116-1.787-1.994-1.543-.877.243-1.248 1.14-.909 2.353.339 1.212 1.105 1.79 1.994 1.544.889-.248 1.233-1.13.893-2.354h.016zm3.554-3.665l.798-.22-3.805 11.188-.798.22 3.805-11.188zm-.132 7.49c-.422-1.532.164-2.792 1.412-3.143 1.249-.351 2.393.43 2.836 1.962.442 1.532-.152 2.792-1.416 3.143s-2.421-.43-2.848-1.962h.016zm3.59-.993c-.335-1.196-1.105-1.79-1.994-1.543-.89.247-1.253 1.128-.91 2.349.343 1.22 1.117 1.787 1.994 1.543.878-.243 1.213-1.14.878-2.349h.032z" fill="#E0E0E0"/><path d="M240.135 158.136l28.081.22.278-35.447-28.081-.22-.278 35.447z" fill="#EBEBEB"/><path d="M257.506 123.96l-.499 34.32-4.435-.032.949-34.319 3.985.031z" fill="#FAFAFA"/><path d="M224.287 123.701l16.109.128 28.082.219-28.11 3.698-.239 30.402-16.105-.123.263-34.324z" fill="#E0E0E0"/><path d="M233.057 123.769l-.642 34.32-4.778-.036.782-34.32 4.638.036z" fill="#FAFAFA"/><path d="M245.808 113.323c0 .072-.475.16-1.34.244-1.123.105-2.26.165-3.392.165h-.291l-.086-.001c-1.825 0-3.65-.245-5.409-.723a3.959 3.959 0 01-.797-.358 2.167 2.167 0 01-.734-.694 1.945 1.945 0 01-.295-1.025c.001-.318.041-.635.12-.942.25-1.149.6-2.283 1.04-3.374a8.72 8.72 0 01.91-1.618 5.071 5.071 0 011.336-1.321c.281-.189.595-.324.925-.398a2.38 2.38 0 011.021-.001 4.04 4.04 0 011.552.846 16.115 16.115 0 013.654 4.191 13.54 13.54 0 011.479 3.418c.219.854.243 1.341.183 1.356-.175.053-.57-1.866-2.281-4.387a17 17 0 00-3.632-3.816 3.25 3.25 0 00-1.198-.634 1.516 1.516 0 00-1.176.255c-.41.29-.764.653-1.045 1.069a7.897 7.897 0 00-.798 1.428 21.743 21.743 0 00-1.002 3.191 1.597 1.597 0 00.029 1.196c.253.33.608.568 1.009.678.453.146.918.272 1.383.368.459.104.914.183 1.356.251.882.14 1.712.219 2.477.271 1.528.104 2.792.124 3.641.168.85.044 1.357.127 1.361.199v-.002z" fill="#E0E0E0"/><path d="M245.226 113.583c0-.072.51-.223 1.455-.439.946-.215 2.326-.498 3.989-.902a38.447 38.447 0 005.736-1.808 6.573 6.573 0 001.439-.769 1.59 1.59 0 00.462-.51.89.89 0 00.08-.582 3.202 3.202 0 00-.276-.758c-.131-.283-.267-.57-.398-.857a13.933 13.933 0 00-.918-1.651 7.135 7.135 0 00-1.196-1.393 4.588 4.588 0 00-1.428-.921 2.276 2.276 0 00-1.479-.063 3.855 3.855 0 00-1.328.797 20.113 20.113 0 00-3.842 4.526 17.464 17.464 0 00-1.706 3.647c-.3.913-.419 1.436-.499 1.424-.08-.012-.076-.554.108-1.524.288-1.37.782-2.693 1.459-3.916a19.175 19.175 0 013.848-4.874 4.654 4.654 0 011.657-1.033 3.246 3.246 0 012.125.052c.334.119.654.279.95.474.289.191.567.404.826.634a7.939 7.939 0 011.351 1.596c.367.567.699 1.162.986 1.774l.399.881c.16.323.276.668.343 1.021a1.866 1.866 0 01-.196 1.221 2.562 2.562 0 01-.749.825 7.186 7.186 0 01-1.676.862 32.809 32.809 0 01-5.948 1.644 50.362 50.362 0 01-4.084.582c-.965.1-1.478.107-1.49.04z" fill="#FAFAFA"/><path d="M219.176 123.65l41.277.325.093-11.734-41.278-.324-.092 11.733z" fill="#E0E0E0"/><path d="M234.36 123.766l37.31.293.092-11.734-37.31-.293-.092 11.734z" fill="#EBEBEB"/><path d="M260.305 112.251l-.259 11.786-4.351-.092.303-11.73 4.307.036zm-30.913-.184l-.423 11.682-4.782-.04.255-11.737 4.95.095z" fill="#FAFAFA"/><path d="M261.555 158.551l12.826.101.127-16.192-12.826-.101-.127 16.192z" fill="#EBEBEB"/><path d="M269.486 142.949l-.227 15.674-2.03-.012.435-15.678 1.822.016z" fill="#FAFAFA"/><path d="M254.311 142.829l7.358.056 12.827.104-12.839 1.687-.111 13.887-7.355-.056.12-15.678z" fill="#E0E0E0"/><path d="M258.315 142.861l-.291 15.678-2.185-.02.358-15.674 2.118.016z" fill="#FAFAFA"/><path d="M264.142 138.091c0 .132-.857.331-2.301.399a9.003 9.003 0 01-2.589-.283 1.516 1.516 0 01-.845-.582 1.158 1.158 0 01-.18-.61c0-.168.019-.335.056-.499a9.563 9.563 0 01.487-1.595c.118-.281.269-.55.446-.798.184-.269.419-.501.69-.682a1.417 1.417 0 011.097-.195c.295.088.567.241.797.447a7.22 7.22 0 011.68 1.994c.722 1.32.714 2.274.59 2.289-.123.016-.398-.797-1.196-1.89a7.97 7.97 0 00-1.652-1.644c-.128-.11-.28-.19-.442-.235a.428.428 0 00-.328.087 1.704 1.704 0 00-.398.419 3.39 3.39 0 00-.331.602 9.65 9.65 0 00-.447 1.409c-.06.223-.048.322-.027.346.08.1.191.171.314.204.39.128.792.23 1.197.299.399.072.766.12 1.109.156 1.38.143 2.269.207 2.273.362z" fill="#E0E0E0"/><path d="M263.875 138.227c-.024-.152.937-.399 2.449-.798.87-.233 1.734-.527 2.564-.875.21-.082.41-.191.594-.322a.465.465 0 00.132-.147v-.092a4.457 4.457 0 00-.287-.662 6.948 6.948 0 00-.398-.722 3.25 3.25 0 00-.491-.582 1.907 1.907 0 00-.559-.367.754.754 0 00-.502-.031 1.44 1.44 0 00-.514.303 9.595 9.595 0 00-1.756 1.974c-.841 1.269-1.017 2.242-1.196 2.218-.064 0-.108-.267-.056-.726a5.715 5.715 0 01.603-1.858 8.457 8.457 0 011.758-2.326 2.33 2.33 0 01.846-.53 1.731 1.731 0 011.144.02c.175.059.341.141.495.243.14.094.274.198.399.311.255.236.48.505.666.798.173.269.331.551.467.841.063.14.123.275.187.399.082.17.141.352.175.538a1.182 1.182 0 01-.12.731 1.48 1.48 0 01-.422.462 3.29 3.29 0 01-.83.399c-.895.329-1.829.568-2.772.707-1.559.219-2.552.207-2.576.095v-.001z" fill="#FAFAFA"/><path d="M251.984 142.798l18.852.148.042-5.36-18.852-.148-.042 5.36z" fill="#E0E0E0"/><path d="M258.916 142.853l17.042.134.042-5.36-17.042-.134-.042 5.36z" fill="#EBEBEB"/><path d="M270.763 137.6l-.12 5.381-1.986-.04.14-5.357 1.966.016zm-14.123-.087l-.192 5.336-2.185-.015.12-5.365 2.257.044z" fill="#FAFAFA"/><path d="M17.505 158.497l23.004.18.228-29.038-23.004-.18-.228 29.038z" fill="#EBEBEB"/><path d="M31.731 130.489l-.407 28.118-3.637-.028.782-28.114 3.262.024z" fill="#FAFAFA"/><path d="M4.52 130.278l13.196.104 23.005.179-23.029 3.031-.195 24.907-13.193-.103.215-28.118z" fill="#E0E0E0"/><path d="M11.702 130.334l-.523 28.114-3.916-.028.638-28.114 3.8.028z" fill="#FAFAFA"/><path d="M22.147 121.779c0 .143-.398.291-1.089.435a19.838 19.838 0 01-5.184.28c-.399-.036-.798-.08-1.197-.152a10.566 10.566 0 01-1.316-.288 3.792 3.792 0 01-.778-.339 2.366 2.366 0 01-.797-.746 2.2 2.2 0 01-.34-1.144v-.027c0-.3.037-.599.108-.89.206-.979.5-1.946.873-2.872.215-.505.483-.988.799-1.436.168-.225.351-.442.546-.646.214-.225.457-.423.722-.586.293-.19.62-.327.961-.399a2.525 2.525 0 011.089.024 3.81 3.81 0 011.487.822 12.901 12.901 0 013.016 3.625c.518.919.881 1.92 1.072 2.959.115.734.055 1.156-.076 1.196-.307.076-.798-1.431-2.234-3.35a14.548 14.548 0 00-2.958-2.911 2.012 2.012 0 00-.754-.398.662.662 0 00-.511.143 2.2 2.2 0 00-.339.295 5.734 5.734 0 00-.347.431 6.052 6.052 0 00-.582 1.057 18.181 18.181 0 00-.797 2.508 1.75 1.75 0 00-.077.423v.12a1 1 0 00.515.327c.345.121.7.227 1.057.311.363.092.722.164 1.069.232.698.127 1.364.219 1.994.291 1.228.14 2.25.223 2.955.331.706.108 1.108.231 1.112.374h.001z" fill="#E0E0E0"/><path d="M21.673 121.987c-.052-.296 1.671-.774 4.387-1.52a35.505 35.505 0 004.576-1.596 4.536 4.536 0 001.036-.57.683.683 0 00.212-.231v-.1a2.376 2.376 0 00-.184-.463l-.331-.69a12.053 12.053 0 00-.715-1.28 5.375 5.375 0 00-.86-1.025 4.184 4.184 0 00-.495-.399 2.2 2.2 0 00-.47-.251 1.277 1.277 0 00-.834-.06 2.552 2.552 0 00-.889.526 17.356 17.356 0 00-3.148 3.497c-1.52 2.25-1.863 3.989-2.177 3.941-.136 0-.232-.482-.144-1.312a10.15 10.15 0 011.054-3.361 15.114 15.114 0 013.15-4.204 4.368 4.368 0 011.552-.977 3.24 3.24 0 012.126.035 4.2 4.2 0 01.905.448c.264.169.515.362.75.57.459.416.862.893 1.197 1.416.313.486.6 1.002.845 1.527l.335.734c.152.314.261.649.323.993a2.135 2.135 0 01-.231 1.376c-.199.344-.471.64-.798.865a6.24 6.24 0 01-1.516.762 24.584 24.584 0 01-4.989 1.245c-1.122.17-2.266.273-3.4.292-.788.023-1.247-.045-1.266-.189l-.001.001z" fill="#FAFAFA"/><path d="M.338 130.246l33.812.266.076-9.612-33.812-.265-.076 9.611z" fill="#E0E0E0"/><path d="M12.767 130.341l30.565.24.076-9.611-30.566-.24-.075 9.611z" fill="#EBEBEB"/><path d="M34.024 120.898l-.211 9.655-3.566-.075.248-9.608 3.53.028zm-25.325-.152l-.343 9.572-3.92-.032.21-9.616 4.053.076z" fill="#FAFAFA"/><path d="M59.694 31.66l.4 1.52-6.083 1.563-.311-1.197 2.353-3.73c.539-.86.559-1.307.459-1.698-.164-.634-.694-.89-1.544-.67-.662.14-1.21.604-1.46 1.233l-1.594-.527c.398-1.069 1.364-1.942 2.792-2.317 1.794-.459 3.226.156 3.59 1.595.202.798.167 1.552-.695 2.888l-1.4 2.221 3.494-.881zm.104-2.696c-.682-2.66.399-4.543 2.393-5.05 1.994-.506 3.837.619 4.519 3.275.682 2.657-.399 4.539-2.393 5.05-1.994.51-3.837-.619-4.52-3.275zm5.025-1.292c-.47-1.831-1.308-2.421-2.241-2.182-.933.24-1.368 1.16-.898 2.988.47 1.826 1.309 2.42 2.23 2.185.92-.235 1.38-1.165.91-2.99v-.001zm2.333-2.62c-.338-1.312.176-2.393 1.257-2.652 1.08-.26 2.038.398 2.393 1.719.355 1.32-.188 2.392-1.257 2.652-1.069.26-2.057-.411-2.393-1.72zm3.06-.798c-.272-1.049-.926-1.543-1.672-1.348-.745.196-1.08.95-.797 1.994.283 1.045.909 1.544 1.67 1.348.763-.195 1.066-.937.799-1.982v-.012zm3.086-3.063l.678-.171-3.437 9.472-.678.175 3.437-9.476zm-.24 6.381c-.334-1.312.188-2.393 1.257-2.652 1.07-.26 2.042.399 2.393 1.719s-.175 2.393-1.256 2.648c-1.081.255-2.054-.399-2.393-1.707v-.008zm3.06-.797c-.267-1.037-.91-1.544-1.671-1.348-.762.195-1.081.937-.798 1.994.283 1.057.925 1.54 1.671 1.348.746-.191 1.065-.941.802-1.975l-.004-.02zm52.035-2.423c.032 1.648-1.196 3.19-3.988 3.223a6.688 6.688 0 01-3.737-.981l.845-1.743a4.786 4.786 0 002.793.83c1.128-.02 1.818-.491 1.806-1.29 0-.737-.566-1.195-1.846-1.164h-1.033l-.024-1.491 1.966-2.306-4.156.072-.027-1.815 6.827-.115.028 1.463-2.15 2.56c1.763.252 2.672 1.321 2.696 2.757zm1.013-1.91c-.056-3.238 1.687-5.077 4.08-5.12 2.393-.045 4.212 1.754 4.268 4.973.056 3.218-1.683 5.08-4.092 5.12-2.409.04-4.2-1.754-4.256-4.973zm6.094-.108c-.04-2.213-.837-3.123-1.966-3.103-1.129.02-1.879.954-1.839 3.191.04 2.238.834 3.123 1.947 3.103 1.113-.02 1.894-.973 1.858-3.19zm3.374-2.357c-.027-1.595.846-2.664 2.158-2.688 1.313-.024 2.222 1.009 2.25 2.612.028 1.603-.862 2.664-2.158 2.684-1.296.02-2.222-1.02-2.25-2.608zm3.709-.064c-.024-1.268-.634-1.994-1.539-1.994-.905 0-1.496.798-1.472 2.05.024 1.252.619 1.994 1.54 1.994s1.491-.766 1.471-2.05zm4.36-2.656h.821l-6.493 9.87h-.821l6.493-9.87zm-1.994 7.215c-.024-1.595.861-2.664 2.157-2.684 1.297-.02 2.222 1.02 2.25 2.608.028 1.587-.846 2.664-2.158 2.688-1.312.024-2.238-1.02-2.265-2.612h.016zm3.709-.064c-.02-1.252-.619-1.994-1.54-1.994s-1.491.778-1.471 2.046c.019 1.268.634 1.994 1.539 1.994.905 0 1.48-.79 1.456-2.046h.016z" fill="#E0E0E0"/><path d="M166.612 5.547c-.191 1.245-1.272 2.19-3.283 1.883a4.92 4.92 0 01-2.568-1.16l.834-1.15a3.42 3.42 0 001.902.938c.818.123 1.372-.14 1.46-.714.087-.574-.223-.97-1.5-1.165l-1.799-.275.965-3.904 4.292.654-.2 1.308-2.935-.447-.316 1.316.575.088c2.082.32 2.764 1.38 2.573 2.628zm.861-1.204c.356-2.325 1.843-3.445 3.59-3.19 1.747.255 2.816 1.775 2.461 4.1-.355 2.325-1.835 3.442-3.59 3.19-1.755-.25-2.811-1.778-2.461-4.1zm4.388.67c.243-1.595-.219-2.349-1.033-2.472-.814-.124-1.468.455-1.711 2.054-.244 1.599.215 2.345 1.021 2.469.805.123 1.487-.451 1.73-2.046l-.008-.004h.001zm2.724-1.284c.175-1.145.937-1.81 1.882-1.667.945.143 1.472.997 1.296 2.154-.175 1.156-.945 1.81-1.882 1.667-.937-.144-1.472-1.005-1.296-2.154zm6.154-.965l.594.092-5.899 6.301-.594-.091 5.899-6.302zm-3.458 1.376c.14-.918-.212-1.524-.866-1.623-.654-.1-1.168.398-1.308 1.292-.14.893.2 1.52.865 1.623.666.104 1.149-.38 1.289-1.292h.02zm1.128 3.565c.176-1.144.945-1.81 1.883-1.667.937.144 1.472 1.01 1.296 2.154-.175 1.145-.937 1.811-1.883 1.667-.945-.143-1.491-1.005-1.316-2.154h.02zm2.677.4c.135-.906-.2-1.524-.866-1.624-.666-.1-1.169.375-1.308 1.288-.14.914.211 1.528.865 1.628.654.1 1.149-.391 1.289-1.28l.02-.012zM6.545 39.392l-1.46 6.234-1.427-.327 1.196-5.077-1.249-.291.272-1.161 2.668.622zm.359 3.374c.478-2.057 1.894-2.959 3.426-2.6 1.531.359 2.393 1.794 1.914 3.848-.478 2.054-1.882 2.96-3.426 2.6-1.543-.358-2.397-1.79-1.914-3.848zm3.893.91c.33-1.416-.032-2.122-.754-2.29-.722-.167-1.348.303-1.68 1.72-.33 1.415.029 2.12.742 2.288.714.168 1.356-.303 1.692-1.718zm8.092-1.392l.526.124-5.72 5.237-.521-.124 5.715-5.237zm-5.584.435c.24-1.017.97-1.56 1.807-1.364.838.195 1.248.997 1.009 2.022-.24 1.025-.973 1.556-1.803 1.364-.83-.191-1.236-1.009-1.001-2.022h-.012zm2.37.554c.19-.797-.08-1.38-.659-1.515-.578-.136-1.077.263-1.264 1.064-.187.802.072 1.38.662 1.516.59.136 1.085-.235 1.272-1.065h-.011zm.765 3.279c.235-1.017.973-1.556 1.803-1.364.83.191 1.248 1.009 1.013 2.022-.235 1.013-.97 1.56-1.807 1.364-.837-.195-1.236-1.01-.997-2.022h-.012zm2.373.554c.187-.798-.072-1.38-.658-1.516-.586-.135-1.077.256-1.264 1.065-.187.81.08 1.38.658 1.516.578.136 1.085-.264 1.264-1.065z" fill="#F5F5F5"/><path d="M44.298 103.875c-6.943-7.103-17.82-10.09-27.415-7.521a49.968 49.968 0 0027.738 8.668l-.323-1.147zm-9.3-32.927c1.144-8.08-1.995-17.15-8.045-23.04-.2 8.008 3.19 17.017 8.045 23.04zm4.837 15.259a43.133 43.133 0 00-19.828-18.93c2.525 9.3 10.481 16.91 19.886 19.02l-.057-.09zm1.001 2.963c-4.877.136-9.819-.035-14.537-1.284-4.718-1.248-9.237-3.649-12.364-7.386a48.577 48.577 0 0126.812 8.18l.09.49zm-2.48-9.715c2.476-9.285 6.564-15.706 13.859-20.907a19.306 19.306 0 01-13.86 20.906v.001zm18.422 16.009v-.092a13.736 13.736 0 00-8.347-12.636c.399 4.786 4.171 10.338 8.347 12.727v.001zm2.317-7.829c.555-7.754 6.063-14.928 13.413-17.465-1.671 7.757-6.154 14.214-13.413 17.465zm-3.498 13.899c1.72-2.46 4.527-3.988 7.434-4.754 2.908-.766 5.943-.826 8.946-.89a20.924 20.924 0 01-16.152 6.728l-.228-1.084zm-3.49 19.778a22.92 22.92 0 0127.98 13.254c-10.164-1.923-20.195-6.442-27.98-13.254zm-11.151-6.875c1.687 4.989 1.364 11.023-2.393 15.322a18.314 18.314 0 012.392-15.322h.001zm-6.589-2.772A18.79 18.79 0 0123.998 126.9a1.167 1.167 0 01-.917.147c-.459-.183-.498-.797-.443-1.3.734-6.381 5.472-12.575 11.73-14.082zm-4.311-.651a15.407 15.407 0 01-11.3 4.937 15.407 15.407 0 01-11.19-4.821c7.146-.797 15.398-1.304 22.49-.115v-.001z" fill="#A39085"/><path d="M28.987 53.862c.016.072.037.143.064.212.056.147.128.347.22.602.203.542.49 1.32.86 2.317.372.997.83 2.234 1.345 3.67l.825 2.293c.283.798.582 1.683.893 2.588 1.269 3.622 2.673 7.977 4.192 12.803 1.52 4.826 3.06 10.198 4.6 15.842a426.516 426.516 0 014.011 16.005c1.145 4.941 2.074 9.412 2.764 13.185l.507 2.688c.147.849.283 1.655.398 2.392.26 1.5.479 2.792.63 3.857.152 1.065.288 1.871.376 2.441.044.267.08.479.104.634.009.072.024.145.044.215a1.47 1.47 0 000-.219c-.02-.156-.044-.367-.08-.638l-.323-2.449a140.95 140.95 0 00-.582-3.865c-.124-.754-.252-1.559-.4-2.413-.147-.854-.314-1.747-.486-2.692-.67-3.781-1.595-8.252-2.708-13.205-1.113-4.954-2.477-10.37-3.988-16.022-1.512-5.651-3.115-11-4.622-15.845a329.408 329.408 0 00-4.248-12.79l-.914-2.581-.845-2.29c-.53-1.431-.99-2.66-1.388-3.657-.399-.997-.698-1.758-.91-2.297l-.243-.594a1.54 1.54 0 00-.096-.188v.001z" fill="#263238"/><path d="M68.268 74.314a.781.781 0 00-.124.116l-.343.358c-.299.32-.73.798-1.268 1.42a50.46 50.46 0 00-4.21 5.613 37.687 37.687 0 00-4.388 9.421c-1.197 3.745-1.915 8.01-2.64 12.46-1.456 8.914-3.239 16.898-4.531 22.673-.65 2.876-1.197 5.205-1.548 6.84-.175.798-.315 1.416-.398 1.859-.044.203-.076.363-.104.487a.847.847 0 00-.024.165.794.794 0 00.052-.164l.127-.478c.112-.439.263-1.057.463-1.847.398-1.627.945-3.952 1.631-6.82 1.34-5.763 3.155-13.748 4.61-22.674.73-4.45 1.452-8.698 2.613-12.431a38.188 38.188 0 014.325-9.386 52.994 52.994 0 014.126-5.644c.527-.638.945-1.125 1.233-1.456.131-.155.24-.279.32-.379.03-.043.056-.088.079-.133h-.001zm-40.346 36.393a.856.856 0 00.256.048l.741.079.535.056.63.092c.455.067.973.135 1.535.259l.89.18.949.239c.662.148 1.344.399 2.074.61a30.617 30.617 0 014.525 1.994 25.273 25.273 0 014.06 2.825c.544.467 1.069.97 1.556 1.494.439.448.855.927 1.234 1.424.325.4.634.823.914 1.257.227.321.438.661.626 1.009l.379.642c.039.078.088.15.147.215a.884.884 0 00-.1-.243l-.335-.666a8.11 8.11 0 00-.59-1.025 13.597 13.597 0 00-.886-1.292 16.144 16.144 0 00-1.22-1.46 19.963 19.963 0 00-1.559-1.527 24.624 24.624 0 00-4.094-2.867 29.134 29.134 0 00-4.576-1.994c-.738-.216-1.428-.451-2.098-.591l-.961-.227-.898-.16c-.57-.115-1.093-.167-1.551-.223l-.638-.071-.539-.028-.747-.048a.932.932 0 00-.26-.001v.001l.002-.001zm-2.038-36.226c.151.183.322.35.507.499l1.472 1.276a510.106 510.106 0 004.921 4.132 419.845 419.845 0 004.974 4.072l1.527 1.197c.18.152.375.287.583.398a3.499 3.499 0 00-.515-.498l-1.472-1.277a511.76 511.76 0 00-4.921-4.132 417.093 417.093 0 00-4.97-4.068l-1.527-1.196a3.952 3.952 0 00-.578-.403zm-1.758 9.461c0 .072 3.733 1.244 8.375 2.62 4.642 1.376 8.443 2.43 8.463 2.357.02-.072-3.733-1.248-8.375-2.62-4.642-1.372-8.44-2.43-8.463-2.357zm13.863-3.765c.15-.166.285-.347.399-.54l.99-1.507a86.002 86.002 0 013.441-4.85 91.397 91.397 0 013.769-4.594c.47-.543.87-.997 1.196-1.356.149-.16.283-.334.399-.519a2.641 2.641 0 00-.494.443c-.304.3-.734.742-1.257 1.3a64.131 64.131 0 00-3.84 4.563 61.585 61.585 0 00-3.386 4.906c-.399.65-.714 1.196-.918 1.56a2.813 2.813 0 00-.299.594zm13.034 5.248c.26.5.557.985.881 1.447a79.707 79.707 0 012.11 3.49 98.361 98.361 0 011.926 3.59c.233.514.5 1.016.799 1.496a8.934 8.934 0 00-.623-1.595 44.533 44.533 0 00-1.859-3.653 46.363 46.363 0 00-2.186-3.462 8.73 8.73 0 00-1.048-1.311v-.001z" fill="#263238"/><path d="M55.506 101.786c.02.035.733-.316 1.906-.842a66.22 66.22 0 014.659-1.866 51.595 51.595 0 014.806-1.444c1.244-.315 2.022-.495 1.994-.534l-.052-.001c-.17 0-.341.02-.507.06-.358.052-.87.148-1.5.283a40.96 40.96 0 00-4.855 1.382 41.833 41.833 0 00-4.649 1.945 25.51 25.51 0 00-1.352.714 2.25 2.25 0 00-.45.303zm-3.534 19.558a.945.945 0 00.231.076l.678.171 2.497.578a81.828 81.828 0 018.151 2.159 36.093 36.093 0 017.61 3.586c.91.579 1.62 1.089 2.098 1.46.239.198.493.386.754.556.26.17-.052-.067-.167-.179a7.836 7.836 0 00-.523-.463c-.65-.55-1.345-1.07-2.058-1.54a33.348 33.348 0 00-7.623-3.667A66.873 66.873 0 0055.415 122l-2.514-.524a6.315 6.315 0 00-.929-.132zm-12.695 4.818c.072 0 .518-2.62.997-5.879.478-3.258.798-5.91.726-5.922-.072-.012-.519 2.624-.997 5.883-.479 3.258-.802 5.91-.726 5.918zm-13.221-4.798c.428-.443.831-.919 1.197-1.416.714-.889 1.703-2.114 2.824-3.446a205.703 205.703 0 012.907-3.378c.43-.441.832-.917 1.196-1.415a1.91 1.91 0 00-.399.323c-.231.223-.554.55-.953.965a68.07 68.07 0 00-2.975 3.33 70.147 70.147 0 00-2.768 3.502c-.339.462-.606.841-.798 1.104a1.704 1.704 0 00-.231.431z" fill="#263238"/><path d="M61.041 133.624v6.533h-1.635l-5.803 18.326H40.725L35.1 140.336l-2.177-.179v-6.533H61.04z" fill="#404A4F"/><path d="M34.013 140.337c0 .076 5.683.139 12.694.139 7.012 0 12.7-.063 12.7-.139 0-.076-5.684-.136-12.7-.136-7.015 0-12.694.06-12.694.136zM24.752 98.32c.268.097.545.172.825.223l2.258.546a100.38 100.38 0 017.358 2.138c2.836.941 5.356 1.967 7.179 2.744l2.13.93c.256.127.523.236.797.322a4.846 4.846 0 00-.745-.419 44.462 44.462 0 00-2.099-1.013 74.096 74.096 0 00-14.553-4.894 49.619 49.619 0 00-2.281-.458 5.214 5.214 0 00-.87-.12z" fill="#263238"/><path d="M38.288 150.515c0 .075 3.988.135 8.906.135 4.917 0 8.91-.06 8.91-.135 0-.076-3.989-.136-8.91-.136-4.922 0-8.906.06-8.906.136zm-.503-1.52c0 .076 4.228.136 9.44.136 5.213 0 9.445-.06 9.445-.136 0-.075-4.227-.135-9.444-.135-5.217 0-9.44.064-9.44.135z" fill="#FAFAFA"/><path d="M242.617 108.223l-26.59-29.873a11.27 11.27 0 00-8.328-3.773l-87.539-.634h-.083c-6.215 0-11.255 5.04-11.255 11.255v.029l.147 61.986c.013 6.204 5.05 11.231 11.255 11.231h.048l87.237-.367a11.255 11.255 0 008.487-3.897l26.749-31.109a11.265 11.265 0 00-.127-14.848h-.001zm-14.669 25.617a9.286 9.286 0 01-8.602 5.789c-5.126 0-9.284-4.158-9.284-9.285s4.158-9.284 9.284-9.284c1.199 0 2.388.232 3.497.683a9.285 9.285 0 014.978-2.768l.127 14.865z" fill="#A39085"/><path d="M242.617 108.223l-26.59-29.873a11.27 11.27 0 00-8.328-3.773l-87.539-.634h-.083c-6.215 0-11.255 5.04-11.255 11.255v.029l.147 61.986c.013 6.204 5.05 11.231 11.255 11.231h.048l87.237-.367a11.255 11.255 0 008.487-3.897l26.749-31.109a11.265 11.265 0 00-.127-14.848h-.001zm-14.669 25.617a9.286 9.286 0 01-8.602 5.789c-5.126 0-9.284-4.158-9.284-9.285s4.158-9.284 9.284-9.284c1.199 0 2.388.232 3.497.683a9.285 9.285 0 014.978-2.768l.127 14.865z" fill="#000" fill-opacity=".161"/><path d="M247.224 108.223L220.622 78.35a11.276 11.276 0 00-8.328-3.773l-87.539-.634h-.088c-6.213 0-11.251 5.038-11.251 11.25v.032l.143 61.986c.015 6.207 5.053 11.233 11.259 11.233h.084l87.233-.367a11.265 11.265 0 008.487-3.898l26.745-31.109a11.25 11.25 0 002.724-7.341c0-2.769-1.023-5.444-2.867-7.507v.001zm-14.65 25.617a9.285 9.285 0 11-5.104-12.097 9.293 9.293 0 014.961-2.768l.143 14.865z" fill="#A39085"/><path d="M142.547 106.145c.067-7.514 4.698-12.248 11.191-12.184 6.493.064 10.972 4.813 10.904 12.387-.068 7.574-4.642 12.248-11.131 12.188-6.489-.059-11.036-4.877-10.964-12.391zm15.725.147c.044-4.786-1.778-7.087-4.583-7.111-2.736-.028-4.67 2.309-4.714 7.023-.044 4.714 1.847 7.083 4.583 7.111 2.804.024 4.67-2.249 4.714-7.023zm22.012-11.566l7.577.072-30.849 44.27-7.578-.072 30.85-44.27zm-7.626 32.732c.072-7.514 4.698-12.248 11.132-12.188 6.493.064 11.031 4.882 10.964 12.392-.068 7.51-4.699 12.228-11.196 12.16-6.409-.052-10.968-4.869-10.9-12.363v-.001zm15.662.144c.044-4.711-1.779-7.084-4.583-7.108-2.736-.027-4.666 2.246-4.71 7.024-.044 4.778 1.842 7.083 4.579 7.111 2.803.008 4.67-2.333 4.71-7.047l.004.02z" fill="#fff"/><path d="M244.312 126.66c.317.169.612.38.874.626a86.936 86.936 0 012.353 1.954 113.79 113.79 0 013.617 3.223c1.38 1.288 2.928 2.792 4.527 4.575a46.093 46.093 0 014.758 6.213l.566.905.535.945c.372.641.714 1.312 1.012 1.99a12.517 12.517 0 011.141 4.604 7.277 7.277 0 01-.366 2.509 6.453 6.453 0 01-1.317 2.262 8.486 8.486 0 01-4.562 2.607 12.424 12.424 0 01-5.388-.128 23.405 23.405 0 01-5.116-1.886 31.953 31.953 0 01-8.582-6.383 41.367 41.367 0 01-3.314-3.852c-.999-1.31-1.95-2.613-2.854-3.911-3.59-5.185-6.381-10.17-8.136-14.629a49.892 49.892 0 01-1.145-3.211 27.188 27.188 0 01-.435-1.515 9.453 9.453 0 01-.291-1.473 3.647 3.647 0 01.658-2.675 3.894 3.894 0 011.89-1.317 5.42 5.42 0 01.949-.219 5.265 5.265 0 01.854-.02c.445.021.886.117 1.3.283.251.106.486.25.694.427.135.124.195.192.183.207-.011.016-.095-.027-.247-.119a2.97 2.97 0 00-.702-.315 4.089 4.089 0 00-1.188-.176h-.048a5.75 5.75 0 00-.798.064c-.294.057-.585.14-.865.247a3.518 3.518 0 00-1.627 1.229 3.124 3.124 0 00-.479 2.313c.065.468.17.933.311 1.385.132.478.295.965.463 1.467a57.878 57.878 0 001.196 3.143c1.807 4.347 4.631 9.257 8.236 14.358a113.947 113.947 0 002.859 3.856 40.894 40.894 0 003.26 3.748 31.327 31.327 0 008.309 6.175 22.968 22.968 0 004.907 1.81 11.442 11.442 0 004.947.141 7.559 7.559 0 004.035-2.274 5.86 5.86 0 001.468-4.092 11.672 11.672 0 00-1.053-4.272 20.441 20.441 0 00-.954-1.929l-.498-.922-.542-.901a47.742 47.742 0 00-4.583-6.178 74.513 74.513 0 00-4.388-4.643 202.804 202.804 0 00-3.49-3.338l-2.2-2.089a4.342 4.342 0 01-.734-.798v-.001zm-41.546-61.902c-.056 0-1.173-7.797-2.497-17.432-1.324-9.636-2.349-17.453-2.289-17.461.06-.008 1.173 7.797 2.497 17.433 1.324 9.635 2.349 17.453 2.289 17.46zm32.884-42.687a.505.505 0 01-.036.12l-.128.347-.506 1.328-1.899 4.874a948.344 948.344 0 00-6.102 16.14 864.311 864.311 0 00-5.771 16.26c-.714 2.079-1.292 3.765-1.695 4.95-.2.57-.355 1.02-.467 1.344-.052.143-.095.255-.127.347a.593.593 0 01-.048.115.435.435 0 01.027-.123l.108-.355c.1-.323.244-.798.427-1.357.375-1.176.933-2.875 1.635-4.969a611.698 611.698 0 015.72-16.284 669.05 669.05 0 016.154-16.125c.798-2.05 1.491-3.709 1.966-4.85l.546-1.312c.06-.14.112-.251.148-.339l.047-.112.001.001zm23.562 30.694c.036.044-5.671 4.515-12.762 9.97-7.092 5.457-12.842 9.868-12.879 9.82-.036-.048 5.676-4.515 12.763-9.97 7.087-5.457 12.847-9.868 12.878-9.82zm-70.29 13.449c-.048.036-2.253-2.792-4.929-6.285-2.676-3.494-4.814-6.382-4.786-6.41.028-.027 2.253 2.792 4.929 6.286 2.677 3.494 4.83 6.373 4.786 6.409zm67.595 21.983c0 .056-3.514-.917-7.814-2.17-4.299-1.252-7.769-2.312-7.753-2.368.016-.057 3.513.917 7.813 2.17 4.3 1.251 7.773 2.313 7.754 2.368z" fill="#263238"/><path d="M206.26 88.07l2.592-1.491 1.376-2.657 1.496 2.593 2.656 1.38-2.592 1.491-1.38 2.657-1.492-2.593-2.656-1.38zm-14.015-4.116l.909-.522.483-.93.522.905.929.483-.909.523-.482.929-.523-.905-.929-.483zm8.949 18.318l1.755-1.009.934-1.799 1.009 1.755 1.798.933-1.754 1.01-.934 1.798-1.009-1.755-1.799-.933z" fill="#fff"/><path d="M274.787 158.484c0 .056-61.52.104-137.389.104-75.87 0-137.398-.048-137.398-.104 0-.056 61.504-.104 137.398-.104 75.893 0 137.389.044 137.389.104z" fill="#263238"/><path d="M86.697 149.536S66.982 155 66.164 155.279c-1.186.416-.987 4.774.865 4.726.874-.032 15.158.53 16.964.417 1.805-.114 6.664-2.028 6.664-2.028l-3.96-8.858z" fill="#404A4F"/><path d="M78.472 157.07c-.099 0-.231-1.03-.87-2.117-.637-1.088-1.455-1.74-1.394-1.815.062-.076 1.017.472 1.683 1.649.667 1.177.667 2.284.581 2.284v-.001zm2.061-.945c-.099 0-.297-.917-.823-1.948-.524-1.03-1.148-1.753-1.077-1.819.07-.066.827.581 1.37 1.673.544 1.092.615 2.093.53 2.093v.001zm1.929-.506c-.1 0-.024-.993-.473-2.089-.448-1.096-1.148-1.773-1.077-1.843.07-.071.945.534 1.384 1.725.44 1.191.246 2.24.166 2.207z" fill="#263238"/><path d="M82.107 153.067a3.574 3.574 0 01-.213-1.466 7.095 7.095 0 01.214-1.621c.073-.311.171-.62.292-.917.062-.182.171-.346.317-.472a.523.523 0 01.676.033.886.886 0 01.264.558 3.681 3.681 0 010 .52 4.276 4.276 0 01-.123.945 5.91 5.91 0 01-.605 1.508c-.22.446-.521.85-.889 1.186-.042-.028.289-.473.681-1.295.23-.465.404-.958.515-1.465.064-.296.098-.6.1-.903 0-.303 0-.681-.185-.827a.19.19 0 00-.26-.024.82.82 0 00-.218.345 6.995 6.995 0 00-.298.87 7.737 7.737 0 00-.26 1.541c-.042.917.047 1.479-.01 1.484h.002z" fill="#263238"/><path d="M82.135 152.868a2.79 2.79 0 011.277-.208h.016c.472 0 .945.059 1.401.175.283.059.556.16.809.298a.828.828 0 01.444.898.988.988 0 01-.714.704 1.782 1.782 0 01-.884 0 4.215 4.215 0 01-2.198-1.536 9.1 9.1 0 011.05.713c.366.249.777.429 1.21.525a1.557 1.557 0 00.732 0 .676.676 0 00.473-.472.506.506 0 00-.293-.549 2.894 2.894 0 00-.718-.278 6.438 6.438 0 00-1.329-.232c-.784-.066-1.267.014-1.276-.038zm-6.692 4.411c-.1 0 0-.856-.393-1.778-.392-.921-1.025-1.47-.945-1.545.08-.076.856.387 1.271 1.418.416 1.03.147 1.942.067 1.905zm13.754.911a4.57 4.57 0 01-.766.359c-.712.273-1.451.506-2.196.681a31.405 31.405 0 01-7.537.714c-2.959-.034-5.624-.166-7.562-.246l-2.288-.118a4.199 4.199 0 01-.835-.091 3.872 3.872 0 01.86-.056h2.292l7.563.146c.292.003.602.012.898.012 2.21 0 4.418-.211 6.584-.623 1.88-.353 2.987-.84 2.987-.778z" fill="#263238"/><path d="M89.797 158.64c-.5-.197-1-.425-1.478-.672a6.934 6.934 0 00-3.735-.619c-1.489.227-2.543 1.229-3.228 1.919-.35.414-.734.805-1.14 1.162.263-.479.59-.923.97-1.318a7.817 7.817 0 011.309-1.225 4.69 4.69 0 012.037-.864 6.542 6.542 0 013.885.737c.502.219.97.516 1.38.879v.001zm-19.799.855c.081-.254.179-.505.288-.747a3.63 3.63 0 00-.652-3.535c-.311-.378-.562-.558-.538-.596.023-.037.311.104.675.473a3.364 3.364 0 01.69 3.734c-.212.463-.44.69-.463.671z" fill="#263238"/><path d="M107.291 150.123s20.248 3.077 21.066 3.261c1.233.274 1.55 4.623-.293 4.774-.875.071-14.993 2.33-16.798 2.434-1.806.104-7.468-1.38-7.468-1.38l3.493-9.089z" fill="#404A4F"/><path d="M116.351 156.621c.099 0 .109-1.049.61-2.207s1.243-1.89 1.172-1.971c-.071-.08-.945.601-1.475 1.844-.529 1.243-.387 2.353-.307 2.334zm-2.155-.68c.099 0 .185-.946.586-2.033.402-1.087.946-1.89.851-1.933-.095-.043-.752.671-1.163 1.82-.41 1.148-.359 2.15-.274 2.146zm-1.976-.289c.095 0-.094-.987.208-2.127.303-1.139.946-1.89.851-1.961-.095-.071-.856.643-1.168 1.891-.311 1.247.033 2.24.109 2.198v-.001z" fill="#263238"/><path d="M112.263 153.081a3.42 3.42 0 00.038-1.479 6.894 6.894 0 00-.392-1.575 6.508 6.508 0 00-.402-.879 1.09 1.09 0 00-.369-.439.526.526 0 00-.671.114.881.881 0 00-.195.552l.001.034c0 .173.013.347.038.519.042.323.122.642.236.946.194.505.457.984.78 1.418a4.1 4.1 0 001.02 1.077c.043-.038-.34-.473-.827-1.205a6.62 6.62 0 01-.69-1.418 4.25 4.25 0 01-.198-.884c-.028-.303-.076-.676.08-.842a.19.19 0 01.255-.051.823.823 0 01.26.316c.151.266.284.543.396.828.197.482.346.986.444 1.498.161.908.142 1.47.195 1.47h.001z" fill="#263238"/><path d="M112.216 152.887a2.76 2.76 0 00-1.276-.071c-.469.056-.93.17-1.371.336-.272.094-.53.227-.766.392a.834.834 0 00-.335.945c.134.334.438.571.794.62a1.856 1.856 0 00.879-.109 4.25 4.25 0 001.999-1.787 8.998 8.998 0 00-.945.832 3.504 3.504 0 01-1.139.667 1.606 1.606 0 01-.728.075.685.685 0 01-.534-.406.518.518 0 01.227-.586c.209-.147.437-.268.676-.359a6.23 6.23 0 011.295-.388c.732-.127 1.224-.108 1.224-.161zm7.17 3.583c.099-.024-.099-.846.175-1.815.274-.97.851-1.579.78-1.645-.071-.066-.808.472-1.097 1.56-.288 1.087.071 1.947.142 1.9zm-13.565 2.543c.258.115.527.204.803.265.74.188 1.5.329 2.259.415 1 .095 2.02.148 3.028.148 1.515 0 3.04-.114 4.536-.331 2.935-.388 5.563-.837 7.472-1.144l2.26-.392c.277-.034.552-.098.817-.19a3.99 3.99 0 00-.837.062l-2.273.288-7.483 1.045a35.528 35.528 0 01-7.499.286c-1.916-.163-3.07-.503-3.083-.451v-.001z" fill="#263238"/><path d="M105.296 159.528c.033.043.529-.336 1.39-.841a6.832 6.832 0 013.635-1.059c1.503.047 2.666.917 3.431 1.522.397.367.823.71 1.266 1.02a5.94 5.94 0 00-1.115-1.196 7.76 7.76 0 00-1.446-1.063 4.738 4.738 0 00-2.146-.614 6.543 6.543 0 00-3.762 1.191c-.469.279-.893.63-1.253 1.039v.001z" fill="#263238"/><path d="M170.263 66.93a1.244 1.244 0 00-.591-.582l.473-.945a2.758 2.758 0 00-.279-.974c-.236-.406-1.064-.373-1.064-.373l.128-.27a1.213 1.213 0 00-.104-1.19 3.179 3.179 0 00-.123-.161 1.97 1.97 0 00-1.044-.53c-.394-.066.472-.907.26-1.29a1.967 1.967 0 00-2.014-.794 28.366 28.366 0 00-3.661 1.75.865.865 0 01-1.231-.473 12.43 12.43 0 00-1.791-3.366c-.889-1.068-1.72-.983-2.207-.794a.4.4 0 00-.199.581c.474.757.908 1.552 1.284 2.363.232.62.473 5.28.473 5.28l-1.276 2.43-12.87 20.329s-19.45-13.107-19.379-13.433l-.917 15.03 14.652 9.737a10.323 10.323 0 0015.168-4.463l9.864-21.41 1.196-1.75 4.647-2.977s.77-1.333.605-1.725z" fill="#FFBE9D"/><path d="M168.131 61.91s-.028.033-.09.085l-.279.227a89.2 89.2 0 00-1.039.807l-1.555 1.182c-.293.218-.586.473-.945.681a1.369 1.369 0 01-1.234.166.947.947 0 01-.473-.473 1.358 1.358 0 01-.108-.619c.035-.395.202-.768.472-1.059a6.67 6.67 0 01.775-.709l.7-.581 1.021-.837.278-.222c.066-.047.099-.076.104-.071l-.089.09-.265.24-.993.86-.69.592a6.745 6.745 0 00-.756.71 1.66 1.66 0 00-.481 1.114c0 .356.193.683.505.856a1.01 1.01 0 00.581.057c.194-.038.38-.11.548-.213.331-.203.633-.472.946-.667l1.564-1.167 1.064-.775.293-.208.146-.066z" fill="#EB996E"/><path d="M169.162 64.098a1.266 1.266 0 01-.218.18c-.142.109-.354.264-.619.449a33.75 33.75 0 01-2.113 1.352c-.212.123-.416.25-.633.35a1.374 1.374 0 01-.676.126 1.059 1.059 0 01-.874-.704 1.027 1.027 0 01.056-.766.966.966 0 01.119-.174c.032-.038.052-.052.056-.052.005 0-.061.085-.132.245a1.025 1.025 0 000 .719c.124.346.437.59.804.624h.059c.194 0 .385-.043.56-.128a6.91 6.91 0 00.62-.34 56.506 56.506 0 002.131-1.324l.634-.416c.071-.053.147-.1.226-.141z" fill="#EB996E"/><path d="M169.762 66.235c-.069.05-.144.093-.222.127l-.629.317c-.534.265-1.276.62-2.094 1.007-.199.1-.406.19-.614.265a1.2 1.2 0 01-.638.052.687.687 0 01-.473-.34.805.805 0 01-.075-.502c.051-.239.183-.454.373-.61.127-.108.213-.15.217-.141.005.009-.071.061-.189.175a1.11 1.11 0 00-.317.59.703.703 0 00.076.44c.089.15.24.253.411.284a1.068 1.068 0 00.577-.056c.204-.076.406-.165.6-.266.823-.382 1.565-.727 2.108-.973l.648-.28a.865.865 0 01.241-.089z" fill="#EB996E"/><path d="M170.098 68.21c-.24.083-.488.15-.738.194a97.95 97.95 0 01-1.801.383l-.515.104a1.989 1.989 0 01-.47.057h-.026a.701.701 0 01-.44-.156.476.476 0 01-.17-.364v-.01a.68.68 0 01.284-.496.358.358 0 01.189-.085c.07-.009-.066.038-.161.123a.645.645 0 00-.227.472.382.382 0 00.147.298c.105.08.234.123.366.123h.012c.159-.002.318-.024.473-.062l.515-.109c.704-.141 1.342-.264 1.805-.35.248-.058.503-.1.757-.122zm-5.044-.945a6.708 6.708 0 00-1.323-.132c-.441.04-.877.128-1.3.26a2.422 2.422 0 011.295-.378 2.491 2.491 0 011.328.25z" fill="#EB996E"/><path d="M95.606 62.813s-6.542-5.517-5.029-9.316c1.513-3.8 5.714-5.672 7.78-12.597 1.65-5.52 11.476-16.174 23.123-8.139 0 0 3.942-.62 6.182 1.177 2.24 1.796 2.784 5.379 3.734 9.514 1.465 6.377 2.269 11.278-.567 14.398-2.836 3.12-3.876 3.956-3.725 7.501.199 4.627 2.241 4.008.473 7.383l-9.765-3.186-.104-2.69-.988 2.53-5.672-2.042-15.442-4.533z" fill="#263238"/><path d="M128.13 39.548c-.633 1.456-.114 3.139.472 4.614.586 1.474 1.3 3.03.998 4.59-.539 2.764-3.976 4.305-4.354 7.09-.203 1.493.544 3.014.256 4.499-.288 1.484-1.48 2.514-2.751 3.233-1.271.719-2.675 1.2-3.872 2.042 0 0-2.627 2.155-7.155-1.394l16.406-24.674z" fill="#263238"/><path d="M109.578 35.933a2.412 2.412 0 00-2.836 1.602L97.36 68.683c-1.215 3.644 3.37 7.534 7.278 8.8h.001c3.951 1.282 4.75-.595 6.002-4.026 2.099-5.73 2.836-7.894 2.836-7.861 0 .033 5.237.898 8.508-5.2 1.626-3.039 3.309-8.366 4.523-12.761 1.107-3.961.189-9.614-3.814-10.545l-13.116-1.158z" fill="#FFBE9D"/><path d="M123.2 50.888a.874.874 0 01-1.092.557.842.842 0 01-.595-1.045.88.88 0 011.092-.557.84.84 0 01.595 1.044zm1.295-1.111c-.137.07-.605-.61-1.498-.917-.893-.307-1.702-.09-1.758-.232-.033-.066.142-.227.472-.335a2.422 2.422 0 011.456.051c.464.162.867.467 1.148.87.222.284.251.515.18.563zm-10.143-1.717a.879.879 0 01-1.086.563.84.84 0 01-.596-1.045.88.88 0 011.087-.562.84.84 0 01.595 1.045zm1.248-.973c-.142.076-.61-.61-1.503-.916-.894-.307-1.702-.09-1.759-.232-.033-.066.142-.222.496-.33a2.387 2.387 0 011.457.051 2.3 2.3 0 011.148.865c.198.303.227.534.161.563zm.936 7.743a6.142 6.142 0 011.541.241c.236.057.472.085.558-.056a1.256 1.256 0 00.08-.729c0-.623-.043-1.28-.066-1.966-.08-2.798-.052-5.062.061-5.067.114-.005.27 2.264.346 5.057 0 .686.023 1.343.038 1.971a1.375 1.375 0 01-.195.945.59.59 0 01-.446.204h-.026a1.518 1.518 0 01-.402-.08 6.177 6.177 0 01-1.489-.52z" fill="#263238"/><path d="M113.482 65.596a17.369 17.369 0 01-7.851-5.316c-2.07-2.465.638 5.199 7.317 6.849l.534-1.533zm1.929-8.73a1.689 1.689 0 00-1.233-1.096 1.55 1.55 0 00-1.201.189.974.974 0 00-.439 1.04c.175.423.589.7 1.048.7l.015-.001a3.5 3.5 0 001.376-.284c.126-.035.245-.095.35-.175a.322.322 0 00.113-.33l-.029-.043z" fill="#EB996E"/><path d="M116.262 44.535c-.137.236-1.04-.061-2.156-.137-1.115-.075-2.047.052-2.15-.199-.043-.122.155-.33.557-.505a3.544 3.544 0 011.669-.25c.57.037 1.123.21 1.612.505.369.236.534.473.468.586zm9.519 2.264c-.246.15-.945-.274-1.839-.539-.893-.264-1.706-.33-1.824-.596-.047-.127.132-.302.52-.401a3.257 3.257 0 012.954.913c.26.292.302.542.189.623z" fill="#263238"/><path d="M98.65 56.394l5.28-17.677c.359-1.21.775-2.5 1.782-3.262 1.006-.76 2.226-.803 3.417-.827.437-.006.903-.014 1.345-.014 4.69 0 9.389.513 13.969 1.524.237 1.196-.799 2.335-1.961 2.727-1.163.393-2.42.25-3.64.265-1.219.014-2.557.232-3.384 1.134-.827.903-.969 2.44-1.801 3.441-1.417 1.72-4.428 1.357-5.851 3.087-1.073 1.31-.785 3.223-1.139 4.878-.402 1.89-.402 1.89-1.891 4.641-.903 1.692 1.366 4.925-.893 9.118l-4.386-1.248 1.923-6.475-2.609 6.073-.16-7.385zm15.239-1.674c.089.053.042.29.038.63a2.283 2.283 0 001.111 2.117c.278.189.501.283.472.387-.028.104-.27.194-.69.095a2.075 2.075 0 01-1.418-2.713c.175-.406.406-.567.487-.515z" fill="#263238"/><path d="M112.584 40.513a.929.929 0 01-.245.137 8.406 8.406 0 00-4.567 6.225 9.61 9.61 0 00.001 2.538c.114.756.173 1.525.173 2.29 0 .163-.004.33-.007.49a5.065 5.065 0 01-.299 1.417c-.176.425-.388.84-.629 1.234a6.158 6.158 0 00-.992 2.311 7.906 7.906 0 00.061 2.288c.1.723.227 1.418.275 2.018a5.356 5.356 0 01-.43 2.911c-.128.239-.288.46-.473.657-.137.128-.213.19-.218.18.236-.266.438-.563.6-.88a5.468 5.468 0 00.345-2.835c-.061-.615-.198-1.281-.307-2.004a8.07 8.07 0 01-.08-2.364c.184-1.74 1.862-3.015 1.891-4.925a15.713 15.713 0 00-.156-2.737 9.55 9.55 0 010-2.599 8.339 8.339 0 011.791-3.98 7.889 7.889 0 012.254-1.89c.231-.134.474-.25.723-.345.089-.061.186-.107.289-.137h-.001.001zm21.185 26.577l-.08.066c-.057.038-.137.105-.251.17a3.975 3.975 0 01-1.073.435 4.468 4.468 0 01-1.838.067 4.056 4.056 0 01-2.175-1.083 4.424 4.424 0 01-1.299-2.632 4.033 4.033 0 01.108-1.66 5.119 5.119 0 01.776-1.578c.787-.963 1.67-1.86 2.614-2.665.473-.44.906-.929 1.285-1.452a7.197 7.197 0 00.884-1.777 11.592 11.592 0 00.496-3.9 28.243 28.243 0 00-.382-3.68 34.596 34.596 0 00-1.57-6.065 36.273 36.273 0 00-2.178-4.925 2.08 2.08 0 01-.185-.34c.082.106.155.22.217.34.137.222.331.562.568 1.007a32.304 32.304 0 011.733 3.882 33.27 33.27 0 011.638 6.088 27.89 27.89 0 01.399 3.713 11.676 11.676 0 01-.504 3.98 7.231 7.231 0 01-.913 1.838c-.39.538-.835 1.039-1.323 1.49a20.947 20.947 0 00-2.594 2.623 4.892 4.892 0 00-.753 1.503 4.034 4.034 0 00-.118 1.58 4.31 4.31 0 001.225 2.532 3.985 3.985 0 002.075 1.073 4.405 4.405 0 001.791-.028 5.095 5.095 0 001.428-.6h-.001v-.001z" fill="#263238"/><path d="M93.56 60.68a4.078 4.078 0 001.517-.755 6.047 6.047 0 002.013-4.06 24.54 24.54 0 00.086-3.229 14.285 14.285 0 01.288-3.735 6.925 6.925 0 01.76-1.89 4.49 4.49 0 011.494-1.531c1.281-.785 2.836-.747 4.254-1.234a4.502 4.502 0 001.81-1.187 11.28 11.28 0 001.276-1.724c.757-1.192 1.485-2.444 2.638-3.186a4.512 4.512 0 011.829-.667 9.989 9.989 0 011.819-.076 18.978 18.978 0 003.229-.027 9.615 9.615 0 004.291-1.712c.341-.248.67-.52.983-.802l.241-.227.089-.076a6.64 6.64 0 01-1.256 1.18 9.543 9.543 0 01-4.325 1.81 18.971 18.971 0 01-3.256.059c-1.143 0-2.443 0-3.521.733-1.078.733-1.801 1.919-2.557 3.12a11.635 11.635 0 01-1.307 1.766 4.72 4.72 0 01-1.89 1.248c-1.456.5-3.006.472-4.202 1.21a5.153 5.153 0 00-2.16 3.27 14.14 14.14 0 00-.307 3.673 22.749 22.749 0 01-.113 3.257 6.086 6.086 0 01-2.127 4.113 3.393 3.393 0 01-1.14.59 3.005 3.005 0 01-.325.076.357.357 0 01-.133.014h.002z" fill="#455A64"/><path d="M98.296 41.103c.307.108.625.192.945.25a4.609 4.609 0 002.552-.42 10.68 10.68 0 003.054-2.405c.52-.53 1.064-1.097 1.678-1.63a7.634 7.634 0 012.132-1.362 6.908 6.908 0 012.49-.474h.053c.762 0 1.53.046 2.288.128.737.071 1.418.146 2.089.151l.152.002c.556 0 1.111-.05 1.658-.148a5 5 0 002.363-1.05c.233-.218.457-.452.666-.694a1.14 1.14 0 01-.127.217 1.945 1.945 0 01-.185.246c-.088.109-.187.21-.293.302a4.909 4.909 0 01-2.406 1.15 9.286 9.286 0 01-1.812.179h-.031c-.666 0-1.37-.066-2.112-.128a20.733 20.733 0 00-2.149-.114h-.172a6.7 6.7 0 00-2.397.444c-1.565.648-2.689 1.891-3.739 2.926a10.417 10.417 0 01-3.143 2.4 4.517 4.517 0 01-2.637.36 3.048 3.048 0 01-.7-.222 1.277 1.277 0 01-.217-.108zm34.197 13.254c.116-.29.194-.593.232-.903a3.88 3.88 0 00-.672-2.387c-.548-.945-1.565-1.74-2.595-2.746a7.008 7.008 0 01-1.375-1.815 6.37 6.37 0 01-.586-2.364c-.109-1.678.18-3.247.142-4.67a5.676 5.676 0 00-1.04-3.525 3.51 3.51 0 00-2.075-1.328 3.985 3.985 0 00-.945-.024.798.798 0 01.241-.066 2.56 2.56 0 01.705 0 3.517 3.517 0 012.197 1.313c.733.846 1.111 2.189 1.13 3.63.019 1.442-.232 3.02-.123 4.656.037.79.228 1.569.558 2.288a6.703 6.703 0 001.318 1.762c1.002 1.002 2.037 1.844 2.581 2.836a3.867 3.867 0 01.62 2.491 2.25 2.25 0 01-.199.676.82.82 0 01-.113.176h-.001z" fill="#455A64"/><path d="M90.662 57.188a2.94 2.94 0 01-.302-.165 3.525 3.525 0 01-.733-.662 4.282 4.282 0 01-.907-3.45c.076-.404.212-.795.402-1.159.226-.38.507-.729.832-1.03a10.655 10.655 0 012.458-1.512 9.59 9.59 0 002.627-1.674 6.197 6.197 0 001.489-2.94c.283-1.12.472-2.255.846-3.309a14.263 14.263 0 011.375-2.879 14.99 14.99 0 013.594-3.993 13.956 13.956 0 013.128-1.834c.299-.131.609-.248.922-.345a1.48 1.48 0 01.33-.094c0 .028-.444.17-1.214.529a14.539 14.539 0 00-3.059 1.89 15.052 15.052 0 00-3.507 3.975 14.252 14.252 0 00-1.337 2.836c-.359 1.03-.548 2.15-.841 3.309a6.376 6.376 0 01-1.556 3.049 9.804 9.804 0 01-2.694 1.706 10.65 10.65 0 00-2.425 1.46 4.576 4.576 0 00-.803.974 3.93 3.93 0 00-.397 1.097 4.408 4.408 0 00.109 2c.144.492.382.953.7 1.356.282.328.607.62.963.865zm43.164-2.392c-.024 0 .198-.227.501-.676a5.743 5.743 0 00.842-2.094 7.95 7.95 0 00-.119-3.336 13.46 13.46 0 00-1.691-3.759c-.78-1.252-1.622-2.387-2.331-3.46a19.64 19.64 0 01-1.669-2.986 9.804 9.804 0 01-.685-2.208 5.91 5.91 0 01-.083-.732.8.8 0 01.008-.109c.005-.036.056.298.174.823.171.746.422 1.48.742 2.174a21.19 21.19 0 001.703 2.93c.714 1.063 1.564 2.193 2.363 3.46a13.37 13.37 0 011.706 3.833 8.01 8.01 0 01.066 3.428 5.48 5.48 0 01-.946 2.112 3.62 3.62 0 01-.416.473.801.801 0 01-.165.128zm-49.096 65.88l-3.88 6.754s-19.29-7.057-30.581-5.001c-4.297.78-8.89 10.521-2.633 16.779 6.102 6.102 17.016 14.733 37.496 17.526.51.066 8.9 1.867 8.38 1.806-.52-.062 11.76 1.891 11.76 1.891l2.884-10.9 22.872 3.588c13.48-.917 20.078-15.333 11.958-19.975-7.563-4.325-21.809-4.674-21.809-4.674l-5.161-8.092-31.285.298z" fill="#263238"/><path d="M105.74 160.852c.057-.369.222-1.362.553-3.399.185-1.087.407-2.41.695-3.932.147-.766.307-1.574.501-2.43.099-.43.204-.865.331-1.314.062-.222.128-.444.208-.671.072-.244.191-.472.35-.672l.033.166a325.838 325.838 0 01-17.442-6.75c-3.989-1.696-7.751-3.408-11.065-5.199a35.86 35.86 0 01-4.54-2.814c-1.342-.993-2.542-1.985-3.667-2.836-2.222-1.758-4.254-2.893-5.752-3.375a10.131 10.131 0 00-1.005-.296 6.03 6.03 0 00-.752-.161l-.472-.085-.16-.038a.752.752 0 01.164 0l.473.062c.257.027.514.074.765.137.345.071.689.166 1.022.279.92.297 1.807.695 2.645 1.177 1.105.64 2.18 1.363 3.183 2.15 1.135.855 2.335 1.838 3.682 2.835a35.99 35.99 0 004.522 2.783c3.309 1.767 7.067 3.473 11.051 5.166a359.923 359.923 0 0017.413 6.787l.137.052-.104.114a1.901 1.901 0 00-.298.593c-.08.218-.147.44-.213.658-.128.439-.236.878-.336 1.299a78.286 78.286 0 00-.52 2.42c-.302 1.522-.538 2.836-.737 3.923-.198 1.088-.359 1.915-.472 2.506-.057.288-.099.51-.137.657a1.62 1.62 0 01-.056.207h-.001l.001.001z" fill="#455A64"/><path d="M138.552 134.468h-.128l-.354-.057c-.312-.042-.766-.156-1.366-.217a26.814 26.814 0 00-3.472-.228c-.533 0-1.069.019-1.598.049a37.787 37.787 0 00-7.434 1.229c-1.37.364-2.798.799-4.254 1.304a106.483 106.483 0 00-4.476 1.697 41.4 41.4 0 01-4.561 1.507 57.464 57.464 0 01-4.358 1.002c-2.798.548-5.346.884-7.483 1.144-2.136.26-3.87.435-5.067.558l-1.38.137-.36.028a.365.365 0 01-.12 0h.118l.36-.052 1.37-.185 5.058-.633c2.136-.284 4.674-.638 7.458-1.196 1.395-.274 2.836-.6 4.339-1.016a42.45 42.45 0 004.54-1.498c1.522-.609 3.021-1.195 4.491-1.696a58.182 58.182 0 014.277-1.3 36.787 36.787 0 017.476-1.176c.431-.024.868-.036 1.302-.036 1.268 0 2.541.101 3.793.29.601.076 1.05.208 1.362.265l.354.08a.343.343 0 01.056-.005c.019 0 .038.002.057.004v.001z" fill="#455A64"/><path d="M103.311 130.545c0 .16-1.021.421-2.737.581a35.842 35.842 0 01-13.29-1.418c-1.64-.521-2.6-.998-2.553-1.154.109-.34 4.159.738 9.264 1.267 5.105.53 9.283.365 9.316.724z" fill="#263238"/><path d="M121.395 128.63c-.245.087-.5.155-.756.204a8.612 8.612 0 00-.884.227c-.341.099-.733.203-1.153.354-.99.33-1.976.723-2.922 1.158a42.536 42.536 0 00-3.399 1.815 54.572 54.572 0 00-5.722 4.03 87.97 87.97 0 00-1.645 1.342 4.811 4.811 0 01-.62.47 5.25 5.25 0 01.553-.553 45.423 45.423 0 017.312-5.525 34.653 34.653 0 013.428-1.806 24.769 24.769 0 012.962-1.119c.425-.142.823-.236 1.172-.321.295-.082.598-.146.899-.19.255-.051.515-.08.775-.086v.001-.001zm-21.445 9.61a5.513 5.513 0 01-1.356-.388 28.51 28.51 0 01-3.096-1.394l-2.992-1.574c-.424-.196-.84-.422-1.234-.672.454.127.896.3 1.314.516.79.359 1.858.908 3.035 1.508s2.25 1.12 3.048 1.456c.8.335 1.29.51 1.28.548h.001zm2.085-16.752c.038 0-.029.709-.099 1.849a55.47 55.47 0 00-.104 4.452c.033 1.74.16 3.309.274 4.453.087.608.148 1.231.175 1.844a1.823 1.823 0 01-.123-.473 21.529 21.529 0 01-.222-1.338 37.71 37.71 0 01-.352-4.466c0-.233-.004-.484-.004-.721 0-1.252.061-2.509.18-3.751.061-.572.118-1.031.17-1.347a2.18 2.18 0 01.106-.501h-.001v-.001zm2.15.7s-.085.076-.203.217c-.165.198-.27.439-.302.695a1.31 1.31 0 00.298 1.035 1.218 1.218 0 002.018-.747 1.322 1.322 0 00-.473-.979 1.333 1.333 0 00-.681-.33c-.184-.028-.288 0-.293-.033-.004-.033.099-.062.303-.062.286.009.563.112.785.294.35.264.558.677.562 1.115a1.418 1.418 0 01-2.41.893 1.448 1.448 0 01-.298-1.214c.051-.284.194-.544.407-.738.169-.127.283-.156.288-.146h-.001z" fill="#455A64"/><path d="M110.055 114.404c-.104.17-.228.329-.368.472-.355.421-.735.824-1.135 1.201a17.818 17.818 0 01-1.89 1.563 20.54 20.54 0 01-2.575 1.557c-.901.441-1.836.819-2.79 1.12-.783.241-1.585.434-2.392.568-.541.093-1.09.156-1.64.182a3.067 3.067 0 01-.605.001c0-.047.856-.095 2.217-.36.796-.156 1.59-.364 2.364-.614a20.209 20.209 0 007.194-4.146c1.03-.916 1.582-1.573 1.62-1.544zm8.627 5.246c0 .071-.851.071-1.853.326s-1.759.633-1.796.572a4.91 4.91 0 013.649-.899v.001z" fill="#263238"/><path d="M98.844 120.831a18.105 18.105 0 0010.536-6.088 4.254 4.254 0 01-1.035 4.339c1.2.567 2.609.189 3.923 0s2.921 0 3.55 1.168c-4.24.388-8.533.591-12.808.591-1.612 0-3.291-.034-4.886-.085l.72.075z" fill="#000" fill-opacity=".09"/><path d="M87.108 111.568a6.64 6.64 0 00-2.037-1.32 6.595 6.595 0 00-2.585-.439 7.086 7.086 0 00-3.087.832c-2.06 1.068-3.309 2.893-4.216 4.06-.35.489-.667 1.006-.944 1.541a3.826 3.826 0 01-.327.577c.06-.213.14-.422.241-.619.242-.556.535-1.093.87-1.598.44-.633 1.007-1.342 1.659-2.118a9.222 9.222 0 012.59-2.065 7.175 7.175 0 013.2-.837l.13-.001c.867 0 1.727.174 2.526.507a5.062 5.062 0 011.531.979c.125.108.238.23.34.359.08.09.118.137.11.142z" fill="#263238"/><path d="M99.482 66.23l-6.598 1.404 3.299 12.35 11.684 2.51 8.016-5.686 1.102-6.811-6.873-2.6-10.63-1.168z" fill="#FFBE9D"/><path d="M94.836 67.128s4.466 12.97 12.719 11.77c8.253-1.201 7.563-9.605 7.563-9.605s8.611 2.628 11.273 5.421c2.661 2.794 1.092 8.867 1.092 8.867l-2.232 10.975-4.859 21.025s1.858 5.738-2.892 7.155l-1.499-2.363-28.487.803s-6.093 7.024-7.993 4.604c-1.9-2.42-3.724-7.147-3.724-7.147l13.088-49.95 5.95-1.555z" fill="#EB8B55"/><path d="M124.141 73.055c.232.133 20.225 14.652 20.225 14.652s-1.569 11.95 8.035 10.05c0 0-3.875 9.991-9.122 7.893-1.494-.596-19.923-12.257-19.923-12.257l-3.909-8.323 4.694-12.015zm-29.305-5.289s-.472 0-1.214.085c-3.914.378-18.358 3.37-19.696 13.566-.7 5.331-.898 20.924-1.655 27.461 0 0 1.206 9.085 1.655 10.768.799 2.996 15.271-1.806 15.271-1.806l.029-28.832 5.171-21.227.44-.015h-.001z" fill="#EB8B55"/><path d="M85.695 93.96a.695.695 0 010 .232c.003.224.02.45.047.671.102.81.309 1.606.61 2.364.369.974.945 2.08 1.494 3.346.3.664.555 1.352.756 2.052.2.753.334 1.532.392 2.31a27.49 27.49 0 01-.118 4.509c-.118 1.38-.232 2.623-.401 3.658a16.336 16.336 0 01-.572 2.416c-.095.279-.175.473-.237.634a.875.875 0 01-.105.213c-.045.065.09-.312.251-.875.21-.79.37-1.603.473-2.416.15-1.031.246-2.269.355-3.644a29.832 29.832 0 00.095-4.474 12.374 12.374 0 00-.38-2.271 15.492 15.492 0 00-.733-2.022c-.548-1.262-1.096-2.387-1.45-3.375a8.854 8.854 0 01-.538-2.43 3.898 3.898 0 01-.001-.676 1.33 1.33 0 01.061-.222h.001zm.666-3.638c.043 0 .076.733.241 1.89.214 1.522.57 3.03 1.056 4.486.146.43.297.842.472 1.239.033.091.073.181.117.269l.17.26c.11.172.212.352.303.533a4.49 4.49 0 01.534 2.043v.02c0 .479-.096.955-.28 1.398a2.013 2.013 0 01-.259.472 4.908 4.908 0 00.364-1.843 4.451 4.451 0 00-.558-1.942c-.09-.17-.194-.34-.303-.51l-.17-.26a1.747 1.747 0 01-.142-.308 28.22 28.22 0 01-.472-1.248 21.219 21.219 0 01-.994-4.547 14.64 14.64 0 01-.09-1.418 2.29 2.29 0 01.01-.534h.001zm.577-4.33c-.038 0-.256-.592-.681-1.522a21.378 21.378 0 00-2-3.47 21.781 21.781 0 00-2.621-3.019c-.743-.71-1.243-1.11-1.215-1.144.135.064.263.147.377.245.327.24.645.5.945.771A17.893 17.893 0 0186.41 84.4c.194.473.336.875.416 1.153.056.14.094.288.113.439zm40.965-8.47l.002.134c0 .338-.032.677-.096 1.009-.085.704-.208 1.673-.317 2.746a200.378 200.378 0 00-.26 2.756 5.468 5.468 0 01-.141 1.14 5.12 5.12 0 01-.034-1.149c0-.714.076-1.692.189-2.77.114-1.078.26-2.051.388-2.746a5.11 5.11 0 01.269-1.12zm4.112 12.138c0 .042-.624.103-1.592.378a7.524 7.524 0 00-3.332 1.952 9.182 9.182 0 00-1.272 1.73 13.503 13.503 0 00-.728 1.606l-.231.643c-.057.175-.104.34-.151.472a1.716 1.716 0 01-.157.417v-.025a1.3 1.3 0 01.067-.415l.109-.505.198-.662c.188-.569.421-1.127.695-1.66a8.745 8.745 0 011.295-1.748 7.16 7.16 0 013.46-1.947c.223-.062.451-.108.681-.137.169-.033.342-.055.514-.067a1.446 1.446 0 01.445-.033h-.001zm13.239 13.154a2.922 2.922 0 01-.316-.53 7.256 7.256 0 01-.331-.647c-.118-.26-.26-.544-.382-.879a17.282 17.282 0 01-.761-2.387c-.238-1-.398-2.019-.474-3.04a19.506 19.506 0 01.052-3.066c.085-.83.232-1.66.435-2.47.075-.349.184-.656.264-.945a6.18 6.18 0 01.238-.685 2.87 2.87 0 01.246-.566c.047 0-.27.836-.577 2.216a19.671 19.671 0 00-.379 2.448 23.58 23.58 0 00-.074 1.784c0 .415.013.838.037 1.25.074 1.008.224 2.017.443 3.004.184.8.421 1.59.701 2.362.501 1.357.921 2.132.878 2.151z" fill="#263238"/><path d="M140.06 99.264a2.034 2.034 0 01-.189-.506 9.905 9.905 0 01-.293-1.418 11.222 11.222 0 01.444-4.803 10.88 10.88 0 012.415-4.177 2.08 2.08 0 011.301-.7h.025c.13 0 .258.027.376.08.081.043.123.071.119.08a1.436 1.436 0 00-.515-.066 2.104 2.104 0 00-1.177.724 11.473 11.473 0 00-2.306 4.13 12.074 12.074 0 00-.511 4.728c.123 1.181.354 1.914.311 1.928zm-32.505-2.354a2.17 2.17 0 01-.118.563 5.347 5.347 0 01-.189.642 8.82 8.82 0 01-.317.833 13.25 13.25 0 01-1.077 2.051 14.02 14.02 0 01-3.957 4.046 13.38 13.38 0 01-2.027 1.129 8.07 8.07 0 01-.828.331c-.206.086-.42.156-.638.208-.18.063-.368.107-.557.132 0-.047.775-.26 1.947-.827.686-.334 1.35-.724 1.975-1.159a16.74 16.74 0 002.137-1.805 16.25 16.25 0 001.754-2.178c.421-.637.796-1.306 1.112-2 .542-1.186.736-1.98.783-1.966z" fill="#263238"/><path d="M91.187 101.59l-2.722-9.926c-.133-.473-.355-1.054-.851-1.144a.945.945 0 00-.969.813 5.425 5.425 0 000 1.45c.213 2.16.383 3.626 1.39 5.3 1.961 3.261.67 4.844.67 4.844.157 3.97-.179 9.387-1.417 13.466l1.167 4.92c1.106-3.658 3.635-6.707 4.06-10.507.327-3.115-.481-6.201-1.328-9.217v.001zm34.074-6.967c3.237 1.682 6.116 4.008 9.269 5.809-1.234-2.576-3.309-5.124-5.805-6.49a3.668 3.668 0 00-2.192-.582c-.766.109-1.314.539-1.196 1.3l-.076-.037zm18.552-7.123c-1.106-.029-1.938.978-2.481 1.942a14.945 14.945 0 00-1.787 9.018c.066.558.274 1.229.827 1.337a.946.946 0 00.979-.58 2.699 2.699 0 00.184-1.196c0-1.89-.132-3.805.142-5.672.274-1.867.979-3.758 2.364-5.039l-.228.19z" fill="#000" fill-opacity=".302"/><path d="M93.82 91.05h.113l.327-.025 1.28-.066 4.84-.222 17.144-.728h.113v.11c.142 5.766.307 12.402.472 19.425v.828h-.08c-7.037.07-14.146.623-21.112 1.586h-.09l-.024-.09a76.305 76.305 0 01-2.513-15.212 69.845 69.845 0 01-.132-4.32v-1.527.054a.41.41 0 01-.002.05v1.427c0 .997.061 2.458.188 4.31a77.296 77.296 0 002.602 15.16l-.118-.08a165.154 165.154 0 0121.211-1.613l-.123.127v-.704c-.165-7.024-.317-13.66-.472-19.426l.113.109-17.148.638-4.845.16-1.281.039-.449-.01h-.014z" fill="#fff"/><path d="M100.068 105.376c-.066 0-.657-3.181-1.319-7.133-.661-3.95-1.143-7.16-1.077-7.175.066-.014.657 3.181 1.319 7.137.661 3.956 1.125 7.161 1.077 7.171zm.69 6.097a14.03 14.03 0 01-.524-2.576 14.514 14.514 0 01-.284-2.619c.254.841.43 1.708.524 2.582.179.857.277 1.734.285 2.612l-.001.001zm4.075-9.259a1.483 1.483 0 01-.133-.44c-.071-.284-.16-.704-.26-1.22a48.029 48.029 0 01-.581-4.07 48.344 48.344 0 01-.236-4.102v-1.248l-.001-.056c0-.14.015-.28.043-.417.076.56.117 1.13.119 1.697.057 1.049.146 2.495.307 4.088s.355 3.025.506 4.065c.111.56.192 1.132.236 1.702l-.001.001h.001zm-.539 8.626a23.173 23.173 0 01-.535-3.341 22.655 22.655 0 01-.291-3.37c.256 1.097.438 2.215.533 3.339.18 1.111.281 2.245.292 3.37l.001.001v.001zm5.341-.384a5.669 5.669 0 01-.094-.78l-.185-2.127a270.517 270.517 0 00-.699-7 240.964 240.964 0 00-.908-6.98c-.123-.861-.227-1.575-.303-2.114a5.242 5.242 0 01-.085-.78c.082.25.143.506.18.766.099.473.227 1.21.378 2.099.302 1.782.667 4.254.984 6.981.316 2.727.515 5.199.628 7.019.052.898.09 1.626.104 2.132a4.251 4.251 0 010 .784zm4.547.256a4.893 4.893 0 01-.041-.628c0-.056.002-.111.003-.166v-2.165c0-1.825-.066-4.349-.194-7.128-.128-2.78-.326-5.298-.472-7.118l-.185-2.15a5.706 5.706 0 01-.043-.692v-.104c.069.256.116.517.137.78.076.506.166 1.244.265 2.151.199 1.816.416 4.335.553 7.118.137 2.785.151 5.313.123 7.142 0 .913-.033 1.655-.057 2.165-.009.266-.04.533-.089.795h-.001.001z" fill="#fff"/><path d="M98.22 106.879a3.973 3.973 0 002.492.604 7.891 7.891 0 002.514-.657 7.595 7.595 0 002.86-1.89 6.657 6.657 0 001.418-3.347 19.634 19.634 0 00.123-3.69v-.021a.242.242 0 00-.038-.13.185.185 0 00-.265 0 .585.585 0 00-.146.26 13.709 13.709 0 01-9.119 8.62l.161.251z" fill="#000" fill-opacity=".09"/><path d="M95.294 146.468l-2.888-5.417-6.494-30.396s-5.975-3.432-10.871 4.088c-.194.303 6.73 22.074 8.663 28.128l.27 5.795s-.34 6.859 0 7.459c.304.42.721.748 1.2.945.48.197-.255 1.716 1.717 1.891 0 0 .17 1.891 1.626 1.631a2.808 2.808 0 001.976-1.201c.454-.665 0 2.396 1.285 2.141 1.286-.255 1.494-1.285 1.73-1.626.236-.34.51-3.862.51-3.862l-.023-5.804 3.346 2.713c.946.473 2.387 1.078 3.191.355l-5.237-6.84z" fill="#FFBE9D"/><path d="M94 149.942a10.526 10.526 0 01.189 3.129c-.038.804-.071 1.536-.104 2.207l.002.125c0 .265-.03.529-.087.788a14.502 14.502 0 01-.058-3.13c.086-1.719-.018-3.109.057-3.119zm-3.687 4.046a34.55 34.55 0 01.164 3.313c0 .808-.03 1.624-.087 2.428a33.868 33.868 0 01-.078-5.739v-.002zm-3.092 1.055a7.837 7.837 0 01-.382 3.97c-.066 0 .104-.894.203-1.985.022-.663.084-1.33.179-1.986v.001zm-1.989-.672a6.916 6.916 0 01-.255 2.586 3.488 3.488 0 010-1.305c.005-.438.093-.873.255-1.281v.001-.001z" fill="#EB996E"/><path d="M133.405 60.526l.758 1.384 1.384.758-1.384.758-.758 1.383-.757-1.383-1.385-.758 1.385-.758.757-1.384zm5.058-18.952l.785-.052.634-.47.052.79.471.633-.79.052-.634.467-.052-.786-.466-.634zm127.57 62.935l.786-.051.633-.471.052.79.471.634-.79.052-.634.466-.052-.785-.466-.635zm-89.861-39.376l.786-.052.638-.466.052.785.467.634-.786.052-.638.467-.049-.786-.47-.634zm4.794-33.701l.786-.052.634-.467.052.786.466.634-.785.052-.635.47-.052-.79-.466-.633zm-24.149 20.914l1.196-.69.634-1.224.69 1.197 1.229.638-1.197.686-.638 1.228-.69-1.196-1.224-.639zm100.525 68.005l1.196-.69.635-1.224.69 1.196 1.224.634-1.197.69-.634 1.225-.689-1.197-1.225-.634zm-6.01-21.876l1.196-.69.638-1.224.69 1.196 1.225.634-1.197.69-.638 1.228-.686-1.2-1.228-.634z" fill="#A39085"/></g><defs><clipPath id="clip0_139_249"><path fill="#fff" d="M0 0h276v161.547H0z"/></clipPath></defs></svg>