<svg width="14" height="14" fill="none" xmlns="http://www.w3.org/2000/svg"><g clip-path="url(#clip0_281_541)"><path d="M.224 3.556l.458-.461a.76.76 0 01.542-.224.76.76 0 01.542.224l5.23 5.231 5.238-5.237a.76.76 0 01.542-.224.76.76 0 01.541.224l.459.459a.766.766 0 010 1.083L7.54 10.889a.783.783 0 01-.543.245h-.002a.782.782 0 01-.541-.245L.224 4.648a.773.773 0 010-1.092z" fill="#181818"/></g><defs><clipPath id="clip0_281_541"><path fill="#fff" transform="matrix(-1 0 0 1 14 0)" d="M0 0h14v14H0z"/></clipPath></defs></svg>