<svg width="24" height="24" viewBox="0 0 24 24" fill="none" xmlns="http://www.w3.org/2000/svg">
<path d="M17.75 0.999969C15.0879 0.999969 12.8892 3.47263 12 4.63963C11.1108 3.47263 8.91211 0.999969 6.24998 0.999969C2.80373 0.999969 0 4.16844 0 8.06248C0 10.187 0.843281 12.167 2.31933 13.522C2.3408 13.5591 2.36719 13.5933 2.39794 13.624L11.647 22.854C11.7446 22.9512 11.8721 23 12 23C12.1279 23 12.2558 22.9512 12.3535 22.8535L21.9102 13.3003L22.0088 13.2046C22.0869 13.1308 22.1641 13.0561 22.2505 12.9605C22.2866 12.9248 22.3164 12.8848 22.3394 12.8413C23.4112 11.5288 24 9.83591 24 8.06248C24 4.16844 21.1963 0.999969 17.75 0.999969ZM21.5073 12.2788C21.4936 12.2949 21.4809 12.312 21.4697 12.3296C21.4229 12.3833 21.3716 12.4306 21.3208 12.479L11.9995 21.7934L3.21877 13.0303C3.19045 12.9746 3.15089 12.9238 3.10256 12.8813C1.76611 11.7143 0.999984 9.95797 0.999984 8.06248C0.999984 4.71969 3.35498 2 6.24998 2C9.11231 2 11.5552 5.73341 11.5796 5.771C11.7642 6.05614 12.2358 6.05614 12.4204 5.771C12.4448 5.73341 14.8877 2 17.75 2C20.645 2 23 4.71973 23 8.06248C23 9.63767 22.4697 11.1352 21.5073 12.2788Z" fill="#181818"/>
</svg>
