<svg width="26" height="26" viewBox="0 0 26 26" fill="none" xmlns="http://www.w3.org/2000/svg">
<g clip-path="url(#clip0_321_1482)">
<path d="M25.8622 18.9798C25.8307 18.9119 25.8013 18.8556 25.7741 18.8106C25.323 17.9981 24.4609 17.0009 23.1885 15.8186L23.1616 15.7915L23.1481 15.7783L23.1345 15.7647H23.1209C22.5434 15.2141 22.1777 14.844 22.0245 14.6545C21.7443 14.2934 21.6815 13.928 21.8347 13.5578C21.9429 13.278 22.3493 12.6872 23.053 11.7846C23.4232 11.3062 23.7163 10.9229 23.9328 10.634C25.4942 8.55821 26.1712 7.23175 25.9635 6.6541L25.8828 6.51911C25.8286 6.43784 25.6888 6.3635 25.4634 6.29569C25.2375 6.22803 24.9488 6.21684 24.5968 6.26194L20.6982 6.28887C20.635 6.26649 20.5448 6.26857 20.4274 6.29569C20.31 6.32282 20.2513 6.33642 20.2513 6.33642L20.1835 6.37032L20.1296 6.41105C20.0845 6.43798 20.0348 6.48535 19.9806 6.55306C19.9267 6.62053 19.8816 6.69971 19.8456 6.78994C19.4211 7.88194 18.9385 8.89722 18.3969 9.83574C18.063 10.3954 17.7563 10.8804 17.4762 11.291C17.1965 11.7015 16.9619 12.004 16.7725 12.1979C16.5829 12.3919 16.4117 12.5474 16.258 12.6649C16.1045 12.7823 15.9873 12.832 15.9062 12.8138C15.8249 12.7957 15.7483 12.7777 15.6758 12.7596C15.5496 12.6784 15.448 12.5678 15.3714 12.428C15.2945 12.2881 15.2427 12.1121 15.2157 11.9C15.1887 11.6877 15.1728 11.5052 15.1683 11.3517C15.164 11.1984 15.166 10.9816 15.1751 10.7019C15.1845 10.422 15.1887 10.2326 15.1887 10.1333C15.1887 9.79032 15.1954 9.41807 15.2088 9.01647C15.2225 8.61487 15.2335 8.29667 15.2428 8.06226C15.252 7.8276 15.2563 7.57934 15.2563 7.31761C15.2563 7.05589 15.2403 6.85063 15.2088 6.70166C15.1777 6.55287 15.13 6.40845 15.0671 6.26843C15.0038 6.12856 14.9111 6.02036 14.7896 5.94355C14.6678 5.86683 14.5163 5.80595 14.3361 5.76072C13.8577 5.65247 13.2486 5.59392 12.5084 5.58481C10.8299 5.56679 9.75136 5.67518 9.27305 5.90984C9.08353 6.00898 8.91204 6.14444 8.7587 6.3158C8.59621 6.51442 8.57355 6.62281 8.69085 6.64063C9.23242 6.72176 9.61581 6.91583 9.84145 7.22264L9.92277 7.38523C9.98602 7.50253 10.0492 7.7102 10.1124 8.00797C10.1755 8.30573 10.2162 8.63512 10.2341 8.99594C10.2792 9.65485 10.2792 10.2189 10.2341 10.6881C10.189 11.1575 10.1463 11.5229 10.1055 11.7847C10.0648 12.0464 10.0039 12.2585 9.92277 12.4209C9.84145 12.5833 9.78735 12.6826 9.76023 12.7186C9.73316 12.7547 9.71059 12.7774 9.69267 12.7863C9.57536 12.8312 9.45337 12.8541 9.3271 12.8541C9.20065 12.8541 9.04731 12.7909 8.86685 12.6645C8.68644 12.5381 8.4992 12.3644 8.30513 12.1433C8.11107 11.9221 7.8922 11.613 7.64845 11.216C7.40488 10.8189 7.15216 10.3497 6.89043 9.80819L6.67389 9.41551C6.53852 9.16288 6.35361 8.79504 6.11896 8.31232C5.88416 7.8294 5.67663 7.36228 5.49622 6.91104C5.4241 6.72152 5.31576 6.57724 5.17138 6.47796L5.10363 6.43723C5.05858 6.40119 4.98628 6.36293 4.88708 6.32215C4.78775 6.28142 4.6841 6.25221 4.57572 6.23424L0.866543 6.26118C0.487514 6.26118 0.230339 6.34704 0.0949234 6.51854L0.0407289 6.59967C0.0136553 6.64485 0 6.71702 0 6.81635C0 6.91564 0.0270736 7.03749 0.0812681 7.18177C0.622739 8.45437 1.21158 9.68169 1.84778 10.8639C2.48399 12.0461 3.03684 12.9985 3.506 13.72C3.97526 14.4421 4.45358 15.1236 4.94095 15.7641C5.42832 16.4049 5.75093 16.8156 5.90877 16.996C6.0668 17.1768 6.19093 17.3119 6.28116 17.4021L6.61965 17.7269C6.83624 17.9436 7.15429 18.203 7.57396 18.5053C7.99372 18.8078 8.45842 19.1055 8.96832 19.3991C9.4783 19.6921 10.0716 19.9313 10.7485 20.1162C11.4254 20.3014 12.0841 20.3757 12.725 20.3399H14.2818C14.5975 20.3126 14.8367 20.2133 14.9993 20.042L15.0531 19.9741C15.0894 19.9202 15.1233 19.8366 15.1546 19.7239C15.1862 19.6111 15.202 19.4869 15.202 19.3517C15.1927 18.9637 15.2223 18.614 15.2898 18.3027C15.3572 17.9915 15.4342 17.7568 15.5202 17.5988C15.6061 17.4409 15.7031 17.3077 15.8111 17.1997C15.9193 17.0914 15.9964 17.0258 16.0416 17.0033C16.0866 16.9806 16.1225 16.9651 16.1495 16.9559C16.3661 16.8837 16.621 16.9536 16.9146 17.1659C17.208 17.378 17.4831 17.6398 17.7405 17.9511C17.9977 18.2626 18.3067 18.6121 18.6677 19.0001C19.0288 19.3882 19.3446 19.6767 19.6152 19.8665L19.8859 20.029C20.0666 20.1373 20.3013 20.2366 20.5901 20.3269C20.8785 20.417 21.1311 20.4396 21.348 20.3945L24.8134 20.3405C25.1561 20.3405 25.4228 20.2837 25.612 20.1711C25.8016 20.0583 25.9142 19.934 25.9505 19.7989C25.9867 19.6635 25.9887 19.51 25.9574 19.3384C25.9253 19.1672 25.8937 19.0474 25.8622 18.9798Z" fill="#181818"/>
</g>
<defs>
<clipPath id="clip0_321_1482">
<rect width="26" height="26" fill="white"/>
</clipPath>
</defs>
</svg>
