<svg width="470" height="314" viewBox="0 0 470 314" fill="none" xmlns="http://www.w3.org/2000/svg">
<path d="M108.877 148.953L86.293 214.128L182.781 247.705L205.365 182.531L108.877 148.953Z" fill="#EBEBEB"/>
<path d="M205.358 182.516C204.978 182.739 204.577 182.926 204.161 183.075L200.658 184.494L187.699 189.574L144.722 206.059L144.365 206.191L144.164 205.871L143.669 205.092L118.903 165.491L111.483 153.433L109.509 150.13C109.265 149.754 109.055 149.357 108.883 148.943C109.179 149.278 109.441 149.642 109.666 150.029L111.791 153.238L119.455 165.164L144.459 204.621C144.622 204.891 144.791 205.155 144.947 205.4L144.39 205.212L187.467 188.99L200.533 184.161L204.099 182.905C204.505 182.734 204.927 182.604 205.358 182.516Z" fill="#E0E0E0"/>
<path d="M86.2923 214.148C86.1607 213.928 96.5132 207.523 109.41 199.836C122.307 192.149 132.872 186.101 133.004 186.321C133.136 186.541 122.783 192.947 109.88 200.633C96.9769 208.32 86.4239 214.336 86.2923 214.148Z" fill="#E0E0E0"/>
<path d="M165.359 196.633C165.597 196.551 169.696 207.937 174.508 222.01C179.321 236.084 183.025 247.608 182.78 247.689C182.536 247.771 178.444 236.385 173.631 222.312C168.818 208.238 165.115 196.715 165.359 196.633Z" fill="#E0E0E0"/>
<path d="M393.614 131.99L298.137 148.207L309.045 212.7L404.522 196.482L393.614 131.99Z" fill="#E0E0E0"/>
<path d="M393.603 132.018C393.389 132.378 393.141 132.716 392.864 133.029L390.601 135.811L382.141 145.96C374.878 154.545 364.939 166.294 353.941 179.307L353.709 179.583L353.396 179.407L352.632 178.986L314.016 157.396L302.367 150.764L299.233 148.924C298.855 148.729 298.498 148.495 298.168 148.227C298.567 148.373 298.953 148.554 299.321 148.767L302.548 150.469L314.336 156.849L353.076 178.201L353.841 178.622L353.296 178.723L381.709 145.545L390.376 135.579C391.372 134.467 392.162 133.576 392.763 132.897C393.019 132.582 393.3 132.288 393.603 132.018Z" fill="#EBEBEB"/>
<path d="M309.035 212.722C308.828 212.597 314.512 202.536 321.731 190.253C328.95 177.969 334.979 168.109 335.186 168.235C335.392 168.361 329.709 178.415 322.489 190.705C315.27 202.995 309.242 212.842 309.035 212.722Z" fill="#EBEBEB"/>
<path d="M366.788 162.024C366.951 161.848 375.562 169.415 385.945 178.936C396.329 188.456 404.676 196.319 404.507 196.52C404.338 196.721 395.772 189.116 385.35 179.608C374.929 170.1 366.6 162.219 366.788 162.024Z" fill="#EBEBEB"/>
<path d="M298.177 29.4766L280.977 73.3025L345.861 98.8764L363.062 55.0505L298.177 29.4766Z" fill="#EBEBEB"/>
<path d="M363.042 55.6345C362.778 55.7817 362.498 55.8976 362.208 55.9799L359.783 56.8591L350.803 59.9677L321.03 70.0157L320.786 70.0973L320.66 69.8713L320.347 69.3312L304.561 41.6301C302.587 38.1196 300.983 35.2559 299.836 33.2023L298.583 30.8976C298.423 30.6344 298.289 30.3569 298.182 30.0686C298.376 30.3055 298.548 30.5599 298.696 30.8285C299.034 31.4 299.485 32.1473 300.055 33.0767L304.956 41.4103C309.067 48.5255 314.701 58.2595 320.917 69.0423L321.23 69.5886L320.861 69.4442L350.684 59.572L359.708 56.6267L362.171 55.892C362.454 55.7831 362.745 55.697 363.042 55.6345Z" fill="#E0E0E0"/>
<path d="M280.96 73.8967C280.872 73.746 288.11 69.6577 297.122 64.7719C306.133 59.886 313.503 56.0552 313.584 56.206C313.666 56.3567 306.44 60.445 297.422 65.312C288.405 70.179 281.041 74.0537 280.96 73.8967Z" fill="#E0E0E0"/>
<path d="M335.368 64.1564C335.538 64.1061 338.019 71.975 340.908 81.7404C343.797 91.5058 346.016 99.4374 345.846 99.4876C345.677 99.5379 343.196 91.6753 340.307 81.9036C337.418 72.132 335.199 64.2066 335.368 64.1564Z" fill="#E0E0E0"/>
<path d="M414.59 287.046C414.59 287.134 334.177 287.209 235.007 287.209C135.837 287.209 55.4102 287.134 55.4102 287.046C55.4102 286.958 135.805 286.883 235.007 286.883C334.208 286.883 414.59 286.952 414.59 287.046Z" fill="#263238"/>
<path d="M73.1316 115.841L82.0929 112.657L78.2389 107.501C78.0479 106.362 77.9556 105.208 77.9632 104.053C77.9653 103.459 78.0669 102.868 78.264 102.307C78.4815 101.602 78.7958 100.93 79.1977 100.31C79.2974 100.205 79.3611 100.071 79.3797 99.9269C79.3982 99.7829 79.3706 99.6368 79.3009 99.5096C79.2312 99.3824 79.1229 99.2807 78.9917 99.2192C78.8605 99.1577 78.7132 99.1396 78.5711 99.1674C77.9444 99.3244 76.7663 100.756 76.2336 102.879C75.7009 105.002 74.2471 101.874 73.7269 100.75C73.2068 99.6259 71.3143 96.2096 70.8317 96.1028C70.1299 95.9458 69.8353 96.6743 70.4119 97.7858C70.9884 98.8974 72.4736 102.364 71.8595 102.628C71.2453 102.891 68.5444 97.1013 68.5444 97.1013C68.5444 97.1013 68.1684 95.77 67.454 96.0526C66.1631 96.555 69.5032 102.49 69.8353 103.042C70.0672 103.432 69.4155 103.739 69.2087 103.312C69.0019 102.885 66.6331 97.4781 65.3171 97.9805C64.3081 98.3636 68.018 102.885 67.8864 104.261C67.7548 105.636 65.4236 100.549 64.4711 100.951C64.1201 101.102 63.8444 101.265 65.6367 104.003C66.5144 105.284 67.4578 106.519 68.4629 107.702L73.1441 115.828" fill="#FFBE9D"/>
<path d="M153.789 126.818C153.789 126.818 149.365 116.469 146.313 111.439C143.437 106.704 139.627 105.937 137.596 105.787C136.755 105.527 135.89 105.348 135.015 105.253L118.439 105.121C114.816 105.154 111.316 106.441 108.532 108.763C107.761 109.391 102.027 116.061 94.4128 125.556L81.0961 111.112L73.1562 115.822C73.1562 115.822 81.7792 145.658 92.5829 143.611C99.0125 142.412 104.026 137.94 104.026 137.94L112.455 131.133L112.649 132.263C112.818 133.638 113.244 135.862 113.57 137.205C114.585 141.47 115.155 147.084 112.943 150.802C112.943 150.802 109.942 153.106 112.317 155.637H143.556C143.556 155.637 147.98 152.629 143.938 149.288L141.432 142.939L143.067 135.19L143.694 132.087L146.445 136.81C146.445 136.81 151.884 143.668 157.543 142.826C164.343 141.809 168.284 129.393 162.149 112.977L154.755 115.232L153.789 126.818Z" fill="#EB8B55"/>
<g opacity="0.4">
<path opacity="0.4" d="M73.1309 115.841L73.9142 118.328L82.7377 112.933L81.0707 111.131L73.1309 115.841Z" fill="black"/>
</g>
<g opacity="0.2">
<path opacity="0.2" d="M112.938 150.802C114.251 150.605 115.51 150.144 116.641 149.447C117.772 148.749 118.75 147.83 119.518 146.745C120.322 145.651 120.902 144.409 121.224 143.09C121.547 141.77 121.606 140.4 121.398 139.058C121.363 138.581 121.23 138.117 121.005 137.695C120.781 137.273 120.47 136.903 120.094 136.609C119.11 135.981 117.763 136.307 116.741 135.761C115.902 135.315 115.457 134.398 114.861 133.645C114.266 132.891 113.47 131.723 112.605 132.1C112.605 132.1 113.652 137.626 114.109 140.088C114.567 142.55 114.736 146.085 113.853 148.666C113.626 149.409 113.319 150.125 112.938 150.802Z" fill="black"/>
</g>
<path d="M93.1348 130.624C93.1437 129.74 93.3005 128.863 93.5985 128.03C93.7901 127.172 94.0543 126.332 94.3881 125.518C94.3867 126.404 94.2298 127.282 93.9244 128.112C93.7328 128.97 93.4686 129.811 93.1348 130.624Z" fill="#263238"/>
<path d="M95.1153 129.274C94.641 128.089 94.3862 126.827 94.3633 125.55C94.6498 126.122 94.8323 126.741 94.9022 127.377C95.08 127.993 95.1521 128.634 95.1153 129.274Z" fill="#263238"/>
<path d="M154.686 92.718L143.344 111.131L152.267 113.624L162.169 98.3198L154.686 92.718Z" fill="#455A64"/>
<path d="M153.978 108.405L154.361 111.1L155.946 113.141L156.103 114.811L161.793 113.078L159.493 104.914C159.677 103.814 159.753 102.7 159.719 101.585L158.152 103.664L157.72 100.273L154.517 97.6917C154.434 97.6305 154.34 97.5864 154.24 97.5618C154.14 97.5372 154.036 97.5326 153.934 97.5484C153.832 97.5641 153.734 97.5999 153.646 97.6536C153.558 97.7073 153.481 97.7779 153.421 97.8613C153.313 98.0122 153.262 98.1967 153.277 98.3818C153.291 98.5669 153.371 98.7407 153.502 98.8724L156.078 101.146L156.247 103.953L154.367 102.22C154.183 102.048 153.955 101.93 153.709 101.88L151.121 101.359C151.029 101.341 150.934 101.343 150.842 101.364C150.75 101.385 150.664 101.424 150.589 101.48C150.513 101.537 150.45 101.608 150.404 101.69C150.357 101.772 150.328 101.862 150.319 101.956C150.303 102.111 150.341 102.267 150.426 102.398C150.512 102.528 150.64 102.625 150.789 102.672L153.145 103.394L155.526 105.805L153.195 104.914L150.03 105.36C149.882 105.384 149.747 105.46 149.651 105.576C149.554 105.691 149.502 105.837 149.504 105.988C149.504 106.154 149.57 106.314 149.688 106.432C149.805 106.549 149.964 106.616 150.131 106.616L152.142 106.503L153.327 106.873L150.607 107.595C150.484 107.626 150.377 107.699 150.302 107.801C150.228 107.903 150.191 108.028 150.2 108.154C150.203 108.228 150.221 108.3 150.252 108.366C150.284 108.432 150.328 108.492 150.383 108.54C150.438 108.589 150.503 108.626 150.572 108.649C150.642 108.673 150.715 108.681 150.789 108.675L153.978 108.405Z" fill="#FFBE9D"/>
<g opacity="0.4">
<path opacity="0.4" d="M154.725 115.232L154.48 118.246L163.11 115.866L162.12 112.977L154.725 115.232Z" fill="black"/>
</g>
<path d="M143.342 111.156C143.342 111.156 142.578 110.12 142.64 109.944C142.703 109.768 153.432 92.0648 153.432 92.0648L154.685 92.7431L143.342 111.156Z" fill="#263238"/>
<path d="M157.526 97.3401C157.574 97.2915 157.635 97.2563 157.701 97.2381C157.767 97.2198 157.837 97.2192 157.903 97.2362C157.969 97.2531 158.03 97.2872 158.08 97.3349C158.129 97.3827 158.165 97.4425 158.184 97.5085C158.204 97.5744 158.205 97.6443 158.189 97.7111C158.174 97.778 158.141 97.8396 158.094 97.8898C158.047 97.94 157.988 97.9771 157.922 97.9974C157.857 98.0178 157.787 98.0206 157.72 98.0058C157.659 97.9865 157.602 97.9531 157.556 97.9082C157.509 97.8633 157.474 97.8081 157.453 97.7471C157.432 97.686 157.425 97.6209 157.433 97.5567C157.441 97.4926 157.465 97.4314 157.501 97.3778" fill="#263238"/>
<path d="M150.4 120.067C150.32 120.235 150.209 120.386 150.074 120.513C149.683 120.879 149.2 121.131 148.677 121.242C147.85 121.411 146.997 121.411 146.17 121.242C145.117 120.991 144.026 120.942 142.955 121.097C141.699 121.464 140.541 122.108 139.565 122.981C138.443 123.842 137.259 124.909 135.667 125.412C134.853 125.644 134 125.71 133.16 125.606C132.3 125.474 131.459 125.24 130.654 124.909C129.012 124.281 127.439 123.352 125.709 122.724C124.042 122.072 122.217 121.945 120.477 122.36C118.778 122.711 117.187 123.302 115.601 123.616C112.768 124.228 109.81 123.818 107.248 122.46C105.513 121.564 104.01 120.273 102.861 118.692C102.442 118.121 102.091 117.504 101.814 116.852C101.858 116.852 102.159 117.53 102.968 118.617C104.142 120.136 105.641 121.372 107.354 122.234C109.88 123.539 112.782 123.916 115.557 123.302C117.118 122.962 118.691 122.366 120.433 122.002C122.233 121.569 124.122 121.698 125.847 122.372C127.614 123 129.194 123.93 130.804 124.57C131.585 124.892 132.401 125.122 133.236 125.255C134.033 125.352 134.842 125.292 135.617 125.079C137.121 124.614 138.299 123.584 139.427 122.724C140.442 121.839 141.644 121.195 142.943 120.84C144.043 120.689 145.162 120.753 146.239 121.028C147.037 121.21 147.864 121.231 148.67 121.091C149.176 121.005 149.651 120.788 150.049 120.463C150.173 120.338 150.29 120.206 150.4 120.067Z" fill="#FAFAFA"/>
<path d="M153.972 132.031C153.776 131.117 153.69 130.183 153.716 129.249C153.629 128.317 153.656 127.379 153.797 126.454C153.994 127.368 154.08 128.302 154.054 129.236C154.14 130.168 154.113 131.106 153.972 132.031Z" fill="#263238"/>
<path d="M134.426 247.501C134.695 248.594 141.087 284.509 141.087 284.509L150.882 283.774L149.09 247.099L134.426 247.501Z" fill="#FFBE9D"/>
<path d="M151.176 284.346L151.145 283.31L140.711 283.529L140.774 286.933H141.4C144.27 287.027 156.002 287.222 157.9 286.651C160.044 286.029 151.176 284.346 151.176 284.346Z" fill="#EB8B55"/>
<g opacity="0.3">
<path opacity="0.3" d="M144.541 286.782C144.356 285.955 143.865 285.229 143.169 284.748C142.456 284.248 141.591 284.014 140.725 284.088L140.781 286.795L144.541 286.782Z" fill="black"/>
</g>
<g opacity="0.3">
<path opacity="0.3" d="M155.513 285.313C155.513 285.313 158.646 286.086 158.251 286.569C157.856 287.053 146.012 287.272 140.773 286.94V286.72L154.61 286.582C154.61 286.582 154.911 285.345 155.513 285.313Z" fill="black"/>
</g>
<path d="M140.623 286.713H140.799H141.312L143.192 286.757C144.79 286.757 146.99 286.789 149.428 286.757C151.865 286.726 154.065 286.632 155.663 286.55L157.543 286.443L158.051 286.406H158.232H158.051H157.537L155.657 286.475C154.065 286.531 151.859 286.607 149.428 286.644C146.996 286.682 144.79 286.694 143.192 286.694H140.623V286.713Z" fill="#263238"/>
<path d="M154.624 286.726C154.698 286.43 154.809 286.145 154.956 285.878C155.136 285.625 155.346 285.395 155.583 285.194C155.266 285.302 155.002 285.527 154.843 285.822C154.657 286.084 154.579 286.408 154.624 286.726Z" fill="#263238"/>
<path d="M151.529 285.332C151.529 285.332 151.698 285.181 151.849 284.955C151.999 284.729 152.087 284.534 152.056 284.515C152.024 284.497 151.886 284.666 151.742 284.892C151.598 285.118 151.498 285.313 151.529 285.332Z" fill="#263238"/>
<path d="M150.675 284.93C150.675 284.93 150.863 284.848 151.039 284.698C151.214 284.547 151.333 284.402 151.314 284.377C151.295 284.352 151.126 284.459 150.951 284.61C150.775 284.76 150.65 284.911 150.675 284.93Z" fill="#263238"/>
<path d="M150.125 284.026C150.3 284.085 150.487 284.104 150.67 284.082C150.852 284.101 151.036 284.08 151.209 284.019C151.033 283.964 150.848 283.945 150.664 283.963C150.482 283.949 150.299 283.97 150.125 284.026Z" fill="#263238"/>
<path d="M149.93 283.385C150.117 283.501 150.336 283.556 150.556 283.542C150.77 283.574 150.988 283.541 151.183 283.448C150.974 283.432 150.765 283.432 150.556 283.448C150.35 283.408 150.14 283.387 149.93 283.385Z" fill="#263238"/>
<path d="M151.861 284.484C152.083 284.519 152.31 284.519 152.532 284.484C152.771 284.454 153.006 284.399 153.234 284.321C153.376 284.285 153.513 284.23 153.641 284.158C153.679 284.138 153.713 284.11 153.74 284.077C153.767 284.043 153.786 284.004 153.798 283.963C153.809 283.916 153.805 283.867 153.786 283.822C153.767 283.778 153.733 283.741 153.691 283.718C153.437 283.601 153.15 283.572 152.878 283.637C152.605 283.702 152.362 283.856 152.187 284.076C152.089 284.2 152.019 284.343 151.98 284.497C151.98 284.603 151.98 284.666 151.98 284.666C152.04 284.471 152.138 284.289 152.269 284.132C152.419 283.962 152.615 283.838 152.833 283.774C153.093 283.686 153.377 283.699 153.629 283.812C153.735 283.881 153.697 284.001 153.585 284.063C153.465 284.129 153.339 284.181 153.209 284.22C152.986 284.298 152.758 284.359 152.526 284.403C152.118 284.484 151.861 284.484 151.861 284.484Z" fill="#263238"/>
<path d="M152.035 284.484C152.107 284.352 152.129 284.198 152.098 284.051C152.074 283.887 152.009 283.731 151.91 283.599C151.849 283.505 151.765 283.427 151.666 283.373C151.568 283.32 151.458 283.291 151.346 283.291C151.313 283.296 151.282 283.308 151.255 283.325C151.227 283.343 151.203 283.366 151.184 283.393C151.166 283.42 151.153 283.45 151.146 283.482C151.139 283.514 151.139 283.548 151.145 283.58C151.162 283.68 151.203 283.775 151.264 283.856C151.357 283.993 151.466 284.117 151.59 284.227C151.698 284.339 151.831 284.423 151.979 284.472C151.979 284.472 151.841 284.365 151.653 284.17C151.543 284.058 151.447 283.933 151.365 283.8C151.271 283.674 151.202 283.435 151.365 283.404C151.453 283.413 151.538 283.441 151.615 283.485C151.691 283.529 151.758 283.589 151.809 283.661C151.905 283.778 151.972 283.916 152.004 284.063C152.028 284.202 152.039 284.343 152.035 284.484Z" fill="#263238"/>
<path d="M140.773 284.063C140.773 284.063 141.074 284.032 141.544 284.063C142.151 284.124 142.731 284.34 143.23 284.691C143.709 285.033 144.083 285.503 144.308 286.048C144.477 286.462 144.496 286.739 144.521 286.739C144.535 286.674 144.535 286.608 144.521 286.544C144.499 286.367 144.459 286.192 144.402 286.023C144.191 285.448 143.81 284.951 143.311 284.597C142.796 284.228 142.189 284.01 141.557 283.969C141.367 283.951 141.176 283.951 140.987 283.969C140.842 284.032 140.773 284.051 140.773 284.063Z" fill="#263238"/>
<path d="M145.824 285.815C146.325 285.917 146.837 285.955 147.347 285.928C147.856 285.943 148.365 285.897 148.864 285.79C148.864 285.753 148.18 285.79 147.341 285.79C146.501 285.79 145.83 285.784 145.824 285.815Z" fill="#263238"/>
<path d="M143.787 285.853C143.787 285.853 143.844 285.985 143.919 286.129C143.994 286.274 144.031 286.399 144.069 286.399C144.107 286.399 144.119 286.242 144.032 286.079C143.944 285.916 143.812 285.828 143.787 285.853Z" fill="#263238"/>
<path d="M143.004 284.974C143.004 284.974 143.048 285.099 143.154 285.2C143.261 285.3 143.374 285.363 143.399 285.338C143.424 285.313 143.355 285.212 143.242 285.112C143.129 285.011 143.023 284.955 143.004 284.974Z" fill="#263238"/>
<path d="M141.895 284.591C141.895 284.622 142.039 284.622 142.196 284.666C142.353 284.71 142.459 284.785 142.484 284.767C142.509 284.748 142.422 284.61 142.234 284.553C142.046 284.496 141.883 284.559 141.895 284.591Z" fill="#263238"/>
<path d="M141.107 284.415C141.107 284.415 141.157 284.49 141.245 284.522C141.333 284.553 141.414 284.553 141.426 284.522C141.439 284.49 141.376 284.44 141.289 284.408C141.201 284.377 141.12 284.383 141.107 284.415Z" fill="#263238"/>
<path d="M109.51 244.506C109.46 245.63 105.393 280.603 105.393 280.603L114.974 282.732L123.817 247.099L109.51 244.506Z" fill="#FFBE9D"/>
<path d="M115.407 283.661L115.627 282.656L105.437 280.377L104.691 283.699L105.318 283.875C108.082 284.653 119.431 287.643 121.417 287.536C123.623 287.417 115.407 283.661 115.407 283.661Z" fill="#EB8B55"/>
<g opacity="0.3">
<path opacity="0.3" d="M108.413 284.484C108.433 283.636 108.13 282.812 107.567 282.179C106.994 281.523 106.209 281.089 105.349 280.955L104.76 283.599L108.413 284.484Z" fill="black"/>
</g>
<g opacity="0.3">
<path opacity="0.3" d="M119.393 285.64C119.393 285.64 122.232 287.134 121.756 287.524C121.279 287.913 109.705 285.282 104.691 283.712L104.754 283.504L118.227 286.644C118.227 286.644 118.798 285.527 119.393 285.64Z" fill="black"/>
</g>
<path d="M104.598 283.448L104.767 283.504L105.262 283.649L107.086 284.139C108.633 284.541 110.77 285.074 113.145 285.615C115.52 286.155 117.682 286.6 119.249 286.902L121.129 287.247L121.637 287.329H121.818L121.643 287.285L121.142 287.178L119.262 286.795C117.695 286.469 115.539 286.016 113.164 285.476C110.789 284.936 108.652 284.415 107.098 284.032L105.281 283.605L104.779 283.486C104.721 283.464 104.66 283.451 104.598 283.448Z" fill="#263238"/>
<path d="M118.188 286.801C118.332 286.532 118.509 286.281 118.714 286.054C118.953 285.854 119.213 285.681 119.491 285.539C119.16 285.576 118.854 285.729 118.626 285.972C118.379 286.182 118.221 286.479 118.188 286.801Z" fill="#263238"/>
<path d="M115.513 284.71C115.513 284.71 115.719 284.603 115.914 284.415C116.108 284.226 116.246 284.063 116.221 284.044C116.196 284.026 116.02 284.151 115.826 284.333C115.632 284.515 115.488 284.685 115.513 284.71Z" fill="#263238"/>
<path d="M114.78 284.12C114.926 284.106 115.066 284.057 115.187 283.975C115.394 283.868 115.551 283.755 115.532 283.73C115.513 283.705 115.332 283.762 115.125 283.868C114.918 283.975 114.767 284.088 114.78 284.12Z" fill="#263238"/>
<path d="M114.424 282.437C114.575 282.587 114.766 282.69 114.975 282.732C115.174 282.811 115.391 282.833 115.602 282.795C115.412 282.717 115.214 282.658 115.013 282.619C114.821 282.544 114.624 282.483 114.424 282.437Z" fill="#263238"/>
<path d="M116.041 283.963C116.241 284.041 116.453 284.088 116.668 284.101C116.909 284.124 117.153 284.124 117.395 284.101C117.538 284.095 117.681 284.074 117.821 284.038C117.906 284.016 117.98 283.962 118.028 283.887C118.047 283.843 118.053 283.794 118.046 283.746C118.038 283.698 118.016 283.653 117.984 283.617C117.763 283.444 117.49 283.349 117.21 283.349C116.929 283.349 116.657 283.444 116.436 283.617C116.308 283.712 116.203 283.834 116.129 283.975C116.079 284.07 116.072 284.132 116.079 284.132C116.185 283.959 116.323 283.808 116.486 283.687C116.671 283.557 116.888 283.483 117.113 283.473C117.387 283.448 117.66 283.529 117.877 283.699C117.965 283.793 117.877 283.894 117.771 283.931C117.642 283.967 117.509 283.99 117.376 284.001C117.14 284.016 116.903 284.016 116.668 284.001C116.292 283.994 116.047 283.944 116.041 283.963Z" fill="#263238"/>
<path d="M116.202 284.026C116.202 284.026 116.34 283.906 116.371 283.624C116.384 283.458 116.356 283.292 116.29 283.14C116.252 283.034 116.189 282.939 116.105 282.864C116.022 282.788 115.922 282.734 115.813 282.707C115.781 282.705 115.748 282.71 115.717 282.721C115.687 282.732 115.658 282.75 115.635 282.772C115.611 282.794 115.591 282.821 115.578 282.851C115.564 282.881 115.557 282.913 115.556 282.945C115.549 283.046 115.566 283.148 115.606 283.241C115.663 283.394 115.738 283.54 115.832 283.674C115.912 283.808 116.021 283.922 116.152 284.007C116.152 284.007 116.045 283.869 115.907 283.636C115.829 283.5 115.764 283.357 115.713 283.209C115.65 283.059 115.644 282.814 115.813 282.826C115.982 282.839 116.114 283.033 116.183 283.178C116.249 283.315 116.283 283.465 116.283 283.617C116.271 283.756 116.244 283.893 116.202 284.026Z" fill="#263238"/>
<path d="M105.373 280.911C105.373 280.911 105.668 280.949 106.119 281.106C106.693 281.301 107.207 281.643 107.61 282.098C107.995 282.547 108.246 283.095 108.337 283.68C108.363 283.918 108.375 284.157 108.375 284.396C108.375 284.396 108.406 284.327 108.419 284.208C108.438 284.028 108.438 283.847 108.419 283.668C108.35 283.062 108.101 282.491 107.704 282.029C107.285 281.555 106.742 281.207 106.138 281.024C105.954 280.968 105.765 280.93 105.574 280.911C105.507 280.899 105.439 280.899 105.373 280.911Z" fill="#263238"/>
<path d="M109.861 283.818C110.322 284.037 110.808 284.195 111.309 284.289C111.801 284.426 112.308 284.502 112.819 284.515C112.819 284.484 112.149 284.371 111.34 284.176C110.532 283.982 109.874 283.787 109.861 283.818Z" fill="#263238"/>
<path d="M107.875 283.366C107.875 283.366 107.875 283.511 107.938 283.668C108 283.825 107.982 283.957 108.019 283.963C108.057 283.969 108.107 283.825 108.063 283.649C108.019 283.473 107.9 283.347 107.875 283.366Z" fill="#263238"/>
<path d="M107.316 282.33C107.316 282.33 107.316 282.462 107.417 282.581C107.517 282.7 107.592 282.788 107.617 282.776C107.642 282.763 107.617 282.644 107.523 282.525C107.429 282.405 107.348 282.311 107.316 282.33Z" fill="#263238"/>
<path d="M106.332 281.689C106.332 281.727 106.47 281.752 106.608 281.834C106.746 281.915 106.84 282.016 106.871 282.003C106.902 281.991 106.871 281.834 106.67 281.733C106.47 281.633 106.332 281.658 106.332 281.689Z" fill="#263238"/>
<path d="M105.611 281.344C105.611 281.344 105.643 281.432 105.718 281.482C105.793 281.532 105.874 281.551 105.893 281.52C105.911 281.488 105.893 281.432 105.786 281.382C105.68 281.332 105.63 281.306 105.611 281.344Z" fill="#263238"/>
<path d="M145.48 88.749C145.223 88.0017 144.59 87.4428 144.283 86.7143C143.826 85.6216 144.164 84.3844 144.283 83.21C144.402 82.0357 144.158 80.6038 143.086 80.1203C142.617 79.9978 142.157 79.8446 141.708 79.6618C140.868 79.1343 140.912 77.9411 140.836 76.9552C140.786 76.3032 140.62 75.6653 140.348 75.0712L140.523 75.0146C141.158 74.8606 141.827 74.9354 142.412 75.2259C142.998 75.5163 143.463 76.004 143.725 76.6035C143.841 76.8543 143.892 77.1305 143.872 77.4062C143.852 77.6819 143.763 77.9481 143.613 78.1798C143.484 78.3727 143.294 78.5166 143.073 78.5884C142.853 78.6601 142.614 78.6556 142.397 78.5754C142.228 78.4874 142.093 78.3462 142.013 78.1737C141.933 78.0011 141.911 77.8068 141.952 77.6208C142.005 77.4864 142.102 77.3743 142.228 77.3033C142.353 77.2324 142.499 77.207 142.641 77.2315C142.736 77.2395 142.828 77.2678 142.912 77.3144C142.995 77.3609 143.067 77.4247 143.124 77.5015C143.199 77.6146 143.205 77.6962 143.218 77.6899C143.23 77.6836 143.218 77.6083 143.218 77.4701C143.165 77.3692 143.089 77.2821 142.997 77.2156C142.904 77.1491 142.797 77.1051 142.685 77.087C142.524 77.0569 142.357 77.0699 142.203 77.1247C142.106 77.1609 142.018 77.2179 141.945 77.2916C141.873 77.3654 141.817 77.4542 141.783 77.5518C141.71 77.7891 141.722 78.0443 141.817 78.2735C141.912 78.5027 142.084 78.6916 142.303 78.8078C142.576 78.9278 142.883 78.9496 143.171 78.8696C143.458 78.7895 143.71 78.6124 143.882 78.3682C144.072 78.0969 144.19 77.7809 144.223 77.4509C144.256 77.1208 144.203 76.7879 144.07 76.4842C143.807 75.8481 143.341 75.3178 142.744 74.9767C142.147 74.6356 141.454 74.5031 140.774 74.6002C140.921 74.3509 141.015 74.0734 141.048 73.7856C141.082 73.4978 141.054 73.2062 140.968 72.9297C140.853 72.5927 140.663 72.2865 140.412 72.034C140.161 71.7816 139.856 71.5897 139.52 71.4727C138.932 71.256 138.293 71.221 137.684 71.3722C137.17 71.4975 136.68 71.7099 136.237 72.0002C135.829 72.264 135.516 72.5529 135.215 72.7476C134.966 72.9278 134.675 73.0403 134.369 73.0741C134.107 73.0984 133.843 73.0437 133.611 72.9171C133.611 72.9171 133.805 73.2186 134.376 73.2186C134.712 73.2093 135.039 73.1071 135.322 72.9234C135.654 72.735 135.986 72.4524 136.375 72.22C136.81 71.9178 137.309 71.7203 137.833 71.6429C138.357 71.5656 138.891 71.6105 139.395 71.7742C139.686 71.8741 139.95 72.0392 140.167 72.2569C140.384 72.4745 140.549 72.739 140.648 73.0302C140.741 73.3221 140.75 73.6344 140.673 73.931C140.597 74.2277 140.438 74.4966 140.216 74.7069C139.899 74.1284 139.431 73.6467 138.862 73.3128C137.609 72.6031 135.729 72.9485 135.102 74.2422L124.819 70.7003C124.174 70.1572 123.403 69.7856 122.577 69.6199C121.752 69.4542 120.897 69.4996 120.094 69.752L119.881 69.7143C119.287 69.6585 118.689 69.758 118.145 70.0032C117.462 70.3869 116.867 70.9087 116.396 71.5355C116.115 71.8607 115.782 72.1385 115.413 72.3582C115.347 72.3871 115.28 72.4123 115.212 72.4336C114.757 72.4851 114.298 72.5019 113.84 72.4838C112.975 72.2828 112.079 71.7867 111.013 71.68C110.418 71.5992 109.812 71.642 109.234 71.8056C108.619 71.9869 108.068 72.3372 107.642 72.8166C107.194 73.3192 106.949 73.9704 106.953 74.6441C106.961 75.1276 107.037 75.6074 107.178 76.0697C106.947 76.6914 106.845 77.3538 106.877 78.0165C106.921 78.8894 107.172 79.8063 107.184 80.6604C106.933 80.8575 106.645 81.0046 106.338 81.0937C105.8 81.2632 105.217 81.3449 104.665 81.5584C104.149 81.7691 103.684 82.0884 103.301 82.4946C102.918 82.9009 102.627 83.3847 102.447 83.9134C102.274 84.3358 102.209 84.7944 102.258 85.2482C102.306 85.702 102.465 86.1367 102.723 86.5133C102.591 87.0865 102.588 87.6817 102.714 88.2562C102.839 88.8307 103.091 89.3701 103.45 89.8354C104.02 90.3786 104.558 90.9553 105.06 91.5624C105.737 92.6112 105.637 93.9614 105.812 95.1986C105.988 96.4357 106.696 97.8424 107.943 97.9241C108.945 97.9869 109.823 97.1454 110.85 97.227C112.254 97.34 112.831 99.0294 113.645 100.185C114.171 100.911 114.882 101.483 115.703 101.84C116.524 102.198 117.425 102.329 118.314 102.22C119.567 102.05 120.858 101.372 122.105 101.686C123.678 102.088 124.612 103.934 126.235 104.166C127.426 104.336 128.535 103.538 129.425 102.722C130.315 101.906 131.211 100.964 132.402 100.75C133.83 100.493 135.209 101.378 136.65 101.554C137.586 101.666 138.534 101.5 139.376 101.077C140.218 100.654 140.918 99.9922 141.388 99.1738C142.178 97.7357 142.171 95.971 142.917 94.5078C143.487 93.5757 144.115 92.6801 144.797 91.8262C145.386 90.9407 145.844 89.804 145.48 88.749ZM104.245 84.1144C104.13 84.0896 104.01 84.0896 103.894 84.1144C103.894 84.1144 104.001 84.1144 104.176 84.1834L103.982 84.3279C103.395 84.8176 102.971 85.4747 102.766 86.2119C102.611 85.878 102.525 85.5158 102.515 85.1476C102.504 84.7794 102.568 84.4128 102.704 84.0704C102.876 83.5889 103.148 83.1496 103.503 82.7815C103.857 82.4134 104.285 82.1249 104.759 81.9352C105.261 81.7468 105.831 81.6652 106.414 81.4893C106.666 81.4181 106.907 81.3102 107.128 81.169C107.101 81.5111 107.001 81.8432 106.834 82.1424C106.295 83.0782 105.154 83.4738 104.245 84.1144ZM111.264 72.5592C110.431 72.7169 109.647 73.0684 108.974 73.5854C108.301 74.1024 107.759 74.7705 107.391 75.5359C107.327 75.2535 107.294 74.9651 107.291 74.6755C107.288 74.0887 107.5 73.5213 107.886 73.0804C108.274 72.6715 108.754 72.3635 109.287 72.1829C109.82 72.0023 110.389 71.9547 110.944 72.0442C111.522 72.1202 112.088 72.2657 112.63 72.4775C112.173 72.4701 111.717 72.4974 111.264 72.5592ZM116.422 72.1258C116.296 72.1824 116.165 72.22 116.039 72.264C116.222 72.0977 116.396 71.9216 116.559 71.7365C117.003 71.128 117.561 70.6118 118.201 70.2167C118.674 69.984 119.197 69.8718 119.724 69.8902C119.452 69.9898 119.192 70.1182 118.947 70.2732C118.07 70.8384 117.374 71.6862 116.422 72.1258Z" fill="#263238"/>
<path d="M138.713 93.6976C139.202 90.6078 139.051 85.5336 138.788 81.3825C138.733 80.4978 138.5 79.6334 138.102 78.8414C137.705 78.0495 137.152 77.3463 136.476 76.7742C135.801 76.2021 135.016 75.773 134.171 75.5127C133.325 75.2524 132.436 75.1662 131.556 75.2595L120.784 76.4024C120.241 76.4591 119.738 76.7186 119.377 77.1293C119.016 77.5401 118.823 78.072 118.835 78.6193L119.944 105.14H117.438V109.944C117.438 112.582 118.483 115.112 120.345 116.978C122.206 118.843 124.731 119.891 127.364 119.891C129.997 119.891 132.521 118.843 134.383 116.978C136.244 115.112 137.29 112.582 137.29 109.944V105.787C137.29 105.787 134.708 104.939 133.142 105.027H132.76C132.76 102.596 132.96 100.693 132.96 100.693C132.96 100.693 137.729 99.921 138.713 93.6976Z" fill="#FFBE9D"/>
<path d="M137.176 85.408C137.176 85.6158 137.096 85.8157 136.952 85.9656C136.808 86.1154 136.612 86.2037 136.405 86.2118C136.303 86.2204 136.201 86.2083 136.104 86.1763C136.007 86.1443 135.918 86.0931 135.841 86.0257C135.765 85.9582 135.702 85.876 135.658 85.7839C135.614 85.6918 135.589 85.5917 135.584 85.4896C135.584 85.2818 135.664 85.0819 135.808 84.932C135.951 84.7821 136.148 84.6939 136.355 84.6858C136.456 84.6781 136.558 84.6908 136.655 84.7231C136.751 84.7554 136.84 84.8067 136.917 84.874C136.993 84.9412 137.055 85.0231 137.1 85.1148C137.144 85.2065 137.17 85.3062 137.176 85.408Z" fill="#263238"/>
<path d="M137.691 84.0264C137.591 84.1268 136.989 83.681 136.131 83.681C135.272 83.681 134.645 84.1143 134.551 84.0075C134.457 83.9008 134.608 83.7752 134.884 83.5742C135.253 83.3211 135.69 83.1854 136.137 83.1849C136.587 83.1817 137.026 83.3225 137.39 83.5868C137.647 83.7877 137.741 83.9761 137.691 84.0264Z" fill="#263238"/>
<path d="M128.798 85.408C128.8 85.6153 128.721 85.8151 128.579 85.9651C128.436 86.1152 128.241 86.2037 128.034 86.2118C127.932 86.2204 127.83 86.2083 127.733 86.1763C127.636 86.1443 127.547 86.0931 127.47 86.0257C127.394 85.9582 127.331 85.876 127.287 85.7839C127.243 85.6918 127.218 85.5917 127.213 85.4896C127.21 85.2819 127.288 85.0811 127.431 84.9307C127.574 84.7803 127.77 84.6923 127.978 84.6858C128.079 84.6781 128.181 84.6908 128.277 84.7231C128.374 84.7554 128.463 84.8067 128.539 84.874C128.616 84.9412 128.678 85.0231 128.723 85.1148C128.767 85.2065 128.793 85.3062 128.798 85.408Z" fill="#263238"/>
<path d="M129.267 84.1834C129.167 84.2901 128.565 83.8442 127.707 83.8442C126.848 83.8442 126.222 84.2776 126.128 84.1708C126.034 84.064 126.184 83.9384 126.46 83.7375C126.826 83.4788 127.265 83.3425 127.713 83.3481C128.163 83.3417 128.603 83.4829 128.966 83.75C129.223 83.951 129.317 84.152 129.267 84.1834Z" fill="#263238"/>
<path d="M132.378 90.5514C132.829 90.41 133.296 90.3256 133.769 90.3002C133.988 90.3002 134.195 90.2374 134.232 90.0867C134.246 89.8678 134.196 89.6497 134.088 89.4587C133.882 88.9312 133.668 88.3722 133.462 87.7882C132.566 85.4143 131.914 83.4613 132.014 83.4236C132.722 84.7878 133.324 86.205 133.813 87.6626C134.026 88.2529 134.232 88.8056 134.439 89.3456C134.578 89.6099 134.618 89.9149 134.552 90.206C134.519 90.2833 134.47 90.3523 134.407 90.4077C134.344 90.4632 134.269 90.5037 134.189 90.5263C134.068 90.5594 133.944 90.5763 133.819 90.5765C133.339 90.63 132.855 90.6215 132.378 90.5514Z" fill="#263238"/>
<path d="M132.972 100.712C130.048 100.757 127.169 99.9877 124.656 98.4894C124.656 98.4894 126.674 102.766 132.884 102.182L132.972 100.712Z" fill="#EB996E"/>
<path d="M132.013 92.6236C131.85 92.4176 131.638 92.2565 131.395 92.1554C131.153 92.0543 130.889 92.0166 130.628 92.0459C130.439 92.0637 130.256 92.1197 130.089 92.2103C129.922 92.301 129.775 92.4245 129.657 92.5734C129.542 92.7161 129.473 92.8911 129.461 93.0743C129.449 93.2575 129.493 93.4401 129.588 93.597C129.727 93.7487 129.907 93.8563 130.107 93.9065C130.306 93.9568 130.516 93.9474 130.71 93.8796C131.112 93.7428 131.485 93.5296 131.807 93.2516C131.903 93.1819 131.986 93.0946 132.051 92.9942C132.083 92.947 132.101 92.8912 132.101 92.834C132.101 92.7768 132.083 92.721 132.051 92.6739" fill="#EB996E"/>
<path d="M129.858 91.1481C129.996 91.1481 129.996 92.0712 130.792 92.7306C131.588 93.39 132.578 93.2896 132.584 93.4214C132.591 93.5533 132.365 93.6036 131.958 93.6161C131.414 93.6231 130.885 93.4361 130.466 93.0886C130.059 92.7599 129.798 92.2838 129.739 91.7635C129.72 91.3742 129.796 91.1418 129.858 91.1481Z" fill="#263238"/>
<path d="M129.65 82.6824C129.569 82.9148 128.71 82.8018 127.707 82.9274C126.705 83.053 125.89 83.323 125.758 83.1095C125.696 83.0153 125.84 82.7955 126.166 82.5694C126.6 82.2843 127.097 82.1097 127.613 82.0607C128.128 81.9988 128.649 82.0591 129.136 82.2365C129.506 82.3873 129.719 82.5694 129.65 82.6824Z" fill="#263238"/>
<path d="M137.379 82.268C137.228 82.4627 136.633 82.268 135.925 82.268C135.217 82.268 134.615 82.3999 134.477 82.1926C134.414 82.0921 134.477 81.8975 134.772 81.7153C135.123 81.4908 135.534 81.379 135.95 81.3951C136.367 81.4016 136.772 81.5376 137.109 81.7844C137.36 81.9728 137.441 82.1738 137.379 82.268Z" fill="#263238"/>
<path d="M141.101 75.831C140.674 74.1731 139.421 72.6408 137.742 72.3268C136.645 72.1258 135.523 72.4461 134.414 72.377C133.493 72.3205 133.161 71.5857 132.29 71.2969C130.836 70.8196 129.72 69.1993 126.581 69.5385C125.741 69.6327 124.663 70.6061 123.892 71.7113C122.689 71.1901 121.104 71.749 120.239 72.1321C118.44 72.9171 117.319 74.9455 116.961 77.0054C116.604 79.0652 116.899 81.1816 117.187 83.254C117.319 84.196 117.45 85.138 117.588 86.0925C117.639 86.7211 117.807 87.3345 118.083 87.9012L116.654 101.215C117.369 101.444 118.124 101.525 118.871 101.452C119.619 101.38 120.343 101.155 121.001 100.793C121.659 100.43 122.237 99.9369 122.698 99.3433C123.16 98.7497 123.496 98.0681 123.685 97.34C124.237 94.7213 122.783 92.0585 123.015 89.3895C123.153 87.8007 124.049 86.3249 124.043 84.7298C124.032 84.2053 123.957 83.6842 123.817 83.1786C126.324 81.1251 126.988 79.4734 126.882 77.5266C127.655 78.0687 128.57 78.3721 129.514 78.3995C130.842 78.3995 132.227 77.8971 133.468 78.3995C134.322 78.8375 135.075 79.4492 135.68 80.1956C136.363 80.8739 137.247 81.4956 138.187 81.3637C138.636 81.2572 139.073 81.1035 139.49 80.9053C139.7 80.8058 139.929 80.7542 140.161 80.7542C140.392 80.7542 140.622 80.8058 140.831 80.9053C141.338 79.2622 141.431 77.5187 141.101 75.831Z" fill="#263238"/>
<path d="M103.977 89.4648C104.619 89.9319 105.311 90.3277 106.038 90.6454C106.892 91.0058 107.807 91.1998 108.733 91.2169C109.961 91.2497 111.167 90.8865 112.173 90.1807C112.777 89.7631 113.286 89.223 113.668 88.5956C114.051 87.9681 114.297 87.2673 114.392 86.5383C114.489 85.7292 114.324 84.9102 113.922 84.2022C113.714 83.8394 113.418 83.5344 113.063 83.3151C112.707 83.0957 112.302 82.9689 111.885 82.9462C111.459 82.9351 111.043 83.0727 110.707 83.3355C110.366 83.6209 110.114 83.9978 109.98 84.422C109.832 84.8591 109.798 85.3269 109.882 85.7808C109.965 86.2348 110.163 86.6599 110.456 87.0156C111.095 87.7592 111.957 88.2749 112.913 88.4851C113.9 88.7186 114.926 88.7357 115.921 88.5354C116.919 88.3363 117.857 87.9062 118.659 87.2794C119.436 86.6764 120.025 85.8638 120.358 84.9369C120.684 84.0452 120.762 83.0814 120.583 82.1486C120.498 81.7074 120.341 81.2831 120.119 80.8926C119.917 80.5015 119.627 80.1621 119.273 79.9004C118.946 79.6399 118.545 79.4884 118.127 79.467C117.933 79.4605 117.741 79.5073 117.572 79.6026C117.403 79.6978 117.263 79.8378 117.168 80.0071C116.985 80.3526 116.943 80.7551 117.049 81.1312C117.17 81.5049 117.386 81.8404 117.675 82.1047C118.707 82.9791 120.027 83.435 121.377 83.3827C122.727 83.3304 124.009 82.7737 124.97 81.822C125.615 81.1557 126.086 80.3404 126.342 79.4482C126.553 78.6844 126.619 77.8877 126.537 77.0995C126.594 77.3042 126.628 77.5149 126.637 77.7275C126.681 78.3249 126.626 78.9255 126.474 79.5047C126.226 80.4265 125.757 81.2736 125.108 81.9728C124.225 82.8968 123.044 83.4775 121.774 83.6118C121.008 83.711 120.23 83.6477 119.491 83.4259C118.751 83.2041 118.067 82.8288 117.481 82.3244C117.157 82.0273 116.918 81.6475 116.792 81.2254C116.664 80.7736 116.716 80.2899 116.936 79.8753C117.057 79.6599 117.234 79.4814 117.448 79.3587C117.662 79.236 117.905 79.1736 118.152 79.1782C118.637 79.1982 119.103 79.3695 119.487 79.668C119.876 79.9543 120.196 80.3259 120.42 80.7544C120.662 81.1826 120.833 81.647 120.928 82.1298C121.123 83.1205 121.043 84.1458 120.696 85.0939C120.345 86.0846 119.722 86.9554 118.897 87.6059C118.051 88.2594 117.064 88.7066 116.015 88.9122C114.978 89.1193 113.91 89.1 112.881 88.8556C111.855 88.6267 110.93 88.0716 110.243 87.2731C109.919 86.867 109.704 86.3851 109.617 85.8727C109.539 85.3678 109.58 84.8518 109.736 84.3654C109.887 83.8752 110.177 83.4391 110.569 83.1094C110.967 82.8027 111.458 82.643 111.96 82.6573C112.43 82.6825 112.887 82.8272 113.286 83.0776C113.685 83.3281 114.014 83.6762 114.241 84.0891C114.668 84.8528 114.841 85.7324 114.736 86.6011C114.632 87.3663 114.368 88.1009 113.96 88.7566C113.553 89.4124 113.013 89.9747 112.374 90.4068C111.327 91.1312 110.073 91.4929 108.802 91.4367C107.855 91.4098 106.922 91.1964 106.057 90.8087C105.509 90.5731 104.991 90.2715 104.515 89.9107C104.353 89.7914 104.24 89.6846 104.158 89.6218L103.977 89.4648Z" fill="#455A64"/>
<path d="M141.464 78.6445C141.375 78.7288 141.273 78.7987 141.163 78.8517C140.856 79.0234 140.524 79.1463 140.179 79.216C139.629 79.3279 139.062 79.3279 138.512 79.216C137.785 79.0437 137.111 78.6942 136.551 78.1986C135.876 77.5965 135.348 76.8465 135.009 76.0069C134.897 75.7652 134.834 75.5031 134.825 75.2364C134.817 74.9698 134.862 74.7042 134.959 74.4557C135.079 74.1877 135.284 73.9669 135.542 73.8277C135.681 73.7551 135.836 73.7171 135.993 73.7171C136.15 73.7171 136.305 73.7551 136.444 73.8277C136.713 73.984 136.921 74.2266 137.034 74.5161C137.148 74.8056 137.161 75.1251 137.071 75.4228C136.962 75.7147 136.794 75.9811 136.579 76.2057C136.363 76.4304 136.104 76.6085 135.818 76.7291C134.663 77.2284 133.358 77.2487 132.189 76.7856C131.605 76.5743 131.044 76.3028 130.516 75.9755C129.988 75.6692 129.509 75.2862 129.093 74.8388C128.871 74.6021 128.735 74.2965 128.709 73.9724C128.683 73.6482 128.768 73.3248 128.949 73.0553C129.056 72.9247 129.197 72.8259 129.356 72.7694C129.515 72.713 129.686 72.7011 129.852 72.735C130.155 72.8021 130.425 72.9731 130.616 73.2185C130.807 73.4599 130.895 73.7668 130.861 74.0726C130.821 74.3589 130.699 74.6274 130.51 74.8451C130.161 75.2482 129.668 75.4966 129.137 75.5359C128.66 75.5701 128.18 75.5082 127.727 75.3537C127.319 75.2238 126.919 75.0686 126.53 74.889C125.841 74.6006 125.239 74.1375 124.782 73.5451C124.449 73.0785 124.289 72.5097 124.331 71.9374C124.353 71.5801 124.479 71.2372 124.694 70.9515C124.769 70.8525 124.863 70.7693 124.97 70.7065C124.654 71.0496 124.474 71.496 124.462 71.9625C124.446 72.4958 124.612 73.0186 124.932 73.4446C125.38 74.0043 125.965 74.4372 126.631 74.7006C127.408 75.094 128.267 75.2964 129.137 75.2909C129.365 75.2693 129.587 75.2027 129.789 75.0949C129.991 74.9872 130.17 74.8403 130.315 74.6629C130.477 74.4986 130.575 74.2816 130.591 74.0512C130.607 73.8209 130.541 73.5923 130.403 73.4069C130.121 73.0364 129.52 72.8731 129.238 73.2562C129.165 73.3522 129.113 73.4617 129.084 73.5782C129.055 73.6947 129.05 73.8158 129.068 73.9345C129.105 74.1899 129.214 74.4296 129.382 74.6253C129.776 75.0394 130.228 75.3947 130.723 75.6803C131.23 75.9953 131.77 76.2543 132.333 76.4527C132.867 76.6756 133.44 76.7903 134.019 76.7903C134.598 76.7903 135.171 76.6756 135.705 76.4527C135.946 76.3512 136.165 76.2014 136.347 76.0125C136.529 75.8235 136.671 75.5994 136.764 75.3537C136.841 75.1208 136.835 74.8683 136.747 74.6393C136.659 74.4103 136.494 74.2189 136.281 74.0977C136.182 74.0525 136.073 74.0287 135.964 74.028C135.854 74.0272 135.746 74.0494 135.646 74.0932C135.545 74.137 135.455 74.2013 135.381 74.2822C135.307 74.363 135.251 74.4585 135.216 74.5625C135.136 74.7744 135.099 74.9999 135.107 75.2263C135.114 75.4526 135.166 75.6752 135.26 75.8813C135.575 76.6849 136.067 77.4064 136.701 77.9914C137.224 78.4752 137.856 78.8244 138.544 79.0087C139.066 79.1417 139.609 79.1694 140.142 79.0904C140.6 79.0013 141.045 78.8514 141.464 78.6445Z" fill="#455A64"/>
<path d="M123.364 93.2518C123.29 93.3378 123.201 93.4101 123.101 93.4653C122.823 93.6461 122.512 93.7699 122.186 93.8295C121.671 93.9361 121.136 93.9014 120.638 93.729C120.295 93.6293 119.977 93.4572 119.706 93.2243C119.435 92.9915 119.216 92.7032 119.065 92.3788C118.963 92.172 118.932 91.9375 118.974 91.7109C119.017 91.4842 119.133 91.2778 119.303 91.1228C119.496 90.9736 119.733 90.8927 119.977 90.8927C120.221 90.8927 120.458 90.9736 120.651 91.1228C121.039 91.4401 121.334 91.8573 121.504 92.3296C121.674 92.802 121.713 93.3117 121.616 93.8044C121.552 94.35 121.353 94.8709 121.036 95.3195C120.72 95.7682 120.297 96.1303 119.805 96.3729C119.263 96.6022 118.675 96.699 118.089 96.6553C117.503 96.6116 116.935 96.4287 116.433 96.1217C115.914 95.8299 115.472 95.4188 115.142 94.9222C114.975 94.6736 114.861 94.3927 114.808 94.0975C114.755 93.8023 114.765 93.4992 114.835 93.2078C114.911 92.9163 115.065 92.6512 115.28 92.4416C115.39 92.3342 115.521 92.2504 115.664 92.1954C115.807 92.1403 115.96 92.1151 116.114 92.1214C116.395 92.1427 116.667 92.2366 116.902 92.394C117.137 92.5513 117.327 92.7667 117.455 93.0194C117.687 93.475 117.813 93.9774 117.825 94.4889C117.843 94.9599 117.797 95.4311 117.687 95.8894C117.49 96.7226 117.054 97.48 116.433 98.0685C115.989 98.499 115.428 98.7882 114.82 98.9C114.213 99.0117 113.586 98.9409 113.018 98.6965C112.715 98.5641 112.439 98.3767 112.203 98.1439C112.118 98.0683 112.046 97.9792 111.99 97.8801C112.312 98.165 112.675 98.3981 113.068 98.5709C113.535 98.7516 114.038 98.8141 114.535 98.753C115.187 98.6737 115.795 98.38 116.264 97.9178C116.83 97.352 117.222 96.6347 117.392 95.8517C117.493 95.4178 117.531 94.9714 117.505 94.5266C117.491 94.0645 117.374 93.6114 117.16 93.2015C117.059 92.9962 116.907 92.8205 116.718 92.6918C116.529 92.563 116.31 92.4855 116.082 92.4668C115.852 92.4809 115.634 92.5733 115.463 92.7285C115.292 92.8837 115.179 93.0926 115.142 93.3208C115.083 93.567 115.077 93.823 115.123 94.0719C115.169 94.3208 115.268 94.5571 115.412 94.7652C115.713 95.2154 116.114 95.5894 116.584 95.8579C117.047 96.14 117.57 96.3077 118.111 96.347C118.651 96.3863 119.193 96.2962 119.692 96.084C120.135 95.8637 120.517 95.5368 120.804 95.1324C121.09 94.728 121.272 94.2588 121.334 93.7667C121.422 93.3304 121.394 92.8783 121.25 92.4567C121.107 92.0352 120.855 91.6594 120.519 91.3678C120.373 91.2532 120.194 91.1909 120.008 91.1909C119.823 91.1909 119.643 91.2532 119.498 91.3678C119.371 91.4849 119.285 91.6395 119.253 91.8089C119.22 91.9783 119.242 92.1538 119.316 92.3098C119.448 92.6047 119.639 92.8689 119.879 93.0852C120.119 93.3015 120.401 93.4652 120.707 93.5658C121.175 93.7395 121.68 93.7913 122.174 93.7165C122.594 93.6308 122.997 93.4736 123.364 93.2518Z" fill="#455A64"/>
<path d="M97.4785 245.912C97.4785 245.912 101.671 254.076 112.6 250.107C112.6 250.107 123.303 255.935 133.543 249.41C133.543 249.41 146.797 251.188 154.01 247.69L144.761 167.532L143.582 155.223H114.311C114.311 155.223 105.625 159.186 104.228 178.534C102.83 197.883 99.8411 224.46 99.8411 224.46L97.4785 245.912Z" fill="#6B8D72"/>
<path d="M132.917 249.655C132.917 249.655 132.917 249.573 132.917 249.41C132.917 249.247 132.879 249.002 132.854 248.7C132.804 248.072 132.735 247.137 132.641 245.962C132.466 243.589 132.234 240.147 131.983 235.914C131.476 227.411 130.937 215.643 130.655 202.63C130.373 189.618 130.404 177.843 130.542 169.346C130.611 165.082 130.686 161.635 130.768 159.254C130.805 158.074 130.837 157.157 130.862 156.51C130.862 156.209 130.862 155.97 130.862 155.794C130.854 155.715 130.854 155.635 130.862 155.556C130.871 155.635 130.871 155.715 130.862 155.794V156.51C130.862 157.138 130.862 158.08 130.83 159.254C130.83 161.653 130.761 165.101 130.711 169.346C130.636 177.868 130.636 189.643 130.918 202.63C131.2 215.617 131.708 227.392 132.171 235.914C132.403 240.16 132.591 243.595 132.729 245.962C132.792 247.137 132.842 248.06 132.879 248.7C132.879 249.002 132.879 249.241 132.911 249.416C132.919 249.496 132.922 249.575 132.917 249.655Z" fill="#455A64"/>
<path d="M135.486 226.708C135.486 226.708 135.549 226.62 135.712 226.576C135.953 226.524 136.205 226.555 136.426 226.664C136.594 226.746 136.741 226.865 136.857 227.012C136.973 227.159 137.055 227.329 137.096 227.512C137.12 227.747 137.076 227.983 136.968 228.193C136.861 228.403 136.695 228.577 136.49 228.694C136.286 228.811 136.052 228.866 135.817 228.852C135.582 228.839 135.356 228.757 135.166 228.617C135.031 228.487 134.926 228.328 134.86 228.152C134.794 227.976 134.768 227.787 134.784 227.6C134.802 227.353 134.904 227.121 135.072 226.94C135.191 226.821 135.292 226.796 135.298 226.808C135.131 227.045 135.033 227.323 135.016 227.612C135.016 227.758 135.047 227.902 135.107 228.035C135.166 228.168 135.252 228.287 135.361 228.385C135.505 228.476 135.671 228.526 135.841 228.53C136.011 228.534 136.18 228.491 136.328 228.407C136.476 228.322 136.598 228.199 136.681 228.05C136.765 227.901 136.807 227.733 136.802 227.562C136.776 227.418 136.718 227.282 136.634 227.163C136.549 227.043 136.44 226.944 136.313 226.871C136.06 226.734 135.772 226.677 135.486 226.708Z" fill="#455A64"/>
<path d="M134.833 202.907C134.833 202.907 134.896 202.825 135.059 202.781C135.3 202.725 135.553 202.756 135.773 202.869C135.944 202.948 136.093 203.065 136.21 203.213C136.326 203.36 136.406 203.533 136.444 203.717C136.465 203.95 136.419 204.185 136.311 204.392C136.203 204.6 136.038 204.772 135.835 204.888C135.632 205.004 135.4 205.059 135.167 205.046C134.934 205.033 134.709 204.953 134.52 204.816C134.382 204.689 134.275 204.532 134.208 204.356C134.142 204.18 134.118 203.992 134.138 203.805C134.158 203.57 134.257 203.348 134.419 203.177C134.545 203.051 134.639 203.032 134.645 203.045C134.479 203.279 134.381 203.556 134.363 203.843C134.363 203.988 134.394 204.133 134.453 204.266C134.513 204.399 134.599 204.518 134.708 204.615C134.851 204.708 135.017 204.76 135.187 204.765C135.358 204.77 135.527 204.729 135.675 204.645C135.824 204.56 135.947 204.437 136.03 204.288C136.114 204.139 136.155 203.97 136.149 203.799C136.122 203.655 136.065 203.519 135.982 203.399C135.899 203.279 135.791 203.177 135.667 203.102C135.412 202.96 135.124 202.893 134.833 202.907Z" fill="#455A64"/>
<path d="M134.451 181.856C134.451 181.856 134.514 181.775 134.683 181.731C134.922 181.675 135.173 181.706 135.391 181.819C135.562 181.897 135.712 182.015 135.83 182.162C135.947 182.309 136.029 182.482 136.068 182.666C136.091 182.901 136.045 183.136 135.937 183.345C135.829 183.554 135.663 183.727 135.459 183.843C135.255 183.959 135.021 184.014 134.787 184C134.553 183.986 134.327 183.905 134.138 183.765C134.001 183.638 133.895 183.48 133.829 183.305C133.763 183.129 133.738 182.941 133.756 182.754C133.773 182.509 133.872 182.277 134.038 182.095C134.163 181.976 134.257 181.95 134.27 181.963C134.099 182.196 133.999 182.473 133.981 182.761C133.981 182.907 134.011 183.052 134.072 183.185C134.133 183.319 134.221 183.437 134.332 183.533C134.475 183.624 134.641 183.675 134.81 183.679C134.98 183.684 135.147 183.642 135.295 183.558C135.443 183.474 135.564 183.351 135.648 183.203C135.731 183.055 135.772 182.887 135.767 182.717C135.74 182.573 135.683 182.437 135.6 182.317C135.517 182.197 135.41 182.095 135.285 182.02C135.028 181.889 134.739 181.832 134.451 181.856Z" fill="#455A64"/>
<path d="M133.706 159.336C133.706 159.336 133.769 159.248 133.932 159.204C134.173 159.151 134.426 159.185 134.646 159.299C134.816 159.378 134.964 159.496 135.081 159.643C135.197 159.791 135.278 159.963 135.316 160.146C135.349 160.383 135.305 160.624 135.193 160.835C135.08 161.046 134.904 161.216 134.69 161.321C134.488 161.446 134.253 161.506 134.017 161.492C133.78 161.479 133.553 161.393 133.368 161.245C133.232 161.115 133.127 160.956 133.061 160.78C132.995 160.604 132.969 160.415 132.985 160.228C133.01 159.993 133.111 159.772 133.274 159.6C133.399 159.481 133.493 159.456 133.499 159.468C133.332 159.704 133.234 159.983 133.217 160.272C133.217 160.418 133.248 160.562 133.308 160.695C133.367 160.828 133.454 160.947 133.562 161.044C133.706 161.136 133.872 161.186 134.042 161.19C134.213 161.193 134.381 161.151 134.529 161.066C134.677 160.982 134.799 160.859 134.883 160.71C134.966 160.561 135.008 160.392 135.003 160.222C134.977 160.078 134.919 159.942 134.835 159.822C134.75 159.703 134.641 159.604 134.514 159.531C134.271 159.386 133.989 159.318 133.706 159.336Z" fill="#455A64"/>
<path d="M171.857 134.957L319.668 133.883L323.786 234.589L170.729 233.17L171.857 134.957Z" fill="#EB8B55"/>
<path d="M171.85 134.957L241.811 78.2299C243.248 77.0658 245.042 76.4339 246.89 76.4407C248.738 76.4476 250.528 77.0928 251.956 78.2676L319.668 133.883" fill="#EB8B55"/>
<g opacity="0.3">
<path opacity="0.3" d="M171.85 134.957L241.811 78.2299C243.248 77.0658 245.042 76.4339 246.89 76.4407C248.738 76.4476 250.528 77.0928 251.956 78.2676L319.668 133.883" fill="black"/>
</g>
<path d="M170.729 233.17C170.547 232.994 182.378 220.045 197.161 204.251C211.944 188.456 224.07 175.79 224.258 175.959C224.446 176.129 212.609 189.078 197.826 204.879C183.043 220.679 170.917 233.34 170.729 233.17Z" fill="#263238"/>
<path d="M323.786 234.589C323.598 234.759 312.074 222.073 298.049 206.26C284.024 190.447 272.807 177.485 272.982 177.316C273.158 177.146 284.695 189.832 298.72 205.651C312.744 221.47 323.987 234.42 323.786 234.589Z" fill="#263238"/>
<g opacity="0.5">
<path opacity="0.5" d="M319.669 133.883L245.441 193.305L171.857 134.957" fill="black"/>
</g>
<path d="M179.296 140.458L179.07 94.2L308.496 92.6614L309.956 141.338L245.434 192.526L179.296 140.458Z" fill="#FAFAFA"/>
<path d="M179.296 140.458C179.296 140.458 179.716 140.772 180.511 141.394L184.021 144.132L197.4 154.601L245.534 192.419H245.371L309.874 141.212L309.812 141.344C309.536 132.062 309.241 122.316 308.94 112.406C308.746 105.73 308.546 99.1361 308.351 92.6677L308.514 92.8247L179.089 94.3005L179.189 94.2C179.239 108.751 179.283 120.312 179.308 128.238C179.308 132.2 179.308 135.252 179.308 137.318V139.661C179.308 140.188 179.308 140.458 179.308 140.458C179.308 140.458 179.308 140.195 179.308 139.673C179.308 139.152 179.308 138.367 179.308 137.344C179.308 135.277 179.264 132.232 179.233 128.275C179.183 120.337 179.108 108.77 179.014 94.2V94.0932H179.114L308.546 92.5044H308.702V92.6677C308.897 99.1298 309.091 105.724 309.291 112.399C309.592 122.316 309.88 132.056 310.162 141.344V141.426L310.1 141.476L245.553 192.639L245.472 192.702L245.39 192.639L197.287 154.695L183.989 144.176L180.48 141.413C179.69 140.785 179.296 140.458 179.296 140.458Z" fill="#263238"/>
<path d="M271.485 172.367C271.315 172.396 271.143 172.409 270.971 172.405L269.479 172.449L264.015 172.537L245.973 172.794C238.929 172.914 232.543 172.951 227.925 172.958H222.46H220.969C220.797 172.961 220.625 172.95 220.455 172.926C220.625 172.897 220.797 172.885 220.969 172.888L222.46 172.851L227.925 172.757L245.967 172.499C253.01 172.38 259.396 172.342 264.008 172.336H269.479H270.971C271.142 172.335 271.314 172.346 271.485 172.367Z" fill="#263238"/>
<path d="M254.822 185.078C254.822 185.166 250.604 185.241 245.422 185.241C240.239 185.241 236.021 185.166 236.021 185.078C236.021 184.99 240.245 184.914 245.422 184.914C250.598 184.914 254.822 184.983 254.822 185.078Z" fill="#263238"/>
<path d="M180.311 73.0679H194.611L192.675 70.8448V65.513C192.675 64.1273 192.125 62.7983 191.148 61.8184C190.17 60.8386 188.844 60.2881 187.461 60.2881C186.776 60.2881 186.099 60.4233 185.466 60.6859C184.834 60.9486 184.26 61.3336 183.776 61.8188C183.293 62.3041 182.909 62.8801 182.648 63.514C182.386 64.1479 182.252 64.8272 182.253 65.513V70.581L180.311 73.0679Z" fill="#EB8B55"/>
<path d="M185.494 72.3645C185.51 72.6765 185.592 72.9816 185.734 73.2597C185.876 73.5378 186.075 73.7826 186.318 73.9778C186.562 74.1731 186.844 74.3145 187.145 74.3926C187.447 74.4708 187.762 74.4839 188.07 74.4312C188.377 74.3784 188.669 74.261 188.928 74.0867C189.187 73.9123 189.406 73.685 189.57 73.4197C189.735 73.1544 189.842 72.8571 189.883 72.5475C189.925 72.2379 189.901 71.9229 189.812 71.6234" fill="#EB8B55"/>
<path d="M188.257 58.1151H186.854V61.1044H188.257V58.1151Z" fill="#EB8B55"/>
<path d="M208.31 63.2649C208.268 63.1419 208.234 63.0159 208.21 62.8881C208.148 62.618 208.066 62.2601 207.96 61.7828C207.829 61.1821 207.659 60.5905 207.452 60.0118C207.327 59.6727 207.239 59.2896 207.07 58.9065L206.537 57.6882C205.573 55.6301 204.294 53.7358 202.746 52.0739C200.712 49.9259 198.251 48.2312 195.52 47.1001C193.965 46.4442 192.337 45.9803 190.67 45.7185C188.872 45.456 187.048 45.4264 185.243 45.6306C184.293 45.7307 183.351 45.8944 182.423 46.1205C181.953 46.2209 181.495 46.4031 181.019 46.5475C180.541 46.6805 180.074 46.8506 179.622 47.0562C177.702 47.8343 175.915 48.9086 174.326 50.2401C170.801 53.1534 168.315 57.1361 167.245 61.5881C166.681 63.9733 166.544 66.4396 166.838 68.8729C167.096 71.3901 167.825 73.8359 168.987 76.0823L169.351 76.7669L169.395 76.8548V76.949C168.235 80.717 167.107 84.485 166.004 88.0834L165.71 87.8134L174.665 83.1348L174.771 83.0783L174.872 83.1536C178.616 86.0469 183.23 87.5782 187.957 87.496C192.684 87.4139 197.243 85.7231 200.884 82.7015C202.752 81.1371 204.343 79.2688 205.591 77.1751C206.589 75.4265 207.357 73.5564 207.878 71.611C208.229 70.1335 208.439 68.6257 208.505 67.1082C208.505 66.4802 208.505 65.9401 208.505 65.4566C208.505 64.973 208.43 64.5899 208.404 64.2571C208.379 63.9243 208.354 63.7045 208.342 63.5223C208.332 63.4389 208.332 63.3546 208.342 63.2711C208.364 63.3512 208.379 63.4332 208.386 63.5161C208.386 63.7003 208.417 63.9452 208.48 64.2508C208.517 64.5837 208.561 64.9793 208.618 65.4566C208.674 65.9339 208.618 66.4928 208.618 67.1145C208.583 68.6452 208.394 70.1685 208.054 71.6612C207.553 73.6366 206.795 75.537 205.798 77.3132C204.549 79.4526 202.947 81.3638 201.06 82.9652C198.749 84.8983 196.054 86.3159 193.154 87.1237C190.254 87.9315 187.215 88.111 184.24 87.6501C180.739 87.0928 177.43 85.6753 174.608 83.5242H174.821L165.879 88.2153L165.428 88.454L165.578 87.9453L168.962 76.8108V76.9929L168.592 76.2959C167.407 73.9999 166.663 71.501 166.399 68.9294C166.092 66.4392 166.237 63.9139 166.825 61.4751C167.921 56.936 170.462 52.8778 174.063 49.9136C175.689 48.5658 177.513 47.479 179.471 46.6919C179.931 46.4832 180.407 46.311 180.894 46.177C181.376 46.0388 181.84 45.8567 182.323 45.7562C183.264 45.524 184.221 45.3603 185.187 45.2664C187.022 45.0639 188.876 45.1019 190.701 45.3794C192.39 45.66 194.039 46.1406 195.614 46.8113C198.374 47.9758 200.856 49.7138 202.896 51.9106C204.445 53.6032 205.714 55.5323 206.656 57.6254C206.838 58.065 207.013 58.4732 207.17 58.8814C207.327 59.2896 207.421 59.6601 207.54 60.0055C207.743 60.5889 207.9 61.1873 208.01 61.7953C208.097 62.2663 208.173 62.6369 208.223 62.9132C208.26 63.0283 208.289 63.1458 208.31 63.2649Z" fill="#263238"/>
<path d="M381.209 212.396C383.258 219.335 381.704 228.259 379.222 235.054C376.7 241.916 372.059 247.792 365.974 251.828C365.298 252.274 364.426 252.707 363.712 252.324C363.448 252.114 363.233 251.848 363.082 251.545C362.932 251.242 362.849 250.91 362.841 250.572C361.375 243.068 362.375 235.291 365.691 228.405C369.007 221.519 374.46 215.896 381.234 212.377" fill="#6B8D72"/>
<g opacity="0.2">
<path opacity="0.2" d="M381.209 212.396C383.258 219.335 381.704 228.259 379.222 235.054C376.7 241.916 372.059 247.792 365.974 251.828C365.298 252.274 364.426 252.707 363.712 252.324C363.448 252.114 363.233 251.848 363.082 251.545C362.932 251.242 362.849 250.91 362.841 250.572C361.375 243.068 362.375 235.291 365.691 228.405C369.007 221.519 374.46 215.896 381.234 212.377" fill="black"/>
</g>
<path d="M350.426 179.457C354.738 179.338 357.583 184.142 358.015 188.45C358.448 192.758 357.495 197.242 358.755 201.362C360.334 206.612 365.259 210.38 366.738 215.674C368.493 221.91 365.078 228.385 364.915 234.859C364.833 237.999 365.541 241.196 364.946 244.279C364.45 246.917 363.057 249.301 361.004 251.024C358.951 252.747 356.365 253.704 353.687 253.731C351.008 253.757 348.404 252.852 346.317 251.17C344.23 249.488 342.79 247.133 342.242 244.505C341.233 239.657 343.37 234.501 342.091 229.71C341.145 226.174 338.4 223.166 338.175 219.511C337.912 215.159 341.271 211.397 341.897 207.083C342.524 202.769 340.343 198.555 340.017 194.203C339.434 186.403 342.655 180.28 350.42 179.445" fill="#6B8D72"/>
<path d="M359.875 268.288C359.934 268.148 359.978 268.003 360.007 267.854C360.082 267.528 360.176 267.107 360.289 266.598C360.52 265.512 360.915 263.936 361.354 261.995C363.803 251.885 367.295 242.059 371.775 232.674C372.634 230.872 373.348 229.427 373.856 228.429L374.426 227.279C374.499 227.148 374.558 227.009 374.602 226.865C374.506 226.978 374.424 227.103 374.357 227.235L373.731 228.353C373.179 229.327 372.421 230.758 371.531 232.548C366.895 241.889 363.388 251.752 361.084 261.926C360.652 263.879 360.332 265.468 360.144 266.573C360.063 267.082 359.994 267.503 359.938 267.829C359.9 267.979 359.879 268.133 359.875 268.288Z" fill="#263238"/>
<path d="M350.602 200.734C350.604 200.965 350.625 201.196 350.664 201.424C350.721 201.908 350.802 202.567 350.902 203.396L351.861 210.65C352.67 216.773 353.785 225.226 354.957 234.577C356.129 243.927 357.138 252.399 357.858 258.535C358.222 261.568 358.516 264.042 358.729 265.794C358.836 266.623 358.917 267.283 358.98 267.766C359.002 267.997 359.04 268.226 359.093 268.451C359.112 268.221 359.112 267.99 359.093 267.76C359.049 267.27 358.993 266.611 358.917 265.776C358.736 264.017 358.485 261.543 358.178 258.497C357.551 252.355 356.567 243.877 355.396 234.526C354.224 225.175 353.064 216.722 352.175 210.606C351.723 207.585 351.354 205.123 351.097 203.378C350.959 202.549 350.852 201.895 350.777 201.412C350.74 201.181 350.681 200.954 350.602 200.734Z" fill="#263238"/>
<path d="M374.927 259.803H342.178V263.634H374.927V259.803Z" fill="#EB8B55"/>
<path d="M345.219 263.634L349.06 286.883H369.377L372.034 263.634H345.219Z" fill="#EB8B55"/>
<path d="M372.139 263.477C372.139 263.571 366.092 263.716 358.628 263.81C351.165 263.904 345.117 263.904 345.117 263.81C345.117 263.716 351.165 263.571 358.628 263.477C366.092 263.383 372.139 263.389 372.139 263.477Z" fill="#455A64"/>
<path d="M371.025 275.114H370.843H370.298C369.599 275.139 368.899 275.112 368.205 275.033C367.088 274.922 366.021 274.519 365.109 273.864C364.537 273.45 364.075 272.903 363.762 272.269C363.398 271.545 363.329 270.708 363.567 269.933C363.704 269.499 363.977 269.121 364.345 268.854C364.713 268.587 365.156 268.446 365.61 268.451C366.093 268.491 366.542 268.716 366.864 269.079C367.178 269.46 367.393 269.913 367.49 270.398C367.885 272.382 366.494 274.593 364.357 275.284C362.22 275.975 359.613 274.781 358.548 272.615C358.27 272.068 358.107 271.469 358.071 270.856C358.029 270.217 358.196 269.582 358.548 269.048C358.733 268.777 358.975 268.549 359.256 268.38C359.537 268.211 359.851 268.104 360.177 268.068C360.513 268.05 360.849 268.118 361.151 268.268C361.453 268.418 361.711 268.643 361.9 268.922C362.28 269.459 362.475 270.105 362.458 270.762C362.446 271.398 362.285 272.021 361.988 272.583C361.411 273.671 360.496 274.539 359.381 275.058C358.327 275.555 357.199 275.876 356.041 276.006C354.927 276.167 353.79 276.068 352.72 275.717C351.686 275.37 350.801 274.678 350.213 273.758C349.94 273.32 349.769 272.826 349.712 272.313C349.656 271.8 349.716 271.28 349.887 270.794C350.032 270.328 350.301 269.911 350.664 269.587C351.027 269.263 351.471 269.044 351.949 268.953C352.391 268.886 352.842 268.932 353.261 269.088C353.68 269.244 354.053 269.505 354.343 269.845C354.582 270.176 354.728 270.565 354.766 270.971C354.803 271.378 354.731 271.787 354.556 272.156C354.265 272.807 353.784 273.354 353.177 273.726C352.668 274.052 352.124 274.317 351.554 274.518C351.034 274.719 350.551 274.876 350.113 275.001C349.444 275.197 348.764 275.352 348.076 275.466L347.537 275.547H347.355C347.355 275.547 347.412 275.547 347.531 275.497L348.064 275.39C348.527 275.29 349.217 275.133 350.081 274.863C350.508 274.731 350.984 274.562 351.498 274.361C352.053 274.156 352.583 273.888 353.077 273.563C353.632 273.196 354.068 272.675 354.33 272.062C354.489 271.729 354.554 271.359 354.518 270.992C354.483 270.624 354.349 270.274 354.13 269.977C353.864 269.671 353.525 269.438 353.144 269.3C352.764 269.162 352.355 269.122 351.955 269.186C351.525 269.274 351.127 269.477 350.803 269.773C350.479 270.07 350.24 270.448 350.113 270.869C349.956 271.317 349.902 271.796 349.957 272.268C350.011 272.74 350.172 273.193 350.426 273.594C350.982 274.452 351.81 275.096 352.776 275.422C353.804 275.75 354.892 275.841 355.96 275.686C357.08 275.555 358.172 275.243 359.193 274.762C360.246 274.27 361.11 273.448 361.656 272.42C361.949 271.914 362.098 271.338 362.087 270.753C362.076 270.169 361.905 269.598 361.593 269.104C361.438 268.869 361.224 268.678 360.972 268.551C360.72 268.424 360.44 268.366 360.158 268.382C359.881 268.415 359.614 268.507 359.375 268.652C359.136 268.797 358.931 268.992 358.773 269.224C358.46 269.698 358.312 270.264 358.353 270.831C358.387 271.399 358.534 271.954 358.786 272.464C359.782 274.492 362.233 275.661 364.219 274.976C366.206 274.291 367.522 272.257 367.158 270.436C367.078 269.993 366.884 269.579 366.594 269.236C366.46 269.076 366.296 268.944 366.111 268.848C365.926 268.752 365.724 268.694 365.516 268.677C365.116 268.672 364.724 268.796 364.398 269.029C364.072 269.263 363.829 269.595 363.705 269.977C363.476 270.695 363.535 271.474 363.868 272.15C364.156 272.756 364.586 273.284 365.121 273.689C366.004 274.335 367.038 274.744 368.123 274.876C368.811 274.965 369.504 275.011 370.197 275.014H370.743L371.025 275.114Z" fill="#455A64"/>
<path d="M243.304 152.118L242.678 159.078L243.27 159.077L245.453 152.121L243.304 152.118Z" fill="#A39085"/>
<path d="M269.181 152.182L269.734 159.143L269.144 159.143L267.033 152.178L269.181 152.182Z" fill="#A39085"/>
<path d="M272.388 141.838L239.293 141.752L239.239 152.117L272.334 152.203L272.388 141.838Z" fill="#A39085"/>
<path d="M255.567 146.791L255.55 146.708C255.537 146.647 255.546 146.566 255.543 146.47C255.542 146.243 255.539 145.943 255.53 145.556C255.528 144.752 255.521 143.605 255.51 142.17L255.579 142.24L239.876 142.232L239.982 142.126L239.987 142.153L239.995 142.189L240.009 142.257L240.007 142.408L240.005 142.706L240.001 143.297C239.998 143.692 239.999 144.081 239.996 144.468C239.992 145.24 239.989 145.998 239.983 146.733L239.881 146.628L251.094 146.705L254.399 146.744L255.292 146.76L255.53 146.764L255.612 146.773L255.319 146.787L254.448 146.797L251.168 146.819L239.877 146.837L239.771 146.838L239.775 146.732L239.786 144.468C239.786 144.083 239.789 143.691 239.791 143.297C239.788 143.101 239.789 142.904 239.79 142.702L239.791 142.404L239.794 142.256L239.779 142.184L239.771 142.148L239.766 142.121C239.983 141.909 239.829 142.061 239.878 142.013L255.609 142.1L255.674 142.087L255.688 142.151C255.665 143.605 255.645 144.762 255.633 145.578C255.624 145.957 255.618 146.256 255.612 146.475C255.604 146.581 255.588 146.686 255.567 146.79L255.567 146.791Z" fill="#455A64"/>
<path d="M255.543 151.661C255.543 151.661 255.536 151.629 255.525 151.578L255.518 151.34C255.518 151.113 255.515 150.813 255.51 150.425C255.503 149.622 255.496 148.475 255.49 147.039L255.555 147.11L239.824 147.107L239.932 147.001L239.938 147.028L239.946 147.064L239.96 147.132L239.962 147.282L239.956 147.581C239.955 147.778 239.954 147.979 239.956 148.171L239.947 149.343C239.943 150.115 239.94 150.873 239.934 151.608L239.832 151.503L251.045 151.58L254.35 151.619L255.243 151.635L255.481 151.639L255.563 151.648L255.27 151.662L254.399 151.672L251.119 151.694L239.828 151.712L239.731 151.733L239.721 151.626L239.732 149.362C239.732 148.977 239.735 148.585 239.736 148.191L239.74 147.595L239.741 147.297L239.74 147.15L239.725 147.078L239.717 147.042L239.712 147.018L239.82 146.911L255.551 146.998L255.616 146.984L255.63 147.049C255.607 148.503 255.587 149.66 255.575 150.476C255.566 150.855 255.56 151.154 255.554 151.373C255.556 151.469 255.551 151.565 255.542 151.66L255.543 151.661Z" fill="#455A64"/>
<path d="M271.818 146.83L271.801 146.747C271.788 146.686 271.797 146.605 271.794 146.509C271.793 146.282 271.79 145.982 271.785 145.594C271.779 144.791 271.773 143.649 271.765 142.209L271.83 142.279L256.1 142.277L256.208 142.17L256.214 142.197L256.221 142.233L256.236 142.306L256.238 142.452L256.232 142.751C256.231 142.953 256.234 143.17 256.233 143.346L256.224 144.518C256.218 145.29 256.213 146.044 256.209 146.779L256.107 146.674L267.321 146.751L270.625 146.789L271.519 146.805L271.756 146.81L271.838 146.819C271.741 146.833 271.643 146.838 271.546 146.833L270.674 146.842L267.395 146.865L256.104 146.883L256.002 146.883L255.981 146.782L255.992 144.518C255.992 144.133 255.996 143.741 255.997 143.347L256.001 142.756L256.002 142.453L256 142.306L255.985 142.234L255.978 142.198L255.972 142.171L256.08 142.064L271.811 142.151L271.876 142.137L271.89 142.202C271.867 143.656 271.847 144.813 271.835 145.629C271.826 146.008 271.82 146.307 271.814 146.526C271.823 146.627 271.823 146.73 271.818 146.83Z" fill="#455A64"/>
<path d="M271.813 151.697L271.796 151.613C271.783 151.553 271.792 151.471 271.789 151.376C271.789 151.149 271.785 150.849 271.78 150.461C271.774 149.658 271.768 148.515 271.76 147.075L271.825 147.146L256.095 147.143L256.203 147.037L256.209 147.064L256.216 147.1L256.231 147.172L256.233 147.319L256.231 147.617L256.228 148.213L256.218 149.38L256.207 151.645L256.101 151.54L267.315 151.618L270.623 151.655L271.517 151.671L271.75 151.677L271.832 151.686C271.735 151.7 271.638 151.705 271.54 151.7L270.668 151.709L267.356 151.757L256.069 151.774L255.963 151.775L255.963 151.67L255.973 149.405C255.973 149.02 255.977 148.629 255.978 148.235L255.982 147.643L255.983 147.341L255.981 147.194L255.966 147.122L255.959 147.086L255.953 147.058L256.061 146.952L271.792 147.038L271.86 147.024L271.874 147.089C271.851 148.543 271.831 149.7 271.819 150.516C271.81 150.895 271.804 151.194 271.798 151.413C271.809 151.507 271.812 151.604 271.811 151.699L271.813 151.697Z" fill="#455A64"/>
<path d="M239.854 142.125C239.817 142.174 239.666 142.131 239.512 142.024C239.36 141.918 239.261 141.791 239.293 141.744C239.325 141.695 239.479 141.743 239.636 141.848C239.793 141.954 239.891 142.079 239.854 142.126L239.854 142.125Z" fill="#455A64"/>
<path d="M239.76 151.617C239.798 151.659 239.713 151.812 239.561 151.952C239.408 152.092 239.257 152.174 239.218 152.131C239.18 152.089 239.262 151.937 239.415 151.797C239.567 151.657 239.71 151.569 239.762 151.617L239.76 151.617Z" fill="#455A64"/>
<path d="M272.335 152.192C272.347 152.248 264.916 152.278 255.761 152.255C246.606 152.233 239.189 152.167 239.19 152.104C239.189 152.041 246.608 152.017 255.764 152.041C264.919 152.063 272.323 152.136 272.335 152.192Z" fill="#455A64"/>
<path d="M248.162 149.329C248.126 149.336 248.124 149.144 247.928 149.012C247.838 148.954 247.728 148.935 247.623 148.957C247.603 148.961 247.581 148.967 247.562 148.974C247.42 149.036 247.327 149.173 247.318 149.326C247.317 149.357 247.321 149.388 247.327 149.416C247.353 149.542 247.441 149.647 247.56 149.696C247.634 149.724 247.716 149.731 247.794 149.715C247.842 149.705 247.887 149.686 247.929 149.661C248.13 149.532 248.132 149.343 248.168 149.347C248.202 149.352 248.198 149.39 248.193 149.471C248.181 149.592 248.121 149.706 248.026 149.782C247.956 149.844 247.87 149.887 247.778 149.906C247.685 149.925 247.59 149.919 247.501 149.891C247.309 149.829 247.166 149.669 247.125 149.472C247.066 149.191 247.232 148.91 247.507 148.821C247.528 148.814 247.548 148.808 247.57 148.804C247.736 148.769 247.906 148.812 248.034 148.921C248.114 148.988 248.172 149.082 248.193 149.186C248.196 149.201 248.198 149.218 248.2 149.234C248.194 149.286 248.177 149.327 248.165 149.325L248.162 149.329Z" fill="#455A64"/>
<path d="M248.187 144.46C248.155 144.467 248.149 144.276 247.956 144.143C247.865 144.085 247.755 144.066 247.651 144.087C247.629 144.092 247.608 144.098 247.587 144.107C247.448 144.17 247.356 144.307 247.348 144.458C247.348 144.482 247.351 144.508 247.355 144.531C247.381 144.655 247.466 144.759 247.584 144.808C247.658 144.836 247.74 144.843 247.818 144.827C247.866 144.817 247.911 144.799 247.952 144.773C248.154 144.644 248.156 144.455 248.187 144.46C248.217 144.466 248.222 144.503 248.213 144.584C248.2 144.705 248.141 144.819 248.046 144.895C247.975 144.957 247.889 145 247.798 145.019C247.705 145.038 247.61 145.032 247.521 145.004C247.329 144.942 247.185 144.782 247.144 144.585C247.086 144.304 247.251 144.023 247.527 143.934C247.546 143.927 247.568 143.921 247.59 143.917C247.755 143.882 247.926 143.925 248.053 144.034C248.134 144.104 248.19 144.199 248.212 144.305C248.215 144.319 248.218 144.332 248.22 144.347C248.221 144.414 248.205 144.459 248.188 144.458L248.187 144.46Z" fill="#455A64"/>
<path d="M264.618 149.39C264.586 149.397 264.579 149.206 264.386 149.073C264.296 149.015 264.186 148.996 264.081 149.017C264.059 149.022 264.038 149.028 264.017 149.037C263.874 149.097 263.78 149.235 263.778 149.389C263.776 149.422 263.778 149.455 263.785 149.486C263.811 149.61 263.899 149.714 264.02 149.758C264.094 149.786 264.176 149.793 264.254 149.777C264.302 149.767 264.347 149.749 264.389 149.723C264.586 149.595 264.589 149.405 264.623 149.41C264.658 149.415 264.633 149.458 264.649 149.534C264.633 149.655 264.575 149.766 264.482 149.845C264.41 149.907 264.323 149.949 264.23 149.968C264.138 149.987 264.041 149.983 263.951 149.956C263.763 149.889 263.623 149.732 263.582 149.537C263.524 149.258 263.684 148.98 263.955 148.886C263.977 148.878 263.997 148.873 264.018 148.868C264.184 148.834 264.355 148.877 264.482 148.985C264.564 149.051 264.619 149.143 264.64 149.246C264.644 149.263 264.646 149.28 264.649 149.3C264.646 149.33 264.629 149.388 264.618 149.39Z" fill="#455A64"/>
<path d="M264.64 144.501C264.604 144.509 264.602 144.317 264.406 144.184C264.315 144.127 264.207 144.107 264.101 144.129C264.081 144.133 264.059 144.139 264.039 144.146C263.896 144.205 263.802 144.343 263.801 144.498C263.8 144.525 263.803 144.552 263.808 144.578C263.834 144.7 263.92 144.801 264.038 144.847C264.112 144.875 264.194 144.882 264.272 144.866C264.32 144.856 264.365 144.838 264.407 144.813C264.604 144.684 264.607 144.494 264.641 144.499C264.676 144.504 264.672 144.543 264.667 144.623C264.652 144.745 264.592 144.857 264.496 144.935C264.425 144.997 264.339 145.04 264.247 145.059C264.155 145.078 264.059 145.073 263.97 145.044C263.782 144.978 263.642 144.821 263.602 144.626C263.544 144.347 263.704 144.069 263.975 143.975C263.996 143.967 264.016 143.962 264.038 143.957C264.203 143.923 264.374 143.965 264.501 144.074C264.582 144.142 264.639 144.235 264.661 144.339C264.664 144.355 264.666 144.371 264.668 144.387C264.673 144.457 264.654 144.5 264.641 144.498L264.64 144.501Z" fill="#455A64"/>
<path d="M272.398 141.802C272.41 141.863 272.304 141.964 272.154 142.071C272.003 142.177 271.866 142.252 271.824 142.21C271.782 142.169 271.859 142.015 272.028 141.895C272.197 141.776 272.374 141.753 272.396 141.802L272.398 141.802Z" fill="#455A64"/>
<path d="M272.417 152.191C272.379 152.236 272.212 152.159 272.043 152.018C271.875 151.877 271.771 151.722 271.812 151.676C271.852 151.63 272.018 151.713 272.186 151.854C272.355 151.995 272.455 152.15 272.417 152.191Z" fill="#455A64"/>
<path d="M225.031 132.889C224.948 132.284 224.844 131.676 224.719 131.076C223.834 126.821 221.903 122.84 219.112 119.504C213.781 113.111 208.878 113.399 208.878 113.399C208.878 113.399 214.395 111.312 220.181 118.175C222.4 120.817 223.934 123.971 224.636 127.346C225.014 129.166 225.145 131.034 225.03 132.889L225.031 132.889Z" fill="#455A64"/>
<path d="M223.721 107.879C223.606 107.689 224.094 123.412 224.094 123.412L225.334 134.689C225.334 134.689 226.27 126.346 226.065 122.068C225.86 117.791 224.77 109.608 223.721 107.877L223.721 107.879Z" fill="#455A64"/>
<path d="M229.612 107.896C229.612 107.896 227.216 109.387 226.447 120.905C225.86 129.733 225.465 133.113 225.336 134.217C225.312 134.373 225.311 134.533 225.333 134.691C225.355 134.847 228.23 126.501 229.087 122.075C229.943 117.649 228.764 111.269 229.612 107.898L229.612 107.896Z" fill="#455A64"/>
<path d="M225.871 137.064C225.86 137.352 226.832 133.282 231.918 128.292C236.65 123.648 238.769 123.469 238.769 123.469C238.769 123.469 233.872 124.133 230.592 127.621C227.695 130.698 226.005 134.141 225.871 137.064Z" fill="#455A64"/>
<path d="M225.304 141.634C224.759 139.63 224.153 137.608 222.996 135.881C221.838 134.156 220.047 132.742 217.973 132.51C221.308 134.953 223.743 137.766 225.304 141.634Z" fill="#455A64"/>
<path d="M225.343 133.715C225.343 133.715 224.443 125.916 218.821 123.476C215.69 122.115 211.021 122.967 211.021 122.967C211.021 122.967 216.882 123.711 219.056 125.071C221.23 126.429 225.345 133.716 225.345 133.716L225.343 133.715Z" fill="#455A64"/>
<path d="M225.196 156.476C225.189 156.461 225.186 156.447 225.183 156.431C225.18 156.415 225.178 156.4 225.176 156.384C225.177 156.306 225.174 156.21 225.167 156.097C225.165 155.826 225.161 155.458 225.151 154.99C225.151 154.014 225.146 152.632 225.15 150.93L225.189 137.536C225.192 136.881 225.197 136.235 225.208 135.596L225.214 134.648C225.222 134.486 225.204 134.34 225.227 134.167C225.25 133.994 225.303 133.862 225.334 133.725C225.454 133.126 225.53 132.524 225.654 131.936C225.777 131.35 225.896 130.788 226.008 130.233C226.237 129.121 226.48 128.074 226.655 127.077C226.833 126.081 227.004 125.165 227.164 124.324C227.322 123.483 227.419 122.713 227.531 122.035C227.643 121.358 227.695 120.79 227.779 120.308C227.865 119.826 227.903 119.483 227.945 119.218L227.983 118.934C227.985 118.9 227.993 118.867 228.005 118.836C228.008 118.868 228.009 118.901 228.004 118.933L227.988 119.221C227.969 119.472 227.919 119.843 227.862 120.321C227.805 120.797 227.733 121.382 227.646 122.042C227.559 122.7 227.48 123.492 227.318 124.335C227.155 125.177 227.011 126.107 226.837 127.1C226.663 128.09 226.42 129.146 226.228 130.255C226.112 130.811 225.997 131.379 225.878 131.962C225.759 132.544 225.701 133.138 225.563 133.75C225.536 133.903 225.49 134.067 225.461 134.19C225.432 134.314 225.456 134.494 225.448 134.641C225.446 134.956 225.449 135.269 225.447 135.588C225.445 136.226 225.44 136.872 225.428 137.528C225.387 142.748 225.353 147.478 225.325 150.919C225.304 152.621 225.287 154.003 225.271 154.982C225.261 155.445 225.256 155.822 225.247 156.084L225.236 156.372C225.204 156.446 225.199 156.48 225.194 156.478L225.196 156.476Z" fill="#263238"/>
<path d="M226.517 134.696C226.474 135.036 226.404 135.375 226.304 135.704C226.15 136.322 225.962 137.179 225.798 138.139C225.634 139.099 225.528 139.967 225.466 140.601C225.446 140.945 225.395 141.289 225.316 141.624C225.276 141.279 225.276 140.929 225.316 140.585C225.359 139.757 225.455 138.923 225.593 138.102C225.731 137.279 225.928 136.458 226.167 135.662C226.241 135.326 226.36 135.001 226.517 134.696Z" fill="#263238"/>
<path d="M228.595 159.018C229.796 157.931 229.996 156.092 229.572 154.537C229.147 152.982 228.221 151.633 227.451 150.223L223.059 150.213C222.273 151.633 221.327 152.968 220.891 154.517C220.453 156.066 220.629 157.924 221.823 159L228.597 159.019L228.595 159.018Z" fill="#A39085"/>
<path d="M224.682 114.336C224.695 114.367 224.705 114.399 224.711 114.432C224.718 114.466 224.722 114.499 224.723 114.532C224.754 114.681 224.765 114.871 224.79 115.093C224.837 115.585 224.896 116.294 224.956 117.154C225.081 118.909 225.206 121.338 225.292 124.023C225.378 126.708 225.401 129.136 225.371 130.898C225.36 131.78 225.331 132.491 225.302 132.983C225.289 133.208 225.276 133.407 225.263 133.548C225.262 133.615 225.253 133.681 225.236 133.746C225.235 133.738 225.233 133.729 225.231 133.72C225.219 133.664 225.216 133.606 225.221 133.548C225.218 133.394 225.221 133.204 225.221 132.983C225.221 132.455 225.218 131.751 225.209 130.89C225.202 129.131 225.154 126.712 225.047 124.027C224.94 121.342 224.858 118.916 224.771 117.159C224.733 116.329 224.696 115.604 224.668 115.085C224.659 114.857 224.653 114.669 224.647 114.515C224.654 114.455 224.666 114.394 224.681 114.337L224.682 114.336Z" fill="#263238"/>
<path d="M221.164 120.954C221.265 121.064 221.356 121.186 221.43 121.318C221.589 121.557 221.807 121.915 222.069 122.358C223.389 124.689 224.381 127.209 224.994 129.814C225.099 130.316 225.183 130.722 225.245 131.019C225.251 131.04 225.256 131.063 225.26 131.085C225.286 131.207 225.297 131.334 225.294 131.46C225.262 131.466 225.125 130.85 224.858 129.874C224.171 127.303 223.184 124.808 221.947 122.456C221.455 121.519 221.134 120.974 221.164 120.954Z" fill="#263238"/>
<path d="M218.76 124.034C218.909 124.077 219.052 124.142 219.18 124.228C219.545 124.436 219.898 124.673 220.226 124.932C220.71 125.316 221.178 125.733 221.614 126.173C222.144 126.726 222.606 127.342 222.986 128.004C223.683 129.189 224.309 130.422 224.837 131.691C225.047 132.175 225.203 132.574 225.307 132.85C225.364 132.978 225.408 133.11 225.436 133.246C225.439 133.26 225.442 133.274 225.445 133.287C225.357 133.163 225.285 133.026 225.231 132.884C225.086 132.574 224.911 132.196 224.697 131.738C224.247 130.788 223.622 129.472 222.8 128.097C222.428 127.444 221.976 126.831 221.463 126.279C221.041 125.835 220.589 125.411 220.121 125.016C219.718 124.68 219.374 124.43 219.121 124.264C218.995 124.197 218.873 124.12 218.761 124.034L218.76 124.034Z" fill="#263238"/>
<path d="M276.008 105.145L274.393 105.141L274.254 131.947L275.869 131.952L276.008 105.145Z" fill="#263238"/>
<path d="M274.387 105.397L241.73 105.313L241.594 131.651L274.25 131.736L274.387 105.397Z" fill="white"/>
<path d="M274.875 132.342L240.979 132.256L241.12 104.686L275.016 104.772L274.875 132.342ZM242.225 131.025L273.642 131.107L273.77 106.013L242.354 105.935L242.225 131.025Z" fill="#455A64"/>
<path d="M269.922 108.92L245.809 108.858L245.712 127.507L269.825 127.569L269.922 108.92Z" fill="#A39085"/>
</svg>
